G04 EAGLE Gerber RS-274X export*
G75*
%MOMM*%
%FSLAX34Y34*%
%LPD*%
%INBottom Copper*%
%IPPOS*%
%AMOC8*
5,1,8,0,0,1.08239X$1,22.5*%
G01*
%ADD10C,5.842000*%
%ADD11C,1.524000*%
%ADD12R,8.600000X18.000000*%
%ADD13R,1.524000X1.524000*%
%ADD14R,4.191000X2.667000*%
%ADD15C,1.981200*%
%ADD16P,0.818720X8X22.500000*%
%ADD17C,1.000000*%
%ADD18C,0.700000*%
%ADD19C,2.000000*%
%ADD20C,0.500000*%
%ADD21C,1.300000*%

G36*
X1194669Y5012D02*
X1194669Y5012D01*
X1194720Y5014D01*
X1194752Y5032D01*
X1194788Y5040D01*
X1194827Y5073D01*
X1194872Y5097D01*
X1194893Y5127D01*
X1194921Y5150D01*
X1194942Y5197D01*
X1194972Y5239D01*
X1194980Y5281D01*
X1194992Y5309D01*
X1194991Y5339D01*
X1194999Y5381D01*
X1194999Y602848D01*
X1194988Y602898D01*
X1194986Y602949D01*
X1194968Y602981D01*
X1194960Y603017D01*
X1194927Y603056D01*
X1194903Y603101D01*
X1194873Y603122D01*
X1194850Y603150D01*
X1194803Y603171D01*
X1194761Y603201D01*
X1194719Y603209D01*
X1194691Y603221D01*
X1194661Y603220D01*
X1194619Y603228D01*
X1179607Y603228D01*
X1179607Y618723D01*
X1179596Y618773D01*
X1179594Y618824D01*
X1179576Y618856D01*
X1179568Y618892D01*
X1179535Y618931D01*
X1179511Y618976D01*
X1179481Y618997D01*
X1179457Y619025D01*
X1179411Y619046D01*
X1179369Y619076D01*
X1179327Y619084D01*
X1179299Y619096D01*
X1179269Y619095D01*
X1179227Y619103D01*
X1178845Y619103D01*
X1178845Y619105D01*
X1179227Y619105D01*
X1179277Y619116D01*
X1179328Y619118D01*
X1179360Y619136D01*
X1179396Y619144D01*
X1179435Y619177D01*
X1179480Y619201D01*
X1179501Y619231D01*
X1179529Y619255D01*
X1179550Y619301D01*
X1179580Y619343D01*
X1179588Y619385D01*
X1179600Y619413D01*
X1179599Y619443D01*
X1179607Y619485D01*
X1179607Y634980D01*
X1194619Y634980D01*
X1194669Y634991D01*
X1194720Y634993D01*
X1194752Y635011D01*
X1194788Y635019D01*
X1194827Y635052D01*
X1194872Y635076D01*
X1194893Y635106D01*
X1194921Y635129D01*
X1194942Y635176D01*
X1194972Y635218D01*
X1194980Y635260D01*
X1194992Y635288D01*
X1194991Y635318D01*
X1194999Y635360D01*
X1194999Y672740D01*
X1194988Y672790D01*
X1194986Y672841D01*
X1194968Y672873D01*
X1194960Y672909D01*
X1194927Y672948D01*
X1194903Y672993D01*
X1194873Y673014D01*
X1194850Y673042D01*
X1194803Y673063D01*
X1194761Y673093D01*
X1194719Y673101D01*
X1194691Y673113D01*
X1194661Y673112D01*
X1194619Y673120D01*
X1179607Y673120D01*
X1179607Y688615D01*
X1179596Y688665D01*
X1179594Y688716D01*
X1179576Y688748D01*
X1179568Y688784D01*
X1179535Y688823D01*
X1179511Y688868D01*
X1179481Y688889D01*
X1179457Y688917D01*
X1179411Y688938D01*
X1179369Y688968D01*
X1179327Y688976D01*
X1179299Y688988D01*
X1179269Y688987D01*
X1179227Y688995D01*
X1178845Y688995D01*
X1178845Y688997D01*
X1179227Y688997D01*
X1179277Y689008D01*
X1179328Y689010D01*
X1179360Y689028D01*
X1179396Y689036D01*
X1179435Y689069D01*
X1179480Y689093D01*
X1179501Y689123D01*
X1179529Y689147D01*
X1179550Y689193D01*
X1179580Y689235D01*
X1179588Y689277D01*
X1179600Y689305D01*
X1179599Y689335D01*
X1179607Y689377D01*
X1179607Y704872D01*
X1194619Y704872D01*
X1194669Y704883D01*
X1194720Y704885D01*
X1194752Y704903D01*
X1194788Y704911D01*
X1194827Y704944D01*
X1194872Y704968D01*
X1194893Y704998D01*
X1194921Y705021D01*
X1194942Y705068D01*
X1194972Y705110D01*
X1194980Y705152D01*
X1194992Y705180D01*
X1194991Y705210D01*
X1194999Y705252D01*
X1194999Y844619D01*
X1194988Y844669D01*
X1194986Y844720D01*
X1194968Y844752D01*
X1194960Y844788D01*
X1194927Y844827D01*
X1194903Y844872D01*
X1194873Y844893D01*
X1194850Y844921D01*
X1194803Y844942D01*
X1194761Y844972D01*
X1194719Y844980D01*
X1194691Y844992D01*
X1194661Y844991D01*
X1194619Y844999D01*
X5381Y844999D01*
X5331Y844988D01*
X5280Y844986D01*
X5248Y844968D01*
X5212Y844960D01*
X5173Y844927D01*
X5128Y844903D01*
X5107Y844873D01*
X5079Y844850D01*
X5058Y844803D01*
X5028Y844761D01*
X5020Y844719D01*
X5008Y844691D01*
X5009Y844667D01*
X5008Y844665D01*
X5008Y844657D01*
X5001Y844619D01*
X5001Y616352D01*
X5012Y616302D01*
X5014Y616251D01*
X5032Y616219D01*
X5040Y616183D01*
X5073Y616144D01*
X5097Y616099D01*
X5127Y616078D01*
X5150Y616050D01*
X5197Y616029D01*
X5239Y615999D01*
X5281Y615991D01*
X5309Y615979D01*
X5339Y615980D01*
X5381Y615972D01*
X20393Y615972D01*
X20393Y600477D01*
X20404Y600427D01*
X20406Y600376D01*
X20424Y600344D01*
X20432Y600308D01*
X20465Y600269D01*
X20489Y600224D01*
X20519Y600203D01*
X20542Y600175D01*
X20589Y600154D01*
X20631Y600124D01*
X20673Y600116D01*
X20701Y600104D01*
X20731Y600105D01*
X20773Y600097D01*
X21155Y600097D01*
X21155Y600095D01*
X20773Y600095D01*
X20723Y600084D01*
X20672Y600082D01*
X20640Y600064D01*
X20604Y600056D01*
X20565Y600023D01*
X20520Y599999D01*
X20499Y599969D01*
X20471Y599945D01*
X20450Y599899D01*
X20420Y599857D01*
X20412Y599815D01*
X20400Y599787D01*
X20400Y599784D01*
X20401Y599756D01*
X20393Y599715D01*
X20393Y584220D01*
X5381Y584220D01*
X5331Y584209D01*
X5280Y584207D01*
X5248Y584189D01*
X5212Y584181D01*
X5173Y584148D01*
X5128Y584124D01*
X5107Y584094D01*
X5079Y584071D01*
X5058Y584024D01*
X5028Y583982D01*
X5020Y583940D01*
X5008Y583912D01*
X5009Y583882D01*
X5001Y583840D01*
X5001Y546460D01*
X5012Y546410D01*
X5014Y546359D01*
X5032Y546327D01*
X5040Y546291D01*
X5073Y546252D01*
X5097Y546207D01*
X5127Y546186D01*
X5150Y546158D01*
X5197Y546137D01*
X5239Y546107D01*
X5281Y546099D01*
X5309Y546087D01*
X5339Y546088D01*
X5381Y546080D01*
X20393Y546080D01*
X20393Y530585D01*
X20404Y530535D01*
X20406Y530484D01*
X20424Y530452D01*
X20432Y530416D01*
X20465Y530377D01*
X20489Y530332D01*
X20519Y530311D01*
X20542Y530283D01*
X20589Y530262D01*
X20631Y530232D01*
X20673Y530224D01*
X20701Y530212D01*
X20731Y530213D01*
X20773Y530205D01*
X21155Y530205D01*
X21155Y530203D01*
X20773Y530203D01*
X20723Y530192D01*
X20672Y530190D01*
X20640Y530172D01*
X20604Y530164D01*
X20565Y530131D01*
X20520Y530107D01*
X20499Y530077D01*
X20471Y530053D01*
X20450Y530007D01*
X20420Y529965D01*
X20412Y529923D01*
X20400Y529895D01*
X20401Y529865D01*
X20393Y529823D01*
X20393Y514328D01*
X5381Y514328D01*
X5331Y514317D01*
X5280Y514315D01*
X5248Y514297D01*
X5212Y514289D01*
X5173Y514256D01*
X5128Y514232D01*
X5107Y514202D01*
X5079Y514179D01*
X5058Y514132D01*
X5028Y514090D01*
X5020Y514048D01*
X5008Y514020D01*
X5009Y513990D01*
X5001Y513948D01*
X5001Y409212D01*
X5007Y409187D01*
X5004Y409161D01*
X5026Y409104D01*
X5040Y409043D01*
X5057Y409024D01*
X5066Y408999D01*
X5111Y408957D01*
X5150Y408910D01*
X5174Y408899D01*
X5193Y408882D01*
X5252Y408864D01*
X5309Y408839D01*
X5334Y408840D01*
X5359Y408833D01*
X5420Y408843D01*
X5482Y408845D01*
X5504Y408858D01*
X5530Y408862D01*
X5601Y408910D01*
X5634Y408928D01*
X5640Y408936D01*
X5650Y408943D01*
X7456Y410749D01*
X12095Y412671D01*
X32355Y412671D01*
X36994Y410749D01*
X40081Y407662D01*
X40146Y407622D01*
X40208Y407578D01*
X40220Y407576D01*
X40228Y407571D01*
X40266Y407567D01*
X40350Y407551D01*
X45942Y407551D01*
X48699Y406409D01*
X57159Y397949D01*
X58301Y395192D01*
X58301Y368389D01*
X58318Y368315D01*
X58331Y368241D01*
X58338Y368230D01*
X58340Y368221D01*
X58364Y368192D01*
X58412Y368121D01*
X60146Y366387D01*
X60210Y366347D01*
X60272Y366303D01*
X60284Y366301D01*
X60293Y366296D01*
X60330Y366292D01*
X60414Y366276D01*
X76203Y366276D01*
X76277Y366293D01*
X76351Y366306D01*
X76362Y366313D01*
X76371Y366315D01*
X76400Y366339D01*
X76471Y366387D01*
X77642Y367558D01*
X84918Y367558D01*
X90063Y362413D01*
X90063Y355137D01*
X84918Y349992D01*
X77642Y349992D01*
X76471Y351163D01*
X76407Y351203D01*
X76345Y351247D01*
X76333Y351249D01*
X76324Y351254D01*
X76287Y351258D01*
X76203Y351274D01*
X55658Y351274D01*
X52901Y352416D01*
X44441Y360876D01*
X43299Y363633D01*
X43299Y390436D01*
X43282Y390510D01*
X43269Y390584D01*
X43262Y390595D01*
X43260Y390604D01*
X43236Y390633D01*
X43188Y390704D01*
X41454Y392438D01*
X41390Y392478D01*
X41328Y392522D01*
X41316Y392524D01*
X41307Y392529D01*
X41270Y392533D01*
X41186Y392549D01*
X40350Y392549D01*
X40276Y392532D01*
X40201Y392519D01*
X40191Y392512D01*
X40181Y392510D01*
X40153Y392486D01*
X40081Y392438D01*
X36994Y389351D01*
X33012Y387701D01*
X32991Y387686D01*
X32967Y387679D01*
X32922Y387636D01*
X32871Y387600D01*
X32859Y387578D01*
X32841Y387560D01*
X32819Y387502D01*
X32790Y387447D01*
X32789Y387421D01*
X32780Y387397D01*
X32787Y387336D01*
X32785Y387274D01*
X32796Y387251D01*
X32799Y387225D01*
X32832Y387173D01*
X32857Y387117D01*
X32878Y387100D01*
X32891Y387079D01*
X32963Y387031D01*
X32992Y387008D01*
X33002Y387006D01*
X33012Y386999D01*
X36994Y385349D01*
X40544Y381799D01*
X42466Y377160D01*
X42466Y372140D01*
X40544Y367501D01*
X36994Y363951D01*
X32355Y362029D01*
X12095Y362029D01*
X7456Y363951D01*
X5650Y365757D01*
X5628Y365770D01*
X5612Y365790D01*
X5555Y365816D01*
X5549Y365819D01*
X5533Y365830D01*
X5530Y365831D01*
X5503Y365848D01*
X5477Y365851D01*
X5453Y365861D01*
X5392Y365859D01*
X5330Y365865D01*
X5306Y365856D01*
X5280Y365855D01*
X5226Y365825D01*
X5168Y365803D01*
X5151Y365784D01*
X5128Y365772D01*
X5093Y365721D01*
X5087Y365715D01*
X5079Y365708D01*
X5077Y365704D01*
X5051Y365676D01*
X5043Y365651D01*
X5028Y365630D01*
X5017Y365570D01*
X5008Y365550D01*
X5008Y365533D01*
X5001Y365510D01*
X5003Y365500D01*
X5001Y365488D01*
X5001Y354365D01*
X5020Y354282D01*
X5038Y354200D01*
X5040Y354199D01*
X5040Y354197D01*
X5095Y354131D01*
X5147Y354066D01*
X5149Y354065D01*
X5150Y354063D01*
X5228Y354028D01*
X5304Y353993D01*
X5307Y353993D01*
X5309Y353992D01*
X5393Y353995D01*
X5477Y353997D01*
X5479Y353998D01*
X5482Y353999D01*
X5556Y354039D01*
X5631Y354078D01*
X5632Y354080D01*
X5634Y354081D01*
X5643Y354094D01*
X5720Y354193D01*
X5915Y354575D01*
X6855Y355869D01*
X7986Y357000D01*
X9280Y357940D01*
X10705Y358666D01*
X12226Y359161D01*
X13805Y359411D01*
X21464Y359411D01*
X21464Y349631D01*
X21475Y349581D01*
X21477Y349530D01*
X21495Y349498D01*
X21503Y349462D01*
X21536Y349423D01*
X21560Y349378D01*
X21590Y349357D01*
X21613Y349329D01*
X21660Y349308D01*
X21702Y349279D01*
X21744Y349270D01*
X21772Y349258D01*
X21802Y349259D01*
X21844Y349251D01*
X22226Y349251D01*
X22226Y349249D01*
X21844Y349249D01*
X21794Y349237D01*
X21743Y349236D01*
X21711Y349218D01*
X21675Y349210D01*
X21636Y349177D01*
X21591Y349153D01*
X21570Y349123D01*
X21542Y349099D01*
X21521Y349053D01*
X21491Y349011D01*
X21483Y348969D01*
X21471Y348941D01*
X21472Y348911D01*
X21464Y348869D01*
X21464Y339089D01*
X13805Y339089D01*
X12226Y339339D01*
X10705Y339834D01*
X9280Y340560D01*
X7986Y341500D01*
X6855Y342631D01*
X5915Y343925D01*
X5720Y344307D01*
X5666Y344371D01*
X5612Y344437D01*
X5609Y344438D01*
X5608Y344440D01*
X5531Y344473D01*
X5453Y344508D01*
X5451Y344508D01*
X5449Y344509D01*
X5365Y344505D01*
X5280Y344501D01*
X5278Y344500D01*
X5276Y344500D01*
X5202Y344459D01*
X5128Y344419D01*
X5127Y344417D01*
X5125Y344416D01*
X5076Y344345D01*
X5028Y344277D01*
X5028Y344275D01*
X5027Y344273D01*
X5024Y344256D01*
X5001Y344135D01*
X5001Y5381D01*
X5012Y5331D01*
X5014Y5280D01*
X5032Y5248D01*
X5040Y5212D01*
X5073Y5173D01*
X5097Y5128D01*
X5127Y5107D01*
X5150Y5079D01*
X5197Y5058D01*
X5239Y5028D01*
X5281Y5020D01*
X5309Y5008D01*
X5339Y5009D01*
X5381Y5001D01*
X1194619Y5001D01*
X1194669Y5012D01*
G37*
%LPC*%
G36*
X204231Y13574D02*
X204231Y13574D01*
X193956Y16327D01*
X184743Y21646D01*
X177221Y29168D01*
X171902Y38381D01*
X170631Y43126D01*
X169149Y48656D01*
X169149Y491934D01*
X171433Y497447D01*
X175653Y501667D01*
X181166Y503951D01*
X187134Y503951D01*
X192647Y501667D01*
X196867Y497447D01*
X199151Y491934D01*
X199151Y53975D01*
X199153Y53964D01*
X199152Y53950D01*
X199237Y52642D01*
X199246Y52613D01*
X199249Y52569D01*
X199286Y52431D01*
X199926Y50042D01*
X199944Y50009D01*
X199964Y49951D01*
X201272Y47686D01*
X201298Y47658D01*
X201333Y47607D01*
X203182Y45758D01*
X203214Y45738D01*
X203261Y45697D01*
X205526Y44389D01*
X205562Y44378D01*
X205617Y44351D01*
X208144Y43674D01*
X208175Y43673D01*
X208217Y43662D01*
X209525Y43577D01*
X209536Y43578D01*
X209550Y43576D01*
X733425Y43576D01*
X733436Y43578D01*
X733450Y43577D01*
X734343Y43635D01*
X734373Y43644D01*
X734417Y43647D01*
X736142Y44110D01*
X736176Y44128D01*
X736234Y44148D01*
X737781Y45041D01*
X737809Y45067D01*
X737860Y45101D01*
X739124Y46365D01*
X739144Y46397D01*
X739184Y46444D01*
X740077Y47991D01*
X740088Y48027D01*
X740115Y48083D01*
X740578Y49808D01*
X740579Y49839D01*
X740590Y49882D01*
X740648Y50775D01*
X740647Y50786D01*
X740649Y50800D01*
X740649Y63309D01*
X742933Y68822D01*
X747153Y73042D01*
X752666Y75326D01*
X758634Y75326D01*
X764147Y73042D01*
X768367Y68822D01*
X770651Y63309D01*
X770651Y45899D01*
X768114Y36431D01*
X763213Y27943D01*
X756282Y21012D01*
X747794Y16111D01*
X738326Y13574D01*
X204231Y13574D01*
G37*
%LPD*%
%LPC*%
G36*
X271061Y129699D02*
X271061Y129699D01*
X267385Y131222D01*
X255047Y143560D01*
X253524Y147236D01*
X253524Y338539D01*
X255047Y342215D01*
X257860Y345028D01*
X261536Y346551D01*
X265514Y346551D01*
X269190Y345028D01*
X272003Y342215D01*
X273526Y338539D01*
X273526Y153525D01*
X273543Y153451D01*
X273556Y153376D01*
X273563Y153366D01*
X273565Y153356D01*
X273589Y153327D01*
X273637Y153256D01*
X277081Y149812D01*
X277146Y149772D01*
X277208Y149728D01*
X277220Y149726D01*
X277228Y149721D01*
X277265Y149717D01*
X277350Y149701D01*
X999000Y149701D01*
X999074Y149718D01*
X999149Y149731D01*
X999159Y149738D01*
X999169Y149740D01*
X999198Y149764D01*
X999269Y149812D01*
X1002713Y153256D01*
X1002753Y153321D01*
X1002797Y153383D01*
X1002799Y153395D01*
X1002804Y153403D01*
X1002808Y153440D01*
X1002824Y153525D01*
X1002824Y173439D01*
X1004347Y177115D01*
X1007160Y179928D01*
X1010836Y181451D01*
X1014814Y181451D01*
X1018490Y179928D01*
X1021303Y177115D01*
X1022826Y173439D01*
X1022826Y147236D01*
X1021303Y143560D01*
X1008965Y131222D01*
X1005289Y129699D01*
X271061Y129699D01*
G37*
%LPD*%
%LPC*%
G36*
X115187Y248849D02*
X115187Y248849D01*
X110960Y250600D01*
X107725Y253835D01*
X105974Y258062D01*
X105974Y605538D01*
X107725Y609765D01*
X126835Y628875D01*
X131062Y630626D01*
X418213Y630626D01*
X422440Y628875D01*
X442802Y608512D01*
X442867Y608472D01*
X442929Y608428D01*
X442941Y608426D01*
X442950Y608421D01*
X442987Y608417D01*
X443071Y608401D01*
X465838Y608401D01*
X470065Y606650D01*
X473300Y603415D01*
X475051Y599188D01*
X475051Y594612D01*
X473300Y590385D01*
X470065Y587150D01*
X465838Y585399D01*
X435862Y585399D01*
X431635Y587150D01*
X411273Y607513D01*
X411208Y607553D01*
X411146Y607597D01*
X411134Y607599D01*
X411125Y607604D01*
X411088Y607608D01*
X411004Y607624D01*
X138271Y607624D01*
X138197Y607607D01*
X138123Y607594D01*
X138112Y607587D01*
X138103Y607585D01*
X138074Y607561D01*
X138002Y607513D01*
X129087Y598598D01*
X129047Y598533D01*
X129003Y598471D01*
X129001Y598459D01*
X128996Y598450D01*
X128992Y598413D01*
X128976Y598329D01*
X128976Y258062D01*
X127225Y253835D01*
X123990Y250600D01*
X119763Y248849D01*
X115187Y248849D01*
G37*
%LPD*%
%LPC*%
G36*
X227810Y658029D02*
X227810Y658029D01*
X227164Y658202D01*
X226585Y658537D01*
X226112Y659010D01*
X225777Y659589D01*
X225604Y660235D01*
X225604Y749809D01*
X240352Y749809D01*
X240389Y749818D01*
X240428Y749816D01*
X240472Y749837D01*
X240520Y749848D01*
X240550Y749873D01*
X240585Y749889D01*
X240616Y749927D01*
X240654Y749958D01*
X240670Y749994D01*
X240694Y750024D01*
X240705Y750072D01*
X240725Y750117D01*
X240723Y750155D01*
X240732Y750193D01*
X240720Y750252D01*
X240718Y750290D01*
X240708Y750308D01*
X240703Y750335D01*
X240387Y751096D01*
X240350Y751148D01*
X240320Y751204D01*
X240300Y751218D01*
X240286Y751237D01*
X240230Y751267D01*
X240178Y751304D01*
X240152Y751309D01*
X240133Y751319D01*
X240096Y751320D01*
X240036Y751331D01*
X225604Y751331D01*
X225604Y840905D01*
X225777Y841551D01*
X226112Y842130D01*
X226585Y842603D01*
X227164Y842938D01*
X227810Y843111D01*
X270384Y843111D01*
X270384Y785441D01*
X270398Y785379D01*
X270405Y785316D01*
X270418Y785296D01*
X270423Y785272D01*
X270464Y785223D01*
X270498Y785169D01*
X270520Y785155D01*
X270533Y785138D01*
X270568Y785123D01*
X270619Y785090D01*
X271380Y784774D01*
X271418Y784768D01*
X271453Y784752D01*
X271503Y784754D01*
X271551Y784746D01*
X271588Y784757D01*
X271627Y784759D01*
X271670Y784782D01*
X271717Y784797D01*
X271745Y784823D01*
X271779Y784841D01*
X271807Y784882D01*
X271843Y784915D01*
X271856Y784952D01*
X271879Y784983D01*
X271890Y785043D01*
X271903Y785078D01*
X271901Y785099D01*
X271906Y785125D01*
X271906Y843111D01*
X314480Y843111D01*
X315126Y842938D01*
X315705Y842603D01*
X316178Y842130D01*
X316513Y841551D01*
X316686Y840905D01*
X316686Y751331D01*
X286614Y751331D01*
X286552Y751317D01*
X286489Y751310D01*
X286469Y751297D01*
X286445Y751292D01*
X286396Y751251D01*
X286343Y751217D01*
X286328Y751195D01*
X286312Y751181D01*
X286296Y751147D01*
X286263Y751096D01*
X285947Y750335D01*
X285941Y750297D01*
X285925Y750262D01*
X285927Y750212D01*
X285919Y750164D01*
X285930Y750127D01*
X285932Y750088D01*
X285955Y750045D01*
X285970Y749998D01*
X285996Y749970D01*
X286014Y749936D01*
X286055Y749908D01*
X286089Y749872D01*
X286125Y749859D01*
X286156Y749836D01*
X286216Y749825D01*
X286251Y749812D01*
X286272Y749814D01*
X286298Y749809D01*
X316686Y749809D01*
X316686Y660235D01*
X316513Y659589D01*
X316178Y659010D01*
X315705Y658537D01*
X315126Y658202D01*
X314480Y658029D01*
X271906Y658029D01*
X271906Y736975D01*
X271897Y737012D01*
X271899Y737051D01*
X271878Y737095D01*
X271867Y737143D01*
X271842Y737173D01*
X271826Y737208D01*
X271788Y737239D01*
X271756Y737277D01*
X271721Y737293D01*
X271691Y737317D01*
X271643Y737328D01*
X271598Y737348D01*
X271560Y737347D01*
X271522Y737355D01*
X271463Y737343D01*
X271425Y737341D01*
X271407Y737331D01*
X271380Y737326D01*
X270619Y737010D01*
X270567Y736973D01*
X270511Y736943D01*
X270497Y736924D01*
X270478Y736909D01*
X270448Y736853D01*
X270411Y736801D01*
X270406Y736775D01*
X270396Y736756D01*
X270395Y736719D01*
X270384Y736659D01*
X270384Y658029D01*
X227810Y658029D01*
G37*
%LPD*%
%LPC*%
G36*
X812010Y658029D02*
X812010Y658029D01*
X811364Y658202D01*
X810785Y658537D01*
X810312Y659010D01*
X809977Y659589D01*
X809804Y660235D01*
X809804Y749809D01*
X840352Y749809D01*
X840389Y749818D01*
X840428Y749816D01*
X840472Y749837D01*
X840520Y749848D01*
X840550Y749873D01*
X840585Y749889D01*
X840616Y749927D01*
X840654Y749958D01*
X840670Y749994D01*
X840694Y750024D01*
X840705Y750072D01*
X840725Y750117D01*
X840723Y750155D01*
X840732Y750193D01*
X840720Y750252D01*
X840718Y750290D01*
X840708Y750308D01*
X840703Y750335D01*
X840387Y751096D01*
X840350Y751148D01*
X840320Y751204D01*
X840300Y751218D01*
X840286Y751237D01*
X840230Y751267D01*
X840178Y751304D01*
X840152Y751309D01*
X840133Y751319D01*
X840096Y751320D01*
X840036Y751331D01*
X809804Y751331D01*
X809804Y840905D01*
X809977Y841551D01*
X810312Y842130D01*
X810785Y842603D01*
X811364Y842938D01*
X812010Y843111D01*
X854584Y843111D01*
X854584Y785059D01*
X854593Y785021D01*
X854591Y784983D01*
X854612Y784938D01*
X854623Y784890D01*
X854648Y784861D01*
X854664Y784826D01*
X854702Y784795D01*
X854733Y784757D01*
X854769Y784741D01*
X854798Y784717D01*
X854847Y784706D01*
X854892Y784686D01*
X854930Y784687D01*
X854968Y784679D01*
X855027Y784691D01*
X855065Y784692D01*
X855083Y784702D01*
X855110Y784708D01*
X855871Y785023D01*
X855923Y785060D01*
X855979Y785091D01*
X855993Y785110D01*
X856012Y785124D01*
X856042Y785180D01*
X856079Y785232D01*
X856084Y785259D01*
X856094Y785277D01*
X856095Y785315D01*
X856106Y785375D01*
X856106Y843111D01*
X898680Y843111D01*
X899326Y842938D01*
X899905Y842603D01*
X900378Y842130D01*
X900713Y841551D01*
X900886Y840905D01*
X900886Y751331D01*
X886614Y751331D01*
X886552Y751317D01*
X886489Y751310D01*
X886469Y751297D01*
X886445Y751292D01*
X886396Y751251D01*
X886343Y751217D01*
X886328Y751195D01*
X886312Y751181D01*
X886296Y751147D01*
X886263Y751096D01*
X885947Y750335D01*
X885941Y750297D01*
X885925Y750262D01*
X885927Y750212D01*
X885919Y750164D01*
X885930Y750127D01*
X885932Y750088D01*
X885955Y750045D01*
X885970Y749998D01*
X885996Y749970D01*
X886014Y749936D01*
X886055Y749908D01*
X886089Y749872D01*
X886125Y749859D01*
X886156Y749836D01*
X886216Y749825D01*
X886251Y749812D01*
X886272Y749814D01*
X886298Y749809D01*
X900886Y749809D01*
X900886Y660235D01*
X900713Y659589D01*
X900378Y659010D01*
X899905Y658537D01*
X899326Y658202D01*
X898680Y658029D01*
X856106Y658029D01*
X856106Y736725D01*
X856092Y736787D01*
X856085Y736850D01*
X856072Y736871D01*
X856067Y736894D01*
X856026Y736943D01*
X855992Y736997D01*
X855970Y737012D01*
X855956Y737028D01*
X855922Y737043D01*
X855871Y737077D01*
X855110Y737392D01*
X855072Y737399D01*
X855037Y737414D01*
X854987Y737412D01*
X854939Y737420D01*
X854902Y737409D01*
X854863Y737408D01*
X854820Y737384D01*
X854773Y737370D01*
X854745Y737343D01*
X854711Y737325D01*
X854683Y737285D01*
X854647Y737251D01*
X854634Y737215D01*
X854611Y737183D01*
X854600Y737124D01*
X854587Y737088D01*
X854589Y737068D01*
X854584Y737041D01*
X854584Y658029D01*
X812010Y658029D01*
G37*
%LPD*%
%LPC*%
G36*
X822516Y13574D02*
X822516Y13574D01*
X817003Y15858D01*
X812783Y20078D01*
X810499Y25591D01*
X810499Y31559D01*
X812783Y37072D01*
X817003Y41292D01*
X822516Y43576D01*
X1054100Y43576D01*
X1054111Y43578D01*
X1054125Y43577D01*
X1055433Y43662D01*
X1055462Y43671D01*
X1055506Y43674D01*
X1058033Y44351D01*
X1058066Y44369D01*
X1058124Y44389D01*
X1060389Y45697D01*
X1060417Y45723D01*
X1060468Y45758D01*
X1062317Y47607D01*
X1062337Y47639D01*
X1062378Y47686D01*
X1063686Y49951D01*
X1063697Y49987D01*
X1063724Y50042D01*
X1064401Y52569D01*
X1064402Y52600D01*
X1064413Y52642D01*
X1064498Y53950D01*
X1064497Y53961D01*
X1064499Y53975D01*
X1064499Y128977D01*
X1067166Y138929D01*
X1072318Y147852D01*
X1079603Y155137D01*
X1088526Y160289D01*
X1098478Y162956D01*
X1139634Y162956D01*
X1145147Y160672D01*
X1149367Y156452D01*
X1151651Y150939D01*
X1151651Y144971D01*
X1149367Y139458D01*
X1145147Y135238D01*
X1139634Y132954D01*
X1103630Y132954D01*
X1103619Y132952D01*
X1103605Y132953D01*
X1102463Y132879D01*
X1102433Y132870D01*
X1102390Y132866D01*
X1100184Y132275D01*
X1100150Y132257D01*
X1100092Y132237D01*
X1098114Y131095D01*
X1098086Y131069D01*
X1098035Y131035D01*
X1096420Y129420D01*
X1096400Y129388D01*
X1096360Y129341D01*
X1095218Y127363D01*
X1095207Y127327D01*
X1095180Y127272D01*
X1094589Y125065D01*
X1094588Y125034D01*
X1094576Y124992D01*
X1094502Y123850D01*
X1094503Y123839D01*
X1094501Y123825D01*
X1094501Y48656D01*
X1091748Y38381D01*
X1086429Y29168D01*
X1078907Y21646D01*
X1069694Y16327D01*
X1059419Y13574D01*
X822516Y13574D01*
G37*
%LPD*%
%LPC*%
G36*
X768266Y289719D02*
X768266Y289719D01*
X764590Y291242D01*
X750347Y305485D01*
X748824Y309161D01*
X748824Y436964D01*
X750347Y440640D01*
X753160Y443453D01*
X756836Y444976D01*
X760814Y444976D01*
X764490Y443453D01*
X767303Y440640D01*
X768826Y436964D01*
X768826Y315450D01*
X768843Y315376D01*
X768856Y315301D01*
X768863Y315291D01*
X768865Y315281D01*
X768889Y315252D01*
X768937Y315181D01*
X774286Y309832D01*
X774351Y309792D01*
X774413Y309748D01*
X774425Y309746D01*
X774433Y309741D01*
X774470Y309737D01*
X774555Y309721D01*
X1087839Y309721D01*
X1091391Y308250D01*
X1091393Y308249D01*
X1091394Y308248D01*
X1091536Y308221D01*
X1178293Y308221D01*
X1178367Y308238D01*
X1178441Y308251D01*
X1178452Y308258D01*
X1178461Y308260D01*
X1178490Y308284D01*
X1178561Y308332D01*
X1178732Y308503D01*
X1186008Y308503D01*
X1191153Y303358D01*
X1191153Y296082D01*
X1186008Y290937D01*
X1178732Y290937D01*
X1178561Y291108D01*
X1178497Y291148D01*
X1178435Y291192D01*
X1178423Y291194D01*
X1178414Y291199D01*
X1178377Y291203D01*
X1178293Y291219D01*
X1091536Y291219D01*
X1091534Y291219D01*
X1091533Y291219D01*
X1091391Y291190D01*
X1087839Y289719D01*
X768266Y289719D01*
G37*
%LPD*%
%LPC*%
G36*
X220261Y342424D02*
X220261Y342424D01*
X216585Y343947D01*
X213772Y346760D01*
X212249Y350436D01*
X212249Y414739D01*
X213772Y418415D01*
X222935Y427578D01*
X226611Y429101D01*
X313200Y429101D01*
X313274Y429118D01*
X313349Y429131D01*
X313359Y429138D01*
X313369Y429140D01*
X313398Y429164D01*
X313469Y429212D01*
X313738Y429481D01*
X313749Y429499D01*
X313761Y429509D01*
X313777Y429544D01*
X313778Y429546D01*
X313822Y429608D01*
X313824Y429620D01*
X313829Y429628D01*
X313833Y429665D01*
X313849Y429750D01*
X313849Y570314D01*
X315372Y573990D01*
X318185Y576803D01*
X321861Y578326D01*
X325839Y578326D01*
X329515Y576803D01*
X332328Y573990D01*
X333851Y570314D01*
X333851Y423461D01*
X332328Y419785D01*
X323165Y410622D01*
X319489Y409099D01*
X232900Y409099D01*
X232826Y409082D01*
X232751Y409069D01*
X232741Y409062D01*
X232731Y409060D01*
X232702Y409036D01*
X232631Y408988D01*
X232362Y408719D01*
X232343Y408689D01*
X232329Y408677D01*
X232313Y408641D01*
X232278Y408592D01*
X232276Y408580D01*
X232271Y408572D01*
X232268Y408541D01*
X232258Y408518D01*
X232259Y408491D01*
X232251Y408450D01*
X232251Y350436D01*
X230728Y346760D01*
X227915Y343947D01*
X224239Y342424D01*
X220261Y342424D01*
G37*
%LPD*%
%LPC*%
G36*
X1152062Y362692D02*
X1152062Y362692D01*
X1146917Y367837D01*
X1146917Y375113D01*
X1147088Y375284D01*
X1147128Y375348D01*
X1147172Y375410D01*
X1147174Y375422D01*
X1147179Y375431D01*
X1147183Y375468D01*
X1147199Y375552D01*
X1147199Y390021D01*
X1147182Y390095D01*
X1147169Y390170D01*
X1147162Y390180D01*
X1147160Y390190D01*
X1147136Y390219D01*
X1147088Y390290D01*
X1101490Y435888D01*
X1101426Y435928D01*
X1101364Y435972D01*
X1101352Y435974D01*
X1101343Y435979D01*
X1101306Y435983D01*
X1101221Y435999D01*
X1018807Y435999D01*
X1018733Y435982D01*
X1018659Y435969D01*
X1018648Y435962D01*
X1018639Y435960D01*
X1018610Y435936D01*
X1018538Y435888D01*
X1018368Y435717D01*
X1011092Y435717D01*
X1005947Y440862D01*
X1005947Y448138D01*
X1011092Y453283D01*
X1018368Y453283D01*
X1018538Y453112D01*
X1018603Y453072D01*
X1018665Y453028D01*
X1018677Y453026D01*
X1018686Y453021D01*
X1018723Y453017D01*
X1018807Y453001D01*
X1106591Y453001D01*
X1109715Y451707D01*
X1162907Y398515D01*
X1164201Y395391D01*
X1164201Y375552D01*
X1164218Y375478D01*
X1164231Y375404D01*
X1164238Y375393D01*
X1164240Y375384D01*
X1164264Y375355D01*
X1164312Y375284D01*
X1164483Y375113D01*
X1164483Y367837D01*
X1159338Y362692D01*
X1152062Y362692D01*
G37*
%LPD*%
%LPC*%
G36*
X771062Y151237D02*
X771062Y151237D01*
X765917Y156382D01*
X765917Y163658D01*
X771062Y168803D01*
X778338Y168803D01*
X779509Y167632D01*
X779573Y167592D01*
X779635Y167548D01*
X779647Y167546D01*
X779656Y167541D01*
X779693Y167537D01*
X779777Y167521D01*
X855256Y167521D01*
X855330Y167538D01*
X855404Y167551D01*
X855415Y167558D01*
X855424Y167560D01*
X855453Y167584D01*
X855524Y167632D01*
X859163Y171271D01*
X859190Y171315D01*
X859196Y171320D01*
X859204Y171336D01*
X859247Y171397D01*
X859249Y171409D01*
X859254Y171418D01*
X859258Y171455D01*
X859258Y171458D01*
X859267Y171478D01*
X859266Y171499D01*
X859274Y171539D01*
X859274Y248923D01*
X859257Y248997D01*
X859244Y249071D01*
X859237Y249082D01*
X859235Y249091D01*
X859211Y249120D01*
X859163Y249191D01*
X857992Y250362D01*
X857992Y257638D01*
X863137Y262783D01*
X870413Y262783D01*
X875558Y257638D01*
X875558Y250362D01*
X874387Y249191D01*
X874347Y249127D01*
X874303Y249065D01*
X874301Y249053D01*
X874296Y249044D01*
X874292Y249007D01*
X874276Y248923D01*
X874276Y166783D01*
X873134Y164026D01*
X870970Y161863D01*
X864932Y155825D01*
X862769Y153661D01*
X860012Y152519D01*
X779777Y152519D01*
X779703Y152502D01*
X779629Y152489D01*
X779618Y152482D01*
X779609Y152480D01*
X779580Y152456D01*
X779509Y152408D01*
X778338Y151237D01*
X771062Y151237D01*
G37*
%LPD*%
%LPC*%
G36*
X50629Y185372D02*
X50629Y185372D01*
X45150Y187642D01*
X40957Y191835D01*
X38687Y197314D01*
X38687Y203244D01*
X40957Y208723D01*
X45150Y212916D01*
X50629Y215186D01*
X76371Y215186D01*
X81850Y212916D01*
X86043Y208723D01*
X88313Y203244D01*
X88313Y197314D01*
X86043Y191835D01*
X81850Y187642D01*
X76371Y185372D01*
X50629Y185372D01*
G37*
%LPD*%
%LPC*%
G36*
X634956Y70437D02*
X634956Y70437D01*
X629477Y72707D01*
X625284Y76900D01*
X623014Y82379D01*
X623014Y108121D01*
X625284Y113600D01*
X629477Y117793D01*
X634956Y120063D01*
X640886Y120063D01*
X646365Y117793D01*
X650558Y113600D01*
X652828Y108121D01*
X652828Y82379D01*
X650558Y76900D01*
X646365Y72707D01*
X640886Y70437D01*
X634956Y70437D01*
G37*
%LPD*%
%LPC*%
G36*
X479259Y625554D02*
X479259Y625554D01*
X476329Y628484D01*
X476329Y647866D01*
X479259Y650796D01*
X498641Y650796D01*
X501381Y648056D01*
X501424Y648029D01*
X501462Y647994D01*
X501497Y647984D01*
X501528Y647965D01*
X501579Y647960D01*
X501628Y647945D01*
X501664Y647952D01*
X501701Y647948D01*
X501749Y647966D01*
X501799Y647975D01*
X501834Y647999D01*
X501863Y648010D01*
X501884Y648032D01*
X501919Y648056D01*
X504659Y650796D01*
X524041Y650796D01*
X526971Y647866D01*
X526971Y628484D01*
X524041Y625554D01*
X504659Y625554D01*
X501919Y628294D01*
X501876Y628321D01*
X501838Y628356D01*
X501803Y628366D01*
X501772Y628385D01*
X501721Y628390D01*
X501672Y628405D01*
X501636Y628398D01*
X501599Y628402D01*
X501552Y628384D01*
X501501Y628375D01*
X501466Y628351D01*
X501437Y628340D01*
X501416Y628318D01*
X501381Y628294D01*
X498641Y625554D01*
X479259Y625554D01*
G37*
%LPD*%
%LPC*%
G36*
X1151920Y479504D02*
X1151920Y479504D01*
X1147281Y481426D01*
X1143731Y484976D01*
X1141809Y489615D01*
X1141809Y494635D01*
X1143731Y499274D01*
X1147281Y502824D01*
X1151920Y504746D01*
X1172180Y504746D01*
X1176819Y502824D01*
X1180369Y499274D01*
X1182291Y494635D01*
X1182291Y489615D01*
X1180369Y484976D01*
X1176819Y481426D01*
X1172180Y479504D01*
X1151920Y479504D01*
G37*
%LPD*%
%LPC*%
G36*
X1151920Y187404D02*
X1151920Y187404D01*
X1147281Y189326D01*
X1143731Y192876D01*
X1141809Y197515D01*
X1141809Y202535D01*
X1143731Y207174D01*
X1147281Y210724D01*
X1151920Y212646D01*
X1172180Y212646D01*
X1176819Y210724D01*
X1180369Y207174D01*
X1182291Y202535D01*
X1182291Y197515D01*
X1180369Y192876D01*
X1176819Y189326D01*
X1172180Y187404D01*
X1151920Y187404D01*
G37*
%LPD*%
%LPC*%
G36*
X132745Y635079D02*
X132745Y635079D01*
X128106Y637001D01*
X124556Y640551D01*
X122634Y645190D01*
X122634Y650210D01*
X124556Y654849D01*
X128106Y658399D01*
X132745Y660321D01*
X153005Y660321D01*
X157644Y658399D01*
X161194Y654849D01*
X163116Y650210D01*
X163116Y645190D01*
X161194Y640551D01*
X157644Y637001D01*
X153005Y635079D01*
X132745Y635079D01*
G37*
%LPD*%
%LPC*%
G36*
X805845Y200104D02*
X805845Y200104D01*
X801206Y202026D01*
X797656Y205576D01*
X795734Y210215D01*
X795734Y215235D01*
X797656Y219874D01*
X801206Y223424D01*
X805845Y225346D01*
X826105Y225346D01*
X830744Y223424D01*
X834294Y219874D01*
X836216Y215235D01*
X836216Y210215D01*
X834294Y205576D01*
X830744Y202026D01*
X826105Y200104D01*
X805845Y200104D01*
G37*
%LPD*%
%LPC*%
G36*
X481995Y374729D02*
X481995Y374729D01*
X477356Y376651D01*
X473806Y380201D01*
X471884Y384840D01*
X471884Y389860D01*
X473806Y394499D01*
X477356Y398049D01*
X481995Y399971D01*
X502255Y399971D01*
X506894Y398049D01*
X510444Y394499D01*
X512366Y389860D01*
X512366Y384840D01*
X510444Y380201D01*
X506894Y376651D01*
X502255Y374729D01*
X481995Y374729D01*
G37*
%LPD*%
%LPC*%
G36*
X975390Y703659D02*
X975390Y703659D01*
X970751Y705581D01*
X967201Y709131D01*
X965279Y713770D01*
X965279Y734030D01*
X967201Y738669D01*
X970751Y742219D01*
X975390Y744141D01*
X980410Y744141D01*
X985049Y742219D01*
X988599Y738669D01*
X990521Y734030D01*
X990521Y713770D01*
X988599Y709131D01*
X985049Y705581D01*
X980410Y703659D01*
X975390Y703659D01*
G37*
%LPD*%
%LPC*%
G36*
X504220Y552529D02*
X504220Y552529D01*
X499581Y554451D01*
X496031Y558001D01*
X494109Y562640D01*
X494109Y567660D01*
X496031Y572299D01*
X499581Y575849D01*
X504220Y577771D01*
X524480Y577771D01*
X529119Y575849D01*
X532669Y572299D01*
X534591Y567660D01*
X534591Y562640D01*
X532669Y558001D01*
X529119Y554451D01*
X524480Y552529D01*
X504220Y552529D01*
G37*
%LPD*%
%LPC*%
G36*
X1150761Y800761D02*
X1150761Y800761D01*
X1150761Y831751D01*
X1151560Y831751D01*
X1154664Y831445D01*
X1157724Y830836D01*
X1160709Y829931D01*
X1163592Y828737D01*
X1166343Y827266D01*
X1168937Y825533D01*
X1171348Y823554D01*
X1173554Y821348D01*
X1175533Y818937D01*
X1177266Y816343D01*
X1178737Y813592D01*
X1179931Y810709D01*
X1180836Y807724D01*
X1181445Y804664D01*
X1181751Y801560D01*
X1181751Y800761D01*
X1150761Y800761D01*
G37*
%LPD*%
%LPC*%
G36*
X50761Y800761D02*
X50761Y800761D01*
X50761Y831751D01*
X51560Y831751D01*
X54664Y831445D01*
X57724Y830836D01*
X60709Y829931D01*
X63592Y828737D01*
X66343Y827266D01*
X68937Y825533D01*
X71348Y823554D01*
X73554Y821348D01*
X75533Y818937D01*
X77266Y816343D01*
X78737Y813592D01*
X79931Y810709D01*
X80836Y807724D01*
X81445Y804664D01*
X81751Y801560D01*
X81751Y800761D01*
X50761Y800761D01*
G37*
%LPD*%
%LPC*%
G36*
X50761Y50761D02*
X50761Y50761D01*
X50761Y81751D01*
X51560Y81751D01*
X54664Y81445D01*
X57724Y80836D01*
X60709Y79931D01*
X63592Y78737D01*
X66343Y77266D01*
X68937Y75533D01*
X71348Y73554D01*
X73554Y71348D01*
X75533Y68937D01*
X77266Y66343D01*
X78737Y63592D01*
X79931Y60709D01*
X80836Y57724D01*
X81445Y54664D01*
X81751Y51560D01*
X81751Y50761D01*
X50761Y50761D01*
G37*
%LPD*%
%LPC*%
G36*
X1150761Y50761D02*
X1150761Y50761D01*
X1150761Y81751D01*
X1151560Y81751D01*
X1154664Y81445D01*
X1157724Y80836D01*
X1160709Y79931D01*
X1163592Y78737D01*
X1166343Y77266D01*
X1168937Y75533D01*
X1171348Y73554D01*
X1173554Y71348D01*
X1175533Y68937D01*
X1177266Y66343D01*
X1178737Y63592D01*
X1179931Y60709D01*
X1180836Y57724D01*
X1181445Y54664D01*
X1181751Y51560D01*
X1181751Y50761D01*
X1150761Y50761D01*
G37*
%LPD*%
%LPC*%
G36*
X50761Y18249D02*
X50761Y18249D01*
X50761Y49239D01*
X81751Y49239D01*
X81751Y48440D01*
X81445Y45336D01*
X81378Y45000D01*
X81378Y44999D01*
X81151Y43859D01*
X81000Y43098D01*
X80849Y42338D01*
X80836Y42276D01*
X79931Y39291D01*
X78737Y36408D01*
X77266Y33657D01*
X75533Y31063D01*
X73554Y28652D01*
X71348Y26446D01*
X68937Y24467D01*
X66343Y22734D01*
X63592Y21263D01*
X60709Y20069D01*
X57724Y19164D01*
X54664Y18555D01*
X51560Y18249D01*
X50761Y18249D01*
G37*
%LPD*%
%LPC*%
G36*
X1150761Y18249D02*
X1150761Y18249D01*
X1150761Y49239D01*
X1181751Y49239D01*
X1181751Y48440D01*
X1181445Y45336D01*
X1181378Y45000D01*
X1181378Y44999D01*
X1181151Y43859D01*
X1181000Y43098D01*
X1180849Y42338D01*
X1180836Y42276D01*
X1179931Y39291D01*
X1178737Y36408D01*
X1177266Y33657D01*
X1175533Y31063D01*
X1173554Y28652D01*
X1171348Y26446D01*
X1168937Y24467D01*
X1166343Y22734D01*
X1163592Y21263D01*
X1160709Y20069D01*
X1157724Y19164D01*
X1154664Y18555D01*
X1151560Y18249D01*
X1150761Y18249D01*
G37*
%LPD*%
%LPC*%
G36*
X1118249Y50761D02*
X1118249Y50761D01*
X1118249Y51560D01*
X1118555Y54664D01*
X1118570Y54741D01*
X1118797Y55882D01*
X1118948Y56642D01*
X1119100Y57403D01*
X1119164Y57724D01*
X1120069Y60709D01*
X1121263Y63592D01*
X1122734Y66343D01*
X1124467Y68937D01*
X1126446Y71348D01*
X1128652Y73554D01*
X1131063Y75533D01*
X1133657Y77266D01*
X1136408Y78737D01*
X1139291Y79931D01*
X1142276Y80836D01*
X1145336Y81445D01*
X1148440Y81751D01*
X1149239Y81751D01*
X1149239Y50761D01*
X1118249Y50761D01*
G37*
%LPD*%
%LPC*%
G36*
X18249Y50761D02*
X18249Y50761D01*
X18249Y51560D01*
X18555Y54664D01*
X18570Y54741D01*
X18797Y55882D01*
X18948Y56642D01*
X19100Y57403D01*
X19164Y57724D01*
X20069Y60709D01*
X21263Y63592D01*
X22734Y66343D01*
X24467Y68937D01*
X26446Y71348D01*
X28652Y73554D01*
X31063Y75533D01*
X33657Y77266D01*
X36408Y78737D01*
X39291Y79931D01*
X42276Y80836D01*
X45336Y81445D01*
X48440Y81751D01*
X49239Y81751D01*
X49239Y50761D01*
X18249Y50761D01*
G37*
%LPD*%
%LPC*%
G36*
X18249Y800761D02*
X18249Y800761D01*
X18249Y801560D01*
X18555Y804664D01*
X18692Y805354D01*
X18692Y805355D01*
X18844Y806115D01*
X18919Y806495D01*
X19070Y807256D01*
X19071Y807256D01*
X19164Y807724D01*
X20069Y810709D01*
X21263Y813592D01*
X22734Y816343D01*
X24467Y818937D01*
X26446Y821348D01*
X28652Y823554D01*
X31063Y825533D01*
X33657Y827266D01*
X36408Y828737D01*
X39291Y829931D01*
X42276Y830836D01*
X45336Y831445D01*
X48440Y831751D01*
X49239Y831751D01*
X49239Y800761D01*
X18249Y800761D01*
G37*
%LPD*%
%LPC*%
G36*
X1118249Y800761D02*
X1118249Y800761D01*
X1118249Y801560D01*
X1118555Y804664D01*
X1118692Y805354D01*
X1118692Y805355D01*
X1118844Y806115D01*
X1118919Y806495D01*
X1119070Y807256D01*
X1119071Y807256D01*
X1119164Y807724D01*
X1120069Y810709D01*
X1121263Y813592D01*
X1122734Y816343D01*
X1124467Y818937D01*
X1126446Y821348D01*
X1128652Y823554D01*
X1131063Y825533D01*
X1133657Y827266D01*
X1136408Y828737D01*
X1139291Y829931D01*
X1142276Y830836D01*
X1145336Y831445D01*
X1148440Y831751D01*
X1149239Y831751D01*
X1149239Y800761D01*
X1118249Y800761D01*
G37*
%LPD*%
%LPC*%
G36*
X50761Y768249D02*
X50761Y768249D01*
X50761Y799239D01*
X81751Y799239D01*
X81751Y798440D01*
X81445Y795336D01*
X81425Y795233D01*
X81424Y795233D01*
X81273Y794472D01*
X81122Y793712D01*
X81046Y793332D01*
X81046Y793331D01*
X80895Y792571D01*
X80836Y792276D01*
X79931Y789291D01*
X78737Y786408D01*
X77266Y783657D01*
X75533Y781063D01*
X73554Y778652D01*
X71348Y776446D01*
X68937Y774467D01*
X66343Y772734D01*
X63592Y771263D01*
X60709Y770069D01*
X57724Y769164D01*
X54664Y768555D01*
X51560Y768249D01*
X50761Y768249D01*
G37*
%LPD*%
%LPC*%
G36*
X1150761Y768249D02*
X1150761Y768249D01*
X1150761Y799239D01*
X1181751Y799239D01*
X1181751Y798440D01*
X1181445Y795336D01*
X1181425Y795233D01*
X1181424Y795233D01*
X1181273Y794472D01*
X1181122Y793712D01*
X1181046Y793332D01*
X1181046Y793331D01*
X1180895Y792571D01*
X1180836Y792276D01*
X1179931Y789291D01*
X1178737Y786408D01*
X1177266Y783657D01*
X1175533Y781063D01*
X1173554Y778652D01*
X1171348Y776446D01*
X1168937Y774467D01*
X1166343Y772734D01*
X1163592Y771263D01*
X1160709Y770069D01*
X1157724Y769164D01*
X1154664Y768555D01*
X1151560Y768249D01*
X1150761Y768249D01*
G37*
%LPD*%
%LPC*%
G36*
X48440Y768249D02*
X48440Y768249D01*
X45336Y768555D01*
X42276Y769164D01*
X39291Y770069D01*
X36408Y771263D01*
X33657Y772734D01*
X31063Y774467D01*
X28652Y776446D01*
X26446Y778652D01*
X24467Y781063D01*
X22734Y783657D01*
X21263Y786408D01*
X20069Y789291D01*
X19164Y792276D01*
X18555Y795336D01*
X18249Y798440D01*
X18249Y799239D01*
X49239Y799239D01*
X49239Y768249D01*
X48440Y768249D01*
G37*
%LPD*%
%LPC*%
G36*
X1148440Y768249D02*
X1148440Y768249D01*
X1145336Y768555D01*
X1142276Y769164D01*
X1139291Y770069D01*
X1136408Y771263D01*
X1133657Y772734D01*
X1131063Y774467D01*
X1128652Y776446D01*
X1126446Y778652D01*
X1124467Y781063D01*
X1122734Y783657D01*
X1121263Y786408D01*
X1120069Y789291D01*
X1119164Y792276D01*
X1118555Y795336D01*
X1118249Y798440D01*
X1118249Y799239D01*
X1149239Y799239D01*
X1149239Y768249D01*
X1148440Y768249D01*
G37*
%LPD*%
%LPC*%
G36*
X1148440Y18249D02*
X1148440Y18249D01*
X1145336Y18555D01*
X1142276Y19164D01*
X1139291Y20069D01*
X1136408Y21263D01*
X1133657Y22734D01*
X1131063Y24467D01*
X1128652Y26446D01*
X1126446Y28652D01*
X1124467Y31063D01*
X1122734Y33657D01*
X1121263Y36408D01*
X1120069Y39291D01*
X1119164Y42276D01*
X1118555Y45336D01*
X1118249Y48440D01*
X1118249Y49239D01*
X1149239Y49239D01*
X1149239Y18249D01*
X1148440Y18249D01*
G37*
%LPD*%
%LPC*%
G36*
X48440Y18249D02*
X48440Y18249D01*
X45336Y18555D01*
X42276Y19164D01*
X39291Y20069D01*
X36408Y21263D01*
X33657Y22734D01*
X31063Y24467D01*
X28652Y26446D01*
X26446Y28652D01*
X24467Y31063D01*
X22734Y33657D01*
X21263Y36408D01*
X20069Y39291D01*
X19164Y42276D01*
X18555Y45336D01*
X18249Y48440D01*
X18249Y49239D01*
X49239Y49239D01*
X49239Y18249D01*
X48440Y18249D01*
G37*
%LPD*%
%LPC*%
G36*
X21915Y600857D02*
X21915Y600857D01*
X21915Y615972D01*
X42444Y615972D01*
X43090Y615799D01*
X43669Y615464D01*
X44142Y614991D01*
X44477Y614412D01*
X44650Y613766D01*
X44650Y600857D01*
X21915Y600857D01*
G37*
%LPD*%
%LPC*%
G36*
X21915Y530965D02*
X21915Y530965D01*
X21915Y546080D01*
X42444Y546080D01*
X43090Y545907D01*
X43669Y545572D01*
X44142Y545099D01*
X44477Y544520D01*
X44650Y543874D01*
X44650Y530965D01*
X21915Y530965D01*
G37*
%LPD*%
%LPC*%
G36*
X1155350Y619865D02*
X1155350Y619865D01*
X1155350Y632774D01*
X1155523Y633420D01*
X1155858Y633999D01*
X1156331Y634472D01*
X1156910Y634807D01*
X1157556Y634980D01*
X1178085Y634980D01*
X1178085Y619865D01*
X1155350Y619865D01*
G37*
%LPD*%
%LPC*%
G36*
X1155350Y689757D02*
X1155350Y689757D01*
X1155350Y702666D01*
X1155523Y703312D01*
X1155858Y703891D01*
X1156331Y704364D01*
X1156910Y704699D01*
X1157556Y704872D01*
X1178085Y704872D01*
X1178085Y689757D01*
X1155350Y689757D01*
G37*
%LPD*%
%LPC*%
G36*
X21915Y584220D02*
X21915Y584220D01*
X21915Y599335D01*
X44650Y599335D01*
X44650Y586426D01*
X44477Y585780D01*
X44142Y585201D01*
X43669Y584728D01*
X43090Y584393D01*
X42444Y584220D01*
X21915Y584220D01*
G37*
%LPD*%
%LPC*%
G36*
X21915Y514328D02*
X21915Y514328D01*
X21915Y529443D01*
X44650Y529443D01*
X44650Y516534D01*
X44477Y515888D01*
X44142Y515309D01*
X43669Y514836D01*
X43090Y514501D01*
X42444Y514328D01*
X21915Y514328D01*
G37*
%LPD*%
%LPC*%
G36*
X1157556Y673120D02*
X1157556Y673120D01*
X1156910Y673293D01*
X1156331Y673628D01*
X1155858Y674101D01*
X1155523Y674680D01*
X1155350Y675326D01*
X1155350Y688235D01*
X1178085Y688235D01*
X1178085Y673120D01*
X1157556Y673120D01*
G37*
%LPD*%
%LPC*%
G36*
X1157556Y603228D02*
X1157556Y603228D01*
X1156910Y603401D01*
X1156331Y603736D01*
X1155858Y604209D01*
X1155523Y604788D01*
X1155350Y605434D01*
X1155350Y618343D01*
X1178085Y618343D01*
X1178085Y603228D01*
X1157556Y603228D01*
G37*
%LPD*%
%LPC*%
G36*
X64261Y251078D02*
X64261Y251078D01*
X64261Y262764D01*
X74386Y262764D01*
X76321Y262457D01*
X78184Y261852D01*
X79930Y260962D01*
X81515Y259811D01*
X82900Y258426D01*
X84051Y256841D01*
X84941Y255095D01*
X85546Y253232D01*
X85853Y251297D01*
X85853Y251078D01*
X64261Y251078D01*
G37*
%LPD*%
%LPC*%
G36*
X588644Y96011D02*
X588644Y96011D01*
X588644Y117603D01*
X588863Y117603D01*
X590798Y117296D01*
X592661Y116691D01*
X594407Y115801D01*
X595992Y114650D01*
X597377Y113265D01*
X598528Y111680D01*
X599418Y109934D01*
X600023Y108071D01*
X600330Y106136D01*
X600330Y96011D01*
X588644Y96011D01*
G37*
%LPD*%
%LPC*%
G36*
X588644Y72897D02*
X588644Y72897D01*
X588644Y94489D01*
X600330Y94489D01*
X600330Y84364D01*
X600023Y82429D01*
X599418Y80566D01*
X598528Y78820D01*
X597377Y77235D01*
X595992Y75850D01*
X594407Y74699D01*
X592661Y73809D01*
X590798Y73204D01*
X588863Y72897D01*
X588644Y72897D01*
G37*
%LPD*%
%LPC*%
G36*
X41147Y251078D02*
X41147Y251078D01*
X41147Y251297D01*
X41454Y253232D01*
X42059Y255095D01*
X42949Y256841D01*
X44100Y258426D01*
X45485Y259811D01*
X47070Y260962D01*
X48816Y261852D01*
X50679Y262457D01*
X52614Y262764D01*
X62739Y262764D01*
X62739Y251078D01*
X41147Y251078D01*
G37*
%LPD*%
%LPC*%
G36*
X64261Y237870D02*
X64261Y237870D01*
X64261Y249556D01*
X85853Y249556D01*
X85853Y249337D01*
X85546Y247402D01*
X84941Y245539D01*
X84051Y243793D01*
X82900Y242208D01*
X81515Y240823D01*
X79930Y239672D01*
X78184Y238782D01*
X76321Y238177D01*
X74386Y237870D01*
X64261Y237870D01*
G37*
%LPD*%
%LPC*%
G36*
X575436Y96011D02*
X575436Y96011D01*
X575436Y106136D01*
X575743Y108071D01*
X576348Y109934D01*
X577238Y111680D01*
X578389Y113265D01*
X579774Y114650D01*
X581359Y115801D01*
X583105Y116691D01*
X584968Y117296D01*
X586903Y117603D01*
X587122Y117603D01*
X587122Y96011D01*
X575436Y96011D01*
G37*
%LPD*%
%LPC*%
G36*
X586903Y72897D02*
X586903Y72897D01*
X584968Y73204D01*
X583105Y73809D01*
X581359Y74699D01*
X579774Y75850D01*
X578389Y77235D01*
X577238Y78820D01*
X576348Y80566D01*
X575743Y82429D01*
X575436Y84364D01*
X575436Y94489D01*
X587122Y94489D01*
X587122Y72897D01*
X586903Y72897D01*
G37*
%LPD*%
%LPC*%
G36*
X52614Y237870D02*
X52614Y237870D01*
X50679Y238177D01*
X48816Y238782D01*
X47070Y239672D01*
X45485Y240823D01*
X44100Y242208D01*
X42949Y243793D01*
X42059Y245539D01*
X41454Y247402D01*
X41147Y249337D01*
X41147Y249556D01*
X62739Y249556D01*
X62739Y237870D01*
X52614Y237870D01*
G37*
%LPD*%
%LPC*%
G36*
X1162811Y226186D02*
X1162811Y226186D01*
X1162811Y235586D01*
X1170470Y235586D01*
X1172049Y235336D01*
X1173570Y234841D01*
X1174995Y234115D01*
X1176289Y233175D01*
X1177420Y232044D01*
X1178360Y230750D01*
X1179086Y229325D01*
X1179581Y227804D01*
X1179831Y226225D01*
X1179831Y226186D01*
X1162811Y226186D01*
G37*
%LPD*%
%LPC*%
G36*
X953261Y724661D02*
X953261Y724661D01*
X953261Y741681D01*
X953300Y741681D01*
X954879Y741431D01*
X956400Y740936D01*
X957825Y740210D01*
X959119Y739270D01*
X960250Y738139D01*
X961190Y736845D01*
X961916Y735420D01*
X962411Y733899D01*
X962661Y732320D01*
X962661Y724661D01*
X953261Y724661D01*
G37*
%LPD*%
%LPC*%
G36*
X143636Y673861D02*
X143636Y673861D01*
X143636Y683261D01*
X151295Y683261D01*
X152874Y683011D01*
X154395Y682516D01*
X155820Y681790D01*
X157114Y680850D01*
X158245Y679719D01*
X159185Y678425D01*
X159911Y677000D01*
X160406Y675479D01*
X160656Y673900D01*
X160656Y673861D01*
X143636Y673861D01*
G37*
%LPD*%
%LPC*%
G36*
X515111Y540511D02*
X515111Y540511D01*
X515111Y549911D01*
X522770Y549911D01*
X524349Y549661D01*
X525870Y549166D01*
X527295Y548440D01*
X528589Y547500D01*
X529720Y546369D01*
X530660Y545075D01*
X531386Y543650D01*
X531881Y542129D01*
X532131Y540550D01*
X532131Y540511D01*
X515111Y540511D01*
G37*
%LPD*%
%LPC*%
G36*
X1162811Y518286D02*
X1162811Y518286D01*
X1162811Y527686D01*
X1170470Y527686D01*
X1172049Y527436D01*
X1173570Y526941D01*
X1174995Y526215D01*
X1176289Y525275D01*
X1177420Y524144D01*
X1178360Y522850D01*
X1179086Y521425D01*
X1179581Y519904D01*
X1179831Y518325D01*
X1179831Y518286D01*
X1162811Y518286D01*
G37*
%LPD*%
%LPC*%
G36*
X22986Y350011D02*
X22986Y350011D01*
X22986Y359411D01*
X30645Y359411D01*
X32224Y359161D01*
X33745Y358666D01*
X35170Y357940D01*
X36464Y357000D01*
X37595Y355869D01*
X38535Y354575D01*
X39261Y353150D01*
X39756Y351629D01*
X40006Y350050D01*
X40006Y350011D01*
X22986Y350011D01*
G37*
%LPD*%
%LPC*%
G36*
X492886Y413511D02*
X492886Y413511D01*
X492886Y422911D01*
X500545Y422911D01*
X502124Y422661D01*
X503645Y422166D01*
X505070Y421440D01*
X506364Y420500D01*
X507495Y419369D01*
X508435Y418075D01*
X509161Y416650D01*
X509656Y415129D01*
X509906Y413550D01*
X509906Y413511D01*
X492886Y413511D01*
G37*
%LPD*%
%LPC*%
G36*
X816736Y238886D02*
X816736Y238886D01*
X816736Y248286D01*
X824395Y248286D01*
X825974Y248036D01*
X827495Y247541D01*
X828920Y246815D01*
X830214Y245875D01*
X831345Y244744D01*
X832285Y243450D01*
X833011Y242025D01*
X833506Y240504D01*
X833756Y238925D01*
X833756Y238886D01*
X816736Y238886D01*
G37*
%LPD*%
%LPC*%
G36*
X496569Y540511D02*
X496569Y540511D01*
X496569Y540550D01*
X496819Y542129D01*
X497314Y543650D01*
X498040Y545075D01*
X498980Y546369D01*
X500111Y547500D01*
X501405Y548440D01*
X502830Y549166D01*
X504351Y549661D01*
X505930Y549911D01*
X513589Y549911D01*
X513589Y540511D01*
X496569Y540511D01*
G37*
%LPD*%
%LPC*%
G36*
X1144269Y226186D02*
X1144269Y226186D01*
X1144269Y226225D01*
X1144519Y227804D01*
X1145014Y229325D01*
X1145740Y230750D01*
X1146680Y232044D01*
X1147811Y233175D01*
X1149105Y234115D01*
X1150530Y234841D01*
X1152051Y235336D01*
X1153630Y235586D01*
X1161289Y235586D01*
X1161289Y226186D01*
X1144269Y226186D01*
G37*
%LPD*%
%LPC*%
G36*
X798194Y238886D02*
X798194Y238886D01*
X798194Y238925D01*
X798444Y240504D01*
X798939Y242025D01*
X799665Y243450D01*
X800605Y244744D01*
X801736Y245875D01*
X803030Y246815D01*
X804455Y247541D01*
X805976Y248036D01*
X807555Y248286D01*
X815214Y248286D01*
X815214Y238886D01*
X798194Y238886D01*
G37*
%LPD*%
%LPC*%
G36*
X125094Y673861D02*
X125094Y673861D01*
X125094Y673900D01*
X125344Y675479D01*
X125839Y677000D01*
X126565Y678425D01*
X127505Y679719D01*
X128636Y680850D01*
X129930Y681790D01*
X131355Y682516D01*
X132876Y683011D01*
X134455Y683261D01*
X142114Y683261D01*
X142114Y673861D01*
X125094Y673861D01*
G37*
%LPD*%
%LPC*%
G36*
X953261Y706119D02*
X953261Y706119D01*
X953261Y723139D01*
X962661Y723139D01*
X962661Y715480D01*
X962411Y713901D01*
X961916Y712380D01*
X961190Y710955D01*
X960250Y709661D01*
X959119Y708530D01*
X957825Y707590D01*
X956400Y706864D01*
X954879Y706369D01*
X953300Y706119D01*
X953261Y706119D01*
G37*
%LPD*%
%LPC*%
G36*
X1144269Y518286D02*
X1144269Y518286D01*
X1144269Y518325D01*
X1144519Y519904D01*
X1145014Y521425D01*
X1145740Y522850D01*
X1146680Y524144D01*
X1147811Y525275D01*
X1149105Y526215D01*
X1150530Y526941D01*
X1152051Y527436D01*
X1153630Y527686D01*
X1161289Y527686D01*
X1161289Y518286D01*
X1144269Y518286D01*
G37*
%LPD*%
%LPC*%
G36*
X474344Y413511D02*
X474344Y413511D01*
X474344Y413550D01*
X474594Y415129D01*
X475089Y416650D01*
X475815Y418075D01*
X476755Y419369D01*
X477886Y420500D01*
X479180Y421440D01*
X480605Y422166D01*
X482126Y422661D01*
X483705Y422911D01*
X491364Y422911D01*
X491364Y413511D01*
X474344Y413511D01*
G37*
%LPD*%
%LPC*%
G36*
X942339Y724661D02*
X942339Y724661D01*
X942339Y732320D01*
X942589Y733899D01*
X943084Y735420D01*
X943810Y736845D01*
X944750Y738139D01*
X945881Y739270D01*
X947175Y740210D01*
X948600Y740936D01*
X950121Y741431D01*
X951700Y741681D01*
X951739Y741681D01*
X951739Y724661D01*
X942339Y724661D01*
G37*
%LPD*%
%LPC*%
G36*
X1162811Y507364D02*
X1162811Y507364D01*
X1162811Y516764D01*
X1179831Y516764D01*
X1179831Y516725D01*
X1179581Y515146D01*
X1179086Y513625D01*
X1178360Y512200D01*
X1177420Y510906D01*
X1176289Y509775D01*
X1174995Y508835D01*
X1173570Y508109D01*
X1172049Y507614D01*
X1170470Y507364D01*
X1162811Y507364D01*
G37*
%LPD*%
%LPC*%
G36*
X22986Y339089D02*
X22986Y339089D01*
X22986Y348489D01*
X40006Y348489D01*
X40006Y348450D01*
X39756Y346871D01*
X39261Y345350D01*
X38535Y343925D01*
X37595Y342631D01*
X36464Y341500D01*
X35170Y340560D01*
X33745Y339834D01*
X32224Y339339D01*
X30645Y339089D01*
X22986Y339089D01*
G37*
%LPD*%
%LPC*%
G36*
X1162811Y215264D02*
X1162811Y215264D01*
X1162811Y224664D01*
X1179831Y224664D01*
X1179831Y224625D01*
X1179581Y223046D01*
X1179086Y221525D01*
X1178360Y220100D01*
X1177420Y218806D01*
X1176289Y217675D01*
X1174995Y216735D01*
X1173570Y216009D01*
X1172049Y215514D01*
X1170470Y215264D01*
X1162811Y215264D01*
G37*
%LPD*%
%LPC*%
G36*
X143636Y662939D02*
X143636Y662939D01*
X143636Y672339D01*
X160656Y672339D01*
X160656Y672300D01*
X160406Y670721D01*
X159911Y669200D01*
X159185Y667775D01*
X158245Y666481D01*
X157114Y665350D01*
X155820Y664410D01*
X154395Y663684D01*
X152874Y663189D01*
X151295Y662939D01*
X143636Y662939D01*
G37*
%LPD*%
%LPC*%
G36*
X816736Y227964D02*
X816736Y227964D01*
X816736Y237364D01*
X833756Y237364D01*
X833756Y237325D01*
X833506Y235746D01*
X833011Y234225D01*
X832285Y232800D01*
X831345Y231506D01*
X830214Y230375D01*
X828920Y229435D01*
X827495Y228709D01*
X825974Y228214D01*
X824395Y227964D01*
X816736Y227964D01*
G37*
%LPD*%
%LPC*%
G36*
X515111Y529589D02*
X515111Y529589D01*
X515111Y538989D01*
X532131Y538989D01*
X532131Y538950D01*
X531881Y537371D01*
X531386Y535850D01*
X530660Y534425D01*
X529720Y533131D01*
X528589Y532000D01*
X527295Y531060D01*
X525870Y530334D01*
X524349Y529839D01*
X522770Y529589D01*
X515111Y529589D01*
G37*
%LPD*%
%LPC*%
G36*
X492886Y402589D02*
X492886Y402589D01*
X492886Y411989D01*
X509906Y411989D01*
X509906Y411950D01*
X509656Y410371D01*
X509161Y408850D01*
X508435Y407425D01*
X507495Y406131D01*
X506364Y405000D01*
X505070Y404060D01*
X503645Y403334D01*
X502124Y402839D01*
X500545Y402589D01*
X492886Y402589D01*
G37*
%LPD*%
%LPC*%
G36*
X1153630Y215264D02*
X1153630Y215264D01*
X1152051Y215514D01*
X1150530Y216009D01*
X1149105Y216735D01*
X1147811Y217675D01*
X1146680Y218806D01*
X1145740Y220100D01*
X1145014Y221525D01*
X1144519Y223046D01*
X1144269Y224625D01*
X1144269Y224664D01*
X1161289Y224664D01*
X1161289Y215264D01*
X1153630Y215264D01*
G37*
%LPD*%
%LPC*%
G36*
X134455Y662939D02*
X134455Y662939D01*
X132876Y663189D01*
X131355Y663684D01*
X129930Y664410D01*
X128636Y665350D01*
X127505Y666481D01*
X126565Y667775D01*
X125839Y669200D01*
X125344Y670721D01*
X125094Y672300D01*
X125094Y672339D01*
X142114Y672339D01*
X142114Y662939D01*
X134455Y662939D01*
G37*
%LPD*%
%LPC*%
G36*
X807555Y227964D02*
X807555Y227964D01*
X805976Y228214D01*
X804455Y228709D01*
X803030Y229435D01*
X801736Y230375D01*
X800605Y231506D01*
X799665Y232800D01*
X798939Y234225D01*
X798444Y235746D01*
X798194Y237325D01*
X798194Y237364D01*
X815214Y237364D01*
X815214Y227964D01*
X807555Y227964D01*
G37*
%LPD*%
%LPC*%
G36*
X505930Y529589D02*
X505930Y529589D01*
X504351Y529839D01*
X502830Y530334D01*
X501405Y531060D01*
X500111Y532000D01*
X498980Y533131D01*
X498040Y534425D01*
X497314Y535850D01*
X496819Y537371D01*
X496569Y538950D01*
X496569Y538989D01*
X513589Y538989D01*
X513589Y529589D01*
X505930Y529589D01*
G37*
%LPD*%
%LPC*%
G36*
X1153630Y507364D02*
X1153630Y507364D01*
X1152051Y507614D01*
X1150530Y508109D01*
X1149105Y508835D01*
X1147811Y509775D01*
X1146680Y510906D01*
X1145740Y512200D01*
X1145014Y513625D01*
X1144519Y515146D01*
X1144269Y516725D01*
X1144269Y516764D01*
X1161289Y516764D01*
X1161289Y507364D01*
X1153630Y507364D01*
G37*
%LPD*%
%LPC*%
G36*
X483705Y402589D02*
X483705Y402589D01*
X482126Y402839D01*
X480605Y403334D01*
X479180Y404060D01*
X477886Y405000D01*
X476755Y406131D01*
X475815Y407425D01*
X475089Y408850D01*
X474594Y410371D01*
X474344Y411950D01*
X474344Y411989D01*
X491364Y411989D01*
X491364Y402589D01*
X483705Y402589D01*
G37*
%LPD*%
%LPC*%
G36*
X951700Y706119D02*
X951700Y706119D01*
X950121Y706369D01*
X948600Y706864D01*
X947175Y707590D01*
X945881Y708530D01*
X944750Y709661D01*
X943810Y710955D01*
X943084Y712380D01*
X942589Y713901D01*
X942339Y715480D01*
X942339Y723139D01*
X951739Y723139D01*
X951739Y706119D01*
X951700Y706119D01*
G37*
%LPD*%
%LPC*%
G36*
X540511Y638936D02*
X540511Y638936D01*
X540511Y648336D01*
X547705Y648336D01*
X548351Y648163D01*
X548930Y647828D01*
X549403Y647355D01*
X549738Y646776D01*
X549911Y646130D01*
X549911Y638936D01*
X540511Y638936D01*
G37*
%LPD*%
%LPC*%
G36*
X540511Y628014D02*
X540511Y628014D01*
X540511Y637414D01*
X549911Y637414D01*
X549911Y630220D01*
X549738Y629574D01*
X549403Y628995D01*
X548930Y628522D01*
X548351Y628187D01*
X547705Y628014D01*
X540511Y628014D01*
G37*
%LPD*%
%LPC*%
G36*
X529589Y638936D02*
X529589Y638936D01*
X529589Y646130D01*
X529762Y646776D01*
X530097Y647355D01*
X530570Y647828D01*
X531149Y648163D01*
X531795Y648336D01*
X538989Y648336D01*
X538989Y638936D01*
X529589Y638936D01*
G37*
%LPD*%
%LPC*%
G36*
X531795Y628014D02*
X531795Y628014D01*
X531149Y628187D01*
X530570Y628522D01*
X530097Y628995D01*
X529762Y629574D01*
X529589Y630220D01*
X529589Y637414D01*
X538989Y637414D01*
X538989Y628014D01*
X531795Y628014D01*
G37*
%LPD*%
%LPC*%
G36*
X815974Y238124D02*
X815974Y238124D01*
X815974Y238126D01*
X815976Y238126D01*
X815976Y238124D01*
X815974Y238124D01*
G37*
%LPD*%
%LPC*%
G36*
X1162049Y225424D02*
X1162049Y225424D01*
X1162049Y225426D01*
X1162051Y225426D01*
X1162051Y225424D01*
X1162049Y225424D01*
G37*
%LPD*%
%LPC*%
G36*
X49999Y799999D02*
X49999Y799999D01*
X49999Y800001D01*
X50001Y800001D01*
X50001Y799999D01*
X49999Y799999D01*
G37*
%LPD*%
%LPC*%
G36*
X1149999Y799999D02*
X1149999Y799999D01*
X1149999Y800001D01*
X1150001Y800001D01*
X1150001Y799999D01*
X1149999Y799999D01*
G37*
%LPD*%
%LPC*%
G36*
X514349Y539749D02*
X514349Y539749D01*
X514349Y539751D01*
X514351Y539751D01*
X514351Y539749D01*
X514349Y539749D01*
G37*
%LPD*%
%LPC*%
G36*
X142874Y673099D02*
X142874Y673099D01*
X142874Y673101D01*
X142876Y673101D01*
X142876Y673099D01*
X142874Y673099D01*
G37*
%LPD*%
%LPC*%
G36*
X539749Y638174D02*
X539749Y638174D01*
X539749Y638176D01*
X539751Y638176D01*
X539751Y638174D01*
X539749Y638174D01*
G37*
%LPD*%
%LPC*%
G36*
X63499Y250316D02*
X63499Y250316D01*
X63499Y250318D01*
X63501Y250318D01*
X63501Y250316D01*
X63499Y250316D01*
G37*
%LPD*%
%LPC*%
G36*
X1149999Y49999D02*
X1149999Y49999D01*
X1149999Y50001D01*
X1150001Y50001D01*
X1150001Y49999D01*
X1149999Y49999D01*
G37*
%LPD*%
%LPC*%
G36*
X49999Y49999D02*
X49999Y49999D01*
X49999Y50001D01*
X50001Y50001D01*
X50001Y49999D01*
X49999Y49999D01*
G37*
%LPD*%
%LPC*%
G36*
X492124Y412749D02*
X492124Y412749D01*
X492124Y412751D01*
X492126Y412751D01*
X492126Y412749D01*
X492124Y412749D01*
G37*
%LPD*%
%LPC*%
G36*
X1162049Y517524D02*
X1162049Y517524D01*
X1162049Y517526D01*
X1162051Y517526D01*
X1162051Y517524D01*
X1162049Y517524D01*
G37*
%LPD*%
%LPC*%
G36*
X952499Y723899D02*
X952499Y723899D01*
X952499Y723901D01*
X952501Y723901D01*
X952501Y723899D01*
X952499Y723899D01*
G37*
%LPD*%
%LPC*%
G36*
X587882Y95249D02*
X587882Y95249D01*
X587882Y95251D01*
X587884Y95251D01*
X587884Y95249D01*
X587882Y95249D01*
G37*
%LPD*%
D10*
X1150000Y50000D03*
D11*
X150495Y647700D02*
X135255Y647700D01*
X135255Y673100D02*
X150495Y673100D01*
X808355Y212725D02*
X823595Y212725D01*
X823595Y238125D02*
X808355Y238125D01*
X499745Y387350D02*
X484505Y387350D01*
X484505Y412750D02*
X499745Y412750D01*
X506730Y565150D02*
X521970Y565150D01*
X521970Y539750D02*
X506730Y539750D01*
X1154430Y492125D02*
X1169670Y492125D01*
X1169670Y517525D02*
X1154430Y517525D01*
X29845Y400050D02*
X14605Y400050D01*
X14605Y374650D02*
X29845Y374650D01*
X29845Y349250D02*
X14605Y349250D01*
X977900Y716280D02*
X977900Y731520D01*
X952500Y731520D02*
X952500Y716280D01*
D12*
X271145Y750570D03*
X855345Y750570D03*
D13*
X539750Y638175D03*
X514350Y638175D03*
X488950Y638175D03*
D14*
X21154Y530204D03*
X21154Y600096D03*
D15*
X637921Y105156D02*
X637921Y85344D01*
X587883Y85344D02*
X587883Y105156D01*
X73406Y200279D02*
X53594Y200279D01*
X53594Y250317D02*
X73406Y250317D01*
D14*
X1178846Y688996D03*
X1178846Y619104D03*
D10*
X50000Y50000D03*
X50000Y800000D03*
X1150000Y800000D03*
D11*
X1154430Y200025D02*
X1169670Y200025D01*
X1169670Y225425D02*
X1154430Y225425D01*
D16*
X1187450Y577850D03*
X1187450Y552450D03*
X1139825Y561975D03*
X1117600Y561975D03*
X1117600Y542925D03*
X1117600Y523875D03*
X1117600Y504825D03*
X1117600Y485775D03*
X1117600Y463550D03*
X1104900Y593725D03*
X1127125Y593725D03*
X1149350Y593725D03*
X1187450Y593725D03*
X1168400Y593725D03*
X1192530Y625475D03*
X1160780Y625475D03*
X1176655Y625475D03*
X1160780Y682625D03*
X1176655Y682625D03*
X1192530Y682625D03*
X958850Y647700D03*
X917575Y631825D03*
X933450Y612775D03*
X917575Y593725D03*
X1009650Y625475D03*
X1009650Y606425D03*
X1009650Y587375D03*
X1009650Y568325D03*
X1009650Y549275D03*
X1009650Y533400D03*
X1009650Y514350D03*
X952500Y520700D03*
X952500Y501650D03*
X993775Y657225D03*
X1025525Y657225D03*
X1022350Y479425D03*
X1000125Y479425D03*
X831850Y504825D03*
X831850Y466725D03*
X815975Y485775D03*
X831850Y352425D03*
X831850Y387350D03*
X815975Y371475D03*
X952500Y479425D03*
X955675Y250825D03*
X920750Y255270D03*
X935990Y186690D03*
X876300Y283845D03*
X908050Y283845D03*
X892175Y283845D03*
X894080Y219710D03*
X831850Y194945D03*
X892810Y198120D03*
X917575Y152400D03*
X872490Y115570D03*
X758190Y156845D03*
X755015Y121920D03*
X720090Y213995D03*
X720090Y156845D03*
X720090Y121920D03*
X802640Y36195D03*
X783590Y52070D03*
X767715Y109220D03*
X764540Y175895D03*
X831850Y172720D03*
X847725Y172720D03*
X854075Y64770D03*
X895350Y64770D03*
X895350Y52070D03*
X854075Y52070D03*
X876300Y64770D03*
X876300Y52070D03*
X863600Y8890D03*
X930275Y8890D03*
X1031875Y72390D03*
X971550Y186690D03*
X968375Y101600D03*
X984250Y117475D03*
X942975Y85725D03*
X949325Y117475D03*
X880110Y173990D03*
X1000125Y56515D03*
X936625Y56515D03*
X819150Y834390D03*
X844550Y834390D03*
X892175Y834390D03*
X869950Y834390D03*
X8255Y593725D03*
X24130Y593725D03*
X40005Y593725D03*
X8255Y536575D03*
X24130Y536575D03*
X40005Y536575D03*
X819150Y815340D03*
X844550Y815340D03*
X892175Y815340D03*
X869950Y815340D03*
X819150Y796290D03*
X844550Y796290D03*
X892175Y796290D03*
X869950Y796290D03*
X819150Y777240D03*
X892175Y777240D03*
X819150Y758190D03*
X892175Y758190D03*
X892175Y739140D03*
X819150Y739140D03*
X819150Y720090D03*
X844550Y720090D03*
X892175Y720090D03*
X869950Y720090D03*
X819150Y701040D03*
X844550Y701040D03*
X892175Y701040D03*
X869950Y701040D03*
X819150Y681990D03*
X844550Y681990D03*
X892175Y681990D03*
X869950Y681990D03*
X819150Y666115D03*
X844550Y666115D03*
X869950Y666115D03*
X892175Y666115D03*
X234950Y834390D03*
X260350Y834390D03*
X307975Y834390D03*
X285750Y834390D03*
X234950Y815340D03*
X260350Y815340D03*
X307975Y815340D03*
X285750Y815340D03*
X234950Y796290D03*
X260350Y796290D03*
X307975Y796290D03*
X285750Y796290D03*
X234950Y777240D03*
X307975Y777240D03*
X234950Y758190D03*
X307975Y758190D03*
X307975Y739140D03*
X234950Y739140D03*
X234950Y720090D03*
X260350Y720090D03*
X307975Y720090D03*
X285750Y720090D03*
X234950Y701040D03*
X260350Y701040D03*
X307975Y701040D03*
X285750Y701040D03*
X234950Y681990D03*
X260350Y681990D03*
X307975Y681990D03*
X285750Y681990D03*
X234950Y666115D03*
X260350Y666115D03*
X285750Y666115D03*
X307975Y666115D03*
X806450Y536575D03*
X806450Y508000D03*
X806450Y476250D03*
X806450Y447675D03*
X806450Y412750D03*
X806450Y384175D03*
X806450Y346075D03*
X806450Y317500D03*
X831850Y333375D03*
X885825Y333375D03*
X917575Y333375D03*
X949325Y333375D03*
X1098550Y368300D03*
X1000125Y317500D03*
X438150Y501650D03*
X482600Y501650D03*
X460375Y523875D03*
X460375Y479425D03*
X587375Y501650D03*
X565150Y527050D03*
X752475Y485775D03*
X781050Y466725D03*
X720725Y466725D03*
X751840Y449580D03*
X596265Y392430D03*
X523240Y332105D03*
X491490Y332105D03*
X539115Y192405D03*
X577215Y192405D03*
X507365Y246380D03*
X475615Y211455D03*
X507365Y211455D03*
X491490Y186055D03*
X354965Y186055D03*
X354965Y224155D03*
X402590Y205105D03*
X360045Y65405D03*
X382270Y65405D03*
X403860Y65405D03*
X447040Y65405D03*
X424815Y65405D03*
X360045Y84455D03*
X382270Y84455D03*
X403860Y84455D03*
X447040Y84455D03*
X424815Y84455D03*
X360045Y103505D03*
X382270Y103505D03*
X403860Y103505D03*
X447040Y103505D03*
X424815Y103505D03*
X360045Y122555D03*
X382270Y122555D03*
X403860Y122555D03*
X447040Y122555D03*
X424815Y122555D03*
X331470Y179705D03*
X290195Y179705D03*
X290195Y214630D03*
X328295Y214630D03*
X248920Y113030D03*
X248920Y138430D03*
X293370Y113030D03*
X290195Y157480D03*
X331470Y157480D03*
X487045Y157480D03*
X536575Y501650D03*
X590550Y539750D03*
X428625Y539750D03*
X590550Y641350D03*
X590550Y606425D03*
X590550Y574675D03*
X460375Y638175D03*
X425450Y638175D03*
X162560Y441325D03*
X163195Y409575D03*
X163195Y382905D03*
X144145Y376555D03*
X144145Y357505D03*
X42545Y490855D03*
X77470Y490855D03*
X147320Y490855D03*
X239395Y490855D03*
X280670Y633730D03*
X264795Y633730D03*
X274320Y601980D03*
X210820Y598805D03*
X292100Y536575D03*
X307975Y551180D03*
X274320Y551180D03*
X9525Y466725D03*
X38100Y466725D03*
X95250Y466725D03*
X147320Y468630D03*
X206375Y466725D03*
X257175Y466725D03*
X292100Y466725D03*
X342900Y466725D03*
X374650Y466725D03*
X368300Y539750D03*
X368300Y511175D03*
X77470Y506730D03*
X149225Y541655D03*
X95250Y544830D03*
X238125Y548005D03*
X238760Y515620D03*
X149225Y511810D03*
X219075Y563880D03*
X898525Y95250D03*
X873760Y101600D03*
X788035Y101600D03*
X784860Y69850D03*
X845185Y85725D03*
X837565Y115570D03*
X269240Y522605D03*
X591185Y422910D03*
X720725Y327025D03*
X739775Y327025D03*
X619125Y361950D03*
X660400Y361950D03*
X701675Y361950D03*
X590550Y304800D03*
X584200Y284480D03*
X731520Y284480D03*
X242570Y351155D03*
X242570Y395605D03*
X144145Y322580D03*
X974725Y8890D03*
X1019175Y8890D03*
X805815Y17145D03*
X831850Y8890D03*
X1031875Y50165D03*
X777875Y34290D03*
X762000Y15240D03*
X733425Y8890D03*
X161925Y69215D03*
X161925Y43815D03*
X171450Y24765D03*
X190500Y12065D03*
X222250Y8890D03*
X692150Y8890D03*
X736600Y72390D03*
X733425Y50165D03*
X692150Y50165D03*
X654050Y50165D03*
X622300Y50165D03*
X584200Y50165D03*
X542925Y50165D03*
X508000Y50165D03*
X473075Y50165D03*
X438150Y50165D03*
X403225Y50165D03*
X365125Y50165D03*
X323850Y50165D03*
X285750Y50165D03*
X254000Y50165D03*
X161925Y94615D03*
X206375Y94615D03*
X215900Y56515D03*
X205105Y441325D03*
X205105Y400050D03*
X205105Y254000D03*
X205105Y222250D03*
X246380Y254000D03*
X246380Y222250D03*
X163195Y323850D03*
X163195Y295275D03*
X163195Y263525D03*
X163195Y171450D03*
X163195Y203200D03*
X163195Y234950D03*
X369570Y603250D03*
X369570Y584200D03*
X369570Y561975D03*
X369570Y638175D03*
X337820Y638175D03*
X337820Y603250D03*
X337820Y584200D03*
X337820Y561975D03*
X654050Y8890D03*
X622300Y8890D03*
X584200Y8890D03*
X542925Y8890D03*
X508000Y8890D03*
X473075Y8890D03*
X438150Y8890D03*
X403225Y8890D03*
X365125Y8890D03*
X323850Y8890D03*
X285750Y8890D03*
X254000Y8890D03*
X742950Y641350D03*
X742950Y606425D03*
X742950Y571500D03*
X742950Y536575D03*
X720725Y485775D03*
X781050Y485775D03*
X780415Y449580D03*
X720090Y449580D03*
X739775Y355600D03*
X739775Y419100D03*
X739775Y387350D03*
X777875Y419100D03*
X777875Y387350D03*
X777875Y355600D03*
X777875Y327025D03*
X476250Y619125D03*
X447675Y619125D03*
X447675Y577850D03*
X476250Y577850D03*
X419100Y590550D03*
X485140Y316230D03*
X529590Y316230D03*
X507365Y316230D03*
X539115Y220980D03*
X577215Y220980D03*
X539115Y160655D03*
X577215Y160655D03*
X532765Y246380D03*
X564515Y246380D03*
X599440Y246380D03*
X590550Y361950D03*
X590550Y333375D03*
X600075Y284480D03*
X720090Y185420D03*
X720090Y255270D03*
X780415Y255270D03*
X780415Y213995D03*
X751840Y255270D03*
X751840Y213995D03*
X930275Y457200D03*
X1003300Y431800D03*
X946150Y679450D03*
X1136650Y94615D03*
X1060450Y154940D03*
X1035050Y173990D03*
X1035050Y145415D03*
X996950Y282575D03*
X996950Y250825D03*
X996950Y225425D03*
X996950Y200025D03*
X1025525Y279400D03*
X1085850Y279400D03*
X971550Y225425D03*
X1057275Y53340D03*
X1076325Y12065D03*
X1095375Y31115D03*
X1101725Y59690D03*
X1101725Y85090D03*
X1136650Y126365D03*
X1155700Y132715D03*
X1133475Y167640D03*
X1152525Y164465D03*
X1158875Y148590D03*
X1084580Y260350D03*
X1084580Y238125D03*
X1084580Y212725D03*
X1041400Y238125D03*
X1041400Y212725D03*
X1063625Y279400D03*
X869950Y542925D03*
X901700Y542925D03*
X838200Y542925D03*
X869950Y428625D03*
X831850Y415925D03*
X835025Y574675D03*
X908050Y574675D03*
X908050Y508000D03*
X908050Y479425D03*
X908050Y447675D03*
X952500Y425450D03*
X962025Y403225D03*
X1022350Y403225D03*
X1028700Y333375D03*
X981075Y333375D03*
X1022350Y431800D03*
X1104900Y612775D03*
X1139825Y612775D03*
X1041400Y676275D03*
X1066800Y692150D03*
X1095375Y695325D03*
X1120775Y695325D03*
X1146175Y692150D03*
X1104900Y409575D03*
X1098550Y323850D03*
X1111250Y387350D03*
X1111250Y346075D03*
X101600Y132715D03*
X101600Y100965D03*
X101600Y164465D03*
X63500Y586105D03*
X1057275Y97790D03*
X1106805Y206375D03*
X1101725Y174625D03*
X1181100Y447675D03*
X1171575Y415925D03*
X536575Y527050D03*
X828675Y647700D03*
X869950Y647700D03*
X758825Y434975D03*
D17*
X758825Y327025D01*
D16*
X758825Y327025D03*
D17*
X758825Y311150D01*
X770255Y299720D01*
X1085850Y299720D01*
D16*
X1085850Y299720D03*
D18*
X1182370Y299720D01*
D16*
X1182370Y299720D03*
X825500Y28575D03*
D19*
X1054100Y28575D02*
X1054714Y28582D01*
X1055327Y28605D01*
X1055940Y28642D01*
X1056551Y28694D01*
X1057162Y28760D01*
X1057770Y28842D01*
X1058376Y28938D01*
X1058980Y29048D01*
X1059581Y29173D01*
X1060179Y29313D01*
X1060773Y29467D01*
X1061363Y29636D01*
X1061949Y29818D01*
X1062530Y30015D01*
X1063107Y30226D01*
X1063678Y30450D01*
X1064244Y30688D01*
X1064804Y30940D01*
X1065357Y31206D01*
X1065904Y31484D01*
X1066444Y31776D01*
X1066977Y32081D01*
X1067502Y32399D01*
X1068020Y32729D01*
X1068529Y33071D01*
X1069030Y33426D01*
X1069522Y33793D01*
X1070005Y34171D01*
X1070479Y34561D01*
X1070943Y34963D01*
X1071398Y35375D01*
X1071842Y35799D01*
X1072276Y36233D01*
X1072700Y36677D01*
X1073112Y37132D01*
X1073514Y37596D01*
X1073904Y38070D01*
X1074282Y38553D01*
X1074649Y39045D01*
X1075004Y39546D01*
X1075346Y40055D01*
X1075676Y40573D01*
X1075994Y41098D01*
X1076299Y41631D01*
X1076591Y42171D01*
X1076869Y42718D01*
X1077135Y43271D01*
X1077387Y43831D01*
X1077625Y44397D01*
X1077849Y44968D01*
X1078060Y45545D01*
X1078257Y46126D01*
X1078439Y46712D01*
X1078608Y47302D01*
X1078762Y47896D01*
X1078902Y48494D01*
X1079027Y49095D01*
X1079137Y49699D01*
X1079233Y50305D01*
X1079315Y50913D01*
X1079381Y51524D01*
X1079433Y52135D01*
X1079470Y52748D01*
X1079493Y53361D01*
X1079500Y53975D01*
X1079500Y123825D01*
X1079507Y124408D01*
X1079528Y124991D01*
X1079563Y125573D01*
X1079613Y126154D01*
X1079676Y126734D01*
X1079753Y127312D01*
X1079844Y127887D01*
X1079950Y128461D01*
X1080068Y129032D01*
X1080201Y129600D01*
X1080348Y130164D01*
X1080508Y130725D01*
X1080681Y131282D01*
X1080868Y131834D01*
X1081068Y132382D01*
X1081281Y132924D01*
X1081508Y133462D01*
X1081747Y133993D01*
X1081999Y134519D01*
X1082264Y135039D01*
X1082541Y135552D01*
X1082831Y136058D01*
X1083132Y136557D01*
X1083446Y137049D01*
X1083771Y137532D01*
X1084108Y138008D01*
X1084457Y138476D01*
X1084816Y138935D01*
X1085187Y139385D01*
X1085568Y139826D01*
X1085960Y140258D01*
X1086363Y140680D01*
X1086775Y141092D01*
X1087197Y141495D01*
X1087629Y141887D01*
X1088070Y142268D01*
X1088520Y142639D01*
X1088979Y142998D01*
X1089447Y143347D01*
X1089923Y143684D01*
X1090406Y144009D01*
X1090898Y144323D01*
X1091397Y144624D01*
X1091903Y144914D01*
X1092416Y145191D01*
X1092936Y145456D01*
X1093462Y145708D01*
X1093993Y145947D01*
X1094531Y146174D01*
X1095073Y146387D01*
X1095621Y146587D01*
X1096173Y146774D01*
X1096730Y146947D01*
X1097291Y147107D01*
X1097855Y147254D01*
X1098423Y147387D01*
X1098994Y147505D01*
X1099568Y147611D01*
X1100143Y147702D01*
X1100721Y147779D01*
X1101301Y147842D01*
X1101882Y147892D01*
X1102464Y147927D01*
X1103047Y147948D01*
X1103630Y147955D01*
X1136650Y147955D01*
D16*
X1136650Y147955D03*
D19*
X1054100Y28575D02*
X825500Y28575D01*
D16*
X755650Y60325D03*
D19*
X755650Y50800D01*
X755644Y50263D01*
X755624Y49726D01*
X755592Y49190D01*
X755546Y48655D01*
X755488Y48121D01*
X755417Y47589D01*
X755333Y47058D01*
X755236Y46530D01*
X755126Y46004D01*
X755004Y45481D01*
X754869Y44961D01*
X754722Y44445D01*
X754562Y43932D01*
X754390Y43423D01*
X754206Y42919D01*
X754009Y42419D01*
X753801Y41924D01*
X753580Y41434D01*
X753348Y40950D01*
X753104Y40472D01*
X752849Y39999D01*
X752582Y39533D01*
X752304Y39073D01*
X752016Y38620D01*
X751716Y38175D01*
X751405Y37736D01*
X751084Y37306D01*
X750753Y36883D01*
X750412Y36468D01*
X750061Y36062D01*
X749700Y35664D01*
X749329Y35276D01*
X748949Y34896D01*
X748561Y34525D01*
X748163Y34164D01*
X747757Y33813D01*
X747342Y33472D01*
X746919Y33141D01*
X746489Y32820D01*
X746050Y32509D01*
X745605Y32209D01*
X745152Y31921D01*
X744692Y31643D01*
X744226Y31376D01*
X743753Y31121D01*
X743275Y30877D01*
X742791Y30645D01*
X742301Y30424D01*
X741806Y30216D01*
X741306Y30019D01*
X740802Y29835D01*
X740293Y29663D01*
X739780Y29503D01*
X739264Y29356D01*
X738744Y29221D01*
X738221Y29099D01*
X737695Y28989D01*
X737167Y28892D01*
X736636Y28808D01*
X736104Y28737D01*
X735570Y28679D01*
X735035Y28633D01*
X734499Y28601D01*
X733962Y28581D01*
X733425Y28575D01*
X209550Y28575D01*
X208936Y28582D01*
X208323Y28605D01*
X207710Y28642D01*
X207099Y28694D01*
X206488Y28760D01*
X205880Y28842D01*
X205274Y28938D01*
X204670Y29048D01*
X204069Y29173D01*
X203471Y29313D01*
X202877Y29467D01*
X202287Y29636D01*
X201701Y29818D01*
X201120Y30015D01*
X200543Y30226D01*
X199972Y30450D01*
X199406Y30688D01*
X198846Y30940D01*
X198293Y31206D01*
X197746Y31484D01*
X197206Y31776D01*
X196673Y32081D01*
X196148Y32399D01*
X195630Y32729D01*
X195121Y33071D01*
X194620Y33426D01*
X194128Y33793D01*
X193645Y34171D01*
X193171Y34561D01*
X192707Y34963D01*
X192252Y35375D01*
X191808Y35799D01*
X191374Y36233D01*
X190950Y36677D01*
X190538Y37132D01*
X190136Y37596D01*
X189746Y38070D01*
X189368Y38553D01*
X189001Y39045D01*
X188646Y39546D01*
X188304Y40055D01*
X187974Y40573D01*
X187656Y41098D01*
X187351Y41631D01*
X187059Y42171D01*
X186781Y42718D01*
X186515Y43271D01*
X186263Y43831D01*
X186025Y44397D01*
X185801Y44968D01*
X185590Y45545D01*
X185393Y46126D01*
X185211Y46712D01*
X185042Y47302D01*
X184888Y47896D01*
X184748Y48494D01*
X184623Y49095D01*
X184513Y49699D01*
X184417Y50305D01*
X184335Y50913D01*
X184269Y51524D01*
X184217Y52135D01*
X184180Y52748D01*
X184157Y53361D01*
X184150Y53975D01*
D16*
X184150Y488950D03*
D19*
X184150Y53975D01*
D16*
X866775Y254000D03*
D20*
X866775Y168275D02*
X858520Y160020D01*
X774700Y160020D01*
X866775Y168275D02*
X866775Y254000D01*
D16*
X774700Y160020D03*
D20*
X44450Y400050D02*
X22225Y400050D01*
X44450Y400050D02*
X50800Y393700D01*
X50800Y365125D01*
X57150Y358775D01*
X81280Y358775D01*
D16*
X81280Y358775D03*
X117475Y422275D03*
X222250Y619125D03*
D21*
X415925Y619125D02*
X438150Y596900D01*
X415925Y619125D02*
X222250Y619125D01*
X438150Y596900D02*
X463550Y596900D01*
D16*
X463550Y596900D03*
X117475Y260350D03*
D21*
X117475Y422275D01*
X133350Y619125D02*
X222250Y619125D01*
X133350Y619125D02*
X117475Y603250D01*
X117475Y422275D01*
D16*
X323850Y568325D03*
D17*
X323850Y425450D01*
X317500Y419100D01*
X228600Y419100D02*
X222250Y412750D01*
X228600Y419100D02*
X317500Y419100D01*
D16*
X222250Y352425D03*
D17*
X222250Y412750D01*
D16*
X263525Y336550D03*
X1012825Y171450D03*
D17*
X1012825Y149225D01*
X1003300Y139700D01*
X263525Y149225D02*
X263525Y336550D01*
X263525Y149225D02*
X273050Y139700D01*
X1003300Y139700D01*
D16*
X1014730Y444500D03*
D18*
X1104900Y444500D01*
X1155700Y393700D02*
X1155700Y371475D01*
D16*
X1155700Y371475D03*
D18*
X1155700Y393700D02*
X1104900Y444500D01*
M02*
