G04 EAGLE Gerber RS-274X export*
G75*
%MOMM*%
%FSLAX34Y34*%
%LPD*%
%IN*%
%IPPOS*%
%AMOC8*
5,1,8,0,0,1.08239X$1,22.5*%
G01*
%ADD10C,0.254000*%


D10*
X0Y0D02*
X1200000Y0D01*
X1200000Y850000D01*
X0Y850000D01*
X0Y0D01*
X314325Y654050D02*
X812165Y654050D01*
X812165Y850000D01*
X314325Y850000D01*
X314325Y654050D01*
X283325Y760446D02*
X283252Y759239D01*
X283106Y758039D01*
X282888Y756850D01*
X282599Y755677D01*
X282240Y754523D01*
X281811Y753393D01*
X281315Y752291D01*
X280753Y751220D01*
X280128Y750186D01*
X279441Y749191D01*
X278696Y748240D01*
X277894Y747335D01*
X277040Y746481D01*
X276135Y745679D01*
X275184Y744934D01*
X274189Y744247D01*
X273155Y743622D01*
X272084Y743060D01*
X270982Y742564D01*
X269852Y742135D01*
X268698Y741776D01*
X267525Y741487D01*
X266336Y741269D01*
X265136Y741123D01*
X263929Y741050D01*
X262721Y741050D01*
X261514Y741123D01*
X260314Y741269D01*
X259125Y741487D01*
X257952Y741776D01*
X256798Y742135D01*
X255668Y742564D01*
X254566Y743060D01*
X253495Y743622D01*
X252461Y744247D01*
X251466Y744934D01*
X250515Y745679D01*
X249610Y746481D01*
X248756Y747335D01*
X247954Y748240D01*
X247209Y749191D01*
X246522Y750186D01*
X245897Y751220D01*
X245335Y752291D01*
X244839Y753393D01*
X244410Y754523D01*
X244051Y755677D01*
X243762Y756850D01*
X243544Y758039D01*
X243398Y759239D01*
X243325Y760446D01*
X243325Y761654D01*
X243398Y762861D01*
X243544Y764061D01*
X243762Y765250D01*
X244051Y766423D01*
X244410Y767577D01*
X244839Y768707D01*
X245335Y769809D01*
X245897Y770880D01*
X246522Y771914D01*
X247209Y772909D01*
X247954Y773860D01*
X248756Y774765D01*
X249610Y775619D01*
X250515Y776421D01*
X251466Y777166D01*
X252461Y777853D01*
X253495Y778478D01*
X254566Y779040D01*
X255668Y779536D01*
X256798Y779965D01*
X257952Y780324D01*
X259125Y780613D01*
X260314Y780831D01*
X261514Y780977D01*
X262721Y781050D01*
X263929Y781050D01*
X265136Y780977D01*
X266336Y780831D01*
X267525Y780613D01*
X268698Y780324D01*
X269852Y779965D01*
X270982Y779536D01*
X272084Y779040D01*
X273155Y778478D01*
X274189Y777853D01*
X275184Y777166D01*
X276135Y776421D01*
X277040Y775619D01*
X277894Y774765D01*
X278696Y773860D01*
X279441Y772909D01*
X280128Y771914D01*
X280753Y770880D01*
X281315Y769809D01*
X281811Y768707D01*
X282240Y767577D01*
X282599Y766423D01*
X282888Y765250D01*
X283106Y764061D01*
X283252Y762861D01*
X283325Y761654D01*
X283325Y760446D01*
X883325Y760446D02*
X883252Y759239D01*
X883106Y758039D01*
X882888Y756850D01*
X882599Y755677D01*
X882240Y754523D01*
X881811Y753393D01*
X881315Y752291D01*
X880753Y751220D01*
X880128Y750186D01*
X879441Y749191D01*
X878696Y748240D01*
X877894Y747335D01*
X877040Y746481D01*
X876135Y745679D01*
X875184Y744934D01*
X874189Y744247D01*
X873155Y743622D01*
X872084Y743060D01*
X870982Y742564D01*
X869852Y742135D01*
X868698Y741776D01*
X867525Y741487D01*
X866336Y741269D01*
X865136Y741123D01*
X863929Y741050D01*
X862721Y741050D01*
X861514Y741123D01*
X860314Y741269D01*
X859125Y741487D01*
X857952Y741776D01*
X856798Y742135D01*
X855668Y742564D01*
X854566Y743060D01*
X853495Y743622D01*
X852461Y744247D01*
X851466Y744934D01*
X850515Y745679D01*
X849610Y746481D01*
X848756Y747335D01*
X847954Y748240D01*
X847209Y749191D01*
X846522Y750186D01*
X845897Y751220D01*
X845335Y752291D01*
X844839Y753393D01*
X844410Y754523D01*
X844051Y755677D01*
X843762Y756850D01*
X843544Y758039D01*
X843398Y759239D01*
X843325Y760446D01*
X843325Y761654D01*
X843398Y762861D01*
X843544Y764061D01*
X843762Y765250D01*
X844051Y766423D01*
X844410Y767577D01*
X844839Y768707D01*
X845335Y769809D01*
X845897Y770880D01*
X846522Y771914D01*
X847209Y772909D01*
X847954Y773860D01*
X848756Y774765D01*
X849610Y775619D01*
X850515Y776421D01*
X851466Y777166D01*
X852461Y777853D01*
X853495Y778478D01*
X854566Y779040D01*
X855668Y779536D01*
X856798Y779965D01*
X857952Y780324D01*
X859125Y780613D01*
X860314Y780831D01*
X861514Y780977D01*
X862721Y781050D01*
X863929Y781050D01*
X865136Y780977D01*
X866336Y780831D01*
X867525Y780613D01*
X868698Y780324D01*
X869852Y779965D01*
X870982Y779536D01*
X872084Y779040D01*
X873155Y778478D01*
X874189Y777853D01*
X875184Y777166D01*
X876135Y776421D01*
X877040Y775619D01*
X877894Y774765D01*
X878696Y773860D01*
X879441Y772909D01*
X880128Y771914D01*
X880753Y770880D01*
X881315Y769809D01*
X881811Y768707D01*
X882240Y767577D01*
X882599Y766423D01*
X882888Y765250D01*
X883106Y764061D01*
X883252Y762861D01*
X883325Y761654D01*
X883325Y760446D01*
M02*
