G04 EAGLE Gerber RS-274X export*
G75*
%MOMM*%
%FSLAX34Y34*%
%LPD*%
%INTop Copper*%
%IPPOS*%
%AMOC8*
5,1,8,0,0,1.08239X$1,22.5*%
G01*
%ADD10R,1.300000X1.600000*%
%ADD11R,1.600000X1.300000*%
%ADD12C,1.676400*%
%ADD13R,1.200000X1.200000*%
%ADD14R,1.500000X1.300000*%
%ADD15R,2.470000X1.880000*%
%ADD16R,1.880000X2.470000*%
%ADD17R,6.600000X1.800000*%
%ADD18R,8.000000X1.800000*%
%ADD19R,4.191000X1.778000*%
%ADD20R,4.191000X2.667000*%
%ADD21C,1.524000*%
%ADD22R,1.300000X2.000000*%
%ADD23R,2.000000X2.000000*%
%ADD24C,1.508000*%
%ADD25R,2.850000X2.850000*%
%ADD26R,2.400000X1.400000*%
%ADD27R,1.800000X1.500000*%
%ADD28R,0.400000X1.400000*%
%ADD29C,2.184400*%
%ADD30C,1.930400*%
%ADD31R,1.300000X1.500000*%
%ADD32C,2.000000*%
%ADD33C,0.800000*%
%ADD34C,0.600000*%
%ADD35C,0.756400*%
%ADD36C,2.000000*%
%ADD37C,0.400000*%
%ADD38C,1.000000*%

G36*
X850050Y-369D02*
X850050Y-369D01*
X850101Y-367D01*
X850133Y-349D01*
X850169Y-341D01*
X850208Y-308D01*
X850253Y-284D01*
X850274Y-254D01*
X850302Y-231D01*
X850323Y-184D01*
X850353Y-142D01*
X850361Y-100D01*
X850373Y-72D01*
X850372Y-42D01*
X850380Y0D01*
X850380Y364723D01*
X850369Y364773D01*
X850367Y364824D01*
X850349Y364856D01*
X850341Y364892D01*
X850308Y364931D01*
X850284Y364976D01*
X850254Y364997D01*
X850231Y365025D01*
X850184Y365046D01*
X850142Y365076D01*
X850100Y365084D01*
X850072Y365096D01*
X850042Y365095D01*
X850000Y365103D01*
X829607Y365103D01*
X829607Y380598D01*
X829596Y380648D01*
X829594Y380699D01*
X829576Y380731D01*
X829568Y380767D01*
X829535Y380806D01*
X829511Y380851D01*
X829481Y380872D01*
X829457Y380900D01*
X829411Y380921D01*
X829369Y380951D01*
X829327Y380959D01*
X829299Y380971D01*
X829269Y380970D01*
X829227Y380978D01*
X828845Y380978D01*
X828845Y380980D01*
X829227Y380980D01*
X829277Y380991D01*
X829328Y380993D01*
X829360Y381011D01*
X829396Y381019D01*
X829435Y381052D01*
X829480Y381076D01*
X829501Y381106D01*
X829529Y381130D01*
X829550Y381176D01*
X829580Y381218D01*
X829588Y381260D01*
X829600Y381288D01*
X829599Y381316D01*
X829600Y381318D01*
X829600Y381323D01*
X829607Y381360D01*
X829607Y396855D01*
X850000Y396855D01*
X850050Y396866D01*
X850101Y396868D01*
X850133Y396886D01*
X850169Y396894D01*
X850208Y396927D01*
X850253Y396951D01*
X850274Y396981D01*
X850302Y397004D01*
X850323Y397051D01*
X850353Y397093D01*
X850361Y397135D01*
X850373Y397163D01*
X850372Y397193D01*
X850380Y397235D01*
X850380Y398638D01*
X850369Y398688D01*
X850367Y398739D01*
X850349Y398771D01*
X850341Y398807D01*
X850308Y398846D01*
X850284Y398891D01*
X850254Y398912D01*
X850231Y398940D01*
X850184Y398961D01*
X850142Y398991D01*
X850100Y398999D01*
X850072Y399011D01*
X850042Y399010D01*
X850000Y399018D01*
X798321Y399018D01*
X798271Y399007D01*
X798220Y399005D01*
X798188Y398987D01*
X798152Y398979D01*
X798113Y398946D01*
X798068Y398922D01*
X798047Y398892D01*
X798019Y398869D01*
X797998Y398822D01*
X797968Y398780D01*
X797960Y398738D01*
X797948Y398710D01*
X797949Y398680D01*
X797941Y398638D01*
X797941Y393192D01*
X787781Y393192D01*
X787731Y393181D01*
X787680Y393179D01*
X787648Y393161D01*
X787612Y393153D01*
X787573Y393120D01*
X787528Y393096D01*
X787507Y393066D01*
X787479Y393043D01*
X787458Y392996D01*
X787428Y392954D01*
X787420Y392913D01*
X787408Y392885D01*
X787408Y392872D01*
X787408Y392871D01*
X787409Y392852D01*
X787401Y392812D01*
X787401Y392430D01*
X787399Y392430D01*
X787399Y392812D01*
X787388Y392862D01*
X787386Y392913D01*
X787368Y392945D01*
X787360Y392981D01*
X787327Y393020D01*
X787303Y393065D01*
X787273Y393086D01*
X787249Y393115D01*
X787203Y393135D01*
X787161Y393165D01*
X787119Y393173D01*
X787091Y393185D01*
X787061Y393184D01*
X787019Y393192D01*
X776859Y393192D01*
X776859Y398638D01*
X776848Y398688D01*
X776846Y398739D01*
X776828Y398771D01*
X776820Y398807D01*
X776787Y398846D01*
X776763Y398891D01*
X776733Y398912D01*
X776710Y398940D01*
X776663Y398961D01*
X776621Y398991D01*
X776579Y398999D01*
X776551Y399011D01*
X776521Y399010D01*
X776479Y399018D01*
X735132Y399018D01*
X732419Y400142D01*
X730342Y402219D01*
X729218Y404932D01*
X729218Y426918D01*
X730342Y429631D01*
X732419Y431708D01*
X735132Y432832D01*
X850000Y432832D01*
X850050Y432843D01*
X850101Y432845D01*
X850133Y432863D01*
X850169Y432871D01*
X850208Y432904D01*
X850253Y432928D01*
X850274Y432958D01*
X850302Y432981D01*
X850323Y433028D01*
X850353Y433070D01*
X850361Y433112D01*
X850373Y433140D01*
X850372Y433170D01*
X850380Y433212D01*
X850380Y434615D01*
X850369Y434665D01*
X850367Y434716D01*
X850349Y434748D01*
X850341Y434784D01*
X850308Y434823D01*
X850284Y434868D01*
X850254Y434889D01*
X850231Y434917D01*
X850184Y434938D01*
X850142Y434968D01*
X850100Y434976D01*
X850072Y434988D01*
X850042Y434987D01*
X850000Y434995D01*
X829607Y434995D01*
X829607Y450490D01*
X829596Y450540D01*
X829594Y450591D01*
X829576Y450623D01*
X829568Y450659D01*
X829535Y450698D01*
X829511Y450743D01*
X829481Y450764D01*
X829457Y450792D01*
X829411Y450813D01*
X829369Y450843D01*
X829327Y450851D01*
X829299Y450863D01*
X829269Y450862D01*
X829227Y450870D01*
X828845Y450870D01*
X828845Y450872D01*
X829227Y450872D01*
X829277Y450883D01*
X829328Y450885D01*
X829360Y450903D01*
X829396Y450911D01*
X829435Y450944D01*
X829480Y450968D01*
X829501Y450998D01*
X829529Y451022D01*
X829550Y451068D01*
X829580Y451110D01*
X829588Y451152D01*
X829600Y451180D01*
X829599Y451210D01*
X829607Y451252D01*
X829607Y466747D01*
X850000Y466747D01*
X850050Y466758D01*
X850101Y466760D01*
X850133Y466778D01*
X850169Y466786D01*
X850208Y466819D01*
X850253Y466843D01*
X850274Y466873D01*
X850302Y466896D01*
X850323Y466943D01*
X850353Y466985D01*
X850361Y467027D01*
X850373Y467055D01*
X850372Y467085D01*
X850380Y467127D01*
X850380Y480000D01*
X850369Y480050D01*
X850367Y480101D01*
X850349Y480133D01*
X850341Y480169D01*
X850308Y480208D01*
X850284Y480253D01*
X850254Y480274D01*
X850231Y480302D01*
X850184Y480323D01*
X850142Y480353D01*
X850100Y480361D01*
X850072Y480373D01*
X850042Y480372D01*
X850000Y480380D01*
X0Y480380D01*
X-50Y480369D01*
X-101Y480367D01*
X-133Y480349D01*
X-169Y480341D01*
X-208Y480308D01*
X-253Y480284D01*
X-274Y480254D01*
X-302Y480231D01*
X-323Y480184D01*
X-353Y480142D01*
X-361Y480100D01*
X-373Y480072D01*
X-372Y480042D01*
X-380Y480000D01*
X-380Y306471D01*
X-377Y306458D01*
X-379Y306445D01*
X-368Y306407D01*
X-367Y306381D01*
X-354Y306357D01*
X-341Y306302D01*
X-333Y306292D01*
X-329Y306280D01*
X-289Y306237D01*
X-284Y306229D01*
X-275Y306222D01*
X-231Y306168D01*
X-219Y306163D01*
X-210Y306154D01*
X-140Y306128D01*
X-72Y306098D01*
X-59Y306098D01*
X-47Y306094D01*
X26Y306101D01*
X101Y306104D01*
X112Y306110D01*
X125Y306112D01*
X170Y306140D01*
X173Y306141D01*
X181Y306147D01*
X188Y306151D01*
X253Y306187D01*
X260Y306197D01*
X271Y306204D01*
X296Y306242D01*
X307Y306251D01*
X317Y306273D01*
X351Y306325D01*
X1732Y309659D01*
X5573Y313499D01*
X6071Y313706D01*
X6122Y313743D01*
X6178Y313773D01*
X6192Y313793D01*
X6212Y313807D01*
X6241Y313863D01*
X6278Y313915D01*
X6283Y313941D01*
X6293Y313960D01*
X6294Y313997D01*
X6296Y314009D01*
X6299Y314014D01*
X6298Y314020D01*
X6306Y314057D01*
X6306Y348074D01*
X7371Y350647D01*
X18259Y361535D01*
X20832Y362601D01*
X128393Y362601D01*
X130966Y361535D01*
X141410Y351091D01*
X142476Y348518D01*
X142476Y97881D01*
X142487Y97831D01*
X142489Y97780D01*
X142507Y97748D01*
X142515Y97712D01*
X142548Y97673D01*
X142572Y97628D01*
X142602Y97607D01*
X142625Y97579D01*
X142672Y97558D01*
X142714Y97528D01*
X142756Y97520D01*
X142784Y97508D01*
X142814Y97509D01*
X142856Y97501D01*
X143632Y97501D01*
X145976Y95157D01*
X145976Y71843D01*
X143632Y69499D01*
X127318Y69499D01*
X124974Y71843D01*
X124974Y95157D01*
X127318Y97501D01*
X128094Y97501D01*
X128144Y97512D01*
X128195Y97514D01*
X128227Y97532D01*
X128263Y97540D01*
X128302Y97573D01*
X128347Y97597D01*
X128368Y97627D01*
X128396Y97650D01*
X128417Y97697D01*
X128447Y97739D01*
X128455Y97781D01*
X128467Y97809D01*
X128466Y97839D01*
X128474Y97881D01*
X128474Y344068D01*
X128457Y344142D01*
X128444Y344216D01*
X128437Y344227D01*
X128435Y344236D01*
X128411Y344265D01*
X128363Y344337D01*
X124212Y348488D01*
X124147Y348528D01*
X124085Y348572D01*
X124073Y348574D01*
X124064Y348579D01*
X124027Y348583D01*
X123943Y348599D01*
X25282Y348599D01*
X25208Y348582D01*
X25134Y348569D01*
X25123Y348562D01*
X25114Y348560D01*
X25085Y348536D01*
X25013Y348488D01*
X20418Y343893D01*
X20378Y343828D01*
X20335Y343766D01*
X20332Y343754D01*
X20327Y343746D01*
X20323Y343709D01*
X20307Y343624D01*
X20307Y314057D01*
X20320Y314001D01*
X20321Y313986D01*
X20323Y313982D01*
X20328Y313932D01*
X20341Y313912D01*
X20346Y313888D01*
X20387Y313839D01*
X20421Y313785D01*
X20443Y313771D01*
X20457Y313754D01*
X20491Y313739D01*
X20542Y313706D01*
X21040Y313499D01*
X24880Y309659D01*
X26931Y304707D01*
X26946Y304686D01*
X26954Y304662D01*
X26996Y304617D01*
X27032Y304567D01*
X27055Y304554D01*
X27073Y304536D01*
X27131Y304514D01*
X27185Y304485D01*
X27211Y304484D01*
X27235Y304476D01*
X27297Y304482D01*
X27359Y304480D01*
X27382Y304491D01*
X27408Y304494D01*
X27460Y304527D01*
X27516Y304553D01*
X27532Y304573D01*
X27554Y304586D01*
X27602Y304658D01*
X27625Y304687D01*
X27627Y304697D01*
X27634Y304707D01*
X28828Y307590D01*
X31641Y310403D01*
X35317Y311926D01*
X39296Y311926D01*
X42971Y310403D01*
X45784Y307590D01*
X47307Y303914D01*
X47307Y299936D01*
X45784Y296260D01*
X42971Y293447D01*
X39296Y291924D01*
X35317Y291924D01*
X31641Y293447D01*
X28828Y296260D01*
X27634Y299143D01*
X27619Y299164D01*
X27611Y299188D01*
X27569Y299233D01*
X27533Y299283D01*
X27510Y299296D01*
X27492Y299314D01*
X27435Y299336D01*
X27380Y299365D01*
X27354Y299366D01*
X27330Y299374D01*
X27269Y299368D01*
X27207Y299370D01*
X27183Y299359D01*
X27158Y299356D01*
X27106Y299323D01*
X27049Y299297D01*
X27033Y299277D01*
X27011Y299264D01*
X26964Y299192D01*
X26940Y299163D01*
X26938Y299153D01*
X26931Y299143D01*
X24880Y294191D01*
X21040Y290351D01*
X16022Y288272D01*
X10591Y288272D01*
X5573Y290351D01*
X1732Y294191D01*
X351Y297525D01*
X344Y297535D01*
X341Y297548D01*
X299Y297598D01*
X294Y297608D01*
X289Y297612D01*
X250Y297665D01*
X239Y297672D01*
X231Y297682D01*
X163Y297712D01*
X97Y297747D01*
X84Y297747D01*
X72Y297752D01*
X-2Y297750D01*
X-76Y297752D01*
X-88Y297746D01*
X-101Y297746D01*
X-166Y297710D01*
X-233Y297679D01*
X-242Y297669D01*
X-253Y297663D01*
X-296Y297603D01*
X-342Y297545D01*
X-345Y297532D01*
X-353Y297521D01*
X-369Y297438D01*
X-373Y297428D01*
X-373Y297417D01*
X-380Y297379D01*
X-380Y0D01*
X-369Y-50D01*
X-367Y-101D01*
X-349Y-133D01*
X-341Y-169D01*
X-308Y-208D01*
X-284Y-253D01*
X-254Y-274D01*
X-231Y-302D01*
X-184Y-323D01*
X-142Y-353D01*
X-100Y-361D01*
X-72Y-373D01*
X-42Y-372D01*
X0Y-380D01*
X850000Y-380D01*
X850050Y-369D01*
G37*
%LPC*%
G36*
X309559Y4699D02*
X309559Y4699D01*
X306618Y5917D01*
X304314Y8221D01*
X294446Y18089D01*
X292142Y20393D01*
X290924Y23334D01*
X290924Y150050D01*
X290913Y150100D01*
X290911Y150151D01*
X290893Y150183D01*
X290885Y150219D01*
X290852Y150258D01*
X290828Y150303D01*
X290798Y150324D01*
X290775Y150353D01*
X290728Y150374D01*
X290686Y150403D01*
X290644Y150411D01*
X290616Y150424D01*
X290586Y150422D01*
X290544Y150431D01*
X256790Y150431D01*
X256716Y150413D01*
X256641Y150400D01*
X256631Y150393D01*
X256621Y150391D01*
X256592Y150367D01*
X256521Y150319D01*
X254132Y147931D01*
X253781Y147931D01*
X253708Y147913D01*
X253634Y147901D01*
X253624Y147894D01*
X253612Y147891D01*
X253554Y147843D01*
X253494Y147800D01*
X253488Y147789D01*
X253478Y147781D01*
X253448Y147713D01*
X253413Y147646D01*
X253412Y147634D01*
X253407Y147623D01*
X253410Y147548D01*
X253408Y147473D01*
X253413Y147462D01*
X253414Y147450D01*
X253450Y147384D01*
X253481Y147316D01*
X253491Y147307D01*
X253497Y147297D01*
X253528Y147276D01*
X253591Y147221D01*
X254035Y146964D01*
X254508Y146491D01*
X254843Y145912D01*
X255016Y145266D01*
X255016Y139192D01*
X244856Y139192D01*
X244806Y139181D01*
X244755Y139179D01*
X244723Y139161D01*
X244687Y139153D01*
X244648Y139120D01*
X244603Y139096D01*
X244582Y139066D01*
X244554Y139043D01*
X244533Y138996D01*
X244503Y138954D01*
X244495Y138913D01*
X244483Y138885D01*
X244484Y138865D01*
X244483Y138864D01*
X244483Y138851D01*
X244476Y138812D01*
X244476Y138430D01*
X244474Y138430D01*
X244474Y138812D01*
X244463Y138862D01*
X244461Y138913D01*
X244443Y138945D01*
X244435Y138981D01*
X244402Y139020D01*
X244378Y139065D01*
X244348Y139086D01*
X244324Y139115D01*
X244278Y139135D01*
X244236Y139165D01*
X244194Y139173D01*
X244166Y139185D01*
X244136Y139184D01*
X244094Y139192D01*
X233934Y139192D01*
X233934Y145266D01*
X234107Y145912D01*
X234442Y146491D01*
X234915Y146964D01*
X235359Y147221D01*
X235414Y147272D01*
X235472Y147320D01*
X235477Y147331D01*
X235486Y147339D01*
X235512Y147410D01*
X235543Y147478D01*
X235542Y147490D01*
X235547Y147502D01*
X235539Y147576D01*
X235536Y147651D01*
X235530Y147662D01*
X235529Y147674D01*
X235489Y147737D01*
X235453Y147803D01*
X235443Y147810D01*
X235437Y147821D01*
X235373Y147860D01*
X235312Y147903D01*
X235298Y147905D01*
X235289Y147911D01*
X235251Y147915D01*
X235169Y147931D01*
X234818Y147931D01*
X232474Y150274D01*
X232474Y150369D01*
X232463Y150419D01*
X232461Y150470D01*
X232443Y150502D01*
X232435Y150538D01*
X232402Y150577D01*
X232378Y150622D01*
X232348Y150643D01*
X232325Y150671D01*
X232278Y150692D01*
X232236Y150722D01*
X232194Y150730D01*
X232166Y150742D01*
X232136Y150741D01*
X232094Y150749D01*
X221507Y150749D01*
X221433Y150732D01*
X221358Y150719D01*
X221348Y150712D01*
X221338Y150710D01*
X221309Y150686D01*
X221238Y150638D01*
X217481Y146881D01*
X216323Y146401D01*
X216302Y146386D01*
X216278Y146379D01*
X216233Y146336D01*
X216182Y146300D01*
X216170Y146278D01*
X216152Y146260D01*
X216130Y146202D01*
X216101Y146147D01*
X216100Y146121D01*
X216091Y146097D01*
X216098Y146036D01*
X216096Y145974D01*
X216107Y145951D01*
X216110Y145925D01*
X216143Y145873D01*
X216169Y145817D01*
X216189Y145800D01*
X216202Y145779D01*
X216274Y145731D01*
X216303Y145708D01*
X216313Y145706D01*
X216323Y145699D01*
X217481Y145219D01*
X221419Y141281D01*
X223551Y136135D01*
X223551Y130565D01*
X221419Y125419D01*
X217481Y121481D01*
X214457Y120228D01*
X214448Y120222D01*
X214438Y120220D01*
X214379Y120172D01*
X214316Y120127D01*
X214311Y120118D01*
X214303Y120111D01*
X214271Y120042D01*
X214235Y119974D01*
X214235Y119964D01*
X214230Y119954D01*
X214232Y119877D01*
X214230Y119801D01*
X214235Y119791D01*
X214235Y119781D01*
X214271Y119713D01*
X214302Y119644D01*
X214311Y119637D01*
X214316Y119627D01*
X214430Y119538D01*
X216123Y118676D01*
X217720Y117516D01*
X219116Y116120D01*
X220276Y114523D01*
X221172Y112764D01*
X221782Y110887D01*
X222091Y108937D01*
X222091Y108711D01*
X209931Y108711D01*
X209881Y108700D01*
X209830Y108698D01*
X209798Y108680D01*
X209762Y108672D01*
X209723Y108639D01*
X209678Y108615D01*
X209657Y108585D01*
X209629Y108562D01*
X209608Y108515D01*
X209579Y108473D01*
X209570Y108431D01*
X209558Y108403D01*
X209559Y108373D01*
X209551Y108331D01*
X209551Y107569D01*
X209563Y107519D01*
X209564Y107468D01*
X209582Y107436D01*
X209590Y107400D01*
X209623Y107361D01*
X209647Y107316D01*
X209677Y107295D01*
X209701Y107267D01*
X209747Y107246D01*
X209789Y107216D01*
X209831Y107208D01*
X209859Y107196D01*
X209889Y107197D01*
X209931Y107189D01*
X222091Y107189D01*
X222091Y106963D01*
X221782Y105013D01*
X221172Y103136D01*
X220276Y101377D01*
X219116Y99780D01*
X217720Y98384D01*
X216123Y97224D01*
X214430Y96362D01*
X214422Y96355D01*
X214412Y96352D01*
X214356Y96299D01*
X214298Y96250D01*
X214293Y96240D01*
X214286Y96233D01*
X214259Y96161D01*
X214229Y96091D01*
X214229Y96080D01*
X214225Y96070D01*
X214233Y95994D01*
X214237Y95918D01*
X214243Y95909D01*
X214244Y95898D01*
X214284Y95833D01*
X214322Y95767D01*
X214331Y95761D01*
X214336Y95752D01*
X214457Y95672D01*
X217481Y94419D01*
X221419Y90481D01*
X223551Y85335D01*
X223551Y79765D01*
X221419Y74619D01*
X217481Y70681D01*
X212335Y68549D01*
X206765Y68549D01*
X201619Y70681D01*
X197681Y74619D01*
X195549Y79765D01*
X195549Y85335D01*
X197681Y90481D01*
X201619Y94419D01*
X204643Y95672D01*
X204652Y95678D01*
X204662Y95680D01*
X204721Y95728D01*
X204784Y95773D01*
X204789Y95782D01*
X204797Y95789D01*
X204829Y95858D01*
X204865Y95926D01*
X204865Y95936D01*
X204870Y95946D01*
X204868Y96022D01*
X204870Y96099D01*
X204865Y96109D01*
X204865Y96119D01*
X204829Y96187D01*
X204797Y96256D01*
X204789Y96263D01*
X204784Y96273D01*
X204670Y96362D01*
X202977Y97224D01*
X201380Y98384D01*
X199984Y99780D01*
X198824Y101377D01*
X197928Y103136D01*
X197318Y105013D01*
X197009Y106963D01*
X197009Y107189D01*
X209169Y107189D01*
X209219Y107200D01*
X209270Y107202D01*
X209302Y107220D01*
X209338Y107228D01*
X209377Y107261D01*
X209422Y107285D01*
X209443Y107315D01*
X209471Y107338D01*
X209492Y107385D01*
X209521Y107427D01*
X209530Y107469D01*
X209542Y107497D01*
X209541Y107527D01*
X209549Y107569D01*
X209549Y108331D01*
X209537Y108381D01*
X209536Y108432D01*
X209518Y108464D01*
X209510Y108500D01*
X209477Y108539D01*
X209453Y108584D01*
X209423Y108605D01*
X209399Y108633D01*
X209353Y108654D01*
X209311Y108684D01*
X209269Y108692D01*
X209241Y108704D01*
X209211Y108703D01*
X209169Y108711D01*
X197009Y108711D01*
X197009Y108937D01*
X197318Y110887D01*
X197928Y112764D01*
X198824Y114523D01*
X199984Y116120D01*
X201380Y117516D01*
X202977Y118676D01*
X204670Y119538D01*
X204678Y119545D01*
X204688Y119548D01*
X204744Y119601D01*
X204802Y119650D01*
X204807Y119660D01*
X204814Y119667D01*
X204841Y119739D01*
X204871Y119809D01*
X204871Y119820D01*
X204875Y119830D01*
X204867Y119906D01*
X204863Y119982D01*
X204858Y119991D01*
X204856Y120002D01*
X204816Y120067D01*
X204778Y120133D01*
X204769Y120139D01*
X204764Y120148D01*
X204643Y120228D01*
X201619Y121481D01*
X197681Y125419D01*
X195549Y130565D01*
X195549Y136135D01*
X197681Y141281D01*
X201619Y145219D01*
X202777Y145699D01*
X202798Y145714D01*
X202822Y145721D01*
X202867Y145764D01*
X202918Y145800D01*
X202930Y145823D01*
X202948Y145840D01*
X202970Y145898D01*
X202999Y145953D01*
X203000Y145978D01*
X203009Y146003D01*
X203002Y146064D01*
X203004Y146126D01*
X202993Y146149D01*
X202990Y146175D01*
X202957Y146227D01*
X202931Y146283D01*
X202911Y146300D01*
X202898Y146321D01*
X202826Y146369D01*
X202797Y146392D01*
X202787Y146395D01*
X202777Y146401D01*
X201619Y146881D01*
X197681Y150819D01*
X195549Y155965D01*
X195549Y161535D01*
X197681Y166681D01*
X201619Y170619D01*
X202777Y171099D01*
X202798Y171114D01*
X202822Y171121D01*
X202867Y171164D01*
X202918Y171200D01*
X202930Y171223D01*
X202948Y171240D01*
X202970Y171298D01*
X202999Y171353D01*
X203000Y171378D01*
X203009Y171403D01*
X203002Y171464D01*
X203004Y171526D01*
X202993Y171549D01*
X202990Y171575D01*
X202957Y171627D01*
X202931Y171683D01*
X202911Y171700D01*
X202898Y171721D01*
X202826Y171769D01*
X202797Y171792D01*
X202787Y171795D01*
X202777Y171801D01*
X201619Y172281D01*
X197681Y176219D01*
X195549Y181365D01*
X195549Y186935D01*
X197681Y192081D01*
X201619Y196019D01*
X202777Y196499D01*
X202798Y196514D01*
X202822Y196521D01*
X202867Y196564D01*
X202918Y196600D01*
X202930Y196623D01*
X202948Y196640D01*
X202970Y196698D01*
X202999Y196753D01*
X203000Y196778D01*
X203009Y196803D01*
X203002Y196864D01*
X203004Y196926D01*
X202993Y196949D01*
X202990Y196975D01*
X202957Y197027D01*
X202931Y197083D01*
X202911Y197100D01*
X202898Y197121D01*
X202826Y197169D01*
X202797Y197192D01*
X202787Y197195D01*
X202777Y197201D01*
X201619Y197681D01*
X197681Y201619D01*
X195549Y206765D01*
X195549Y212335D01*
X197681Y217481D01*
X201619Y221419D01*
X202777Y221899D01*
X202798Y221914D01*
X202822Y221921D01*
X202867Y221964D01*
X202918Y222000D01*
X202930Y222023D01*
X202948Y222040D01*
X202970Y222098D01*
X202999Y222153D01*
X203000Y222178D01*
X203009Y222203D01*
X203002Y222264D01*
X203004Y222326D01*
X202993Y222349D01*
X202990Y222375D01*
X202957Y222427D01*
X202931Y222483D01*
X202911Y222500D01*
X202898Y222521D01*
X202826Y222569D01*
X202797Y222592D01*
X202787Y222595D01*
X202777Y222601D01*
X201619Y223081D01*
X197681Y227019D01*
X195549Y232165D01*
X195549Y237735D01*
X197681Y242881D01*
X201619Y246819D01*
X202777Y247299D01*
X202798Y247314D01*
X202822Y247321D01*
X202867Y247364D01*
X202918Y247400D01*
X202930Y247423D01*
X202948Y247440D01*
X202970Y247498D01*
X202999Y247553D01*
X203000Y247578D01*
X203009Y247603D01*
X203002Y247664D01*
X203004Y247726D01*
X202993Y247749D01*
X202990Y247775D01*
X202957Y247827D01*
X202931Y247883D01*
X202911Y247900D01*
X202898Y247921D01*
X202826Y247969D01*
X202797Y247992D01*
X202787Y247995D01*
X202777Y248001D01*
X201619Y248481D01*
X197681Y252419D01*
X195549Y257565D01*
X195549Y263135D01*
X197681Y268281D01*
X201619Y272219D01*
X202777Y272699D01*
X202798Y272714D01*
X202822Y272721D01*
X202867Y272764D01*
X202918Y272800D01*
X202930Y272823D01*
X202948Y272840D01*
X202970Y272898D01*
X202999Y272953D01*
X203000Y272978D01*
X203009Y273003D01*
X203002Y273064D01*
X203004Y273126D01*
X202993Y273149D01*
X202990Y273175D01*
X202957Y273227D01*
X202931Y273283D01*
X202911Y273300D01*
X202898Y273321D01*
X202826Y273369D01*
X202797Y273392D01*
X202787Y273395D01*
X202777Y273401D01*
X201619Y273881D01*
X197681Y277819D01*
X195549Y282965D01*
X195549Y288535D01*
X197681Y293681D01*
X201619Y297619D01*
X202777Y298099D01*
X202798Y298114D01*
X202822Y298121D01*
X202867Y298164D01*
X202918Y298200D01*
X202930Y298223D01*
X202948Y298240D01*
X202970Y298298D01*
X202999Y298353D01*
X203000Y298378D01*
X203009Y298403D01*
X203002Y298464D01*
X203004Y298526D01*
X202993Y298549D01*
X202990Y298575D01*
X202957Y298627D01*
X202931Y298683D01*
X202911Y298700D01*
X202898Y298721D01*
X202826Y298769D01*
X202797Y298792D01*
X202787Y298795D01*
X202777Y298801D01*
X201619Y299281D01*
X197681Y303219D01*
X195549Y308365D01*
X195549Y313935D01*
X197681Y319081D01*
X201619Y323019D01*
X202777Y323499D01*
X202798Y323514D01*
X202822Y323521D01*
X202867Y323564D01*
X202918Y323600D01*
X202930Y323623D01*
X202948Y323640D01*
X202970Y323698D01*
X202999Y323753D01*
X203000Y323778D01*
X203009Y323803D01*
X203002Y323864D01*
X203004Y323926D01*
X202993Y323949D01*
X202990Y323975D01*
X202957Y324027D01*
X202931Y324083D01*
X202911Y324100D01*
X202898Y324121D01*
X202826Y324169D01*
X202797Y324192D01*
X202787Y324195D01*
X202777Y324201D01*
X201619Y324681D01*
X197681Y328619D01*
X195549Y333765D01*
X195549Y339335D01*
X197681Y344481D01*
X201619Y348419D01*
X202777Y348899D01*
X202798Y348914D01*
X202822Y348921D01*
X202867Y348964D01*
X202918Y349000D01*
X202930Y349023D01*
X202948Y349040D01*
X202970Y349098D01*
X202999Y349153D01*
X203000Y349178D01*
X203009Y349203D01*
X203002Y349264D01*
X203004Y349326D01*
X202993Y349349D01*
X202990Y349375D01*
X202957Y349427D01*
X202931Y349483D01*
X202911Y349500D01*
X202898Y349521D01*
X202826Y349569D01*
X202797Y349592D01*
X202787Y349595D01*
X202777Y349601D01*
X201619Y350081D01*
X197681Y354019D01*
X195549Y359165D01*
X195549Y364735D01*
X197681Y369881D01*
X201619Y373819D01*
X206765Y375951D01*
X212335Y375951D01*
X217481Y373819D01*
X221419Y369881D01*
X223551Y364735D01*
X223551Y359165D01*
X221419Y354019D01*
X217481Y350081D01*
X216323Y349601D01*
X216302Y349586D01*
X216278Y349579D01*
X216233Y349536D01*
X216182Y349500D01*
X216170Y349478D01*
X216152Y349460D01*
X216130Y349402D01*
X216101Y349347D01*
X216100Y349321D01*
X216091Y349297D01*
X216098Y349236D01*
X216096Y349174D01*
X216107Y349151D01*
X216110Y349125D01*
X216143Y349073D01*
X216169Y349017D01*
X216189Y349000D01*
X216202Y348979D01*
X216274Y348931D01*
X216303Y348908D01*
X216313Y348906D01*
X216323Y348899D01*
X217481Y348419D01*
X221419Y344481D01*
X223551Y339335D01*
X223551Y333765D01*
X221419Y328619D01*
X217481Y324681D01*
X216323Y324201D01*
X216302Y324186D01*
X216278Y324179D01*
X216233Y324136D01*
X216182Y324100D01*
X216170Y324078D01*
X216152Y324060D01*
X216130Y324002D01*
X216101Y323947D01*
X216100Y323921D01*
X216091Y323897D01*
X216098Y323836D01*
X216096Y323774D01*
X216107Y323751D01*
X216110Y323725D01*
X216143Y323673D01*
X216169Y323617D01*
X216189Y323600D01*
X216202Y323579D01*
X216274Y323531D01*
X216303Y323508D01*
X216313Y323506D01*
X216323Y323499D01*
X217481Y323019D01*
X221419Y319081D01*
X223551Y313935D01*
X223551Y308365D01*
X221419Y303219D01*
X217481Y299281D01*
X216323Y298801D01*
X216302Y298786D01*
X216278Y298779D01*
X216233Y298736D01*
X216182Y298700D01*
X216170Y298678D01*
X216152Y298660D01*
X216130Y298602D01*
X216101Y298547D01*
X216100Y298521D01*
X216091Y298497D01*
X216098Y298436D01*
X216096Y298374D01*
X216107Y298351D01*
X216110Y298325D01*
X216143Y298273D01*
X216169Y298217D01*
X216189Y298200D01*
X216202Y298179D01*
X216274Y298131D01*
X216303Y298108D01*
X216313Y298106D01*
X216323Y298099D01*
X217481Y297619D01*
X221419Y293681D01*
X223551Y288535D01*
X223551Y282965D01*
X221419Y277819D01*
X217481Y273881D01*
X216323Y273401D01*
X216302Y273386D01*
X216278Y273379D01*
X216233Y273336D01*
X216182Y273300D01*
X216170Y273278D01*
X216152Y273260D01*
X216130Y273202D01*
X216101Y273147D01*
X216100Y273121D01*
X216091Y273097D01*
X216098Y273036D01*
X216096Y272974D01*
X216107Y272951D01*
X216110Y272925D01*
X216143Y272873D01*
X216169Y272817D01*
X216189Y272800D01*
X216202Y272779D01*
X216274Y272731D01*
X216303Y272708D01*
X216313Y272706D01*
X216323Y272699D01*
X217481Y272219D01*
X221419Y268281D01*
X223551Y263135D01*
X223551Y257565D01*
X221419Y252419D01*
X217481Y248481D01*
X216323Y248001D01*
X216302Y247986D01*
X216278Y247979D01*
X216233Y247936D01*
X216182Y247900D01*
X216170Y247878D01*
X216152Y247860D01*
X216130Y247802D01*
X216101Y247747D01*
X216100Y247721D01*
X216091Y247697D01*
X216098Y247636D01*
X216096Y247574D01*
X216107Y247551D01*
X216110Y247525D01*
X216143Y247473D01*
X216169Y247417D01*
X216189Y247400D01*
X216202Y247379D01*
X216274Y247331D01*
X216303Y247308D01*
X216313Y247306D01*
X216323Y247299D01*
X217481Y246819D01*
X221419Y242881D01*
X223551Y237735D01*
X223551Y232165D01*
X221419Y227019D01*
X217481Y223081D01*
X216323Y222601D01*
X216302Y222586D01*
X216278Y222579D01*
X216233Y222536D01*
X216182Y222500D01*
X216170Y222478D01*
X216152Y222460D01*
X216130Y222402D01*
X216101Y222347D01*
X216100Y222321D01*
X216091Y222297D01*
X216098Y222236D01*
X216096Y222174D01*
X216107Y222151D01*
X216110Y222125D01*
X216143Y222073D01*
X216169Y222017D01*
X216189Y222000D01*
X216202Y221979D01*
X216274Y221931D01*
X216303Y221908D01*
X216313Y221906D01*
X216323Y221899D01*
X217481Y221419D01*
X221419Y217481D01*
X223551Y212335D01*
X223551Y206765D01*
X221419Y201619D01*
X217481Y197681D01*
X216323Y197201D01*
X216302Y197186D01*
X216278Y197179D01*
X216233Y197136D01*
X216182Y197100D01*
X216170Y197078D01*
X216152Y197060D01*
X216130Y197002D01*
X216101Y196947D01*
X216100Y196921D01*
X216091Y196897D01*
X216098Y196836D01*
X216096Y196774D01*
X216107Y196751D01*
X216110Y196725D01*
X216143Y196673D01*
X216169Y196617D01*
X216189Y196600D01*
X216202Y196579D01*
X216274Y196531D01*
X216303Y196508D01*
X216313Y196506D01*
X216323Y196499D01*
X217481Y196019D01*
X221419Y192081D01*
X223551Y186935D01*
X223551Y181365D01*
X221419Y176219D01*
X217481Y172281D01*
X216323Y171801D01*
X216302Y171786D01*
X216278Y171779D01*
X216233Y171736D01*
X216182Y171700D01*
X216170Y171678D01*
X216152Y171660D01*
X216130Y171602D01*
X216101Y171547D01*
X216100Y171521D01*
X216091Y171497D01*
X216098Y171436D01*
X216096Y171374D01*
X216107Y171351D01*
X216110Y171325D01*
X216143Y171273D01*
X216169Y171217D01*
X216189Y171200D01*
X216202Y171179D01*
X216274Y171131D01*
X216303Y171108D01*
X216313Y171106D01*
X216323Y171099D01*
X217481Y170619D01*
X221238Y166862D01*
X221303Y166822D01*
X221365Y166778D01*
X221377Y166776D01*
X221385Y166771D01*
X221422Y166767D01*
X221507Y166751D01*
X232479Y166751D01*
X232553Y166768D01*
X232628Y166781D01*
X232638Y166788D01*
X232648Y166790D01*
X232677Y166814D01*
X232748Y166862D01*
X234818Y168932D01*
X254132Y168932D01*
X256521Y166543D01*
X256585Y166503D01*
X256647Y166460D01*
X256660Y166457D01*
X256668Y166452D01*
X256705Y166448D01*
X256790Y166432D01*
X290544Y166432D01*
X290594Y166444D01*
X290645Y166446D01*
X290677Y166463D01*
X290713Y166471D01*
X290752Y166504D01*
X290797Y166528D01*
X290818Y166558D01*
X290846Y166582D01*
X290867Y166628D01*
X290897Y166670D01*
X290905Y166712D01*
X290917Y166740D01*
X290916Y166770D01*
X290924Y166812D01*
X290924Y302769D01*
X290913Y302819D01*
X290911Y302870D01*
X290893Y302902D01*
X290885Y302938D01*
X290852Y302977D01*
X290828Y303022D01*
X290798Y303043D01*
X290775Y303071D01*
X290728Y303092D01*
X290686Y303122D01*
X290644Y303130D01*
X290616Y303142D01*
X290586Y303141D01*
X290544Y303149D01*
X246059Y303149D01*
X243118Y304367D01*
X228167Y319318D01*
X226949Y322259D01*
X226949Y374353D01*
X226932Y374427D01*
X226919Y374502D01*
X226912Y374512D01*
X226910Y374522D01*
X226886Y374551D01*
X226838Y374622D01*
X222222Y379238D01*
X222158Y379278D01*
X222096Y379322D01*
X222084Y379324D01*
X222075Y379329D01*
X222038Y379333D01*
X221953Y379349D01*
X141284Y379349D01*
X138343Y380567D01*
X127042Y391868D01*
X125824Y394809D01*
X125824Y413135D01*
X125807Y413209D01*
X125794Y413284D01*
X125787Y413294D01*
X125785Y413304D01*
X125761Y413333D01*
X125713Y413404D01*
X123324Y415793D01*
X123324Y416144D01*
X123307Y416217D01*
X123295Y416291D01*
X123288Y416301D01*
X123285Y416313D01*
X123237Y416371D01*
X123193Y416431D01*
X123182Y416437D01*
X123175Y416447D01*
X123106Y416477D01*
X123040Y416512D01*
X123028Y416513D01*
X123016Y416518D01*
X122942Y416515D01*
X122867Y416517D01*
X122856Y416512D01*
X122843Y416511D01*
X122778Y416475D01*
X122710Y416444D01*
X122701Y416434D01*
X122691Y416428D01*
X122669Y416397D01*
X122615Y416334D01*
X122358Y415890D01*
X121885Y415417D01*
X121306Y415082D01*
X120660Y414909D01*
X114586Y414909D01*
X114586Y425069D01*
X114575Y425119D01*
X114573Y425170D01*
X114555Y425202D01*
X114547Y425238D01*
X114514Y425277D01*
X114490Y425322D01*
X114460Y425343D01*
X114436Y425371D01*
X114390Y425392D01*
X114348Y425422D01*
X114306Y425430D01*
X114278Y425442D01*
X114248Y425441D01*
X114206Y425449D01*
X113824Y425449D01*
X113824Y425451D01*
X114206Y425451D01*
X114256Y425462D01*
X114307Y425464D01*
X114339Y425482D01*
X114375Y425490D01*
X114414Y425523D01*
X114459Y425547D01*
X114480Y425577D01*
X114508Y425601D01*
X114529Y425647D01*
X114559Y425689D01*
X114567Y425731D01*
X114579Y425759D01*
X114578Y425789D01*
X114586Y425831D01*
X114586Y435991D01*
X120660Y435991D01*
X121306Y435818D01*
X121885Y435483D01*
X122358Y435010D01*
X122615Y434566D01*
X122666Y434511D01*
X122713Y434453D01*
X122725Y434448D01*
X122733Y434439D01*
X122803Y434413D01*
X122872Y434382D01*
X122884Y434383D01*
X122896Y434378D01*
X122970Y434386D01*
X123045Y434389D01*
X123056Y434395D01*
X123068Y434396D01*
X123131Y434436D01*
X123197Y434472D01*
X123204Y434482D01*
X123215Y434488D01*
X123254Y434552D01*
X123297Y434613D01*
X123299Y434627D01*
X123305Y434636D01*
X123308Y434674D01*
X123324Y434756D01*
X123324Y435107D01*
X125238Y437021D01*
X125251Y437042D01*
X125269Y437057D01*
X125289Y437101D01*
X125322Y437147D01*
X125324Y437159D01*
X125329Y437168D01*
X125332Y437197D01*
X125340Y437215D01*
X125339Y437238D01*
X125349Y437290D01*
X125349Y440989D01*
X125332Y441063D01*
X125319Y441138D01*
X125312Y441148D01*
X125310Y441158D01*
X125286Y441187D01*
X125238Y441258D01*
X123498Y442997D01*
X121729Y447268D01*
X121729Y467132D01*
X123498Y471403D01*
X126767Y474672D01*
X131038Y476441D01*
X135662Y476441D01*
X139933Y474672D01*
X143202Y471403D01*
X144971Y467132D01*
X144971Y447268D01*
X143202Y442997D01*
X141462Y441258D01*
X141422Y441193D01*
X141378Y441131D01*
X141376Y441119D01*
X141371Y441111D01*
X141367Y441074D01*
X141351Y440989D01*
X141351Y437831D01*
X141362Y437781D01*
X141364Y437730D01*
X141382Y437698D01*
X141390Y437662D01*
X141423Y437623D01*
X141447Y437578D01*
X141477Y437557D01*
X141500Y437529D01*
X141547Y437508D01*
X141589Y437478D01*
X141631Y437470D01*
X141659Y437458D01*
X141689Y437459D01*
X141731Y437451D01*
X141982Y437451D01*
X144326Y435107D01*
X144326Y415793D01*
X141937Y413404D01*
X141897Y413340D01*
X141853Y413278D01*
X141851Y413266D01*
X141846Y413257D01*
X141842Y413220D01*
X141826Y413135D01*
X141826Y399872D01*
X141843Y399798D01*
X141856Y399723D01*
X141863Y399713D01*
X141865Y399703D01*
X141889Y399674D01*
X141937Y399603D01*
X146078Y395462D01*
X146142Y395422D01*
X146204Y395378D01*
X146216Y395376D01*
X146225Y395371D01*
X146262Y395367D01*
X146347Y395351D01*
X227016Y395351D01*
X229957Y394133D01*
X241733Y382357D01*
X242951Y379416D01*
X242951Y327322D01*
X242968Y327248D01*
X242981Y327173D01*
X242988Y327163D01*
X242990Y327153D01*
X243014Y327124D01*
X243062Y327053D01*
X250853Y319262D01*
X250917Y319222D01*
X250979Y319178D01*
X250991Y319176D01*
X251000Y319171D01*
X251037Y319167D01*
X251122Y319151D01*
X290544Y319151D01*
X290594Y319162D01*
X290645Y319164D01*
X290677Y319182D01*
X290713Y319190D01*
X290752Y319223D01*
X290797Y319247D01*
X290818Y319277D01*
X290846Y319300D01*
X290867Y319347D01*
X290897Y319389D01*
X290905Y319431D01*
X290917Y319459D01*
X290916Y319489D01*
X290924Y319531D01*
X290924Y349635D01*
X290907Y349709D01*
X290894Y349784D01*
X290887Y349794D01*
X290885Y349804D01*
X290861Y349833D01*
X290813Y349904D01*
X288424Y352293D01*
X288424Y352644D01*
X288407Y352717D01*
X288395Y352791D01*
X288388Y352801D01*
X288385Y352813D01*
X288337Y352871D01*
X288293Y352931D01*
X288282Y352937D01*
X288275Y352947D01*
X288206Y352977D01*
X288140Y353012D01*
X288128Y353013D01*
X288116Y353018D01*
X288042Y353015D01*
X287967Y353017D01*
X287956Y353012D01*
X287943Y353011D01*
X287878Y352975D01*
X287810Y352944D01*
X287801Y352934D01*
X287791Y352928D01*
X287769Y352897D01*
X287715Y352834D01*
X287458Y352390D01*
X286985Y351917D01*
X286406Y351582D01*
X285760Y351409D01*
X279686Y351409D01*
X279686Y361569D01*
X279675Y361619D01*
X279673Y361670D01*
X279655Y361702D01*
X279647Y361738D01*
X279614Y361777D01*
X279590Y361822D01*
X279560Y361843D01*
X279536Y361871D01*
X279490Y361892D01*
X279448Y361922D01*
X279406Y361930D01*
X279378Y361942D01*
X279348Y361941D01*
X279306Y361949D01*
X278924Y361949D01*
X278924Y361951D01*
X279306Y361951D01*
X279356Y361962D01*
X279407Y361964D01*
X279439Y361982D01*
X279475Y361990D01*
X279514Y362023D01*
X279559Y362047D01*
X279580Y362077D01*
X279608Y362101D01*
X279629Y362147D01*
X279659Y362189D01*
X279667Y362231D01*
X279679Y362259D01*
X279678Y362289D01*
X279686Y362331D01*
X279686Y372491D01*
X285760Y372491D01*
X286406Y372318D01*
X286985Y371983D01*
X287458Y371510D01*
X287715Y371066D01*
X287766Y371011D01*
X287813Y370953D01*
X287825Y370948D01*
X287833Y370939D01*
X287903Y370913D01*
X287972Y370882D01*
X287984Y370883D01*
X287996Y370878D01*
X288070Y370886D01*
X288145Y370889D01*
X288156Y370895D01*
X288168Y370896D01*
X288231Y370936D01*
X288297Y370972D01*
X288304Y370982D01*
X288315Y370988D01*
X288354Y371052D01*
X288397Y371113D01*
X288399Y371127D01*
X288405Y371136D01*
X288408Y371174D01*
X288424Y371256D01*
X288424Y371607D01*
X290813Y373996D01*
X290853Y374060D01*
X290897Y374122D01*
X290899Y374134D01*
X290904Y374143D01*
X290908Y374180D01*
X290924Y374265D01*
X290924Y390910D01*
X290912Y390963D01*
X290911Y390998D01*
X290902Y391014D01*
X290894Y391059D01*
X290887Y391069D01*
X290885Y391079D01*
X290861Y391108D01*
X290813Y391179D01*
X288424Y393568D01*
X288424Y393919D01*
X288407Y393992D01*
X288395Y394066D01*
X288388Y394076D01*
X288385Y394088D01*
X288337Y394146D01*
X288293Y394206D01*
X288282Y394212D01*
X288275Y394222D01*
X288206Y394252D01*
X288140Y394287D01*
X288128Y394288D01*
X288116Y394293D01*
X288042Y394290D01*
X287967Y394292D01*
X287956Y394287D01*
X287943Y394286D01*
X287878Y394250D01*
X287810Y394219D01*
X287801Y394209D01*
X287791Y394203D01*
X287769Y394172D01*
X287715Y394109D01*
X287458Y393665D01*
X286985Y393192D01*
X286406Y392857D01*
X285760Y392684D01*
X279686Y392684D01*
X279686Y402844D01*
X279675Y402894D01*
X279673Y402945D01*
X279655Y402977D01*
X279647Y403013D01*
X279614Y403052D01*
X279590Y403097D01*
X279560Y403118D01*
X279536Y403146D01*
X279490Y403167D01*
X279448Y403197D01*
X279406Y403205D01*
X279378Y403217D01*
X279348Y403216D01*
X279306Y403224D01*
X278924Y403224D01*
X278924Y403226D01*
X279306Y403226D01*
X279356Y403237D01*
X279407Y403239D01*
X279439Y403257D01*
X279475Y403265D01*
X279514Y403298D01*
X279559Y403322D01*
X279580Y403352D01*
X279608Y403376D01*
X279629Y403422D01*
X279659Y403464D01*
X279667Y403506D01*
X279679Y403534D01*
X279678Y403564D01*
X279686Y403606D01*
X279686Y413766D01*
X285760Y413766D01*
X286406Y413593D01*
X286985Y413258D01*
X287458Y412785D01*
X287715Y412341D01*
X287766Y412286D01*
X287813Y412228D01*
X287825Y412223D01*
X287833Y412214D01*
X287903Y412188D01*
X287972Y412157D01*
X287984Y412158D01*
X287996Y412153D01*
X288070Y412161D01*
X288145Y412164D01*
X288156Y412170D01*
X288168Y412171D01*
X288231Y412211D01*
X288297Y412247D01*
X288304Y412257D01*
X288315Y412263D01*
X288354Y412327D01*
X288397Y412388D01*
X288399Y412402D01*
X288405Y412411D01*
X288408Y412449D01*
X288424Y412531D01*
X288424Y412882D01*
X290638Y415096D01*
X290678Y415160D01*
X290722Y415222D01*
X290724Y415234D01*
X290729Y415243D01*
X290733Y415280D01*
X290749Y415365D01*
X290749Y428344D01*
X290738Y428394D01*
X290736Y428445D01*
X290718Y428477D01*
X290710Y428513D01*
X290677Y428552D01*
X290653Y428597D01*
X290623Y428618D01*
X290600Y428646D01*
X290553Y428667D01*
X290511Y428697D01*
X290469Y428705D01*
X290441Y428717D01*
X290411Y428716D01*
X290369Y428724D01*
X275593Y428724D01*
X274244Y430073D01*
X274180Y430113D01*
X274118Y430157D01*
X274106Y430159D01*
X274097Y430164D01*
X274060Y430168D01*
X273975Y430184D01*
X273511Y430184D01*
X273511Y430648D01*
X273494Y430722D01*
X273481Y430797D01*
X273474Y430807D01*
X273472Y430817D01*
X273448Y430846D01*
X273400Y430917D01*
X273249Y431068D01*
X273249Y438638D01*
X273243Y438663D01*
X273246Y438689D01*
X273224Y438746D01*
X273210Y438807D01*
X273193Y438827D01*
X273184Y438851D01*
X273139Y438893D01*
X273100Y438940D01*
X273076Y438951D01*
X273057Y438968D01*
X272998Y438986D01*
X272941Y439011D01*
X272916Y439010D01*
X272891Y439018D01*
X272830Y439007D01*
X272768Y439005D01*
X272746Y438992D01*
X272720Y438988D01*
X272649Y438940D01*
X272616Y438922D01*
X272610Y438914D01*
X272600Y438907D01*
X272100Y438407D01*
X272060Y438342D01*
X272016Y438280D01*
X272014Y438268D01*
X272009Y438260D01*
X272005Y438223D01*
X271989Y438138D01*
X271989Y430184D01*
X270415Y430184D01*
X269769Y430357D01*
X269190Y430692D01*
X268717Y431165D01*
X268382Y431744D01*
X268209Y432390D01*
X268209Y436094D01*
X268198Y436144D01*
X268196Y436195D01*
X268178Y436227D01*
X268170Y436263D01*
X268137Y436302D01*
X268113Y436347D01*
X268083Y436368D01*
X268060Y436396D01*
X268013Y436417D01*
X267971Y436447D01*
X267929Y436455D01*
X267901Y436467D01*
X267871Y436466D01*
X267829Y436474D01*
X265109Y436474D01*
X262076Y437730D01*
X259755Y440051D01*
X258499Y443084D01*
X258499Y446366D01*
X259755Y449399D01*
X262076Y451720D01*
X265109Y452976D01*
X268391Y452976D01*
X271424Y451720D01*
X273736Y449407D01*
X273780Y449380D01*
X273817Y449345D01*
X273852Y449335D01*
X273884Y449316D01*
X273934Y449311D01*
X273983Y449296D01*
X274019Y449302D01*
X274056Y449299D01*
X274104Y449317D01*
X274154Y449326D01*
X274189Y449350D01*
X274218Y449361D01*
X274239Y449383D01*
X274274Y449407D01*
X275593Y450726D01*
X298925Y450726D01*
X298999Y450743D01*
X299074Y450756D01*
X299084Y450763D01*
X299094Y450765D01*
X299122Y450789D01*
X299194Y450837D01*
X300076Y451720D01*
X303109Y452976D01*
X306391Y452976D01*
X309424Y451720D01*
X311745Y449399D01*
X313001Y446366D01*
X313001Y443084D01*
X311745Y440051D01*
X309424Y437730D01*
X306391Y436474D01*
X305131Y436474D01*
X305081Y436463D01*
X305030Y436461D01*
X304998Y436443D01*
X304962Y436435D01*
X304923Y436402D01*
X304878Y436378D01*
X304857Y436348D01*
X304829Y436325D01*
X304808Y436278D01*
X304778Y436236D01*
X304770Y436194D01*
X304758Y436166D01*
X304759Y436136D01*
X304751Y436094D01*
X304751Y432809D01*
X304768Y432735D01*
X304781Y432660D01*
X304788Y432650D01*
X304790Y432640D01*
X304814Y432611D01*
X304862Y432540D01*
X305533Y431870D01*
X306751Y428929D01*
X306751Y415606D01*
X306762Y415556D01*
X306764Y415505D01*
X306782Y415473D01*
X306790Y415437D01*
X306823Y415398D01*
X306847Y415353D01*
X306877Y415332D01*
X306900Y415304D01*
X306947Y415283D01*
X306989Y415253D01*
X307031Y415245D01*
X307059Y415233D01*
X307075Y415233D01*
X309426Y412882D01*
X309426Y393568D01*
X307037Y391179D01*
X307007Y391130D01*
X307004Y391128D01*
X307000Y391119D01*
X306997Y391115D01*
X306953Y391053D01*
X306951Y391041D01*
X306946Y391032D01*
X306942Y390995D01*
X306941Y390987D01*
X306933Y390969D01*
X306933Y390950D01*
X306926Y390910D01*
X306926Y374265D01*
X306943Y374191D01*
X306956Y374116D01*
X306963Y374106D01*
X306965Y374096D01*
X306989Y374067D01*
X307037Y373996D01*
X309426Y371607D01*
X309426Y352293D01*
X307037Y349904D01*
X306997Y349840D01*
X306953Y349778D01*
X306951Y349766D01*
X306946Y349757D01*
X306942Y349720D01*
X306926Y349635D01*
X306926Y319531D01*
X306937Y319481D01*
X306939Y319430D01*
X306957Y319398D01*
X306965Y319362D01*
X306998Y319323D01*
X307022Y319278D01*
X307052Y319257D01*
X307075Y319229D01*
X307122Y319208D01*
X307164Y319178D01*
X307206Y319170D01*
X307234Y319158D01*
X307264Y319159D01*
X307306Y319151D01*
X314181Y319151D01*
X314255Y319168D01*
X314330Y319181D01*
X314340Y319188D01*
X314350Y319190D01*
X314379Y319214D01*
X314450Y319262D01*
X316836Y321648D01*
X321387Y323533D01*
X326313Y323533D01*
X330864Y321648D01*
X334348Y318164D01*
X336233Y313613D01*
X336233Y308687D01*
X334348Y304136D01*
X330864Y300652D01*
X326313Y298767D01*
X321387Y298767D01*
X316836Y300652D01*
X314450Y303038D01*
X314386Y303078D01*
X314324Y303122D01*
X314312Y303124D01*
X314303Y303129D01*
X314266Y303133D01*
X314181Y303149D01*
X307306Y303149D01*
X307256Y303138D01*
X307205Y303136D01*
X307173Y303118D01*
X307137Y303110D01*
X307098Y303077D01*
X307053Y303053D01*
X307032Y303023D01*
X307004Y303000D01*
X306983Y302953D01*
X306953Y302911D01*
X306945Y302869D01*
X306933Y302841D01*
X306934Y302811D01*
X306926Y302769D01*
X306926Y28397D01*
X306943Y28323D01*
X306956Y28248D01*
X306963Y28238D01*
X306965Y28228D01*
X306989Y28199D01*
X307037Y28128D01*
X314353Y20812D01*
X314417Y20772D01*
X314479Y20728D01*
X314491Y20726D01*
X314500Y20721D01*
X314537Y20717D01*
X314621Y20701D01*
X374025Y20701D01*
X374075Y20712D01*
X374126Y20714D01*
X374158Y20732D01*
X374194Y20740D01*
X374233Y20773D01*
X374278Y20797D01*
X374299Y20827D01*
X374328Y20850D01*
X374349Y20897D01*
X374378Y20939D01*
X374386Y20981D01*
X374399Y21009D01*
X374397Y21039D01*
X374406Y21081D01*
X374406Y25110D01*
X374393Y25163D01*
X374392Y25197D01*
X374383Y25213D01*
X374375Y25259D01*
X374368Y25269D01*
X374366Y25279D01*
X374342Y25308D01*
X374294Y25379D01*
X372406Y27268D01*
X372406Y42582D01*
X374749Y44926D01*
X390063Y44926D01*
X392407Y42582D01*
X392407Y27268D01*
X390518Y25379D01*
X390487Y25329D01*
X390485Y25327D01*
X390482Y25320D01*
X390478Y25315D01*
X390435Y25253D01*
X390432Y25240D01*
X390427Y25232D01*
X390423Y25195D01*
X390422Y25186D01*
X390414Y25169D01*
X390415Y25150D01*
X390407Y25110D01*
X390407Y21081D01*
X390419Y21031D01*
X390421Y20980D01*
X390438Y20948D01*
X390446Y20912D01*
X390479Y20873D01*
X390503Y20828D01*
X390533Y20807D01*
X390557Y20779D01*
X390603Y20758D01*
X390645Y20728D01*
X390687Y20720D01*
X390715Y20708D01*
X390745Y20709D01*
X390787Y20701D01*
X495003Y20701D01*
X495077Y20718D01*
X495152Y20731D01*
X495162Y20738D01*
X495172Y20740D01*
X495201Y20764D01*
X495272Y20812D01*
X496738Y22278D01*
X496778Y22342D01*
X496822Y22404D01*
X496824Y22416D01*
X496829Y22425D01*
X496833Y22462D01*
X496849Y22547D01*
X496849Y23110D01*
X496832Y23184D01*
X496819Y23259D01*
X496812Y23269D01*
X496810Y23279D01*
X496786Y23308D01*
X496738Y23379D01*
X494349Y25768D01*
X494349Y44082D01*
X494603Y44336D01*
X494624Y44369D01*
X494652Y44395D01*
X494669Y44442D01*
X494695Y44484D01*
X494699Y44522D01*
X494712Y44558D01*
X494707Y44607D01*
X494711Y44656D01*
X494698Y44692D01*
X494694Y44730D01*
X494667Y44772D01*
X494650Y44818D01*
X494622Y44844D01*
X494601Y44877D01*
X494550Y44910D01*
X494523Y44936D01*
X494503Y44942D01*
X494480Y44957D01*
X491892Y46028D01*
X488623Y49297D01*
X486854Y53568D01*
X486854Y73432D01*
X488623Y77703D01*
X491892Y80972D01*
X496163Y82741D01*
X500787Y82741D01*
X505058Y80972D01*
X508327Y77703D01*
X510096Y73432D01*
X510096Y53568D01*
X508327Y49297D01*
X506104Y47075D01*
X506090Y47053D01*
X506071Y47037D01*
X506045Y46980D01*
X506013Y46928D01*
X506010Y46902D01*
X506000Y46878D01*
X506002Y46817D01*
X505996Y46755D01*
X506005Y46731D01*
X506006Y46705D01*
X506036Y46651D01*
X506058Y46593D01*
X506077Y46576D01*
X506089Y46553D01*
X506139Y46518D01*
X506185Y46476D01*
X506210Y46468D01*
X506231Y46453D01*
X506315Y46437D01*
X506351Y46426D01*
X506361Y46428D01*
X506373Y46426D01*
X513007Y46426D01*
X514081Y45352D01*
X514124Y45325D01*
X514162Y45290D01*
X514194Y45281D01*
X514198Y45277D01*
X514202Y45277D01*
X514228Y45260D01*
X514279Y45256D01*
X514328Y45241D01*
X514364Y45247D01*
X514401Y45244D01*
X514448Y45262D01*
X514499Y45271D01*
X514525Y45289D01*
X514528Y45289D01*
X514535Y45295D01*
X514563Y45305D01*
X514584Y45328D01*
X514619Y45352D01*
X515693Y46426D01*
X515977Y46426D01*
X516002Y46432D01*
X516028Y46429D01*
X516086Y46451D01*
X516146Y46465D01*
X516166Y46482D01*
X516190Y46491D01*
X516232Y46536D01*
X516279Y46575D01*
X516290Y46599D01*
X516308Y46618D01*
X516325Y46677D01*
X516350Y46734D01*
X516349Y46759D01*
X516357Y46784D01*
X516346Y46845D01*
X516344Y46907D01*
X516331Y46929D01*
X516327Y46955D01*
X516279Y47026D01*
X516261Y47059D01*
X516253Y47065D01*
X516246Y47075D01*
X514023Y49297D01*
X512254Y53568D01*
X512254Y73432D01*
X514023Y77703D01*
X517292Y80972D01*
X521563Y82741D01*
X526187Y82741D01*
X530458Y80972D01*
X533727Y77703D01*
X535496Y73432D01*
X535496Y53568D01*
X533727Y49297D01*
X531504Y47075D01*
X531490Y47053D01*
X531471Y47037D01*
X531445Y46980D01*
X531413Y46928D01*
X531410Y46902D01*
X531400Y46878D01*
X531402Y46817D01*
X531396Y46755D01*
X531405Y46731D01*
X531406Y46705D01*
X531436Y46651D01*
X531458Y46593D01*
X531477Y46576D01*
X531489Y46553D01*
X531539Y46518D01*
X531585Y46476D01*
X531610Y46468D01*
X531631Y46453D01*
X531715Y46437D01*
X531751Y46426D01*
X531761Y46428D01*
X531773Y46426D01*
X532007Y46426D01*
X534351Y44082D01*
X534351Y42306D01*
X534362Y42256D01*
X534364Y42205D01*
X534382Y42173D01*
X534390Y42137D01*
X534423Y42098D01*
X534447Y42053D01*
X534477Y42032D01*
X534500Y42004D01*
X534547Y41983D01*
X534589Y41953D01*
X534631Y41945D01*
X534659Y41933D01*
X534689Y41934D01*
X534731Y41926D01*
X537919Y41926D01*
X537969Y41937D01*
X538020Y41939D01*
X538052Y41957D01*
X538088Y41965D01*
X538127Y41998D01*
X538172Y42022D01*
X538193Y42052D01*
X538221Y42075D01*
X538242Y42122D01*
X538272Y42164D01*
X538280Y42206D01*
X538292Y42234D01*
X538291Y42264D01*
X538299Y42306D01*
X538299Y44582D01*
X540643Y46926D01*
X540877Y46926D01*
X540902Y46932D01*
X540928Y46929D01*
X540986Y46951D01*
X541046Y46965D01*
X541066Y46982D01*
X541090Y46991D01*
X541132Y47036D01*
X541179Y47075D01*
X541190Y47099D01*
X541208Y47118D01*
X541225Y47177D01*
X541250Y47234D01*
X541249Y47259D01*
X541257Y47284D01*
X541246Y47345D01*
X541244Y47407D01*
X541231Y47429D01*
X541227Y47455D01*
X541179Y47526D01*
X541161Y47559D01*
X541153Y47565D01*
X541146Y47575D01*
X539423Y49297D01*
X537654Y53568D01*
X537654Y73432D01*
X539423Y77703D01*
X542692Y80972D01*
X546963Y82741D01*
X551587Y82741D01*
X555858Y80972D01*
X559127Y77703D01*
X560896Y73432D01*
X560896Y53568D01*
X559127Y49297D01*
X557125Y47296D01*
X557098Y47252D01*
X557063Y47215D01*
X557053Y47180D01*
X557034Y47149D01*
X557029Y47098D01*
X557014Y47049D01*
X557020Y47013D01*
X557017Y46976D01*
X557035Y46928D01*
X557044Y46878D01*
X557068Y46843D01*
X557079Y46814D01*
X557101Y46793D01*
X557125Y46758D01*
X559301Y44582D01*
X559301Y44231D01*
X559318Y44158D01*
X559330Y44084D01*
X559337Y44074D01*
X559340Y44062D01*
X559388Y44004D01*
X559432Y43944D01*
X559443Y43938D01*
X559450Y43928D01*
X559519Y43898D01*
X559585Y43863D01*
X559597Y43862D01*
X559609Y43857D01*
X559683Y43860D01*
X559758Y43858D01*
X559769Y43863D01*
X559782Y43864D01*
X559847Y43900D01*
X559915Y43931D01*
X559924Y43941D01*
X559934Y43947D01*
X559956Y43978D01*
X560010Y44041D01*
X560267Y44485D01*
X560740Y44958D01*
X561319Y45293D01*
X561965Y45466D01*
X568039Y45466D01*
X568039Y35306D01*
X568050Y35256D01*
X568052Y35205D01*
X568070Y35173D01*
X568078Y35137D01*
X568111Y35098D01*
X568135Y35053D01*
X568165Y35032D01*
X568188Y35004D01*
X568235Y34983D01*
X568277Y34953D01*
X568319Y34945D01*
X568347Y34933D01*
X568377Y34934D01*
X568419Y34926D01*
X568801Y34926D01*
X568801Y34924D01*
X568419Y34924D01*
X568369Y34913D01*
X568318Y34911D01*
X568286Y34893D01*
X568250Y34885D01*
X568211Y34852D01*
X568166Y34828D01*
X568145Y34798D01*
X568117Y34774D01*
X568096Y34728D01*
X568066Y34686D01*
X568058Y34644D01*
X568046Y34616D01*
X568047Y34586D01*
X568039Y34544D01*
X568039Y24384D01*
X561965Y24384D01*
X561319Y24557D01*
X560740Y24892D01*
X560267Y25365D01*
X560010Y25809D01*
X559959Y25864D01*
X559912Y25922D01*
X559900Y25927D01*
X559892Y25936D01*
X559822Y25962D01*
X559753Y25993D01*
X559741Y25992D01*
X559729Y25997D01*
X559655Y25989D01*
X559580Y25986D01*
X559569Y25980D01*
X559557Y25979D01*
X559494Y25939D01*
X559428Y25903D01*
X559421Y25893D01*
X559410Y25887D01*
X559371Y25823D01*
X559328Y25762D01*
X559326Y25748D01*
X559320Y25739D01*
X559317Y25701D01*
X559301Y25619D01*
X559301Y25268D01*
X556957Y22924D01*
X540643Y22924D01*
X538299Y25268D01*
X538299Y27544D01*
X538288Y27594D01*
X538286Y27645D01*
X538268Y27677D01*
X538260Y27713D01*
X538227Y27752D01*
X538203Y27797D01*
X538173Y27818D01*
X538150Y27846D01*
X538103Y27867D01*
X538061Y27897D01*
X538019Y27905D01*
X537991Y27917D01*
X537961Y27916D01*
X537919Y27924D01*
X534731Y27924D01*
X534681Y27913D01*
X534630Y27911D01*
X534598Y27893D01*
X534562Y27885D01*
X534523Y27852D01*
X534478Y27828D01*
X534457Y27798D01*
X534429Y27775D01*
X534408Y27728D01*
X534378Y27686D01*
X534370Y27644D01*
X534358Y27616D01*
X534359Y27586D01*
X534351Y27544D01*
X534351Y25768D01*
X532007Y23424D01*
X515693Y23424D01*
X514619Y24498D01*
X514576Y24525D01*
X514538Y24560D01*
X514503Y24570D01*
X514472Y24590D01*
X514421Y24594D01*
X514372Y24609D01*
X514336Y24603D01*
X514299Y24606D01*
X514252Y24588D01*
X514201Y24579D01*
X514166Y24555D01*
X514137Y24545D01*
X514116Y24522D01*
X514081Y24498D01*
X512962Y23379D01*
X512922Y23315D01*
X512878Y23253D01*
X512876Y23241D01*
X512871Y23232D01*
X512867Y23195D01*
X512851Y23110D01*
X512851Y17484D01*
X511633Y14543D01*
X503007Y5917D01*
X500066Y4699D01*
X309559Y4699D01*
G37*
%LPD*%
%LPC*%
G36*
X395749Y24924D02*
X395749Y24924D01*
X393406Y27268D01*
X393406Y42582D01*
X395749Y44926D01*
X396025Y44926D01*
X396075Y44937D01*
X396126Y44939D01*
X396158Y44957D01*
X396194Y44965D01*
X396233Y44998D01*
X396278Y45022D01*
X396299Y45052D01*
X396328Y45075D01*
X396349Y45122D01*
X396378Y45164D01*
X396386Y45206D01*
X396399Y45234D01*
X396397Y45264D01*
X396406Y45306D01*
X396406Y49469D01*
X396394Y49519D01*
X396392Y49570D01*
X396374Y49602D01*
X396366Y49638D01*
X396334Y49677D01*
X396309Y49722D01*
X396279Y49743D01*
X396256Y49771D01*
X396209Y49792D01*
X396168Y49822D01*
X396126Y49830D01*
X396098Y49842D01*
X396067Y49841D01*
X396025Y49849D01*
X394068Y49849D01*
X391724Y52193D01*
X391724Y68507D01*
X392798Y69581D01*
X392825Y69624D01*
X392860Y69662D01*
X392870Y69697D01*
X392890Y69728D01*
X392894Y69779D01*
X392909Y69828D01*
X392903Y69864D01*
X392906Y69901D01*
X392888Y69948D01*
X392879Y69999D01*
X392855Y70034D01*
X392845Y70063D01*
X392822Y70084D01*
X392798Y70119D01*
X391724Y71193D01*
X391724Y87507D01*
X394068Y89851D01*
X395844Y89851D01*
X395894Y89862D01*
X395945Y89864D01*
X395977Y89882D01*
X396013Y89890D01*
X396052Y89923D01*
X396097Y89947D01*
X396118Y89977D01*
X396146Y90000D01*
X396167Y90047D01*
X396197Y90089D01*
X396205Y90131D01*
X396217Y90159D01*
X396216Y90189D01*
X396224Y90231D01*
X396224Y109181D01*
X396218Y109206D01*
X396221Y109232D01*
X396199Y109289D01*
X396185Y109349D01*
X396168Y109369D01*
X396159Y109393D01*
X396114Y109435D01*
X396075Y109483D01*
X396051Y109494D01*
X396032Y109511D01*
X395973Y109529D01*
X395916Y109554D01*
X395891Y109553D01*
X395866Y109560D01*
X395805Y109550D01*
X395743Y109547D01*
X395721Y109535D01*
X395695Y109531D01*
X395624Y109482D01*
X395591Y109465D01*
X395585Y109457D01*
X395575Y109450D01*
X394437Y108312D01*
X390163Y104038D01*
X388141Y102015D01*
X385568Y100949D01*
X374459Y100949D01*
X374397Y100935D01*
X374334Y100928D01*
X374313Y100915D01*
X374290Y100910D01*
X374241Y100869D01*
X374187Y100835D01*
X374172Y100813D01*
X374156Y100800D01*
X374141Y100765D01*
X374107Y100715D01*
X373819Y100019D01*
X369881Y96081D01*
X368723Y95601D01*
X368702Y95586D01*
X368678Y95579D01*
X368633Y95536D01*
X368583Y95500D01*
X368570Y95477D01*
X368552Y95460D01*
X368530Y95402D01*
X368501Y95347D01*
X368500Y95321D01*
X368492Y95297D01*
X368498Y95236D01*
X368496Y95174D01*
X368507Y95151D01*
X368510Y95125D01*
X368543Y95073D01*
X368569Y95017D01*
X368589Y95000D01*
X368602Y94979D01*
X368674Y94931D01*
X368703Y94908D01*
X368713Y94905D01*
X368723Y94899D01*
X369881Y94419D01*
X373819Y90481D01*
X375951Y85335D01*
X375951Y79765D01*
X373819Y74619D01*
X369881Y70681D01*
X364735Y68549D01*
X359165Y68549D01*
X354019Y70681D01*
X350081Y74619D01*
X349793Y75315D01*
X349756Y75366D01*
X349725Y75422D01*
X349706Y75436D01*
X349692Y75455D01*
X349636Y75485D01*
X349584Y75522D01*
X349557Y75527D01*
X349539Y75537D01*
X349501Y75538D01*
X349441Y75549D01*
X344682Y75549D01*
X342109Y76615D01*
X340087Y78638D01*
X335813Y82912D01*
X333790Y84934D01*
X332724Y87507D01*
X332724Y255393D01*
X333790Y257966D01*
X342109Y266285D01*
X344682Y267351D01*
X626973Y267351D01*
X627047Y267368D01*
X627122Y267381D01*
X627132Y267388D01*
X627142Y267390D01*
X627170Y267414D01*
X627242Y267462D01*
X629018Y269238D01*
X647332Y269238D01*
X649676Y266895D01*
X649676Y250580D01*
X648602Y249506D01*
X648575Y249463D01*
X648540Y249426D01*
X648530Y249390D01*
X648510Y249359D01*
X648506Y249308D01*
X648491Y249259D01*
X648497Y249223D01*
X648494Y249187D01*
X648512Y249139D01*
X648521Y249089D01*
X648545Y249053D01*
X648555Y249025D01*
X648578Y249004D01*
X648602Y248969D01*
X649676Y247895D01*
X649676Y231580D01*
X647332Y229237D01*
X645556Y229237D01*
X645506Y229225D01*
X645455Y229223D01*
X645423Y229206D01*
X645387Y229197D01*
X645348Y229165D01*
X645303Y229140D01*
X645282Y229110D01*
X645254Y229087D01*
X645233Y229040D01*
X645203Y228999D01*
X645195Y228957D01*
X645183Y228929D01*
X645184Y228898D01*
X645176Y228857D01*
X645176Y223581D01*
X645187Y223531D01*
X645189Y223480D01*
X645207Y223448D01*
X645215Y223412D01*
X645248Y223373D01*
X645272Y223328D01*
X645302Y223307D01*
X645325Y223279D01*
X645372Y223258D01*
X645414Y223228D01*
X645456Y223220D01*
X645484Y223208D01*
X645514Y223209D01*
X645556Y223201D01*
X647332Y223201D01*
X649676Y220857D01*
X649676Y204543D01*
X647569Y202436D01*
X647543Y202393D01*
X647508Y202356D01*
X647497Y202320D01*
X647478Y202289D01*
X647473Y202239D01*
X647459Y202190D01*
X647465Y202153D01*
X647461Y202117D01*
X647480Y202069D01*
X647488Y202019D01*
X647512Y201983D01*
X647523Y201955D01*
X647546Y201934D01*
X647569Y201899D01*
X647708Y201760D01*
X648043Y201181D01*
X648216Y200535D01*
X648216Y194461D01*
X638556Y194461D01*
X638506Y194450D01*
X638455Y194448D01*
X638423Y194430D01*
X638387Y194422D01*
X638348Y194389D01*
X638303Y194365D01*
X638282Y194335D01*
X638254Y194311D01*
X638233Y194265D01*
X638203Y194223D01*
X638195Y194181D01*
X638183Y194153D01*
X638184Y194123D01*
X638176Y194081D01*
X638176Y193699D01*
X638174Y193699D01*
X638174Y194081D01*
X638163Y194131D01*
X638161Y194182D01*
X638143Y194214D01*
X638135Y194250D01*
X638102Y194289D01*
X638078Y194334D01*
X638048Y194355D01*
X638024Y194383D01*
X637978Y194404D01*
X637936Y194434D01*
X637894Y194442D01*
X637866Y194454D01*
X637836Y194453D01*
X637794Y194461D01*
X628134Y194461D01*
X628134Y200535D01*
X628307Y201181D01*
X628642Y201760D01*
X628781Y201899D01*
X628808Y201942D01*
X628842Y201980D01*
X628853Y202015D01*
X628872Y202046D01*
X628877Y202097D01*
X628891Y202146D01*
X628885Y202182D01*
X628889Y202218D01*
X628870Y202266D01*
X628862Y202316D01*
X628838Y202352D01*
X628827Y202380D01*
X628804Y202401D01*
X628781Y202436D01*
X626674Y204543D01*
X626674Y220857D01*
X629018Y223201D01*
X630794Y223201D01*
X630844Y223212D01*
X630895Y223214D01*
X630927Y223232D01*
X630963Y223240D01*
X631002Y223273D01*
X631047Y223297D01*
X631068Y223327D01*
X631096Y223350D01*
X631117Y223397D01*
X631147Y223439D01*
X631155Y223481D01*
X631167Y223509D01*
X631167Y223514D01*
X631167Y223515D01*
X631166Y223540D01*
X631174Y223581D01*
X631174Y228857D01*
X631163Y228906D01*
X631161Y228957D01*
X631143Y228989D01*
X631135Y229025D01*
X631102Y229065D01*
X631078Y229109D01*
X631048Y229131D01*
X631025Y229159D01*
X630978Y229180D01*
X630936Y229209D01*
X630894Y229217D01*
X630866Y229230D01*
X630836Y229229D01*
X630794Y229237D01*
X629018Y229237D01*
X627292Y230963D01*
X627227Y231003D01*
X627165Y231047D01*
X627153Y231049D01*
X627145Y231054D01*
X627107Y231058D01*
X627023Y231074D01*
X619331Y231074D01*
X619281Y231063D01*
X619230Y231061D01*
X619198Y231043D01*
X619162Y231035D01*
X619123Y231002D01*
X619078Y230978D01*
X619057Y230948D01*
X619029Y230925D01*
X619008Y230878D01*
X618978Y230836D01*
X618970Y230794D01*
X618958Y230766D01*
X618959Y230736D01*
X618951Y230694D01*
X618951Y227018D01*
X616607Y224674D01*
X588593Y224674D01*
X586249Y227018D01*
X586249Y249132D01*
X588593Y251476D01*
X616607Y251476D01*
X618951Y249132D01*
X618951Y245456D01*
X618962Y245406D01*
X618964Y245355D01*
X618982Y245323D01*
X618990Y245287D01*
X619023Y245248D01*
X619047Y245203D01*
X619077Y245182D01*
X619100Y245154D01*
X619147Y245133D01*
X619189Y245103D01*
X619231Y245095D01*
X619259Y245083D01*
X619289Y245084D01*
X619331Y245076D01*
X626294Y245076D01*
X626344Y245087D01*
X626395Y245089D01*
X626427Y245107D01*
X626463Y245115D01*
X626502Y245148D01*
X626547Y245172D01*
X626568Y245202D01*
X626596Y245225D01*
X626617Y245272D01*
X626647Y245314D01*
X626655Y245356D01*
X626667Y245384D01*
X626666Y245414D01*
X626674Y245456D01*
X626674Y247895D01*
X627748Y248969D01*
X627775Y249012D01*
X627810Y249049D01*
X627820Y249085D01*
X627840Y249116D01*
X627844Y249167D01*
X627859Y249216D01*
X627853Y249252D01*
X627856Y249288D01*
X627838Y249336D01*
X627829Y249386D01*
X627805Y249422D01*
X627795Y249450D01*
X627772Y249471D01*
X627748Y249506D01*
X626674Y250580D01*
X626674Y252969D01*
X626663Y253019D01*
X626661Y253070D01*
X626643Y253102D01*
X626635Y253138D01*
X626602Y253177D01*
X626578Y253222D01*
X626548Y253243D01*
X626525Y253271D01*
X626478Y253292D01*
X626436Y253322D01*
X626394Y253330D01*
X626366Y253342D01*
X626336Y253341D01*
X626294Y253349D01*
X349132Y253349D01*
X349058Y253332D01*
X348984Y253319D01*
X348973Y253312D01*
X348964Y253310D01*
X348935Y253286D01*
X348863Y253238D01*
X346837Y251212D01*
X346828Y251198D01*
X346826Y251196D01*
X346823Y251188D01*
X346797Y251147D01*
X346753Y251085D01*
X346751Y251073D01*
X346746Y251064D01*
X346742Y251027D01*
X346726Y250943D01*
X346726Y91957D01*
X346743Y91883D01*
X346756Y91809D01*
X346763Y91798D01*
X346765Y91789D01*
X346789Y91760D01*
X346837Y91688D01*
X348863Y89662D01*
X348928Y89622D01*
X348990Y89578D01*
X349002Y89576D01*
X349011Y89571D01*
X349048Y89567D01*
X349132Y89551D01*
X349441Y89551D01*
X349503Y89565D01*
X349566Y89572D01*
X349587Y89585D01*
X349610Y89590D01*
X349659Y89631D01*
X349713Y89665D01*
X349728Y89687D01*
X349744Y89700D01*
X349759Y89735D01*
X349793Y89785D01*
X350081Y90481D01*
X354019Y94419D01*
X355177Y94899D01*
X355198Y94914D01*
X355222Y94921D01*
X355267Y94964D01*
X355317Y95000D01*
X355330Y95023D01*
X355348Y95040D01*
X355370Y95098D01*
X355399Y95153D01*
X355400Y95179D01*
X355408Y95203D01*
X355402Y95264D01*
X355404Y95326D01*
X355393Y95349D01*
X355390Y95375D01*
X355357Y95427D01*
X355331Y95483D01*
X355311Y95500D01*
X355298Y95521D01*
X355226Y95569D01*
X355197Y95592D01*
X355187Y95594D01*
X355177Y95601D01*
X354019Y96081D01*
X350081Y100019D01*
X347949Y105165D01*
X347949Y110735D01*
X350081Y115881D01*
X354019Y119819D01*
X355177Y120299D01*
X355198Y120314D01*
X355222Y120321D01*
X355267Y120364D01*
X355317Y120400D01*
X355330Y120423D01*
X355348Y120440D01*
X355370Y120498D01*
X355399Y120553D01*
X355400Y120579D01*
X355408Y120603D01*
X355402Y120664D01*
X355404Y120726D01*
X355393Y120749D01*
X355390Y120775D01*
X355357Y120827D01*
X355331Y120883D01*
X355311Y120900D01*
X355298Y120921D01*
X355226Y120969D01*
X355197Y120992D01*
X355187Y120994D01*
X355177Y121001D01*
X354019Y121481D01*
X350081Y125419D01*
X347949Y130565D01*
X347949Y136135D01*
X350081Y141281D01*
X354019Y145219D01*
X357043Y146472D01*
X357052Y146478D01*
X357062Y146480D01*
X357121Y146528D01*
X357184Y146573D01*
X357189Y146582D01*
X357197Y146589D01*
X357229Y146658D01*
X357265Y146726D01*
X357265Y146736D01*
X357270Y146746D01*
X357268Y146822D01*
X357270Y146899D01*
X357265Y146909D01*
X357265Y146919D01*
X357229Y146987D01*
X357197Y147056D01*
X357189Y147063D01*
X357184Y147073D01*
X357070Y147162D01*
X355377Y148024D01*
X353780Y149184D01*
X352384Y150580D01*
X351224Y152177D01*
X350328Y153936D01*
X349718Y155813D01*
X349409Y157763D01*
X349409Y157989D01*
X361569Y157989D01*
X361619Y158000D01*
X361670Y158002D01*
X361702Y158020D01*
X361738Y158028D01*
X361777Y158061D01*
X361822Y158085D01*
X361843Y158115D01*
X361871Y158138D01*
X361892Y158185D01*
X361921Y158227D01*
X361930Y158269D01*
X361942Y158297D01*
X361941Y158327D01*
X361949Y158369D01*
X361949Y159131D01*
X361937Y159181D01*
X361936Y159232D01*
X361918Y159264D01*
X361910Y159300D01*
X361877Y159339D01*
X361853Y159384D01*
X361823Y159405D01*
X361799Y159433D01*
X361753Y159454D01*
X361711Y159484D01*
X361669Y159492D01*
X361641Y159504D01*
X361611Y159503D01*
X361569Y159511D01*
X349409Y159511D01*
X349409Y159737D01*
X349718Y161687D01*
X350328Y163564D01*
X351224Y165323D01*
X352384Y166920D01*
X353780Y168316D01*
X355377Y169476D01*
X357070Y170338D01*
X357078Y170345D01*
X357088Y170348D01*
X357144Y170401D01*
X357202Y170450D01*
X357207Y170460D01*
X357214Y170467D01*
X357241Y170539D01*
X357271Y170609D01*
X357271Y170620D01*
X357275Y170630D01*
X357267Y170706D01*
X357263Y170782D01*
X357257Y170791D01*
X357256Y170802D01*
X357216Y170867D01*
X357178Y170933D01*
X357169Y170939D01*
X357164Y170948D01*
X357043Y171028D01*
X354019Y172281D01*
X350081Y176219D01*
X347949Y181365D01*
X347949Y186935D01*
X350081Y192081D01*
X354019Y196019D01*
X355177Y196499D01*
X355198Y196514D01*
X355222Y196521D01*
X355267Y196564D01*
X355317Y196600D01*
X355330Y196623D01*
X355348Y196640D01*
X355370Y196698D01*
X355399Y196753D01*
X355400Y196779D01*
X355408Y196803D01*
X355402Y196864D01*
X355404Y196926D01*
X355393Y196949D01*
X355390Y196975D01*
X355357Y197027D01*
X355331Y197083D01*
X355311Y197100D01*
X355298Y197121D01*
X355226Y197169D01*
X355197Y197192D01*
X355187Y197194D01*
X355177Y197201D01*
X354019Y197681D01*
X350081Y201619D01*
X347949Y206765D01*
X347949Y212335D01*
X350081Y217481D01*
X354019Y221419D01*
X359165Y223551D01*
X364735Y223551D01*
X369881Y221419D01*
X373819Y217481D01*
X375951Y212335D01*
X375951Y206765D01*
X373819Y201619D01*
X369881Y197681D01*
X368723Y197201D01*
X368702Y197186D01*
X368678Y197179D01*
X368633Y197136D01*
X368583Y197100D01*
X368570Y197077D01*
X368552Y197060D01*
X368530Y197002D01*
X368501Y196947D01*
X368500Y196921D01*
X368492Y196897D01*
X368498Y196836D01*
X368496Y196774D01*
X368507Y196751D01*
X368510Y196725D01*
X368543Y196673D01*
X368569Y196617D01*
X368589Y196600D01*
X368602Y196579D01*
X368674Y196531D01*
X368703Y196508D01*
X368713Y196505D01*
X368723Y196499D01*
X369881Y196019D01*
X373819Y192081D01*
X375951Y186935D01*
X375951Y181365D01*
X373819Y176219D01*
X369881Y172281D01*
X366857Y171028D01*
X366848Y171022D01*
X366838Y171020D01*
X366779Y170972D01*
X366716Y170927D01*
X366711Y170918D01*
X366703Y170911D01*
X366671Y170842D01*
X366635Y170774D01*
X366635Y170764D01*
X366630Y170754D01*
X366632Y170678D01*
X366630Y170601D01*
X366635Y170591D01*
X366635Y170581D01*
X366671Y170513D01*
X366703Y170444D01*
X366711Y170437D01*
X366716Y170427D01*
X366830Y170338D01*
X368523Y169476D01*
X370120Y168316D01*
X371516Y166920D01*
X372676Y165323D01*
X373572Y163564D01*
X374182Y161687D01*
X374491Y159737D01*
X374491Y159511D01*
X362331Y159511D01*
X362281Y159500D01*
X362230Y159498D01*
X362198Y159480D01*
X362162Y159472D01*
X362123Y159439D01*
X362078Y159415D01*
X362057Y159385D01*
X362029Y159362D01*
X362008Y159315D01*
X361979Y159273D01*
X361970Y159231D01*
X361958Y159203D01*
X361959Y159173D01*
X361951Y159131D01*
X361951Y158369D01*
X361963Y158319D01*
X361964Y158268D01*
X361982Y158236D01*
X361990Y158200D01*
X362023Y158161D01*
X362047Y158116D01*
X362077Y158095D01*
X362101Y158067D01*
X362147Y158046D01*
X362189Y158016D01*
X362231Y158008D01*
X362259Y157996D01*
X362289Y157997D01*
X362331Y157989D01*
X374491Y157989D01*
X374491Y157763D01*
X374182Y155813D01*
X373572Y153936D01*
X372676Y152177D01*
X371516Y150580D01*
X370120Y149184D01*
X368523Y148024D01*
X366830Y147162D01*
X366822Y147155D01*
X366812Y147152D01*
X366756Y147099D01*
X366698Y147050D01*
X366693Y147040D01*
X366686Y147033D01*
X366659Y146961D01*
X366629Y146891D01*
X366629Y146880D01*
X366625Y146870D01*
X366633Y146794D01*
X366637Y146718D01*
X366643Y146709D01*
X366644Y146698D01*
X366684Y146633D01*
X366722Y146567D01*
X366731Y146561D01*
X366736Y146552D01*
X366857Y146472D01*
X369881Y145219D01*
X373819Y141281D01*
X375951Y136135D01*
X375951Y130565D01*
X373819Y125419D01*
X369881Y121481D01*
X368723Y121001D01*
X368702Y120986D01*
X368678Y120979D01*
X368633Y120936D01*
X368583Y120900D01*
X368570Y120877D01*
X368552Y120860D01*
X368530Y120802D01*
X368501Y120747D01*
X368500Y120721D01*
X368492Y120697D01*
X368498Y120636D01*
X368496Y120574D01*
X368507Y120551D01*
X368510Y120525D01*
X368543Y120473D01*
X368569Y120417D01*
X368589Y120400D01*
X368602Y120379D01*
X368674Y120331D01*
X368703Y120308D01*
X368713Y120305D01*
X368723Y120299D01*
X369881Y119819D01*
X373819Y115881D01*
X374107Y115185D01*
X374144Y115134D01*
X374175Y115078D01*
X374194Y115064D01*
X374208Y115045D01*
X374264Y115015D01*
X374316Y114978D01*
X374343Y114973D01*
X374361Y114963D01*
X374399Y114962D01*
X374459Y114951D01*
X381118Y114951D01*
X381192Y114968D01*
X381266Y114981D01*
X381277Y114988D01*
X381286Y114990D01*
X381315Y115014D01*
X381387Y115062D01*
X383413Y117088D01*
X383453Y117153D01*
X383497Y117215D01*
X383499Y117227D01*
X383504Y117236D01*
X383508Y117273D01*
X383524Y117357D01*
X383524Y150618D01*
X384590Y153191D01*
X405609Y174210D01*
X408182Y175276D01*
X552568Y175276D01*
X552642Y175293D01*
X552716Y175306D01*
X552727Y175313D01*
X552736Y175315D01*
X552765Y175339D01*
X552837Y175387D01*
X577059Y199610D01*
X579632Y200676D01*
X585869Y200676D01*
X585919Y200687D01*
X585970Y200689D01*
X586002Y200707D01*
X586038Y200715D01*
X586077Y200748D01*
X586122Y200772D01*
X586143Y200802D01*
X586171Y200825D01*
X586192Y200872D01*
X586222Y200914D01*
X586230Y200956D01*
X586242Y200984D01*
X586241Y201014D01*
X586249Y201056D01*
X586249Y204632D01*
X588593Y206976D01*
X616607Y206976D01*
X618951Y204632D01*
X618951Y182518D01*
X616607Y180174D01*
X588593Y180174D01*
X586249Y182518D01*
X586249Y186294D01*
X586238Y186344D01*
X586236Y186395D01*
X586218Y186427D01*
X586210Y186463D01*
X586177Y186502D01*
X586153Y186547D01*
X586123Y186568D01*
X586100Y186596D01*
X586053Y186617D01*
X586011Y186647D01*
X585969Y186655D01*
X585941Y186667D01*
X585911Y186666D01*
X585869Y186674D01*
X584082Y186674D01*
X584008Y186657D01*
X583934Y186644D01*
X583923Y186637D01*
X583914Y186635D01*
X583885Y186611D01*
X583813Y186563D01*
X559591Y162340D01*
X557018Y161274D01*
X442227Y161274D01*
X442201Y161268D01*
X442176Y161271D01*
X442118Y161249D01*
X442058Y161235D01*
X442038Y161218D01*
X442014Y161209D01*
X441972Y161164D01*
X441924Y161125D01*
X441914Y161101D01*
X441896Y161082D01*
X441879Y161023D01*
X441853Y160966D01*
X441854Y160941D01*
X441847Y160916D01*
X441858Y160855D01*
X441860Y160793D01*
X441872Y160771D01*
X441877Y160745D01*
X441925Y160674D01*
X441943Y160641D01*
X441951Y160635D01*
X441958Y160625D01*
X442451Y160132D01*
X442451Y138018D01*
X440107Y135674D01*
X412093Y135674D01*
X410875Y136892D01*
X410853Y136906D01*
X410837Y136926D01*
X410780Y136951D01*
X410728Y136984D01*
X410702Y136986D01*
X410678Y136997D01*
X410617Y136994D01*
X410555Y137000D01*
X410531Y136991D01*
X410505Y136990D01*
X410451Y136961D01*
X410393Y136939D01*
X410376Y136920D01*
X410353Y136907D01*
X410318Y136857D01*
X410276Y136811D01*
X410268Y136787D01*
X410253Y136766D01*
X410237Y136681D01*
X410226Y136645D01*
X410228Y136635D01*
X410226Y136623D01*
X410226Y90231D01*
X410237Y90181D01*
X410239Y90130D01*
X410257Y90098D01*
X410265Y90062D01*
X410298Y90023D01*
X410322Y89978D01*
X410352Y89957D01*
X410375Y89929D01*
X410422Y89908D01*
X410464Y89878D01*
X410506Y89870D01*
X410534Y89858D01*
X410564Y89859D01*
X410606Y89851D01*
X412382Y89851D01*
X414726Y87507D01*
X414726Y71193D01*
X413652Y70119D01*
X413625Y70076D01*
X413590Y70038D01*
X413580Y70003D01*
X413560Y69972D01*
X413556Y69921D01*
X413541Y69872D01*
X413547Y69836D01*
X413544Y69799D01*
X413562Y69752D01*
X413571Y69701D01*
X413595Y69666D01*
X413605Y69637D01*
X413628Y69616D01*
X413652Y69581D01*
X414726Y68507D01*
X414726Y52193D01*
X412382Y49849D01*
X410787Y49849D01*
X410738Y49838D01*
X410687Y49836D01*
X410654Y49818D01*
X410619Y49810D01*
X410579Y49777D01*
X410534Y49753D01*
X410513Y49723D01*
X410485Y49700D01*
X410464Y49653D01*
X410435Y49611D01*
X410426Y49569D01*
X410414Y49541D01*
X410415Y49511D01*
X410414Y49505D01*
X410407Y49469D01*
X410407Y45306D01*
X410419Y45256D01*
X410421Y45205D01*
X410438Y45173D01*
X410446Y45137D01*
X410479Y45098D01*
X410503Y45053D01*
X410533Y45032D01*
X410557Y45004D01*
X410603Y44983D01*
X410645Y44953D01*
X410687Y44945D01*
X410715Y44933D01*
X410745Y44934D01*
X410787Y44926D01*
X411063Y44926D01*
X413407Y42582D01*
X413407Y27268D01*
X411063Y24924D01*
X395749Y24924D01*
G37*
%LPD*%
%LPC*%
G36*
X359165Y271749D02*
X359165Y271749D01*
X354019Y273881D01*
X350081Y277819D01*
X347949Y282965D01*
X347949Y288535D01*
X350081Y293681D01*
X354019Y297619D01*
X355177Y298099D01*
X355198Y298114D01*
X355222Y298121D01*
X355267Y298164D01*
X355317Y298200D01*
X355330Y298223D01*
X355348Y298240D01*
X355370Y298298D01*
X355399Y298353D01*
X355400Y298379D01*
X355408Y298403D01*
X355402Y298464D01*
X355404Y298526D01*
X355393Y298549D01*
X355390Y298575D01*
X355357Y298627D01*
X355331Y298683D01*
X355311Y298700D01*
X355298Y298721D01*
X355226Y298769D01*
X355197Y298792D01*
X355187Y298794D01*
X355177Y298801D01*
X354019Y299281D01*
X350081Y303219D01*
X347949Y308365D01*
X347949Y313935D01*
X350081Y319081D01*
X354019Y323019D01*
X355177Y323499D01*
X355198Y323514D01*
X355222Y323521D01*
X355267Y323564D01*
X355318Y323600D01*
X355330Y323623D01*
X355348Y323640D01*
X355370Y323698D01*
X355399Y323753D01*
X355400Y323778D01*
X355409Y323803D01*
X355402Y323864D01*
X355404Y323926D01*
X355393Y323949D01*
X355390Y323975D01*
X355357Y324027D01*
X355331Y324083D01*
X355311Y324100D01*
X355298Y324121D01*
X355226Y324169D01*
X355197Y324192D01*
X355187Y324195D01*
X355177Y324201D01*
X354019Y324681D01*
X350081Y328619D01*
X347949Y333765D01*
X347949Y339335D01*
X350081Y344481D01*
X354019Y348419D01*
X355177Y348899D01*
X355198Y348914D01*
X355222Y348921D01*
X355267Y348964D01*
X355318Y349000D01*
X355330Y349022D01*
X355348Y349040D01*
X355370Y349098D01*
X355399Y349153D01*
X355400Y349179D01*
X355409Y349203D01*
X355402Y349264D01*
X355404Y349326D01*
X355393Y349349D01*
X355390Y349375D01*
X355357Y349427D01*
X355331Y349483D01*
X355311Y349500D01*
X355298Y349521D01*
X355226Y349569D01*
X355197Y349592D01*
X355187Y349594D01*
X355177Y349601D01*
X354019Y350081D01*
X350081Y354019D01*
X347949Y359165D01*
X347949Y364735D01*
X350081Y369881D01*
X354019Y373819D01*
X355177Y374299D01*
X355198Y374314D01*
X355222Y374321D01*
X355267Y374364D01*
X355318Y374400D01*
X355330Y374422D01*
X355348Y374440D01*
X355370Y374498D01*
X355399Y374553D01*
X355400Y374579D01*
X355409Y374603D01*
X355402Y374664D01*
X355404Y374726D01*
X355393Y374749D01*
X355390Y374775D01*
X355357Y374827D01*
X355331Y374883D01*
X355311Y374900D01*
X355298Y374921D01*
X355226Y374969D01*
X355197Y374992D01*
X355187Y374994D01*
X355177Y375001D01*
X354019Y375481D01*
X350081Y379419D01*
X347949Y384565D01*
X347949Y390135D01*
X350081Y395281D01*
X354019Y399219D01*
X355177Y399699D01*
X355198Y399714D01*
X355222Y399721D01*
X355267Y399764D01*
X355318Y399800D01*
X355330Y399822D01*
X355348Y399840D01*
X355370Y399898D01*
X355399Y399953D01*
X355400Y399979D01*
X355409Y400003D01*
X355402Y400064D01*
X355404Y400126D01*
X355393Y400149D01*
X355390Y400175D01*
X355357Y400227D01*
X355331Y400283D01*
X355311Y400300D01*
X355298Y400321D01*
X355226Y400369D01*
X355197Y400392D01*
X355187Y400394D01*
X355177Y400401D01*
X354019Y400881D01*
X350081Y404819D01*
X347949Y409965D01*
X347949Y415535D01*
X350081Y420681D01*
X354019Y424619D01*
X355177Y425099D01*
X355198Y425114D01*
X355222Y425121D01*
X355267Y425164D01*
X355318Y425200D01*
X355330Y425222D01*
X355348Y425240D01*
X355370Y425298D01*
X355399Y425353D01*
X355400Y425379D01*
X355409Y425403D01*
X355402Y425464D01*
X355404Y425526D01*
X355393Y425549D01*
X355390Y425575D01*
X355357Y425627D01*
X355331Y425683D01*
X355311Y425700D01*
X355298Y425721D01*
X355226Y425769D01*
X355197Y425792D01*
X355187Y425794D01*
X355177Y425801D01*
X354019Y426281D01*
X350081Y430219D01*
X347949Y435365D01*
X347949Y440935D01*
X348798Y442985D01*
X348801Y442998D01*
X348807Y443009D01*
X348814Y443082D01*
X348826Y443156D01*
X348823Y443168D01*
X348824Y443181D01*
X348798Y443251D01*
X348776Y443321D01*
X348767Y443331D01*
X348762Y443343D01*
X348708Y443394D01*
X348657Y443447D01*
X348645Y443452D01*
X348635Y443461D01*
X348564Y443482D01*
X348494Y443508D01*
X348482Y443506D01*
X348469Y443510D01*
X348396Y443497D01*
X348322Y443489D01*
X348311Y443483D01*
X348298Y443480D01*
X348178Y443399D01*
X332962Y428183D01*
X332922Y428119D01*
X332878Y428056D01*
X332876Y428044D01*
X332871Y428036D01*
X332867Y427999D01*
X332851Y427914D01*
X332851Y421419D01*
X332868Y421345D01*
X332881Y421270D01*
X332888Y421260D01*
X332890Y421250D01*
X332914Y421221D01*
X332962Y421150D01*
X334348Y419764D01*
X336233Y415213D01*
X336233Y410287D01*
X334348Y405736D01*
X330864Y402252D01*
X326313Y400367D01*
X321387Y400367D01*
X316836Y402252D01*
X313352Y405736D01*
X311467Y410287D01*
X311467Y415213D01*
X313352Y419764D01*
X314738Y421150D01*
X314778Y421214D01*
X314822Y421276D01*
X314824Y421288D01*
X314829Y421297D01*
X314833Y421334D01*
X314849Y421419D01*
X314849Y433590D01*
X316220Y436899D01*
X344151Y464830D01*
X347460Y466201D01*
X381910Y466201D01*
X381984Y466218D01*
X382059Y466231D01*
X382069Y466238D01*
X382079Y466240D01*
X382108Y466264D01*
X382179Y466312D01*
X384043Y468176D01*
X403357Y468176D01*
X404746Y466787D01*
X404810Y466747D01*
X404872Y466703D01*
X404885Y466701D01*
X404893Y466696D01*
X404930Y466692D01*
X405015Y466676D01*
X431569Y466676D01*
X431619Y466687D01*
X431670Y466689D01*
X431702Y466707D01*
X431738Y466715D01*
X431777Y466748D01*
X431822Y466772D01*
X431843Y466802D01*
X431871Y466825D01*
X431892Y466872D01*
X431922Y466914D01*
X431930Y466956D01*
X431942Y466984D01*
X431941Y467014D01*
X431949Y467056D01*
X431949Y467832D01*
X434293Y470176D01*
X456407Y470176D01*
X458751Y467832D01*
X458751Y439818D01*
X456407Y437474D01*
X434293Y437474D01*
X431949Y439818D01*
X431949Y448294D01*
X431938Y448344D01*
X431936Y448395D01*
X431918Y448427D01*
X431910Y448463D01*
X431877Y448502D01*
X431853Y448547D01*
X431823Y448568D01*
X431800Y448596D01*
X431753Y448617D01*
X431711Y448647D01*
X431669Y448655D01*
X431641Y448667D01*
X431611Y448666D01*
X431569Y448674D01*
X405015Y448674D01*
X404941Y448657D01*
X404866Y448644D01*
X404856Y448637D01*
X404846Y448635D01*
X404817Y448611D01*
X404746Y448563D01*
X403357Y447174D01*
X403006Y447174D01*
X402933Y447157D01*
X402859Y447145D01*
X402849Y447138D01*
X402837Y447135D01*
X402779Y447087D01*
X402719Y447043D01*
X402713Y447032D01*
X402703Y447025D01*
X402673Y446956D01*
X402638Y446890D01*
X402637Y446878D01*
X402632Y446866D01*
X402635Y446792D01*
X402633Y446717D01*
X402639Y446706D01*
X402639Y446693D01*
X402675Y446627D01*
X402706Y446560D01*
X402716Y446551D01*
X402722Y446541D01*
X402753Y446519D01*
X402816Y446465D01*
X403260Y446208D01*
X403733Y445735D01*
X404068Y445156D01*
X404241Y444510D01*
X404241Y438436D01*
X394081Y438436D01*
X394031Y438425D01*
X393980Y438423D01*
X393948Y438405D01*
X393912Y438397D01*
X393873Y438364D01*
X393828Y438340D01*
X393807Y438310D01*
X393779Y438286D01*
X393758Y438240D01*
X393728Y438198D01*
X393720Y438156D01*
X393708Y438128D01*
X393708Y438121D01*
X393708Y438120D01*
X393709Y438097D01*
X393701Y438056D01*
X393701Y437674D01*
X393699Y437674D01*
X393699Y438056D01*
X393688Y438106D01*
X393686Y438157D01*
X393668Y438189D01*
X393660Y438225D01*
X393627Y438264D01*
X393603Y438309D01*
X393573Y438330D01*
X393549Y438358D01*
X393503Y438379D01*
X393461Y438409D01*
X393419Y438417D01*
X393391Y438429D01*
X393361Y438428D01*
X393319Y438436D01*
X383159Y438436D01*
X383159Y444510D01*
X383332Y445156D01*
X383667Y445735D01*
X384140Y446208D01*
X384584Y446465D01*
X384639Y446516D01*
X384697Y446563D01*
X384702Y446575D01*
X384711Y446583D01*
X384737Y446653D01*
X384768Y446722D01*
X384767Y446734D01*
X384771Y446746D01*
X384764Y446820D01*
X384761Y446895D01*
X384755Y446906D01*
X384754Y446918D01*
X384714Y446981D01*
X384678Y447047D01*
X384668Y447054D01*
X384662Y447065D01*
X384598Y447104D01*
X384537Y447147D01*
X384523Y447149D01*
X384514Y447155D01*
X384476Y447158D01*
X384394Y447174D01*
X384043Y447174D01*
X383129Y448088D01*
X383065Y448128D01*
X383003Y448172D01*
X382990Y448174D01*
X382982Y448179D01*
X382945Y448183D01*
X382860Y448199D01*
X372619Y448199D01*
X372594Y448193D01*
X372568Y448196D01*
X372510Y448174D01*
X372450Y448160D01*
X372430Y448143D01*
X372406Y448134D01*
X372364Y448089D01*
X372316Y448050D01*
X372306Y448026D01*
X372288Y448007D01*
X372271Y447948D01*
X372245Y447891D01*
X372246Y447866D01*
X372239Y447841D01*
X372250Y447780D01*
X372252Y447718D01*
X372264Y447696D01*
X372269Y447670D01*
X372317Y447599D01*
X372335Y447566D01*
X372343Y447560D01*
X372350Y447550D01*
X373819Y446081D01*
X375951Y440935D01*
X375951Y435365D01*
X373819Y430219D01*
X369881Y426281D01*
X368723Y425801D01*
X368702Y425786D01*
X368678Y425779D01*
X368633Y425736D01*
X368582Y425700D01*
X368570Y425677D01*
X368552Y425660D01*
X368530Y425602D01*
X368501Y425547D01*
X368500Y425522D01*
X368491Y425497D01*
X368498Y425436D01*
X368496Y425374D01*
X368507Y425351D01*
X368510Y425325D01*
X368543Y425273D01*
X368569Y425217D01*
X368589Y425200D01*
X368602Y425179D01*
X368674Y425131D01*
X368703Y425108D01*
X368713Y425105D01*
X368723Y425099D01*
X369881Y424619D01*
X373819Y420681D01*
X375951Y415535D01*
X375951Y409965D01*
X373819Y404819D01*
X369881Y400881D01*
X368723Y400401D01*
X368702Y400386D01*
X368678Y400379D01*
X368633Y400336D01*
X368582Y400300D01*
X368570Y400277D01*
X368552Y400260D01*
X368530Y400202D01*
X368501Y400147D01*
X368500Y400122D01*
X368491Y400097D01*
X368498Y400036D01*
X368496Y399974D01*
X368507Y399951D01*
X368510Y399925D01*
X368543Y399873D01*
X368569Y399817D01*
X368589Y399800D01*
X368602Y399779D01*
X368674Y399731D01*
X368703Y399708D01*
X368713Y399705D01*
X368723Y399699D01*
X369881Y399219D01*
X373819Y395281D01*
X375951Y390135D01*
X375951Y384565D01*
X373819Y379419D01*
X369881Y375481D01*
X368723Y375001D01*
X368702Y374986D01*
X368678Y374979D01*
X368633Y374936D01*
X368582Y374900D01*
X368570Y374877D01*
X368552Y374860D01*
X368530Y374802D01*
X368501Y374747D01*
X368500Y374722D01*
X368491Y374697D01*
X368498Y374636D01*
X368496Y374574D01*
X368507Y374551D01*
X368510Y374525D01*
X368543Y374473D01*
X368569Y374417D01*
X368589Y374400D01*
X368602Y374379D01*
X368674Y374331D01*
X368703Y374308D01*
X368713Y374305D01*
X368723Y374299D01*
X369881Y373819D01*
X371643Y372057D01*
X371687Y372030D01*
X371724Y371995D01*
X371759Y371985D01*
X371791Y371965D01*
X371841Y371960D01*
X371890Y371946D01*
X371926Y371952D01*
X371963Y371949D01*
X372011Y371967D01*
X372061Y371976D01*
X372096Y371999D01*
X372125Y372010D01*
X372146Y372033D01*
X372181Y372057D01*
X409638Y409513D01*
X409678Y409578D01*
X409722Y409640D01*
X409724Y409652D01*
X409729Y409661D01*
X409733Y409698D01*
X409749Y409782D01*
X409749Y427132D01*
X412093Y429476D01*
X440107Y429476D01*
X442451Y427132D01*
X442451Y405018D01*
X440107Y402674D01*
X422757Y402674D01*
X422683Y402657D01*
X422609Y402644D01*
X422598Y402637D01*
X422589Y402635D01*
X422560Y402611D01*
X422488Y402563D01*
X375941Y356015D01*
X374523Y355428D01*
X374462Y355384D01*
X374397Y355343D01*
X374391Y355333D01*
X374383Y355327D01*
X374365Y355294D01*
X374318Y355222D01*
X373819Y354019D01*
X369881Y350081D01*
X368723Y349601D01*
X368702Y349586D01*
X368678Y349579D01*
X368633Y349536D01*
X368582Y349500D01*
X368570Y349477D01*
X368552Y349460D01*
X368530Y349402D01*
X368501Y349347D01*
X368500Y349322D01*
X368491Y349297D01*
X368498Y349236D01*
X368496Y349174D01*
X368507Y349151D01*
X368510Y349125D01*
X368543Y349073D01*
X368569Y349017D01*
X368589Y349000D01*
X368602Y348979D01*
X368674Y348931D01*
X368703Y348908D01*
X368713Y348905D01*
X368723Y348899D01*
X369881Y348419D01*
X373256Y345044D01*
X373299Y345017D01*
X373337Y344983D01*
X373372Y344972D01*
X373403Y344953D01*
X373454Y344948D01*
X373503Y344933D01*
X373539Y344940D01*
X373576Y344936D01*
X373623Y344954D01*
X373673Y344963D01*
X373709Y344987D01*
X373737Y344998D01*
X373758Y345020D01*
X373794Y345044D01*
X406259Y377510D01*
X408832Y378576D01*
X409369Y378576D01*
X409419Y378587D01*
X409470Y378589D01*
X409502Y378607D01*
X409538Y378615D01*
X409577Y378648D01*
X409622Y378672D01*
X409643Y378702D01*
X409671Y378725D01*
X409692Y378772D01*
X409722Y378814D01*
X409730Y378856D01*
X409742Y378884D01*
X409741Y378914D01*
X409749Y378956D01*
X409749Y382632D01*
X412093Y384976D01*
X440107Y384976D01*
X442451Y382632D01*
X442451Y360518D01*
X440107Y358174D01*
X412093Y358174D01*
X409678Y360589D01*
X409634Y360616D01*
X409597Y360651D01*
X409562Y360661D01*
X409531Y360681D01*
X409480Y360686D01*
X409431Y360700D01*
X409395Y360694D01*
X409358Y360697D01*
X409310Y360679D01*
X409260Y360670D01*
X409225Y360647D01*
X409196Y360636D01*
X409175Y360613D01*
X409140Y360589D01*
X379166Y330615D01*
X376593Y329549D01*
X374459Y329549D01*
X374397Y329535D01*
X374334Y329528D01*
X374313Y329515D01*
X374290Y329510D01*
X374241Y329469D01*
X374187Y329435D01*
X374172Y329413D01*
X374156Y329400D01*
X374141Y329365D01*
X374107Y329315D01*
X373819Y328619D01*
X369881Y324681D01*
X368723Y324201D01*
X368702Y324186D01*
X368678Y324179D01*
X368633Y324136D01*
X368582Y324100D01*
X368570Y324078D01*
X368552Y324060D01*
X368530Y324002D01*
X368501Y323947D01*
X368500Y323921D01*
X368491Y323897D01*
X368498Y323836D01*
X368496Y323774D01*
X368507Y323751D01*
X368510Y323725D01*
X368543Y323673D01*
X368569Y323617D01*
X368589Y323600D01*
X368602Y323579D01*
X368674Y323531D01*
X368703Y323508D01*
X368713Y323506D01*
X368723Y323499D01*
X369881Y323019D01*
X373819Y319081D01*
X374107Y318385D01*
X374144Y318334D01*
X374175Y318278D01*
X374194Y318264D01*
X374208Y318245D01*
X374264Y318215D01*
X374316Y318178D01*
X374343Y318173D01*
X374361Y318163D01*
X374399Y318162D01*
X374459Y318151D01*
X381118Y318151D01*
X381192Y318168D01*
X381266Y318181D01*
X381277Y318188D01*
X381286Y318190D01*
X381315Y318214D01*
X381387Y318262D01*
X396134Y333010D01*
X398707Y334076D01*
X409369Y334076D01*
X409419Y334087D01*
X409470Y334089D01*
X409502Y334107D01*
X409538Y334115D01*
X409577Y334148D01*
X409622Y334172D01*
X409643Y334202D01*
X409671Y334225D01*
X409692Y334272D01*
X409722Y334314D01*
X409730Y334356D01*
X409742Y334384D01*
X409741Y334414D01*
X409749Y334456D01*
X409749Y338132D01*
X412093Y340476D01*
X440107Y340476D01*
X442451Y338132D01*
X442451Y334456D01*
X442462Y334406D01*
X442464Y334355D01*
X442482Y334323D01*
X442490Y334287D01*
X442523Y334248D01*
X442547Y334203D01*
X442577Y334182D01*
X442600Y334154D01*
X442647Y334133D01*
X442689Y334103D01*
X442731Y334095D01*
X442759Y334083D01*
X442789Y334084D01*
X442831Y334076D01*
X455368Y334076D01*
X457941Y333010D01*
X459963Y330987D01*
X479038Y311912D01*
X479103Y311872D01*
X479165Y311828D01*
X479177Y311826D01*
X479186Y311821D01*
X479223Y311817D01*
X479307Y311801D01*
X655443Y311801D01*
X658016Y310735D01*
X666363Y302387D01*
X666428Y302347D01*
X666490Y302303D01*
X666502Y302301D01*
X666511Y302296D01*
X666548Y302292D01*
X666632Y302276D01*
X786064Y302276D01*
X786138Y302293D01*
X786213Y302306D01*
X786223Y302313D01*
X786233Y302315D01*
X786262Y302339D01*
X786333Y302387D01*
X789072Y305127D01*
X793343Y306896D01*
X813207Y306896D01*
X817478Y305127D01*
X820747Y301858D01*
X822516Y297587D01*
X822516Y292963D01*
X820747Y288692D01*
X817478Y285423D01*
X813207Y283654D01*
X793343Y283654D01*
X789072Y285423D01*
X786333Y288163D01*
X786268Y288203D01*
X786206Y288247D01*
X786194Y288249D01*
X786186Y288254D01*
X786149Y288258D01*
X786064Y288274D01*
X662182Y288274D01*
X659609Y289340D01*
X651262Y297688D01*
X651197Y297728D01*
X651135Y297772D01*
X651123Y297774D01*
X651114Y297779D01*
X651077Y297783D01*
X650993Y297799D01*
X474857Y297799D01*
X472284Y298865D01*
X451187Y319963D01*
X451122Y320003D01*
X451060Y320047D01*
X451048Y320049D01*
X451039Y320054D01*
X451002Y320058D01*
X450918Y320074D01*
X442831Y320074D01*
X442781Y320063D01*
X442730Y320061D01*
X442698Y320043D01*
X442662Y320035D01*
X442623Y320002D01*
X442578Y319978D01*
X442557Y319948D01*
X442529Y319925D01*
X442508Y319878D01*
X442478Y319836D01*
X442470Y319794D01*
X442458Y319766D01*
X442459Y319736D01*
X442451Y319694D01*
X442451Y316018D01*
X440107Y313674D01*
X412093Y313674D01*
X409749Y316018D01*
X409749Y319694D01*
X409738Y319744D01*
X409736Y319795D01*
X409718Y319827D01*
X409710Y319863D01*
X409677Y319902D01*
X409653Y319947D01*
X409623Y319968D01*
X409600Y319996D01*
X409553Y320017D01*
X409511Y320047D01*
X409469Y320055D01*
X409441Y320067D01*
X409411Y320066D01*
X409369Y320074D01*
X403157Y320074D01*
X403083Y320057D01*
X403009Y320044D01*
X402998Y320037D01*
X402989Y320035D01*
X402960Y320011D01*
X402888Y319963D01*
X388141Y305215D01*
X385568Y304149D01*
X374459Y304149D01*
X374397Y304135D01*
X374334Y304128D01*
X374313Y304115D01*
X374290Y304110D01*
X374241Y304069D01*
X374187Y304035D01*
X374172Y304013D01*
X374156Y304000D01*
X374141Y303965D01*
X374107Y303915D01*
X373819Y303219D01*
X369881Y299281D01*
X368723Y298801D01*
X368702Y298786D01*
X368678Y298779D01*
X368633Y298736D01*
X368583Y298700D01*
X368570Y298677D01*
X368552Y298660D01*
X368530Y298602D01*
X368501Y298547D01*
X368500Y298521D01*
X368492Y298497D01*
X368498Y298436D01*
X368496Y298374D01*
X368507Y298351D01*
X368510Y298325D01*
X368543Y298273D01*
X368569Y298217D01*
X368589Y298200D01*
X368602Y298179D01*
X368674Y298131D01*
X368703Y298108D01*
X368713Y298105D01*
X368723Y298099D01*
X369881Y297619D01*
X373819Y293681D01*
X375951Y288535D01*
X375951Y282965D01*
X373819Y277819D01*
X369881Y273881D01*
X364735Y271749D01*
X359165Y271749D01*
G37*
%LPD*%
%LPC*%
G36*
X475193Y346677D02*
X475193Y346677D01*
X472849Y349020D01*
X472849Y432232D01*
X475193Y434576D01*
X541045Y434576D01*
X543388Y432232D01*
X543388Y349020D01*
X541045Y346677D01*
X475193Y346677D01*
G37*
%LPD*%
%LPC*%
G36*
X61952Y20792D02*
X61952Y20792D01*
X59091Y21977D01*
X56902Y24166D01*
X55717Y27027D01*
X55717Y30123D01*
X56470Y31941D01*
X56471Y31943D01*
X56472Y31944D01*
X56499Y32087D01*
X56499Y204593D01*
X57565Y207166D01*
X59588Y209188D01*
X63737Y213337D01*
X65759Y215360D01*
X68332Y216426D01*
X75269Y216426D01*
X75319Y216437D01*
X75370Y216439D01*
X75402Y216457D01*
X75438Y216465D01*
X75477Y216498D01*
X75522Y216522D01*
X75543Y216552D01*
X75571Y216575D01*
X75592Y216622D01*
X75622Y216664D01*
X75630Y216706D01*
X75642Y216734D01*
X75641Y216764D01*
X75649Y216806D01*
X75649Y229155D01*
X75649Y229157D01*
X75649Y229159D01*
X75620Y229301D01*
X74727Y231457D01*
X74727Y237393D01*
X76999Y242878D01*
X81197Y247076D01*
X86682Y249348D01*
X92618Y249348D01*
X98103Y247076D01*
X102301Y242878D01*
X104573Y237393D01*
X104573Y231457D01*
X103680Y229301D01*
X103679Y229299D01*
X103678Y229297D01*
X103651Y229155D01*
X103651Y214695D01*
X103651Y214693D01*
X103651Y214691D01*
X103680Y214549D01*
X104573Y212393D01*
X104573Y206457D01*
X102301Y200972D01*
X98103Y196774D01*
X92885Y194613D01*
X92864Y194598D01*
X92839Y194590D01*
X92794Y194548D01*
X92744Y194512D01*
X92732Y194489D01*
X92713Y194471D01*
X92691Y194413D01*
X92662Y194359D01*
X92662Y194333D01*
X92653Y194309D01*
X92659Y194247D01*
X92657Y194185D01*
X92668Y194162D01*
X92671Y194136D01*
X92704Y194084D01*
X92730Y194028D01*
X92750Y194012D01*
X92764Y193990D01*
X92836Y193942D01*
X92864Y193919D01*
X92874Y193917D01*
X92885Y193910D01*
X95315Y192903D01*
X98128Y190090D01*
X99651Y186414D01*
X99651Y182436D01*
X98128Y178760D01*
X95315Y175947D01*
X92885Y174940D01*
X92864Y174925D01*
X92839Y174917D01*
X92794Y174875D01*
X92744Y174839D01*
X92732Y174816D01*
X92713Y174799D01*
X92691Y174741D01*
X92662Y174686D01*
X92662Y174660D01*
X92653Y174636D01*
X92659Y174575D01*
X92657Y174513D01*
X92668Y174489D01*
X92671Y174464D01*
X92704Y174412D01*
X92730Y174355D01*
X92750Y174339D01*
X92764Y174317D01*
X92836Y174270D01*
X92864Y174246D01*
X92874Y174244D01*
X92885Y174237D01*
X98103Y172076D01*
X102301Y167878D01*
X104573Y162393D01*
X104573Y156457D01*
X103680Y154301D01*
X103679Y154299D01*
X103678Y154297D01*
X103651Y154155D01*
X103651Y139695D01*
X103651Y139693D01*
X103651Y139691D01*
X103680Y139549D01*
X104573Y137393D01*
X104573Y131457D01*
X102301Y125972D01*
X98103Y121774D01*
X92618Y119502D01*
X86682Y119502D01*
X81197Y121774D01*
X76999Y125972D01*
X74727Y131457D01*
X74727Y137393D01*
X75620Y139549D01*
X75621Y139551D01*
X75622Y139553D01*
X75649Y139695D01*
X75649Y154155D01*
X75649Y154157D01*
X75649Y154159D01*
X75620Y154301D01*
X74727Y156457D01*
X74727Y162393D01*
X76999Y167878D01*
X81197Y172076D01*
X86415Y174237D01*
X86436Y174252D01*
X86461Y174260D01*
X86506Y174302D01*
X86556Y174338D01*
X86568Y174361D01*
X86587Y174379D01*
X86609Y174437D01*
X86638Y174491D01*
X86638Y174517D01*
X86647Y174541D01*
X86641Y174603D01*
X86643Y174665D01*
X86632Y174688D01*
X86629Y174714D01*
X86596Y174766D01*
X86570Y174822D01*
X86550Y174838D01*
X86536Y174860D01*
X86464Y174908D01*
X86436Y174931D01*
X86426Y174933D01*
X86415Y174940D01*
X83985Y175947D01*
X81172Y178760D01*
X79649Y182436D01*
X79649Y186414D01*
X81172Y190090D01*
X83985Y192903D01*
X86415Y193910D01*
X86436Y193925D01*
X86461Y193933D01*
X86506Y193975D01*
X86556Y194011D01*
X86568Y194034D01*
X86587Y194051D01*
X86609Y194109D01*
X86638Y194164D01*
X86638Y194190D01*
X86647Y194214D01*
X86641Y194275D01*
X86643Y194337D01*
X86632Y194361D01*
X86629Y194386D01*
X86596Y194438D01*
X86570Y194495D01*
X86550Y194511D01*
X86536Y194533D01*
X86464Y194580D01*
X86436Y194604D01*
X86426Y194606D01*
X86415Y194613D01*
X81197Y196774D01*
X76999Y200972D01*
X76495Y202190D01*
X76458Y202241D01*
X76427Y202297D01*
X76408Y202311D01*
X76394Y202330D01*
X76338Y202360D01*
X76286Y202397D01*
X76259Y202402D01*
X76241Y202412D01*
X76203Y202413D01*
X76143Y202424D01*
X72782Y202424D01*
X72708Y202407D01*
X72634Y202394D01*
X72623Y202387D01*
X72614Y202385D01*
X72585Y202361D01*
X72513Y202313D01*
X70612Y200412D01*
X70572Y200347D01*
X70528Y200285D01*
X70526Y200273D01*
X70521Y200264D01*
X70517Y200227D01*
X70501Y200143D01*
X70501Y32087D01*
X70501Y32085D01*
X70501Y32083D01*
X70530Y31941D01*
X71283Y30123D01*
X71283Y27027D01*
X70098Y24166D01*
X67909Y21977D01*
X65048Y20792D01*
X61952Y20792D01*
G37*
%LPD*%
%LPC*%
G36*
X641349Y392430D02*
X641349Y392430D01*
X641349Y392812D01*
X641338Y392862D01*
X641336Y392913D01*
X641318Y392945D01*
X641310Y392981D01*
X641277Y393020D01*
X641253Y393065D01*
X641223Y393086D01*
X641199Y393115D01*
X641153Y393135D01*
X641111Y393165D01*
X641069Y393173D01*
X641041Y393185D01*
X641011Y393184D01*
X640969Y393192D01*
X630809Y393192D01*
X630809Y398638D01*
X630798Y398688D01*
X630796Y398739D01*
X630778Y398771D01*
X630770Y398807D01*
X630737Y398846D01*
X630713Y398891D01*
X630683Y398912D01*
X630660Y398940D01*
X630613Y398961D01*
X630571Y398991D01*
X630529Y398999D01*
X630501Y399011D01*
X630471Y399010D01*
X630429Y399018D01*
X589082Y399018D01*
X586369Y400142D01*
X584292Y402219D01*
X583168Y404932D01*
X583168Y426918D01*
X584292Y429631D01*
X586369Y431708D01*
X589082Y432832D01*
X693618Y432832D01*
X696331Y431708D01*
X698408Y429631D01*
X699532Y426918D01*
X699532Y404932D01*
X698408Y402219D01*
X696331Y400142D01*
X693618Y399018D01*
X652271Y399018D01*
X652221Y399007D01*
X652170Y399005D01*
X652138Y398987D01*
X652102Y398979D01*
X652063Y398946D01*
X652018Y398922D01*
X651997Y398892D01*
X651969Y398869D01*
X651948Y398822D01*
X651918Y398780D01*
X651910Y398738D01*
X651898Y398710D01*
X651899Y398680D01*
X651891Y398638D01*
X651891Y393192D01*
X641731Y393192D01*
X641681Y393181D01*
X641630Y393179D01*
X641598Y393161D01*
X641562Y393153D01*
X641523Y393120D01*
X641478Y393096D01*
X641457Y393066D01*
X641429Y393043D01*
X641408Y392996D01*
X641378Y392954D01*
X641370Y392913D01*
X641358Y392885D01*
X641358Y392872D01*
X641358Y392871D01*
X641359Y392852D01*
X641351Y392812D01*
X641351Y392430D01*
X641349Y392430D01*
G37*
%LPD*%
%LPC*%
G36*
X638214Y72386D02*
X638214Y72386D01*
X635354Y73571D01*
X633165Y75760D01*
X631980Y78621D01*
X631980Y81717D01*
X632733Y83535D01*
X632733Y83537D01*
X632734Y83538D01*
X632742Y83576D01*
X632744Y83583D01*
X632744Y83589D01*
X632762Y83680D01*
X632762Y118025D01*
X632750Y118075D01*
X632748Y118126D01*
X632731Y118158D01*
X632722Y118194D01*
X632690Y118233D01*
X632665Y118278D01*
X632635Y118299D01*
X632612Y118328D01*
X632565Y118349D01*
X632524Y118378D01*
X632482Y118386D01*
X632454Y118399D01*
X632423Y118397D01*
X632382Y118406D01*
X630105Y118406D01*
X627762Y120749D01*
X627762Y137063D01*
X629336Y138637D01*
X629363Y138681D01*
X629397Y138718D01*
X629408Y138753D01*
X629427Y138785D01*
X629432Y138835D01*
X629446Y138884D01*
X629440Y138920D01*
X629444Y138957D01*
X629426Y139005D01*
X629417Y139055D01*
X629393Y139090D01*
X629382Y139119D01*
X629360Y139140D01*
X629336Y139175D01*
X627717Y140794D01*
X627652Y140834D01*
X627590Y140878D01*
X627578Y140880D01*
X627569Y140886D01*
X627532Y140889D01*
X627448Y140906D01*
X619331Y140906D01*
X619281Y140894D01*
X619230Y140892D01*
X619198Y140874D01*
X619162Y140866D01*
X619123Y140834D01*
X619078Y140809D01*
X619057Y140779D01*
X619029Y140756D01*
X619008Y140709D01*
X618978Y140668D01*
X618970Y140626D01*
X618958Y140598D01*
X618959Y140567D01*
X618951Y140525D01*
X618951Y138018D01*
X616607Y135674D01*
X588593Y135674D01*
X586249Y138018D01*
X586249Y160132D01*
X588593Y162476D01*
X616607Y162476D01*
X618951Y160132D01*
X618951Y157287D01*
X618962Y157238D01*
X618964Y157187D01*
X618982Y157154D01*
X618990Y157119D01*
X619023Y157079D01*
X619047Y157034D01*
X619077Y157013D01*
X619100Y156985D01*
X619147Y156964D01*
X619189Y156935D01*
X619231Y156926D01*
X619259Y156914D01*
X619289Y156915D01*
X619331Y156907D01*
X627448Y156907D01*
X627522Y156924D01*
X627597Y156937D01*
X627607Y156944D01*
X627617Y156946D01*
X627645Y156970D01*
X627717Y157018D01*
X630105Y159407D01*
X649420Y159407D01*
X651763Y157063D01*
X651763Y140749D01*
X650189Y139175D01*
X650162Y139132D01*
X650128Y139094D01*
X650117Y139059D01*
X650098Y139028D01*
X650093Y138977D01*
X650079Y138928D01*
X650085Y138892D01*
X650081Y138855D01*
X650099Y138808D01*
X650108Y138757D01*
X650132Y138722D01*
X650143Y138694D01*
X650165Y138673D01*
X650189Y138637D01*
X651763Y137063D01*
X651763Y120749D01*
X649420Y118406D01*
X647143Y118406D01*
X647094Y118394D01*
X647043Y118392D01*
X647011Y118374D01*
X646975Y118366D01*
X646935Y118334D01*
X646891Y118309D01*
X646869Y118279D01*
X646841Y118256D01*
X646820Y118209D01*
X646791Y118168D01*
X646783Y118126D01*
X646770Y118098D01*
X646771Y118067D01*
X646763Y118025D01*
X646763Y83680D01*
X646764Y83679D01*
X646763Y83677D01*
X646787Y83560D01*
X646787Y83554D01*
X646789Y83552D01*
X646792Y83535D01*
X647545Y81717D01*
X647545Y78621D01*
X646360Y75760D01*
X644171Y73571D01*
X641311Y72386D01*
X638214Y72386D01*
G37*
%LPD*%
%LPC*%
G36*
X527693Y98324D02*
X527693Y98324D01*
X525349Y100668D01*
X525349Y121982D01*
X527693Y124326D01*
X611007Y124326D01*
X613351Y121982D01*
X613351Y100668D01*
X611007Y98324D01*
X527693Y98324D01*
G37*
%LPD*%
G36*
X850156Y406031D02*
X850156Y406031D01*
X850207Y406033D01*
X850239Y406051D01*
X850275Y406059D01*
X850314Y406092D01*
X850359Y406116D01*
X850380Y406146D01*
X850409Y406169D01*
X850430Y406216D01*
X850459Y406258D01*
X850467Y406300D01*
X850480Y406328D01*
X850478Y406358D01*
X850487Y406400D01*
X850487Y425450D01*
X850475Y425500D01*
X850473Y425551D01*
X850455Y425583D01*
X850447Y425619D01*
X850415Y425658D01*
X850390Y425703D01*
X850360Y425724D01*
X850337Y425752D01*
X850290Y425773D01*
X850249Y425803D01*
X850207Y425811D01*
X850179Y425823D01*
X850148Y425822D01*
X850106Y425830D01*
X736600Y425830D01*
X736550Y425819D01*
X736499Y425817D01*
X736467Y425799D01*
X736431Y425791D01*
X736392Y425758D01*
X736347Y425734D01*
X736326Y425704D01*
X736298Y425681D01*
X736277Y425634D01*
X736247Y425592D01*
X736239Y425550D01*
X736227Y425522D01*
X736228Y425492D01*
X736220Y425450D01*
X736220Y406400D01*
X736231Y406350D01*
X736233Y406299D01*
X736251Y406267D01*
X736259Y406231D01*
X736292Y406192D01*
X736316Y406147D01*
X736346Y406126D01*
X736369Y406098D01*
X736416Y406077D01*
X736458Y406047D01*
X736500Y406039D01*
X736528Y406027D01*
X736558Y406028D01*
X736600Y406020D01*
X850106Y406020D01*
X850156Y406031D01*
G37*
%LPC*%
G36*
X146943Y26099D02*
X146943Y26099D01*
X144599Y28443D01*
X144599Y30719D01*
X144588Y30769D01*
X144586Y30820D01*
X144568Y30852D01*
X144560Y30888D01*
X144527Y30927D01*
X144503Y30972D01*
X144473Y30993D01*
X144450Y31021D01*
X144403Y31042D01*
X144361Y31072D01*
X144319Y31080D01*
X144291Y31092D01*
X144261Y31091D01*
X144219Y31099D01*
X130890Y31099D01*
X130816Y31082D01*
X130741Y31069D01*
X130731Y31062D01*
X130721Y31060D01*
X130692Y31036D01*
X130621Y30988D01*
X129132Y29499D01*
X105818Y29499D01*
X103474Y31843D01*
X103474Y55157D01*
X105818Y57501D01*
X129132Y57501D01*
X131476Y55157D01*
X131476Y45481D01*
X131487Y45431D01*
X131489Y45380D01*
X131507Y45348D01*
X131515Y45312D01*
X131548Y45273D01*
X131572Y45228D01*
X131602Y45207D01*
X131625Y45179D01*
X131672Y45158D01*
X131714Y45128D01*
X131756Y45120D01*
X131784Y45108D01*
X131814Y45109D01*
X131856Y45101D01*
X144219Y45101D01*
X144269Y45112D01*
X144320Y45114D01*
X144352Y45132D01*
X144388Y45140D01*
X144427Y45173D01*
X144472Y45197D01*
X144493Y45227D01*
X144521Y45250D01*
X144542Y45297D01*
X144572Y45339D01*
X144580Y45380D01*
X144592Y45409D01*
X144591Y45439D01*
X144599Y45481D01*
X144599Y47757D01*
X146943Y50101D01*
X163257Y50101D01*
X164831Y48527D01*
X164874Y48500D01*
X164912Y48465D01*
X164947Y48455D01*
X164978Y48435D01*
X165029Y48431D01*
X165078Y48416D01*
X165114Y48422D01*
X165151Y48419D01*
X165199Y48437D01*
X165249Y48446D01*
X165284Y48470D01*
X165313Y48480D01*
X165334Y48503D01*
X165369Y48527D01*
X166943Y50101D01*
X183257Y50101D01*
X185601Y47757D01*
X185601Y45481D01*
X185612Y45431D01*
X185614Y45380D01*
X185632Y45348D01*
X185640Y45312D01*
X185673Y45273D01*
X185697Y45228D01*
X185727Y45207D01*
X185750Y45179D01*
X185797Y45158D01*
X185839Y45128D01*
X185881Y45120D01*
X185909Y45108D01*
X185939Y45109D01*
X185981Y45101D01*
X186988Y45101D01*
X186990Y45101D01*
X186992Y45101D01*
X187134Y45130D01*
X188952Y45883D01*
X192048Y45883D01*
X194909Y44698D01*
X197098Y42509D01*
X198283Y39648D01*
X198283Y36552D01*
X197098Y33691D01*
X194909Y31502D01*
X192048Y30317D01*
X188952Y30317D01*
X187134Y31070D01*
X187132Y31071D01*
X187131Y31072D01*
X186988Y31099D01*
X185981Y31099D01*
X185931Y31088D01*
X185880Y31086D01*
X185848Y31068D01*
X185812Y31060D01*
X185773Y31027D01*
X185728Y31003D01*
X185707Y30973D01*
X185679Y30950D01*
X185658Y30903D01*
X185628Y30861D01*
X185620Y30819D01*
X185608Y30791D01*
X185609Y30761D01*
X185601Y30719D01*
X185601Y28443D01*
X183257Y26099D01*
X166943Y26099D01*
X165369Y27673D01*
X165326Y27700D01*
X165288Y27735D01*
X165253Y27745D01*
X165222Y27765D01*
X165171Y27769D01*
X165122Y27784D01*
X165086Y27778D01*
X165049Y27781D01*
X165002Y27763D01*
X164951Y27754D01*
X164916Y27730D01*
X164887Y27720D01*
X164866Y27697D01*
X164831Y27673D01*
X163257Y26099D01*
X146943Y26099D01*
G37*
%LPD*%
%LPC*%
G36*
X388977Y165255D02*
X388977Y165255D01*
X386116Y166440D01*
X383927Y168629D01*
X382742Y171489D01*
X382742Y174586D01*
X383495Y176404D01*
X383496Y176405D01*
X383497Y176407D01*
X383524Y176549D01*
X383524Y226818D01*
X384590Y229391D01*
X399209Y244010D01*
X401782Y245076D01*
X409369Y245076D01*
X409419Y245087D01*
X409470Y245089D01*
X409502Y245107D01*
X409538Y245115D01*
X409577Y245148D01*
X409622Y245172D01*
X409643Y245202D01*
X409671Y245225D01*
X409692Y245272D01*
X409722Y245314D01*
X409730Y245356D01*
X409742Y245384D01*
X409741Y245414D01*
X409749Y245456D01*
X409749Y249132D01*
X412093Y251476D01*
X440107Y251476D01*
X442451Y249132D01*
X442451Y227018D01*
X440107Y224674D01*
X412093Y224674D01*
X409749Y227018D01*
X409749Y230694D01*
X409738Y230744D01*
X409736Y230795D01*
X409718Y230827D01*
X409710Y230863D01*
X409677Y230902D01*
X409653Y230947D01*
X409623Y230968D01*
X409600Y230996D01*
X409553Y231017D01*
X409511Y231047D01*
X409469Y231055D01*
X409441Y231067D01*
X409411Y231066D01*
X409369Y231074D01*
X406232Y231074D01*
X406158Y231057D01*
X406084Y231044D01*
X406073Y231037D01*
X406064Y231035D01*
X406035Y231011D01*
X405963Y230963D01*
X397637Y222637D01*
X397597Y222572D01*
X397553Y222510D01*
X397551Y222498D01*
X397546Y222489D01*
X397542Y222452D01*
X397526Y222368D01*
X397526Y176549D01*
X397526Y176547D01*
X397526Y176546D01*
X397555Y176404D01*
X398308Y174586D01*
X398308Y171489D01*
X397123Y168629D01*
X394934Y166440D01*
X392073Y165255D01*
X388977Y165255D01*
G37*
%LPD*%
G36*
X692200Y406031D02*
X692200Y406031D01*
X692251Y406033D01*
X692283Y406051D01*
X692319Y406059D01*
X692358Y406092D01*
X692403Y406116D01*
X692424Y406146D01*
X692452Y406169D01*
X692473Y406216D01*
X692503Y406258D01*
X692511Y406300D01*
X692523Y406328D01*
X692522Y406358D01*
X692530Y406400D01*
X692530Y425450D01*
X692519Y425500D01*
X692517Y425551D01*
X692499Y425583D01*
X692491Y425619D01*
X692458Y425658D01*
X692434Y425703D01*
X692404Y425724D01*
X692381Y425752D01*
X692334Y425773D01*
X692292Y425803D01*
X692250Y425811D01*
X692222Y425823D01*
X692192Y425822D01*
X692150Y425830D01*
X590550Y425830D01*
X590500Y425819D01*
X590449Y425817D01*
X590417Y425799D01*
X590381Y425791D01*
X590342Y425758D01*
X590297Y425734D01*
X590276Y425704D01*
X590248Y425681D01*
X590227Y425634D01*
X590197Y425592D01*
X590189Y425550D01*
X590177Y425522D01*
X590178Y425492D01*
X590170Y425450D01*
X590170Y406400D01*
X590181Y406350D01*
X590183Y406299D01*
X590201Y406267D01*
X590209Y406231D01*
X590242Y406192D01*
X590266Y406147D01*
X590296Y406126D01*
X590319Y406098D01*
X590366Y406077D01*
X590408Y406047D01*
X590450Y406039D01*
X590478Y406027D01*
X590508Y406028D01*
X590550Y406020D01*
X692150Y406020D01*
X692200Y406031D01*
G37*
%LPC*%
G36*
X109577Y373217D02*
X109577Y373217D01*
X107759Y373970D01*
X107757Y373971D01*
X107756Y373972D01*
X107613Y373999D01*
X90682Y373999D01*
X88109Y375065D01*
X76615Y386559D01*
X75549Y389132D01*
X75549Y439989D01*
X75536Y440046D01*
X75536Y440050D01*
X75534Y440052D01*
X75532Y440063D01*
X75519Y440138D01*
X75512Y440148D01*
X75510Y440158D01*
X75486Y440187D01*
X75438Y440258D01*
X72698Y442997D01*
X70929Y447268D01*
X70929Y467132D01*
X72698Y471403D01*
X75967Y474672D01*
X80238Y476441D01*
X84862Y476441D01*
X89133Y474672D01*
X92402Y471403D01*
X94171Y467132D01*
X94171Y447268D01*
X92402Y442997D01*
X89662Y440258D01*
X89622Y440193D01*
X89578Y440131D01*
X89576Y440119D01*
X89571Y440111D01*
X89567Y440074D01*
X89551Y439989D01*
X89551Y393582D01*
X89568Y393508D01*
X89581Y393434D01*
X89588Y393423D01*
X89590Y393414D01*
X89614Y393385D01*
X89662Y393313D01*
X94863Y388112D01*
X94928Y388072D01*
X94990Y388028D01*
X95002Y388026D01*
X95011Y388021D01*
X95048Y388017D01*
X95132Y388001D01*
X107613Y388001D01*
X107615Y388001D01*
X107617Y388001D01*
X107759Y388030D01*
X109577Y388783D01*
X112673Y388783D01*
X115534Y387598D01*
X117723Y385409D01*
X118908Y382548D01*
X118908Y379452D01*
X117723Y376591D01*
X115534Y374402D01*
X112673Y373217D01*
X109577Y373217D01*
G37*
%LPD*%
%LPC*%
G36*
X417693Y98324D02*
X417693Y98324D01*
X415349Y100668D01*
X415349Y121982D01*
X417693Y124326D01*
X487007Y124326D01*
X489351Y121982D01*
X489351Y100668D01*
X487007Y98324D01*
X417693Y98324D01*
G37*
%LPD*%
%LPC*%
G36*
X206765Y398749D02*
X206765Y398749D01*
X201619Y400881D01*
X197681Y404819D01*
X195549Y409965D01*
X195549Y415535D01*
X197681Y420681D01*
X200500Y423500D01*
X200514Y423522D01*
X200534Y423538D01*
X200559Y423595D01*
X200592Y423647D01*
X200594Y423673D01*
X200605Y423697D01*
X200602Y423758D01*
X200608Y423820D01*
X200599Y423844D01*
X200598Y423870D01*
X200568Y423924D01*
X200546Y423982D01*
X200528Y423999D01*
X200515Y424022D01*
X200465Y424057D01*
X200419Y424099D01*
X200395Y424107D01*
X200374Y424122D01*
X200289Y424138D01*
X200253Y424149D01*
X200243Y424147D01*
X200231Y424149D01*
X197893Y424149D01*
X195549Y426493D01*
X195549Y449807D01*
X197893Y452151D01*
X221207Y452151D01*
X223551Y449807D01*
X223551Y426493D01*
X221207Y424149D01*
X218869Y424149D01*
X218844Y424143D01*
X218818Y424146D01*
X218760Y424124D01*
X218700Y424110D01*
X218680Y424093D01*
X218656Y424084D01*
X218614Y424039D01*
X218566Y424000D01*
X218556Y423976D01*
X218538Y423957D01*
X218521Y423898D01*
X218495Y423841D01*
X218496Y423816D01*
X218489Y423791D01*
X218500Y423730D01*
X218502Y423668D01*
X218514Y423646D01*
X218519Y423620D01*
X218567Y423549D01*
X218585Y423516D01*
X218593Y423510D01*
X218600Y423500D01*
X221419Y420681D01*
X223551Y415535D01*
X223551Y409965D01*
X221419Y404819D01*
X217481Y400881D01*
X212335Y398749D01*
X206765Y398749D01*
G37*
%LPD*%
%LPC*%
G36*
X680093Y96049D02*
X680093Y96049D01*
X677749Y98393D01*
X677749Y130207D01*
X680093Y132551D01*
X711907Y132551D01*
X714251Y130207D01*
X714251Y98393D01*
X711907Y96049D01*
X680093Y96049D01*
G37*
%LPD*%
%LPC*%
G36*
X812093Y96049D02*
X812093Y96049D01*
X809749Y98393D01*
X809749Y130207D01*
X812093Y132551D01*
X843907Y132551D01*
X846251Y130207D01*
X846251Y98393D01*
X843907Y96049D01*
X812093Y96049D01*
G37*
%LPD*%
%LPC*%
G36*
X452477Y176367D02*
X452477Y176367D01*
X449616Y177552D01*
X447427Y179741D01*
X446242Y182602D01*
X446242Y185698D01*
X447427Y188559D01*
X449616Y190748D01*
X452477Y191933D01*
X455573Y191933D01*
X457391Y191180D01*
X457393Y191179D01*
X457394Y191178D01*
X457537Y191151D01*
X520363Y191151D01*
X520365Y191151D01*
X520367Y191151D01*
X520509Y191180D01*
X522327Y191933D01*
X525423Y191933D01*
X528284Y190748D01*
X530473Y188559D01*
X531658Y185698D01*
X531658Y182602D01*
X530473Y179741D01*
X528284Y177552D01*
X525423Y176367D01*
X522327Y176367D01*
X520509Y177120D01*
X520507Y177121D01*
X520506Y177122D01*
X520363Y177149D01*
X457537Y177149D01*
X457535Y177149D01*
X457533Y177149D01*
X457391Y177120D01*
X455573Y176367D01*
X452477Y176367D01*
G37*
%LPD*%
%LPC*%
G36*
X24795Y31799D02*
X24795Y31799D01*
X17812Y34692D01*
X12467Y40037D01*
X9574Y47020D01*
X9574Y54580D01*
X12467Y61563D01*
X17812Y66908D01*
X24795Y69801D01*
X32355Y69801D01*
X39338Y66908D01*
X44683Y61563D01*
X47576Y54580D01*
X47576Y47020D01*
X44683Y40037D01*
X39338Y34692D01*
X32355Y31799D01*
X24795Y31799D01*
G37*
%LPD*%
%LPC*%
G36*
X256570Y257224D02*
X256570Y257224D01*
X249587Y260117D01*
X244242Y265462D01*
X241349Y272445D01*
X241349Y280005D01*
X244242Y286988D01*
X249587Y292333D01*
X256570Y295226D01*
X264130Y295226D01*
X271113Y292333D01*
X276458Y286988D01*
X279351Y280005D01*
X279351Y272445D01*
X276458Y265462D01*
X271113Y260117D01*
X264130Y257224D01*
X256570Y257224D01*
G37*
%LPD*%
%LPC*%
G36*
X805845Y193724D02*
X805845Y193724D01*
X798862Y196617D01*
X793517Y201962D01*
X790624Y208945D01*
X790624Y216505D01*
X793517Y223488D01*
X798862Y228833D01*
X805845Y231726D01*
X813405Y231726D01*
X820388Y228833D01*
X825733Y223488D01*
X828626Y216505D01*
X828626Y208945D01*
X825733Y201962D01*
X820388Y196617D01*
X813405Y193724D01*
X805845Y193724D01*
G37*
%LPD*%
%LPC*%
G36*
X412093Y269174D02*
X412093Y269174D01*
X409749Y271518D01*
X409749Y293632D01*
X412093Y295976D01*
X440107Y295976D01*
X442451Y293632D01*
X442451Y271518D01*
X440107Y269174D01*
X412093Y269174D01*
G37*
%LPD*%
%LPC*%
G36*
X572293Y437474D02*
X572293Y437474D01*
X569949Y439818D01*
X569949Y467832D01*
X572293Y470176D01*
X594407Y470176D01*
X596751Y467832D01*
X596751Y439818D01*
X594407Y437474D01*
X572293Y437474D01*
G37*
%LPD*%
%LPC*%
G36*
X588593Y269174D02*
X588593Y269174D01*
X586249Y271518D01*
X586249Y293632D01*
X588593Y295976D01*
X616607Y295976D01*
X618951Y293632D01*
X618951Y271518D01*
X616607Y269174D01*
X588593Y269174D01*
G37*
%LPD*%
%LPC*%
G36*
X412093Y180174D02*
X412093Y180174D01*
X409749Y182518D01*
X409749Y204632D01*
X412093Y206976D01*
X440107Y206976D01*
X442451Y204632D01*
X442451Y182518D01*
X440107Y180174D01*
X412093Y180174D01*
G37*
%LPD*%
%LPC*%
G36*
X588593Y358174D02*
X588593Y358174D01*
X586249Y360518D01*
X586249Y382632D01*
X588593Y384976D01*
X616607Y384976D01*
X618951Y382632D01*
X618951Y360518D01*
X616607Y358174D01*
X588593Y358174D01*
G37*
%LPD*%
%LPC*%
G36*
X588593Y313674D02*
X588593Y313674D01*
X586249Y316018D01*
X586249Y338132D01*
X588593Y340476D01*
X616607Y340476D01*
X618951Y338132D01*
X618951Y316018D01*
X616607Y313674D01*
X588593Y313674D01*
G37*
%LPD*%
%LPC*%
G36*
X29438Y437959D02*
X29438Y437959D01*
X25167Y439728D01*
X21898Y442997D01*
X20129Y447268D01*
X20129Y467132D01*
X21898Y471403D01*
X25167Y474672D01*
X29438Y476441D01*
X34062Y476441D01*
X38333Y474672D01*
X41602Y471403D01*
X43371Y467132D01*
X43371Y447268D01*
X41602Y442997D01*
X38333Y439728D01*
X34062Y437959D01*
X29438Y437959D01*
G37*
%LPD*%
%LPC*%
G36*
X156438Y437959D02*
X156438Y437959D01*
X152167Y439728D01*
X148898Y442997D01*
X147129Y447268D01*
X147129Y467132D01*
X148898Y471403D01*
X152167Y474672D01*
X156438Y476441D01*
X161062Y476441D01*
X165333Y474672D01*
X168602Y471403D01*
X170371Y467132D01*
X170371Y447268D01*
X168602Y442997D01*
X165333Y439728D01*
X161062Y437959D01*
X156438Y437959D01*
G37*
%LPD*%
%LPC*%
G36*
X54838Y437959D02*
X54838Y437959D01*
X50567Y439728D01*
X47298Y442997D01*
X45529Y447268D01*
X45529Y467132D01*
X47298Y471403D01*
X50567Y474672D01*
X54838Y476441D01*
X59462Y476441D01*
X63733Y474672D01*
X67002Y471403D01*
X68771Y467132D01*
X68771Y447268D01*
X67002Y442997D01*
X63733Y439728D01*
X59462Y437959D01*
X54838Y437959D01*
G37*
%LPD*%
%LPC*%
G36*
X36682Y169502D02*
X36682Y169502D01*
X31197Y171774D01*
X26999Y175972D01*
X24727Y181457D01*
X24727Y187393D01*
X26999Y192878D01*
X31197Y197076D01*
X36682Y199348D01*
X42618Y199348D01*
X48103Y197076D01*
X52301Y192878D01*
X54573Y187393D01*
X54573Y181457D01*
X52301Y175972D01*
X48103Y171774D01*
X42618Y169502D01*
X36682Y169502D01*
G37*
%LPD*%
%LPC*%
G36*
X59591Y306772D02*
X59591Y306772D01*
X54573Y308851D01*
X50732Y312691D01*
X48654Y317709D01*
X48654Y323141D01*
X50732Y328159D01*
X54573Y331999D01*
X59591Y334078D01*
X65022Y334078D01*
X70040Y331999D01*
X73880Y328159D01*
X75959Y323141D01*
X75959Y317709D01*
X73880Y312691D01*
X70040Y308851D01*
X65022Y306772D01*
X59591Y306772D01*
G37*
%LPD*%
%LPC*%
G36*
X238253Y455224D02*
X238253Y455224D01*
X235909Y457568D01*
X235909Y475882D01*
X238253Y478226D01*
X259567Y478226D01*
X261911Y475882D01*
X261911Y457568D01*
X259567Y455224D01*
X238253Y455224D01*
G37*
%LPD*%
%LPC*%
G36*
X311933Y455224D02*
X311933Y455224D01*
X309589Y457568D01*
X309589Y475882D01*
X311933Y478226D01*
X333247Y478226D01*
X335591Y475882D01*
X335591Y457568D01*
X333247Y455224D01*
X311933Y455224D01*
G37*
%LPD*%
%LPC*%
G36*
X784704Y27759D02*
X784704Y27759D01*
X780463Y29516D01*
X777216Y32763D01*
X775459Y37004D01*
X775459Y41596D01*
X777216Y45837D01*
X780463Y49084D01*
X784704Y50841D01*
X789296Y50841D01*
X793537Y49084D01*
X796784Y45837D01*
X798541Y41596D01*
X798541Y37004D01*
X796784Y32763D01*
X793537Y29516D01*
X789296Y27759D01*
X784704Y27759D01*
G37*
%LPD*%
%LPC*%
G36*
X734704Y27759D02*
X734704Y27759D01*
X730463Y29516D01*
X727216Y32763D01*
X725459Y37004D01*
X725459Y41596D01*
X727216Y45837D01*
X730463Y49084D01*
X734704Y50841D01*
X739296Y50841D01*
X743537Y49084D01*
X746784Y45837D01*
X748541Y41596D01*
X748541Y37004D01*
X746784Y32763D01*
X743537Y29516D01*
X739296Y27759D01*
X734704Y27759D01*
G37*
%LPD*%
%LPC*%
G36*
X734704Y172759D02*
X734704Y172759D01*
X730463Y174516D01*
X727216Y177763D01*
X725459Y182004D01*
X725459Y186596D01*
X727216Y190837D01*
X730463Y194084D01*
X734704Y195841D01*
X739296Y195841D01*
X743537Y194084D01*
X746784Y190837D01*
X748541Y186596D01*
X748541Y182004D01*
X746784Y177763D01*
X743537Y174516D01*
X739296Y172759D01*
X734704Y172759D01*
G37*
%LPD*%
%LPC*%
G36*
X569561Y35686D02*
X569561Y35686D01*
X569561Y45466D01*
X571445Y45466D01*
X571473Y45472D01*
X571500Y45470D01*
X571556Y45492D01*
X571614Y45505D01*
X571636Y45523D01*
X571662Y45533D01*
X571702Y45577D01*
X571748Y45615D01*
X571759Y45641D01*
X571778Y45662D01*
X571794Y45719D01*
X571819Y45774D01*
X571818Y45802D01*
X571825Y45828D01*
X571814Y45887D01*
X571812Y45947D01*
X571799Y45971D01*
X571793Y45999D01*
X571758Y46047D01*
X571729Y46099D01*
X571706Y46115D01*
X571690Y46137D01*
X571619Y46177D01*
X571588Y46199D01*
X571575Y46201D01*
X571563Y46208D01*
X570775Y46464D01*
X569350Y47190D01*
X568056Y48130D01*
X566925Y49261D01*
X565985Y50555D01*
X565259Y51980D01*
X564764Y53501D01*
X564514Y55080D01*
X564514Y62739D01*
X574294Y62739D01*
X574344Y62750D01*
X574395Y62752D01*
X574427Y62770D01*
X574463Y62778D01*
X574502Y62811D01*
X574547Y62835D01*
X574568Y62865D01*
X574596Y62888D01*
X574617Y62935D01*
X574646Y62977D01*
X574655Y63019D01*
X574667Y63047D01*
X574667Y63049D01*
X574666Y63078D01*
X574674Y63119D01*
X574674Y63501D01*
X574676Y63501D01*
X574676Y63119D01*
X574688Y63069D01*
X574689Y63018D01*
X574707Y62986D01*
X574715Y62950D01*
X574748Y62911D01*
X574772Y62866D01*
X574802Y62845D01*
X574826Y62817D01*
X574872Y62796D01*
X574914Y62766D01*
X574956Y62758D01*
X574984Y62746D01*
X575014Y62747D01*
X575056Y62739D01*
X584836Y62739D01*
X584836Y55080D01*
X584586Y53501D01*
X584091Y51980D01*
X583365Y50555D01*
X582425Y49261D01*
X581294Y48130D01*
X580000Y47190D01*
X578575Y46464D01*
X577054Y45969D01*
X576588Y45896D01*
X576546Y45878D01*
X576501Y45871D01*
X576466Y45846D01*
X576427Y45830D01*
X576397Y45796D01*
X576360Y45769D01*
X576340Y45732D01*
X576313Y45700D01*
X576301Y45656D01*
X576279Y45616D01*
X576278Y45574D01*
X576267Y45533D01*
X576276Y45488D01*
X576275Y45443D01*
X576293Y45405D01*
X576301Y45363D01*
X576329Y45327D01*
X576348Y45286D01*
X576386Y45253D01*
X576406Y45226D01*
X576430Y45214D01*
X576457Y45191D01*
X576860Y44958D01*
X577333Y44485D01*
X577668Y43906D01*
X577841Y43260D01*
X577841Y35686D01*
X569561Y35686D01*
G37*
%LPD*%
%LPC*%
G36*
X805350Y451632D02*
X805350Y451632D01*
X805350Y464541D01*
X805523Y465187D01*
X805858Y465766D01*
X806331Y466239D01*
X806910Y466574D01*
X807556Y466747D01*
X828085Y466747D01*
X828085Y451632D01*
X805350Y451632D01*
G37*
%LPD*%
%LPC*%
G36*
X805350Y381740D02*
X805350Y381740D01*
X805350Y394649D01*
X805523Y395295D01*
X805858Y395874D01*
X806331Y396347D01*
X806910Y396682D01*
X807556Y396855D01*
X828085Y396855D01*
X828085Y381740D01*
X805350Y381740D01*
G37*
%LPD*%
%LPC*%
G36*
X807556Y434995D02*
X807556Y434995D01*
X806910Y435168D01*
X806331Y435503D01*
X805858Y435976D01*
X805523Y436555D01*
X805350Y437201D01*
X805350Y450110D01*
X828085Y450110D01*
X828085Y434995D01*
X807556Y434995D01*
G37*
%LPD*%
%LPC*%
G36*
X807556Y365103D02*
X807556Y365103D01*
X806910Y365276D01*
X806331Y365611D01*
X805858Y366084D01*
X805523Y366663D01*
X805350Y367309D01*
X805350Y380218D01*
X828085Y380218D01*
X828085Y365103D01*
X807556Y365103D01*
G37*
%LPD*%
%LPC*%
G36*
X12661Y124424D02*
X12661Y124424D01*
X8985Y125947D01*
X6172Y128760D01*
X4649Y132436D01*
X4649Y136414D01*
X6172Y140090D01*
X8985Y142903D01*
X12661Y144426D01*
X16639Y144426D01*
X20315Y142903D01*
X23128Y140090D01*
X24651Y136414D01*
X24651Y132436D01*
X23128Y128760D01*
X20315Y125947D01*
X16639Y124424D01*
X12661Y124424D01*
G37*
%LPD*%
%LPC*%
G36*
X37661Y124424D02*
X37661Y124424D01*
X33985Y125947D01*
X31172Y128760D01*
X29649Y132436D01*
X29649Y136414D01*
X31172Y140090D01*
X33985Y142903D01*
X37661Y144426D01*
X41639Y144426D01*
X45315Y142903D01*
X48128Y140090D01*
X49651Y136414D01*
X49651Y132436D01*
X48128Y128760D01*
X45315Y125947D01*
X41639Y124424D01*
X37661Y124424D01*
G37*
%LPD*%
%LPC*%
G36*
X37661Y224424D02*
X37661Y224424D01*
X33985Y225947D01*
X31172Y228760D01*
X29649Y232436D01*
X29649Y236414D01*
X31172Y240090D01*
X33985Y242903D01*
X37661Y244426D01*
X41639Y244426D01*
X45315Y242903D01*
X48128Y240090D01*
X49651Y236414D01*
X49651Y232436D01*
X48128Y228760D01*
X45315Y225947D01*
X41639Y224424D01*
X37661Y224424D01*
G37*
%LPD*%
%LPC*%
G36*
X12661Y224424D02*
X12661Y224424D01*
X8985Y225947D01*
X6172Y228760D01*
X4649Y232436D01*
X4649Y236414D01*
X6172Y240090D01*
X8985Y242903D01*
X12661Y244426D01*
X16639Y244426D01*
X20315Y242903D01*
X23128Y240090D01*
X24651Y236414D01*
X24651Y232436D01*
X23128Y228760D01*
X20315Y225947D01*
X16639Y224424D01*
X12661Y224424D01*
G37*
%LPD*%
%LPC*%
G36*
X492111Y454586D02*
X492111Y454586D01*
X492111Y468716D01*
X501085Y468716D01*
X501731Y468543D01*
X502310Y468208D01*
X502783Y467735D01*
X503118Y467156D01*
X503291Y466510D01*
X503291Y454586D01*
X492111Y454586D01*
G37*
%LPD*%
%LPC*%
G36*
X538111Y454586D02*
X538111Y454586D01*
X538111Y468716D01*
X547085Y468716D01*
X547731Y468543D01*
X548310Y468208D01*
X548783Y467735D01*
X549118Y467156D01*
X549291Y466510D01*
X549291Y454586D01*
X538111Y454586D01*
G37*
%LPD*%
%LPC*%
G36*
X525409Y454586D02*
X525409Y454586D01*
X525409Y466510D01*
X525582Y467156D01*
X525917Y467735D01*
X526390Y468208D01*
X526969Y468543D01*
X527615Y468716D01*
X536589Y468716D01*
X536589Y454586D01*
X525409Y454586D01*
G37*
%LPD*%
%LPC*%
G36*
X479409Y454586D02*
X479409Y454586D01*
X479409Y466510D01*
X479582Y467156D01*
X479917Y467735D01*
X480390Y468208D01*
X480969Y468543D01*
X481615Y468716D01*
X490589Y468716D01*
X490589Y454586D01*
X479409Y454586D01*
G37*
%LPD*%
%LPC*%
G36*
X538111Y438934D02*
X538111Y438934D01*
X538111Y453064D01*
X549291Y453064D01*
X549291Y441140D01*
X549118Y440494D01*
X548783Y439915D01*
X548310Y439442D01*
X547731Y439107D01*
X547085Y438934D01*
X538111Y438934D01*
G37*
%LPD*%
%LPC*%
G36*
X492111Y438934D02*
X492111Y438934D01*
X492111Y453064D01*
X503291Y453064D01*
X503291Y441140D01*
X503118Y440494D01*
X502783Y439915D01*
X502310Y439442D01*
X501731Y439107D01*
X501085Y438934D01*
X492111Y438934D01*
G37*
%LPD*%
%LPC*%
G36*
X481615Y438934D02*
X481615Y438934D01*
X480969Y439107D01*
X480390Y439442D01*
X479917Y439915D01*
X479582Y440494D01*
X479498Y440810D01*
X479498Y440811D01*
X479409Y441140D01*
X479409Y453064D01*
X490589Y453064D01*
X490589Y438934D01*
X481615Y438934D01*
G37*
%LPD*%
%LPC*%
G36*
X527615Y438934D02*
X527615Y438934D01*
X526969Y439107D01*
X526390Y439442D01*
X525917Y439915D01*
X525582Y440494D01*
X525498Y440810D01*
X525498Y440811D01*
X525409Y441140D01*
X525409Y453064D01*
X536589Y453064D01*
X536589Y438934D01*
X527615Y438934D01*
G37*
%LPD*%
%LPC*%
G36*
X804036Y270636D02*
X804036Y270636D01*
X804036Y280036D01*
X811695Y280036D01*
X813274Y279786D01*
X814795Y279291D01*
X816220Y278565D01*
X817514Y277625D01*
X818645Y276494D01*
X819585Y275200D01*
X820311Y273775D01*
X820806Y272254D01*
X821056Y270675D01*
X821056Y270636D01*
X804036Y270636D01*
G37*
%LPD*%
%LPC*%
G36*
X108711Y457961D02*
X108711Y457961D01*
X108711Y474981D01*
X108750Y474981D01*
X110329Y474731D01*
X111850Y474236D01*
X113275Y473510D01*
X114569Y472570D01*
X115700Y471439D01*
X116640Y470145D01*
X117366Y468720D01*
X117861Y467199D01*
X118111Y465620D01*
X118111Y457961D01*
X108711Y457961D01*
G37*
%LPD*%
%LPC*%
G36*
X575436Y64261D02*
X575436Y64261D01*
X575436Y81281D01*
X575475Y81281D01*
X577054Y81031D01*
X578575Y80536D01*
X580000Y79810D01*
X581294Y78870D01*
X582425Y77739D01*
X583365Y76445D01*
X584091Y75020D01*
X584586Y73499D01*
X584836Y71920D01*
X584836Y64261D01*
X575436Y64261D01*
G37*
%LPD*%
%LPC*%
G36*
X785494Y270636D02*
X785494Y270636D01*
X785494Y270675D01*
X785744Y272254D01*
X786239Y273775D01*
X786965Y275200D01*
X787905Y276494D01*
X789036Y277625D01*
X790330Y278565D01*
X791755Y279291D01*
X793276Y279786D01*
X794855Y280036D01*
X802514Y280036D01*
X802514Y270636D01*
X785494Y270636D01*
G37*
%LPD*%
%LPC*%
G36*
X108711Y439419D02*
X108711Y439419D01*
X108711Y456439D01*
X118111Y456439D01*
X118111Y448780D01*
X117861Y447201D01*
X117366Y445680D01*
X116640Y444255D01*
X115700Y442961D01*
X114569Y441830D01*
X113275Y440890D01*
X111850Y440164D01*
X110329Y439669D01*
X108750Y439419D01*
X108711Y439419D01*
G37*
%LPD*%
%LPC*%
G36*
X97789Y457961D02*
X97789Y457961D01*
X97789Y465620D01*
X98039Y467199D01*
X98534Y468720D01*
X99260Y470145D01*
X100200Y471439D01*
X101331Y472570D01*
X102625Y473510D01*
X104050Y474236D01*
X105571Y474731D01*
X107150Y474981D01*
X107189Y474981D01*
X107189Y457961D01*
X97789Y457961D01*
G37*
%LPD*%
%LPC*%
G36*
X564514Y64261D02*
X564514Y64261D01*
X564514Y71920D01*
X564764Y73499D01*
X565259Y75020D01*
X565985Y76445D01*
X566925Y77739D01*
X568056Y78870D01*
X569350Y79810D01*
X570775Y80536D01*
X572296Y81031D01*
X573875Y81281D01*
X573914Y81281D01*
X573914Y64261D01*
X564514Y64261D01*
G37*
%LPD*%
%LPC*%
G36*
X804036Y259714D02*
X804036Y259714D01*
X804036Y269114D01*
X821056Y269114D01*
X821056Y269075D01*
X820806Y267496D01*
X820311Y265975D01*
X819585Y264550D01*
X818645Y263256D01*
X817514Y262125D01*
X816220Y261185D01*
X814795Y260459D01*
X813274Y259964D01*
X811695Y259714D01*
X804036Y259714D01*
G37*
%LPD*%
%LPC*%
G36*
X794855Y259714D02*
X794855Y259714D01*
X793276Y259964D01*
X791755Y260459D01*
X790330Y261185D01*
X789036Y262125D01*
X787905Y263256D01*
X786965Y264550D01*
X786239Y265975D01*
X785744Y267496D01*
X785494Y269075D01*
X785494Y269114D01*
X802514Y269114D01*
X802514Y259714D01*
X794855Y259714D01*
G37*
%LPD*%
%LPC*%
G36*
X107150Y439419D02*
X107150Y439419D01*
X105571Y439669D01*
X104050Y440164D01*
X102625Y440890D01*
X101331Y441830D01*
X100200Y442961D01*
X99260Y444255D01*
X98534Y445680D01*
X98039Y447201D01*
X97789Y448780D01*
X97789Y456439D01*
X107189Y456439D01*
X107189Y439419D01*
X107150Y439419D01*
G37*
%LPD*%
%LPC*%
G36*
X63067Y284186D02*
X63067Y284186D01*
X63067Y295618D01*
X63266Y295618D01*
X65161Y295317D01*
X66987Y294724D01*
X68697Y293853D01*
X70249Y292725D01*
X71606Y291368D01*
X72734Y289815D01*
X73606Y288105D01*
X74199Y286280D01*
X74499Y284385D01*
X74499Y284186D01*
X63067Y284186D01*
G37*
%LPD*%
%LPC*%
G36*
X83067Y302686D02*
X83067Y302686D01*
X83067Y314118D01*
X83266Y314118D01*
X85161Y313817D01*
X86987Y313224D01*
X88697Y312353D01*
X90249Y311225D01*
X91606Y309868D01*
X92734Y308315D01*
X93606Y306605D01*
X94199Y304780D01*
X94499Y302885D01*
X94499Y302686D01*
X83067Y302686D01*
G37*
%LPD*%
%LPC*%
G36*
X83067Y289732D02*
X83067Y289732D01*
X83067Y301164D01*
X94499Y301164D01*
X94499Y300965D01*
X94199Y299070D01*
X93606Y297245D01*
X92734Y295535D01*
X91606Y293982D01*
X90249Y292625D01*
X88697Y291497D01*
X86987Y290626D01*
X85161Y290033D01*
X83266Y289732D01*
X83067Y289732D01*
G37*
%LPD*%
%LPC*%
G36*
X50114Y284186D02*
X50114Y284186D01*
X50114Y284385D01*
X50414Y286280D01*
X51007Y288105D01*
X51878Y289815D01*
X53006Y291368D01*
X54363Y292725D01*
X55916Y293853D01*
X57626Y294724D01*
X59451Y295317D01*
X61347Y295618D01*
X61545Y295618D01*
X61545Y284186D01*
X50114Y284186D01*
G37*
%LPD*%
%LPC*%
G36*
X63067Y271232D02*
X63067Y271232D01*
X63067Y282664D01*
X74499Y282664D01*
X74499Y282465D01*
X74199Y280570D01*
X73606Y278745D01*
X72734Y277035D01*
X71606Y275482D01*
X70249Y274125D01*
X68697Y272997D01*
X66987Y272126D01*
X65161Y271533D01*
X63266Y271232D01*
X63067Y271232D01*
G37*
%LPD*%
%LPC*%
G36*
X70114Y302686D02*
X70114Y302686D01*
X70114Y302885D01*
X70414Y304780D01*
X71007Y306605D01*
X71878Y308315D01*
X73006Y309868D01*
X74363Y311225D01*
X75916Y312353D01*
X77626Y313224D01*
X79451Y313817D01*
X81347Y314118D01*
X81545Y314118D01*
X81545Y302686D01*
X70114Y302686D01*
G37*
%LPD*%
%LPC*%
G36*
X81347Y289732D02*
X81347Y289732D01*
X79451Y290033D01*
X77626Y290626D01*
X75916Y291497D01*
X74363Y292625D01*
X73006Y293982D01*
X71878Y295535D01*
X71007Y297245D01*
X70414Y299070D01*
X70114Y300965D01*
X70114Y301164D01*
X81545Y301164D01*
X81545Y289732D01*
X81347Y289732D01*
G37*
%LPD*%
%LPC*%
G36*
X61347Y271232D02*
X61347Y271232D01*
X59451Y271533D01*
X57626Y272126D01*
X55916Y272997D01*
X54363Y274125D01*
X53006Y275482D01*
X51878Y277035D01*
X51007Y278745D01*
X50414Y280570D01*
X50114Y282465D01*
X50114Y282664D01*
X61545Y282664D01*
X61545Y271232D01*
X61347Y271232D01*
G37*
%LPD*%
%LPC*%
G36*
X100236Y84261D02*
X100236Y84261D01*
X100236Y96041D01*
X106310Y96041D01*
X106956Y95868D01*
X107535Y95533D01*
X108008Y95060D01*
X108343Y94481D01*
X108516Y93835D01*
X108516Y84261D01*
X100236Y84261D01*
G37*
%LPD*%
%LPC*%
G36*
X90434Y84261D02*
X90434Y84261D01*
X90434Y93835D01*
X90607Y94481D01*
X90942Y95060D01*
X91415Y95533D01*
X91994Y95868D01*
X92640Y96041D01*
X98714Y96041D01*
X98714Y84261D01*
X90434Y84261D01*
G37*
%LPD*%
%LPC*%
G36*
X100236Y70959D02*
X100236Y70959D01*
X100236Y82739D01*
X108516Y82739D01*
X108516Y73165D01*
X108343Y72519D01*
X108008Y71940D01*
X107535Y71467D01*
X106956Y71132D01*
X106310Y70959D01*
X100236Y70959D01*
G37*
%LPD*%
%LPC*%
G36*
X92640Y70959D02*
X92640Y70959D01*
X91994Y71132D01*
X91415Y71467D01*
X90942Y71940D01*
X90607Y72519D01*
X90434Y73165D01*
X90434Y82739D01*
X98714Y82739D01*
X98714Y70959D01*
X92640Y70959D01*
G37*
%LPD*%
%LPC*%
G36*
X104784Y426211D02*
X104784Y426211D01*
X104784Y433785D01*
X104957Y434431D01*
X105292Y435010D01*
X105765Y435483D01*
X106344Y435818D01*
X106990Y435991D01*
X113064Y435991D01*
X113064Y426211D01*
X104784Y426211D01*
G37*
%LPD*%
%LPC*%
G36*
X269884Y362711D02*
X269884Y362711D01*
X269884Y370285D01*
X270057Y370931D01*
X270392Y371510D01*
X270865Y371983D01*
X271444Y372318D01*
X272090Y372491D01*
X278164Y372491D01*
X278164Y362711D01*
X269884Y362711D01*
G37*
%LPD*%
%LPC*%
G36*
X269884Y403986D02*
X269884Y403986D01*
X269884Y411560D01*
X270057Y412206D01*
X270392Y412785D01*
X270865Y413258D01*
X271444Y413593D01*
X272090Y413766D01*
X278164Y413766D01*
X278164Y403986D01*
X269884Y403986D01*
G37*
%LPD*%
%LPC*%
G36*
X569561Y24384D02*
X569561Y24384D01*
X569561Y34164D01*
X577841Y34164D01*
X577841Y26590D01*
X577668Y25944D01*
X577333Y25365D01*
X576860Y24892D01*
X576281Y24557D01*
X575635Y24384D01*
X569561Y24384D01*
G37*
%LPD*%
%LPC*%
G36*
X245236Y129391D02*
X245236Y129391D01*
X245236Y137670D01*
X255016Y137670D01*
X255016Y131597D01*
X254843Y130951D01*
X254508Y130371D01*
X254035Y129898D01*
X253456Y129564D01*
X252810Y129391D01*
X245236Y129391D01*
G37*
%LPD*%
%LPC*%
G36*
X788161Y383391D02*
X788161Y383391D01*
X788161Y391670D01*
X797941Y391670D01*
X797941Y385597D01*
X797768Y384951D01*
X797433Y384371D01*
X796960Y383898D01*
X796381Y383564D01*
X795735Y383391D01*
X788161Y383391D01*
G37*
%LPD*%
%LPC*%
G36*
X394461Y428634D02*
X394461Y428634D01*
X394461Y436914D01*
X404241Y436914D01*
X404241Y430840D01*
X404068Y430194D01*
X403733Y429615D01*
X403260Y429142D01*
X402681Y428807D01*
X402035Y428634D01*
X394461Y428634D01*
G37*
%LPD*%
%LPC*%
G36*
X642111Y383391D02*
X642111Y383391D01*
X642111Y391670D01*
X651891Y391670D01*
X651891Y385597D01*
X651718Y384951D01*
X651383Y384371D01*
X650910Y383898D01*
X650331Y383564D01*
X649685Y383391D01*
X642111Y383391D01*
G37*
%LPD*%
%LPC*%
G36*
X236140Y129391D02*
X236140Y129391D01*
X235494Y129564D01*
X234915Y129898D01*
X234442Y130371D01*
X234107Y130951D01*
X233934Y131597D01*
X233934Y137670D01*
X243714Y137670D01*
X243714Y129390D01*
X236140Y129391D01*
G37*
%LPD*%
%LPC*%
G36*
X633015Y383391D02*
X633015Y383391D01*
X632369Y383564D01*
X631790Y383898D01*
X631317Y384371D01*
X630982Y384951D01*
X630809Y385597D01*
X630809Y391670D01*
X640589Y391670D01*
X640589Y383390D01*
X633015Y383391D01*
G37*
%LPD*%
%LPC*%
G36*
X385365Y428634D02*
X385365Y428634D01*
X384719Y428807D01*
X384140Y429142D01*
X383667Y429615D01*
X383332Y430194D01*
X383159Y430840D01*
X383159Y436914D01*
X392939Y436914D01*
X392939Y428634D01*
X385365Y428634D01*
G37*
%LPD*%
%LPC*%
G36*
X779065Y383391D02*
X779065Y383391D01*
X778419Y383564D01*
X777840Y383898D01*
X777367Y384371D01*
X777032Y384951D01*
X776859Y385597D01*
X776859Y391670D01*
X786639Y391670D01*
X786639Y383390D01*
X779065Y383391D01*
G37*
%LPD*%
%LPC*%
G36*
X272090Y351409D02*
X272090Y351409D01*
X271444Y351582D01*
X270865Y351917D01*
X270392Y352390D01*
X270057Y352969D01*
X269884Y353615D01*
X269884Y361189D01*
X278164Y361189D01*
X278164Y351409D01*
X272090Y351409D01*
G37*
%LPD*%
%LPC*%
G36*
X272090Y392684D02*
X272090Y392684D01*
X271444Y392857D01*
X270865Y393192D01*
X270392Y393665D01*
X270057Y394244D01*
X269884Y394890D01*
X269884Y402464D01*
X278164Y402464D01*
X278164Y392684D01*
X272090Y392684D01*
G37*
%LPD*%
%LPC*%
G36*
X106990Y414909D02*
X106990Y414909D01*
X106344Y415082D01*
X105765Y415417D01*
X105292Y415890D01*
X104957Y416469D01*
X104784Y417115D01*
X104784Y424689D01*
X113064Y424689D01*
X113064Y414909D01*
X106990Y414909D01*
G37*
%LPD*%
%LPC*%
G36*
X638936Y184659D02*
X638936Y184659D01*
X638936Y192939D01*
X648216Y192939D01*
X648216Y186865D01*
X648043Y186219D01*
X647708Y185640D01*
X647235Y185167D01*
X646656Y184832D01*
X646010Y184659D01*
X638936Y184659D01*
G37*
%LPD*%
%LPC*%
G36*
X630340Y184659D02*
X630340Y184659D01*
X629694Y184832D01*
X629115Y185167D01*
X628642Y185640D01*
X628307Y186219D01*
X628151Y186803D01*
X628151Y186804D01*
X628134Y186865D01*
X628134Y192939D01*
X637414Y192939D01*
X637414Y184659D01*
X630340Y184659D01*
G37*
%LPD*%
%LPC*%
G36*
X787761Y185061D02*
X787761Y185061D01*
X787761Y194381D01*
X787793Y194381D01*
X789361Y194132D01*
X790870Y193642D01*
X792284Y192922D01*
X793567Y191989D01*
X794689Y190867D01*
X795622Y189584D01*
X796342Y188170D01*
X796832Y186661D01*
X797081Y185093D01*
X797081Y185061D01*
X787761Y185061D01*
G37*
%LPD*%
%LPC*%
G36*
X762761Y40061D02*
X762761Y40061D01*
X762761Y49381D01*
X762793Y49381D01*
X764361Y49132D01*
X765870Y48642D01*
X767284Y47922D01*
X768567Y46989D01*
X769689Y45867D01*
X770622Y44584D01*
X771342Y43170D01*
X771832Y41661D01*
X772081Y40093D01*
X772081Y40061D01*
X762761Y40061D01*
G37*
%LPD*%
%LPC*%
G36*
X787761Y174219D02*
X787761Y174219D01*
X787761Y183539D01*
X797081Y183539D01*
X797081Y183507D01*
X796832Y181939D01*
X796342Y180430D01*
X795622Y179016D01*
X794689Y177733D01*
X793567Y176611D01*
X792284Y175678D01*
X790870Y174958D01*
X789361Y174468D01*
X787793Y174219D01*
X787761Y174219D01*
G37*
%LPD*%
%LPC*%
G36*
X776919Y185061D02*
X776919Y185061D01*
X776919Y185093D01*
X777168Y186661D01*
X777658Y188170D01*
X778378Y189584D01*
X779311Y190867D01*
X780433Y191989D01*
X781716Y192922D01*
X783130Y193642D01*
X784639Y194132D01*
X786207Y194381D01*
X786239Y194381D01*
X786239Y185061D01*
X776919Y185061D01*
G37*
%LPD*%
%LPC*%
G36*
X751919Y40061D02*
X751919Y40061D01*
X751919Y40093D01*
X752168Y41661D01*
X752658Y43170D01*
X753378Y44584D01*
X754311Y45867D01*
X755433Y46989D01*
X756716Y47922D01*
X758130Y48642D01*
X759639Y49132D01*
X761207Y49381D01*
X761239Y49381D01*
X761239Y40061D01*
X751919Y40061D01*
G37*
%LPD*%
%LPC*%
G36*
X762761Y29219D02*
X762761Y29219D01*
X762761Y38539D01*
X772081Y38539D01*
X772081Y38507D01*
X771832Y36939D01*
X771342Y35430D01*
X770622Y34016D01*
X769689Y32733D01*
X768567Y31611D01*
X767284Y30678D01*
X765870Y29958D01*
X764361Y29468D01*
X762793Y29219D01*
X762761Y29219D01*
G37*
%LPD*%
%LPC*%
G36*
X786207Y174219D02*
X786207Y174219D01*
X784639Y174468D01*
X783130Y174958D01*
X781716Y175678D01*
X780433Y176611D01*
X779311Y177733D01*
X778378Y179016D01*
X777658Y180430D01*
X777168Y181939D01*
X776919Y183507D01*
X776919Y183539D01*
X786239Y183539D01*
X786239Y174219D01*
X786207Y174219D01*
G37*
%LPD*%
%LPC*%
G36*
X761207Y29219D02*
X761207Y29219D01*
X759639Y29468D01*
X758130Y29958D01*
X756716Y30678D01*
X755433Y31611D01*
X754311Y32733D01*
X753378Y34016D01*
X752658Y35430D01*
X752168Y36939D01*
X751919Y38507D01*
X751919Y38539D01*
X761239Y38539D01*
X761239Y29219D01*
X761207Y29219D01*
G37*
%LPD*%
%LPC*%
G36*
X786999Y184299D02*
X786999Y184299D01*
X786999Y184301D01*
X787001Y184301D01*
X787001Y184299D01*
X786999Y184299D01*
G37*
%LPD*%
%LPC*%
G36*
X107949Y457199D02*
X107949Y457199D01*
X107949Y457201D01*
X107951Y457201D01*
X107951Y457199D01*
X107949Y457199D01*
G37*
%LPD*%
%LPC*%
G36*
X803274Y269874D02*
X803274Y269874D01*
X803274Y269876D01*
X803276Y269876D01*
X803276Y269874D01*
X803274Y269874D01*
G37*
%LPD*%
%LPC*%
G36*
X62305Y283424D02*
X62305Y283424D01*
X62305Y283426D01*
X62307Y283426D01*
X62307Y283424D01*
X62305Y283424D01*
G37*
%LPD*%
%LPC*%
G36*
X82305Y301924D02*
X82305Y301924D01*
X82305Y301926D01*
X82307Y301926D01*
X82307Y301924D01*
X82305Y301924D01*
G37*
%LPD*%
%LPC*%
G36*
X761999Y39299D02*
X761999Y39299D01*
X761999Y39301D01*
X762001Y39301D01*
X762001Y39299D01*
X761999Y39299D01*
G37*
%LPD*%
%LPC*%
G36*
X491349Y453824D02*
X491349Y453824D01*
X491349Y453826D01*
X491351Y453826D01*
X491351Y453824D01*
X491349Y453824D01*
G37*
%LPD*%
%LPC*%
G36*
X537349Y453824D02*
X537349Y453824D01*
X537349Y453826D01*
X537351Y453826D01*
X537351Y453824D01*
X537349Y453824D01*
G37*
%LPD*%
%LPC*%
G36*
X99474Y83499D02*
X99474Y83499D01*
X99474Y83501D01*
X99476Y83501D01*
X99476Y83499D01*
X99474Y83499D01*
G37*
%LPD*%
D10*
X298925Y403225D03*
X278925Y403225D03*
X298925Y361950D03*
X278925Y361950D03*
D11*
X639763Y128906D03*
X639763Y148906D03*
D10*
X175100Y38100D03*
X155100Y38100D03*
D11*
X244475Y158431D03*
X244475Y138431D03*
D12*
X323850Y311150D03*
X323850Y412750D03*
D13*
X403406Y34925D03*
X382406Y34925D03*
D14*
X403225Y79350D03*
X403225Y60350D03*
D15*
X426100Y149075D03*
X426100Y193575D03*
X426100Y238075D03*
X426100Y282575D03*
X426100Y327075D03*
X426100Y371575D03*
X426100Y416075D03*
D16*
X445350Y453825D03*
X491350Y453825D03*
X537350Y453825D03*
X583350Y453825D03*
D15*
X602600Y416075D03*
X602600Y371575D03*
X602600Y327075D03*
X602600Y282575D03*
X602600Y238075D03*
X602600Y193575D03*
X602600Y149075D03*
D17*
X452350Y111325D03*
D18*
X569350Y111325D03*
D19*
X828846Y415925D03*
D20*
X828846Y380979D03*
X828846Y450871D03*
D21*
X498475Y71120D02*
X498475Y55880D01*
X523875Y55880D02*
X523875Y71120D01*
X549275Y71120D02*
X549275Y55880D01*
X574675Y55880D02*
X574675Y71120D01*
X158750Y449580D02*
X158750Y464820D01*
X133350Y464820D02*
X133350Y449580D01*
X107950Y449580D02*
X107950Y464820D01*
X82550Y464820D02*
X82550Y449580D01*
X57150Y449580D02*
X57150Y464820D01*
X31750Y464820D02*
X31750Y449580D01*
D22*
X135475Y83500D03*
X99475Y83500D03*
D23*
X117475Y43500D03*
D24*
X737000Y184300D03*
X787000Y184300D03*
X737000Y39300D03*
X762000Y39300D03*
X787000Y39300D03*
D25*
X696000Y114300D03*
X828000Y114300D03*
D21*
X810895Y295275D02*
X795655Y295275D01*
X795655Y269875D02*
X810895Y269875D01*
D26*
X751375Y415925D03*
X677375Y415925D03*
D11*
X641350Y392431D03*
X641350Y412431D03*
X787400Y392431D03*
X787400Y412431D03*
X393700Y437675D03*
X393700Y457675D03*
D27*
X322590Y466725D03*
X248910Y466725D03*
D28*
X285750Y439725D03*
X292250Y439725D03*
X272750Y439725D03*
X279250Y439725D03*
X298750Y439725D03*
D10*
X133825Y425450D03*
X113825Y425450D03*
X548800Y34925D03*
X568800Y34925D03*
D29*
X39650Y184425D03*
X89650Y209425D03*
X89650Y234425D03*
X89650Y159425D03*
X89650Y134425D03*
D30*
X62306Y283425D03*
X62306Y320425D03*
X13306Y301925D03*
X82306Y301925D03*
D31*
X523850Y34925D03*
X504850Y34925D03*
D23*
X209550Y438150D03*
D32*
X209550Y412750D03*
X209550Y361950D03*
X209550Y336550D03*
X209550Y311150D03*
X209550Y285750D03*
X209550Y260350D03*
X209550Y234950D03*
X209550Y209550D03*
X209550Y184150D03*
X209550Y158750D03*
X209550Y133350D03*
X209550Y107950D03*
X209550Y82550D03*
X361950Y82550D03*
X361950Y107950D03*
X361950Y133350D03*
X361950Y158750D03*
X361950Y184150D03*
X361950Y209550D03*
X361950Y285750D03*
X361950Y311150D03*
X361950Y336550D03*
X361950Y361950D03*
X361950Y387350D03*
X361950Y412750D03*
X361950Y438150D03*
D14*
X638175Y239738D03*
X638175Y258738D03*
X638175Y193700D03*
X638175Y212700D03*
D33*
X639763Y148906D02*
X597219Y148906D01*
X596900Y149225D01*
X602450Y149225D01*
X602600Y149075D01*
D34*
X426100Y371575D02*
X410225Y371575D01*
X375200Y336550D01*
X361950Y336550D01*
X371975Y361950D02*
X426100Y416075D01*
X371975Y361950D02*
X361950Y361950D01*
X409425Y149075D02*
X426100Y149075D01*
X403225Y142875D02*
X403225Y79350D01*
X403225Y142875D02*
X409425Y149075D01*
X403175Y238075D02*
X426100Y238075D01*
X403175Y238075D02*
X390525Y225425D01*
X390525Y173038D01*
D35*
X390525Y173038D03*
X190500Y38100D03*
D34*
X175100Y38100D01*
D35*
X95250Y425450D03*
X844550Y444500D03*
X828675Y444500D03*
X812800Y444500D03*
X812800Y387350D03*
X828675Y387350D03*
X844550Y387350D03*
X787400Y378619D03*
X641350Y378619D03*
X790575Y438150D03*
X752475Y438150D03*
X682625Y438150D03*
X714375Y415925D03*
X714375Y438150D03*
X641350Y438150D03*
X603250Y438150D03*
X577850Y415925D03*
X577850Y393700D03*
X609600Y393700D03*
X682625Y393700D03*
X714375Y393700D03*
X752475Y393700D03*
X393700Y423863D03*
X273050Y420688D03*
X257175Y430213D03*
X244475Y124619D03*
X582613Y34925D03*
X114300Y92869D03*
X474663Y454025D03*
X508000Y454025D03*
X520700Y454025D03*
X554038Y454025D03*
X520700Y438944D03*
X474663Y438944D03*
X537369Y473075D03*
X491331Y473075D03*
X474663Y473075D03*
X508000Y473075D03*
X508000Y438944D03*
X520700Y473075D03*
X554038Y473075D03*
X554038Y438944D03*
X34925Y377825D03*
X165100Y317500D03*
X165100Y241300D03*
X165100Y180975D03*
X165100Y111125D03*
X320675Y177800D03*
X320675Y104775D03*
X365125Y57150D03*
X660400Y222250D03*
X720725Y222250D03*
X666750Y57150D03*
X546100Y142875D03*
X546100Y212725D03*
X542925Y231775D03*
X546100Y285750D03*
X546100Y336550D03*
X565150Y368300D03*
X457200Y415925D03*
X457200Y371475D03*
X460375Y285750D03*
X454025Y142875D03*
X454025Y73025D03*
X660400Y168275D03*
X85725Y38100D03*
X215900Y49213D03*
X347663Y24606D03*
X454025Y209550D03*
X244475Y200819D03*
X165100Y365125D03*
X390525Y285750D03*
X320675Y219075D03*
X265113Y361950D03*
X482600Y216694D03*
X482600Y140494D03*
X233363Y292100D03*
X280988Y257175D03*
D34*
X403225Y60350D02*
X403406Y60169D01*
X403406Y34925D01*
X69725Y209425D02*
X63500Y203200D01*
X69725Y209425D02*
X89650Y209425D01*
D36*
X89650Y234425D01*
D34*
X639763Y128906D02*
X639763Y80169D01*
D35*
X639763Y80169D03*
X63500Y28575D03*
D34*
X63500Y203200D01*
D36*
X89650Y159425D02*
X89650Y134425D01*
D33*
X133350Y425925D02*
X133350Y457200D01*
X133350Y425925D02*
X133825Y425450D01*
X298925Y24925D02*
X311150Y12700D01*
X298925Y361950D02*
X298925Y396875D01*
X298925Y403225D01*
X298925Y361950D02*
X298925Y311150D01*
X298925Y158750D02*
X298925Y24925D01*
X298925Y158750D02*
X298925Y311150D01*
X323850Y311150D01*
D37*
X298750Y427338D02*
X298750Y439725D01*
D33*
X298750Y427338D02*
X298750Y397050D01*
X298925Y396875D01*
X298925Y311150D02*
X247650Y311150D01*
X234950Y323850D01*
X133825Y396400D02*
X133825Y425450D01*
X142875Y387350D02*
X225425Y387350D01*
X234950Y377825D01*
X234950Y323850D01*
X142875Y387350D02*
X133825Y396400D01*
X504850Y34925D02*
X504850Y19075D01*
X384175Y12700D02*
X311150Y12700D01*
X384175Y12700D02*
X498475Y12700D01*
X504850Y19075D01*
X382406Y14469D02*
X382406Y34925D01*
X382406Y14469D02*
X384175Y12700D01*
X244156Y158750D02*
X209550Y158750D01*
X244156Y158750D02*
X244475Y158431D01*
X298606Y158431D01*
X298925Y158750D01*
D34*
X339725Y88900D02*
X346075Y82550D01*
X339725Y88900D02*
X339725Y254000D01*
X346075Y260350D01*
X635000Y260350D01*
X361950Y82550D02*
X346075Y82550D01*
X638175Y257175D02*
X638175Y258738D01*
X638175Y257175D02*
X635000Y260350D01*
X390525Y114300D02*
X384175Y107950D01*
X390525Y114300D02*
X390525Y149225D01*
X409575Y168275D01*
X555625Y168275D01*
X579438Y192088D01*
X580925Y193575D01*
X384175Y107950D02*
X361950Y107950D01*
X580925Y193575D02*
X581025Y193675D01*
X609600Y193675D01*
X609500Y193575D01*
X602600Y193575D01*
X82550Y390525D02*
X82550Y457200D01*
X82550Y390525D02*
X92075Y381000D01*
X111125Y381000D01*
D35*
X111125Y381000D03*
D34*
X122875Y38100D02*
X155100Y38100D01*
X122875Y38100D02*
X117475Y43500D01*
X135475Y83500D02*
X135475Y347125D01*
X127000Y355600D01*
X13306Y346681D02*
X13306Y301925D01*
X22225Y355600D02*
X127000Y355600D01*
X22225Y355600D02*
X13306Y346681D01*
X400100Y327075D02*
X426100Y327075D01*
X400100Y327075D02*
X384175Y311150D01*
X663575Y295275D02*
X803275Y295275D01*
X453975Y327075D02*
X426100Y327075D01*
X654050Y304800D02*
X663575Y295275D01*
X654050Y304800D02*
X476250Y304800D01*
X453975Y327075D01*
X384175Y311150D02*
X361950Y311150D01*
D35*
X454025Y184150D03*
D34*
X523875Y184150D01*
D35*
X523875Y184150D03*
D34*
X549275Y63500D02*
X549275Y35400D01*
X548800Y34925D01*
X523850Y34925D01*
X602600Y238075D02*
X636513Y238075D01*
X638175Y239738D01*
X638175Y212700D01*
D38*
X441500Y457675D02*
X393700Y457675D01*
X441500Y457675D02*
X445350Y453825D01*
X393700Y457675D02*
X393225Y457200D01*
X349250Y457200D01*
X323850Y431800D01*
X323850Y412750D01*
M02*
