G04 EAGLE Gerber RS-274X export*
G75*
%MOMM*%
%FSLAX34Y34*%
%LPD*%
%INBottom Copper*%
%IPPOS*%
%AMOC8*
5,1,8,0,0,1.08239X$1,22.5*%
G01*
%ADD10C,1.676400*%
%ADD11R,1.300000X1.500000*%
%ADD12R,4.191000X2.667000*%
%ADD13C,1.524000*%
%ADD14C,1.508000*%
%ADD15R,2.850000X2.850000*%
%ADD16C,2.184400*%
%ADD17C,1.930400*%
%ADD18R,2.000000X2.000000*%
%ADD19C,2.000000*%
%ADD20C,0.756400*%
%ADD21C,0.600000*%
%ADD22C,0.800000*%

G36*
X850050Y-369D02*
X850050Y-369D01*
X850101Y-367D01*
X850133Y-349D01*
X850169Y-341D01*
X850208Y-308D01*
X850253Y-284D01*
X850274Y-254D01*
X850302Y-231D01*
X850323Y-184D01*
X850353Y-142D01*
X850361Y-100D01*
X850373Y-72D01*
X850372Y-42D01*
X850380Y0D01*
X850380Y364723D01*
X850369Y364773D01*
X850367Y364824D01*
X850349Y364856D01*
X850341Y364892D01*
X850308Y364931D01*
X850284Y364976D01*
X850254Y364997D01*
X850231Y365025D01*
X850184Y365046D01*
X850142Y365076D01*
X850100Y365084D01*
X850072Y365096D01*
X850042Y365095D01*
X850000Y365103D01*
X829607Y365103D01*
X829607Y380598D01*
X829596Y380648D01*
X829594Y380699D01*
X829576Y380731D01*
X829568Y380767D01*
X829535Y380806D01*
X829511Y380851D01*
X829481Y380872D01*
X829457Y380900D01*
X829411Y380921D01*
X829369Y380951D01*
X829327Y380959D01*
X829299Y380971D01*
X829269Y380970D01*
X829227Y380978D01*
X828845Y380978D01*
X828845Y380980D01*
X829227Y380980D01*
X829277Y380991D01*
X829328Y380993D01*
X829360Y381011D01*
X829396Y381019D01*
X829435Y381052D01*
X829480Y381076D01*
X829501Y381106D01*
X829529Y381130D01*
X829550Y381176D01*
X829580Y381218D01*
X829588Y381260D01*
X829600Y381288D01*
X829599Y381316D01*
X829600Y381318D01*
X829600Y381323D01*
X829607Y381360D01*
X829607Y396855D01*
X850000Y396855D01*
X850050Y396866D01*
X850101Y396868D01*
X850133Y396886D01*
X850169Y396894D01*
X850208Y396927D01*
X850253Y396951D01*
X850274Y396981D01*
X850302Y397004D01*
X850323Y397051D01*
X850353Y397093D01*
X850361Y397135D01*
X850373Y397163D01*
X850372Y397193D01*
X850380Y397235D01*
X850380Y434615D01*
X850369Y434665D01*
X850367Y434716D01*
X850349Y434748D01*
X850341Y434784D01*
X850308Y434823D01*
X850284Y434868D01*
X850254Y434889D01*
X850231Y434917D01*
X850184Y434938D01*
X850142Y434968D01*
X850100Y434976D01*
X850072Y434988D01*
X850042Y434987D01*
X850000Y434995D01*
X829607Y434995D01*
X829607Y450490D01*
X829596Y450540D01*
X829594Y450591D01*
X829576Y450623D01*
X829568Y450659D01*
X829535Y450698D01*
X829511Y450743D01*
X829481Y450764D01*
X829457Y450792D01*
X829411Y450813D01*
X829369Y450843D01*
X829327Y450851D01*
X829299Y450863D01*
X829269Y450862D01*
X829227Y450870D01*
X828845Y450870D01*
X828845Y450872D01*
X829227Y450872D01*
X829277Y450883D01*
X829328Y450885D01*
X829360Y450903D01*
X829396Y450911D01*
X829435Y450944D01*
X829480Y450968D01*
X829501Y450998D01*
X829529Y451022D01*
X829550Y451068D01*
X829580Y451110D01*
X829588Y451152D01*
X829600Y451180D01*
X829599Y451210D01*
X829607Y451252D01*
X829607Y466747D01*
X850000Y466747D01*
X850050Y466758D01*
X850101Y466760D01*
X850133Y466778D01*
X850169Y466786D01*
X850208Y466819D01*
X850253Y466843D01*
X850274Y466873D01*
X850302Y466896D01*
X850323Y466943D01*
X850353Y466985D01*
X850361Y467027D01*
X850373Y467055D01*
X850372Y467085D01*
X850380Y467127D01*
X850380Y480000D01*
X850369Y480050D01*
X850367Y480101D01*
X850349Y480133D01*
X850341Y480169D01*
X850308Y480208D01*
X850284Y480253D01*
X850254Y480274D01*
X850231Y480302D01*
X850184Y480323D01*
X850142Y480353D01*
X850100Y480361D01*
X850072Y480373D01*
X850042Y480372D01*
X850000Y480380D01*
X0Y480380D01*
X-50Y480369D01*
X-101Y480367D01*
X-133Y480349D01*
X-169Y480341D01*
X-208Y480308D01*
X-253Y480284D01*
X-274Y480254D01*
X-302Y480231D01*
X-323Y480184D01*
X-353Y480142D01*
X-361Y480100D01*
X-373Y480072D01*
X-372Y480042D01*
X-380Y480000D01*
X-380Y306471D01*
X-377Y306458D01*
X-379Y306445D01*
X-368Y306407D01*
X-367Y306381D01*
X-354Y306357D01*
X-341Y306302D01*
X-333Y306292D01*
X-329Y306280D01*
X-289Y306237D01*
X-284Y306229D01*
X-275Y306222D01*
X-231Y306168D01*
X-219Y306163D01*
X-210Y306154D01*
X-140Y306128D01*
X-72Y306098D01*
X-59Y306098D01*
X-47Y306094D01*
X26Y306101D01*
X101Y306104D01*
X112Y306110D01*
X125Y306112D01*
X170Y306140D01*
X173Y306141D01*
X181Y306147D01*
X188Y306151D01*
X253Y306187D01*
X260Y306197D01*
X271Y306204D01*
X296Y306242D01*
X307Y306251D01*
X317Y306273D01*
X351Y306325D01*
X1732Y309659D01*
X5573Y313499D01*
X10591Y315578D01*
X16022Y315578D01*
X21040Y313499D01*
X24880Y309659D01*
X26931Y304707D01*
X26946Y304686D01*
X26954Y304662D01*
X26996Y304617D01*
X27032Y304567D01*
X27055Y304554D01*
X27073Y304536D01*
X27131Y304514D01*
X27185Y304485D01*
X27211Y304484D01*
X27235Y304476D01*
X27297Y304482D01*
X27359Y304480D01*
X27382Y304491D01*
X27408Y304494D01*
X27460Y304527D01*
X27516Y304553D01*
X27532Y304573D01*
X27554Y304586D01*
X27602Y304658D01*
X27625Y304687D01*
X27627Y304697D01*
X27634Y304707D01*
X28828Y307590D01*
X31641Y310403D01*
X35317Y311926D01*
X39296Y311926D01*
X42971Y310403D01*
X45784Y307590D01*
X47307Y303914D01*
X47307Y299936D01*
X45784Y296260D01*
X42971Y293447D01*
X39296Y291924D01*
X35317Y291924D01*
X31641Y293447D01*
X28828Y296260D01*
X27634Y299143D01*
X27619Y299164D01*
X27611Y299188D01*
X27569Y299233D01*
X27533Y299283D01*
X27510Y299296D01*
X27492Y299314D01*
X27435Y299336D01*
X27380Y299365D01*
X27354Y299366D01*
X27330Y299374D01*
X27269Y299368D01*
X27207Y299370D01*
X27183Y299359D01*
X27158Y299356D01*
X27106Y299323D01*
X27049Y299297D01*
X27033Y299277D01*
X27011Y299264D01*
X26964Y299192D01*
X26940Y299163D01*
X26938Y299153D01*
X26931Y299143D01*
X24880Y294191D01*
X21040Y290351D01*
X16022Y288272D01*
X10591Y288272D01*
X5573Y290351D01*
X1732Y294191D01*
X351Y297525D01*
X344Y297535D01*
X341Y297548D01*
X299Y297598D01*
X294Y297608D01*
X289Y297612D01*
X250Y297665D01*
X239Y297672D01*
X231Y297682D01*
X163Y297712D01*
X97Y297747D01*
X84Y297747D01*
X72Y297752D01*
X-2Y297750D01*
X-76Y297752D01*
X-88Y297746D01*
X-101Y297746D01*
X-166Y297710D01*
X-233Y297679D01*
X-242Y297669D01*
X-253Y297663D01*
X-296Y297603D01*
X-342Y297545D01*
X-345Y297532D01*
X-353Y297521D01*
X-369Y297438D01*
X-373Y297428D01*
X-373Y297417D01*
X-380Y297379D01*
X-380Y0D01*
X-369Y-50D01*
X-367Y-101D01*
X-349Y-133D01*
X-341Y-169D01*
X-308Y-208D01*
X-284Y-253D01*
X-254Y-274D01*
X-231Y-302D01*
X-184Y-323D01*
X-142Y-353D01*
X-100Y-361D01*
X-72Y-373D01*
X-42Y-372D01*
X0Y-380D01*
X850000Y-380D01*
X850050Y-369D01*
G37*
%LPC*%
G36*
X734704Y27759D02*
X734704Y27759D01*
X730463Y29516D01*
X727216Y32763D01*
X725459Y37004D01*
X725459Y41596D01*
X727216Y45837D01*
X729888Y48509D01*
X729928Y48574D01*
X729972Y48636D01*
X729974Y48648D01*
X729979Y48656D01*
X729983Y48693D01*
X729999Y48778D01*
X729999Y71643D01*
X731065Y74216D01*
X745363Y88513D01*
X745403Y88578D01*
X745447Y88640D01*
X745449Y88652D01*
X745454Y88661D01*
X745458Y88698D01*
X745474Y88782D01*
X745474Y175535D01*
X745468Y175560D01*
X745471Y175586D01*
X745449Y175644D01*
X745435Y175704D01*
X745418Y175724D01*
X745409Y175748D01*
X745364Y175790D01*
X745325Y175838D01*
X745301Y175848D01*
X745282Y175866D01*
X745223Y175883D01*
X745166Y175909D01*
X745141Y175908D01*
X745116Y175915D01*
X745055Y175904D01*
X744993Y175902D01*
X744971Y175890D01*
X744945Y175885D01*
X744874Y175837D01*
X744841Y175819D01*
X744835Y175811D01*
X744825Y175804D01*
X743537Y174516D01*
X739296Y172759D01*
X734704Y172759D01*
X730463Y174516D01*
X727941Y177038D01*
X727876Y177078D01*
X727814Y177122D01*
X727802Y177124D01*
X727794Y177129D01*
X727757Y177133D01*
X727672Y177149D01*
X527387Y177149D01*
X527385Y177149D01*
X527383Y177149D01*
X527241Y177120D01*
X525423Y176367D01*
X522327Y176367D01*
X519466Y177552D01*
X517277Y179741D01*
X516092Y182602D01*
X516092Y185698D01*
X517277Y188559D01*
X519466Y190748D01*
X522327Y191933D01*
X525423Y191933D01*
X527241Y191180D01*
X527243Y191179D01*
X527244Y191178D01*
X527387Y191151D01*
X727372Y191151D01*
X727446Y191168D01*
X727521Y191181D01*
X727531Y191188D01*
X727541Y191190D01*
X727570Y191214D01*
X727641Y191262D01*
X730463Y194084D01*
X734704Y195841D01*
X739296Y195841D01*
X743537Y194084D01*
X744825Y192796D01*
X744847Y192782D01*
X744863Y192762D01*
X744920Y192737D01*
X744972Y192705D01*
X744998Y192702D01*
X745022Y192691D01*
X745083Y192694D01*
X745145Y192688D01*
X745169Y192697D01*
X745195Y192698D01*
X745249Y192728D01*
X745307Y192750D01*
X745324Y192769D01*
X745347Y192781D01*
X745382Y192831D01*
X745424Y192877D01*
X745432Y192901D01*
X745447Y192923D01*
X745463Y193007D01*
X745474Y193043D01*
X745472Y193053D01*
X745474Y193065D01*
X745474Y228718D01*
X745457Y228792D01*
X745444Y228866D01*
X745437Y228877D01*
X745435Y228886D01*
X745411Y228915D01*
X745363Y228987D01*
X727462Y246888D01*
X727397Y246928D01*
X727335Y246972D01*
X727323Y246974D01*
X727314Y246979D01*
X727277Y246983D01*
X727193Y246999D01*
X494069Y246999D01*
X494044Y246993D01*
X494018Y246996D01*
X493961Y246974D01*
X493901Y246960D01*
X493881Y246943D01*
X493857Y246934D01*
X493815Y246889D01*
X493767Y246850D01*
X493756Y246826D01*
X493739Y246807D01*
X493721Y246748D01*
X493696Y246691D01*
X493697Y246666D01*
X493690Y246641D01*
X493700Y246580D01*
X493703Y246518D01*
X493715Y246496D01*
X493719Y246470D01*
X493768Y246399D01*
X493785Y246366D01*
X493793Y246360D01*
X493800Y246350D01*
X494938Y245212D01*
X502387Y237763D01*
X504410Y235741D01*
X505476Y233168D01*
X505476Y80711D01*
X505493Y80637D01*
X505506Y80562D01*
X505513Y80552D01*
X505515Y80542D01*
X505539Y80513D01*
X505587Y80442D01*
X508327Y77703D01*
X510096Y73432D01*
X510096Y53568D01*
X508327Y49297D01*
X505058Y46028D01*
X504584Y45832D01*
X504574Y45825D01*
X504561Y45822D01*
X504503Y45774D01*
X504443Y45731D01*
X504437Y45720D01*
X504427Y45712D01*
X504397Y45644D01*
X504362Y45578D01*
X504362Y45565D01*
X504356Y45553D01*
X504359Y45479D01*
X504357Y45405D01*
X504362Y45393D01*
X504363Y45380D01*
X504398Y45315D01*
X504429Y45248D01*
X504439Y45239D01*
X504446Y45228D01*
X504506Y45185D01*
X504564Y45139D01*
X504577Y45136D01*
X504587Y45128D01*
X504730Y45101D01*
X514468Y45101D01*
X514542Y45118D01*
X514616Y45131D01*
X514627Y45138D01*
X514636Y45140D01*
X514665Y45164D01*
X514737Y45212D01*
X516154Y46629D01*
X516181Y46673D01*
X516215Y46710D01*
X516226Y46745D01*
X516245Y46777D01*
X516250Y46827D01*
X516265Y46876D01*
X516258Y46912D01*
X516262Y46949D01*
X516244Y46997D01*
X516235Y47047D01*
X516211Y47082D01*
X516200Y47111D01*
X516178Y47132D01*
X516154Y47167D01*
X514023Y49297D01*
X512254Y53568D01*
X512254Y73432D01*
X514023Y77703D01*
X517292Y80972D01*
X521563Y82741D01*
X526187Y82741D01*
X530458Y80972D01*
X533727Y77703D01*
X535496Y73432D01*
X535496Y53568D01*
X533727Y49297D01*
X530987Y46558D01*
X530947Y46493D01*
X530903Y46431D01*
X530901Y46419D01*
X530896Y46411D01*
X530892Y46374D01*
X530876Y46289D01*
X530876Y43057D01*
X529810Y40484D01*
X521491Y32165D01*
X518918Y31099D01*
X474857Y31099D01*
X472284Y32165D01*
X463965Y40484D01*
X462899Y43057D01*
X462899Y216018D01*
X462886Y216074D01*
X462886Y216083D01*
X462883Y216088D01*
X462882Y216092D01*
X462869Y216166D01*
X462862Y216177D01*
X462860Y216186D01*
X462836Y216215D01*
X462788Y216287D01*
X457587Y221488D01*
X457522Y221528D01*
X457460Y221572D01*
X457448Y221574D01*
X457439Y221579D01*
X457402Y221583D01*
X457318Y221599D01*
X370619Y221599D01*
X370594Y221593D01*
X370568Y221596D01*
X370510Y221574D01*
X370450Y221560D01*
X370430Y221543D01*
X370406Y221534D01*
X370364Y221489D01*
X370316Y221450D01*
X370306Y221426D01*
X370288Y221407D01*
X370271Y221348D01*
X370245Y221291D01*
X370246Y221266D01*
X370239Y221241D01*
X370250Y221180D01*
X370252Y221118D01*
X370264Y221096D01*
X370269Y221070D01*
X370317Y220999D01*
X370335Y220966D01*
X370343Y220960D01*
X370350Y220950D01*
X373819Y217481D01*
X375951Y212335D01*
X375951Y206765D01*
X373819Y201619D01*
X369881Y197681D01*
X368723Y197201D01*
X368702Y197186D01*
X368678Y197179D01*
X368633Y197136D01*
X368582Y197100D01*
X368570Y197077D01*
X368552Y197060D01*
X368530Y197002D01*
X368501Y196947D01*
X368500Y196922D01*
X368491Y196897D01*
X368498Y196836D01*
X368496Y196774D01*
X368507Y196751D01*
X368510Y196725D01*
X368543Y196673D01*
X368569Y196617D01*
X368589Y196600D01*
X368602Y196579D01*
X368674Y196531D01*
X368703Y196508D01*
X368713Y196505D01*
X368723Y196499D01*
X369881Y196019D01*
X373819Y192081D01*
X374107Y191385D01*
X374144Y191334D01*
X374175Y191278D01*
X374194Y191264D01*
X374208Y191245D01*
X374264Y191215D01*
X374316Y191178D01*
X374343Y191173D01*
X374361Y191163D01*
X374399Y191162D01*
X374459Y191151D01*
X450513Y191151D01*
X450515Y191151D01*
X450517Y191151D01*
X450659Y191180D01*
X452477Y191933D01*
X455573Y191933D01*
X458434Y190748D01*
X460623Y188559D01*
X461808Y185698D01*
X461808Y182602D01*
X460623Y179741D01*
X458434Y177552D01*
X455573Y176367D01*
X452477Y176367D01*
X450659Y177120D01*
X450657Y177121D01*
X450656Y177122D01*
X450513Y177149D01*
X397815Y177149D01*
X397777Y177140D01*
X397739Y177142D01*
X397694Y177121D01*
X397646Y177110D01*
X397616Y177085D01*
X397582Y177069D01*
X397551Y177031D01*
X397513Y177000D01*
X397497Y176964D01*
X397473Y176935D01*
X397462Y176887D01*
X397442Y176841D01*
X397443Y176803D01*
X397435Y176765D01*
X397447Y176706D01*
X397448Y176668D01*
X397458Y176650D01*
X397464Y176623D01*
X398308Y174586D01*
X398308Y171489D01*
X397555Y169671D01*
X397554Y169670D01*
X397553Y169668D01*
X397526Y169526D01*
X397526Y46232D01*
X396460Y43659D01*
X384966Y32165D01*
X382393Y31099D01*
X194012Y31099D01*
X194010Y31099D01*
X194008Y31099D01*
X193866Y31070D01*
X192048Y30317D01*
X188952Y30317D01*
X186091Y31502D01*
X183902Y33691D01*
X182717Y36552D01*
X182717Y39648D01*
X183902Y42509D01*
X186091Y44698D01*
X188952Y45883D01*
X192048Y45883D01*
X193866Y45130D01*
X193868Y45129D01*
X193869Y45128D01*
X194012Y45101D01*
X377943Y45101D01*
X378017Y45118D01*
X378091Y45131D01*
X378102Y45138D01*
X378111Y45140D01*
X378140Y45164D01*
X378212Y45212D01*
X383413Y50413D01*
X383453Y50478D01*
X383497Y50540D01*
X383499Y50552D01*
X383504Y50561D01*
X383508Y50598D01*
X383524Y50682D01*
X383524Y169526D01*
X383524Y169528D01*
X383524Y169529D01*
X383495Y169671D01*
X382742Y171489D01*
X382742Y174586D01*
X383586Y176623D01*
X383593Y176661D01*
X383608Y176697D01*
X383607Y176746D01*
X383615Y176794D01*
X383603Y176831D01*
X383602Y176870D01*
X383578Y176913D01*
X383564Y176960D01*
X383537Y176988D01*
X383519Y177022D01*
X383479Y177050D01*
X383445Y177086D01*
X383409Y177099D01*
X383377Y177122D01*
X383318Y177133D01*
X383282Y177146D01*
X383262Y177144D01*
X383235Y177149D01*
X374459Y177149D01*
X374397Y177135D01*
X374334Y177128D01*
X374313Y177115D01*
X374290Y177110D01*
X374241Y177069D01*
X374187Y177035D01*
X374172Y177013D01*
X374156Y177000D01*
X374141Y176965D01*
X374107Y176915D01*
X373819Y176219D01*
X369881Y172281D01*
X366857Y171028D01*
X366848Y171022D01*
X366838Y171020D01*
X366779Y170972D01*
X366716Y170927D01*
X366711Y170918D01*
X366703Y170911D01*
X366671Y170842D01*
X366635Y170774D01*
X366635Y170764D01*
X366630Y170754D01*
X366632Y170677D01*
X366630Y170601D01*
X366635Y170591D01*
X366635Y170581D01*
X366671Y170513D01*
X366702Y170444D01*
X366711Y170437D01*
X366716Y170427D01*
X366830Y170338D01*
X368523Y169476D01*
X370120Y168316D01*
X371516Y166920D01*
X372676Y165323D01*
X373572Y163564D01*
X374182Y161687D01*
X374491Y159737D01*
X374491Y159511D01*
X362331Y159511D01*
X362281Y159500D01*
X362230Y159498D01*
X362198Y159480D01*
X362162Y159472D01*
X362123Y159439D01*
X362078Y159415D01*
X362057Y159385D01*
X362029Y159362D01*
X362008Y159315D01*
X361979Y159273D01*
X361970Y159231D01*
X361958Y159203D01*
X361959Y159173D01*
X361951Y159131D01*
X361951Y158369D01*
X361963Y158319D01*
X361964Y158268D01*
X361982Y158236D01*
X361990Y158200D01*
X362023Y158161D01*
X362047Y158116D01*
X362077Y158095D01*
X362101Y158067D01*
X362147Y158046D01*
X362189Y158016D01*
X362231Y158008D01*
X362259Y157996D01*
X362289Y157997D01*
X362331Y157989D01*
X374491Y157989D01*
X374491Y157763D01*
X374182Y155813D01*
X373572Y153936D01*
X372676Y152177D01*
X371516Y150580D01*
X370120Y149184D01*
X368523Y148024D01*
X366830Y147162D01*
X366822Y147155D01*
X366812Y147152D01*
X366756Y147099D01*
X366698Y147050D01*
X366693Y147040D01*
X366686Y147033D01*
X366659Y146961D01*
X366629Y146891D01*
X366629Y146880D01*
X366625Y146870D01*
X366633Y146794D01*
X366637Y146718D01*
X366642Y146709D01*
X366644Y146698D01*
X366684Y146633D01*
X366722Y146567D01*
X366731Y146561D01*
X366736Y146552D01*
X366857Y146472D01*
X369881Y145219D01*
X373819Y141281D01*
X375951Y136135D01*
X375951Y130565D01*
X373819Y125419D01*
X369881Y121481D01*
X368723Y121001D01*
X368702Y120986D01*
X368678Y120979D01*
X368633Y120936D01*
X368583Y120900D01*
X368570Y120877D01*
X368552Y120860D01*
X368530Y120802D01*
X368501Y120747D01*
X368500Y120721D01*
X368492Y120697D01*
X368498Y120636D01*
X368496Y120574D01*
X368507Y120551D01*
X368510Y120525D01*
X368543Y120473D01*
X368569Y120417D01*
X368589Y120400D01*
X368602Y120379D01*
X368674Y120331D01*
X368703Y120308D01*
X368713Y120305D01*
X368723Y120299D01*
X369881Y119819D01*
X373819Y115881D01*
X375951Y110735D01*
X375951Y105165D01*
X373819Y100019D01*
X369881Y96081D01*
X368723Y95601D01*
X368702Y95586D01*
X368678Y95579D01*
X368633Y95536D01*
X368583Y95500D01*
X368570Y95477D01*
X368552Y95460D01*
X368530Y95402D01*
X368501Y95347D01*
X368500Y95321D01*
X368492Y95297D01*
X368498Y95236D01*
X368496Y95174D01*
X368507Y95151D01*
X368510Y95125D01*
X368543Y95073D01*
X368569Y95017D01*
X368589Y95000D01*
X368602Y94979D01*
X368674Y94931D01*
X368703Y94908D01*
X368713Y94905D01*
X368723Y94899D01*
X369881Y94419D01*
X373819Y90481D01*
X375951Y85335D01*
X375951Y79765D01*
X373819Y74619D01*
X369881Y70681D01*
X364735Y68549D01*
X359165Y68549D01*
X354019Y70681D01*
X350081Y74619D01*
X347949Y79765D01*
X347949Y85335D01*
X350081Y90481D01*
X354019Y94419D01*
X355177Y94899D01*
X355198Y94914D01*
X355222Y94921D01*
X355267Y94964D01*
X355317Y95000D01*
X355330Y95023D01*
X355348Y95040D01*
X355370Y95098D01*
X355399Y95153D01*
X355400Y95179D01*
X355408Y95203D01*
X355402Y95264D01*
X355404Y95326D01*
X355393Y95349D01*
X355390Y95375D01*
X355357Y95427D01*
X355331Y95483D01*
X355311Y95500D01*
X355298Y95521D01*
X355226Y95569D01*
X355197Y95592D01*
X355187Y95594D01*
X355177Y95601D01*
X354019Y96081D01*
X350081Y100019D01*
X347949Y105165D01*
X347949Y110735D01*
X350081Y115881D01*
X354019Y119819D01*
X355177Y120299D01*
X355198Y120314D01*
X355222Y120321D01*
X355267Y120364D01*
X355317Y120400D01*
X355330Y120423D01*
X355348Y120440D01*
X355370Y120498D01*
X355399Y120553D01*
X355400Y120579D01*
X355408Y120603D01*
X355402Y120664D01*
X355404Y120726D01*
X355393Y120749D01*
X355390Y120775D01*
X355357Y120827D01*
X355331Y120883D01*
X355311Y120900D01*
X355298Y120921D01*
X355226Y120969D01*
X355197Y120992D01*
X355187Y120994D01*
X355177Y121001D01*
X354019Y121481D01*
X350081Y125419D01*
X347949Y130565D01*
X347949Y136135D01*
X350081Y141281D01*
X354019Y145219D01*
X357043Y146472D01*
X357052Y146478D01*
X357062Y146480D01*
X357121Y146528D01*
X357184Y146573D01*
X357189Y146582D01*
X357197Y146589D01*
X357229Y146658D01*
X357265Y146726D01*
X357265Y146736D01*
X357270Y146746D01*
X357268Y146823D01*
X357270Y146899D01*
X357265Y146909D01*
X357265Y146919D01*
X357229Y146987D01*
X357198Y147056D01*
X357189Y147063D01*
X357184Y147073D01*
X357070Y147162D01*
X355377Y148024D01*
X353780Y149184D01*
X352384Y150580D01*
X351224Y152177D01*
X350328Y153936D01*
X349718Y155813D01*
X349409Y157763D01*
X349409Y157989D01*
X361569Y157989D01*
X361619Y158000D01*
X361670Y158002D01*
X361702Y158020D01*
X361738Y158028D01*
X361777Y158061D01*
X361822Y158085D01*
X361843Y158115D01*
X361871Y158138D01*
X361892Y158185D01*
X361921Y158227D01*
X361930Y158269D01*
X361942Y158297D01*
X361941Y158327D01*
X361949Y158369D01*
X361949Y159131D01*
X361937Y159181D01*
X361936Y159232D01*
X361918Y159264D01*
X361910Y159300D01*
X361877Y159339D01*
X361853Y159384D01*
X361823Y159405D01*
X361799Y159433D01*
X361753Y159454D01*
X361711Y159484D01*
X361669Y159492D01*
X361641Y159504D01*
X361611Y159503D01*
X361569Y159511D01*
X349409Y159511D01*
X349409Y159737D01*
X349718Y161687D01*
X350328Y163564D01*
X351224Y165323D01*
X352384Y166920D01*
X353780Y168316D01*
X355377Y169476D01*
X357070Y170338D01*
X357078Y170345D01*
X357088Y170348D01*
X357144Y170401D01*
X357202Y170450D01*
X357207Y170460D01*
X357214Y170467D01*
X357241Y170539D01*
X357271Y170609D01*
X357271Y170620D01*
X357275Y170630D01*
X357267Y170706D01*
X357263Y170782D01*
X357258Y170791D01*
X357256Y170802D01*
X357216Y170867D01*
X357178Y170933D01*
X357169Y170939D01*
X357164Y170948D01*
X357043Y171028D01*
X354019Y172281D01*
X350081Y176219D01*
X347949Y181365D01*
X347949Y186935D01*
X350081Y192081D01*
X354019Y196019D01*
X355177Y196499D01*
X355198Y196514D01*
X355222Y196521D01*
X355267Y196564D01*
X355318Y196600D01*
X355330Y196622D01*
X355348Y196640D01*
X355370Y196698D01*
X355399Y196753D01*
X355400Y196779D01*
X355409Y196803D01*
X355402Y196864D01*
X355404Y196926D01*
X355393Y196949D01*
X355390Y196975D01*
X355357Y197027D01*
X355331Y197083D01*
X355311Y197100D01*
X355298Y197121D01*
X355226Y197169D01*
X355197Y197192D01*
X355187Y197194D01*
X355177Y197201D01*
X354019Y197681D01*
X350081Y201619D01*
X349793Y202315D01*
X349756Y202366D01*
X349725Y202422D01*
X349706Y202436D01*
X349692Y202455D01*
X349636Y202485D01*
X349584Y202522D01*
X349557Y202527D01*
X349539Y202537D01*
X349501Y202538D01*
X349441Y202549D01*
X311032Y202549D01*
X310958Y202532D01*
X310884Y202519D01*
X310873Y202512D01*
X310864Y202510D01*
X310835Y202486D01*
X310763Y202438D01*
X305562Y197237D01*
X305549Y197215D01*
X305530Y197200D01*
X305510Y197156D01*
X305478Y197110D01*
X305476Y197098D01*
X305471Y197089D01*
X305468Y197061D01*
X305460Y197042D01*
X305460Y197018D01*
X305451Y196968D01*
X305451Y68457D01*
X304385Y65884D01*
X292891Y54390D01*
X290318Y53324D01*
X71632Y53324D01*
X69059Y54390D01*
X57565Y65884D01*
X56499Y68457D01*
X56499Y173393D01*
X56486Y173449D01*
X56484Y173495D01*
X56474Y173514D01*
X56469Y173541D01*
X56462Y173552D01*
X56460Y173561D01*
X56436Y173590D01*
X56418Y173618D01*
X56402Y173647D01*
X56394Y173652D01*
X56388Y173662D01*
X53224Y176826D01*
X53191Y176846D01*
X53165Y176874D01*
X53118Y176891D01*
X53076Y176917D01*
X53038Y176921D01*
X53002Y176934D01*
X52953Y176929D01*
X52904Y176934D01*
X52868Y176920D01*
X52830Y176916D01*
X52788Y176890D01*
X52742Y176872D01*
X52716Y176844D01*
X52683Y176823D01*
X52650Y176773D01*
X52624Y176745D01*
X52618Y176725D01*
X52603Y176702D01*
X52301Y175972D01*
X48103Y171774D01*
X42618Y169502D01*
X36682Y169502D01*
X31197Y171774D01*
X26999Y175972D01*
X24727Y181457D01*
X24727Y187393D01*
X26999Y192878D01*
X31197Y197076D01*
X36682Y199348D01*
X42618Y199348D01*
X48103Y197076D01*
X52301Y192878D01*
X52805Y191660D01*
X52842Y191609D01*
X52873Y191553D01*
X52892Y191539D01*
X52906Y191520D01*
X52962Y191490D01*
X53014Y191453D01*
X53041Y191448D01*
X53059Y191438D01*
X53097Y191437D01*
X53157Y191426D01*
X56918Y191426D01*
X59491Y190360D01*
X69435Y180416D01*
X70501Y177843D01*
X70501Y72907D01*
X70518Y72833D01*
X70531Y72759D01*
X70538Y72748D01*
X70540Y72739D01*
X70564Y72710D01*
X70612Y72638D01*
X75813Y67437D01*
X75878Y67397D01*
X75940Y67353D01*
X75952Y67351D01*
X75961Y67346D01*
X75998Y67342D01*
X76082Y67326D01*
X285868Y67326D01*
X285942Y67343D01*
X286016Y67356D01*
X286027Y67363D01*
X286036Y67365D01*
X286065Y67389D01*
X286137Y67437D01*
X291338Y72638D01*
X291378Y72703D01*
X291422Y72765D01*
X291424Y72777D01*
X291429Y72786D01*
X291433Y72823D01*
X291449Y72907D01*
X291449Y201418D01*
X292515Y203991D01*
X304009Y215485D01*
X306582Y216551D01*
X349441Y216551D01*
X349503Y216565D01*
X349566Y216572D01*
X349587Y216585D01*
X349610Y216590D01*
X349659Y216631D01*
X349713Y216665D01*
X349728Y216687D01*
X349744Y216700D01*
X349759Y216735D01*
X349793Y216785D01*
X350081Y217481D01*
X353550Y220950D01*
X353564Y220972D01*
X353584Y220988D01*
X353609Y221045D01*
X353642Y221097D01*
X353644Y221123D01*
X353655Y221147D01*
X353652Y221208D01*
X353658Y221270D01*
X353649Y221294D01*
X353648Y221320D01*
X353618Y221374D01*
X353596Y221432D01*
X353578Y221449D01*
X353565Y221472D01*
X353515Y221507D01*
X353469Y221549D01*
X353445Y221557D01*
X353424Y221572D01*
X353339Y221588D01*
X353303Y221599D01*
X353293Y221597D01*
X353281Y221599D01*
X239907Y221599D01*
X237334Y222665D01*
X232162Y227838D01*
X232097Y227878D01*
X232035Y227922D01*
X232023Y227924D01*
X232014Y227929D01*
X231977Y227933D01*
X231893Y227949D01*
X222059Y227949D01*
X221997Y227935D01*
X221934Y227928D01*
X221913Y227915D01*
X221890Y227910D01*
X221841Y227869D01*
X221787Y227835D01*
X221772Y227813D01*
X221756Y227800D01*
X221741Y227765D01*
X221707Y227715D01*
X221419Y227019D01*
X217481Y223081D01*
X216323Y222601D01*
X216302Y222586D01*
X216278Y222579D01*
X216233Y222536D01*
X216182Y222500D01*
X216170Y222478D01*
X216152Y222460D01*
X216130Y222402D01*
X216101Y222347D01*
X216100Y222321D01*
X216091Y222297D01*
X216098Y222236D01*
X216096Y222174D01*
X216107Y222151D01*
X216110Y222125D01*
X216143Y222073D01*
X216169Y222017D01*
X216189Y222000D01*
X216202Y221979D01*
X216274Y221931D01*
X216303Y221908D01*
X216313Y221906D01*
X216323Y221899D01*
X217481Y221419D01*
X221419Y217481D01*
X223551Y212335D01*
X223551Y206765D01*
X221419Y201619D01*
X217481Y197681D01*
X216323Y197201D01*
X216302Y197186D01*
X216278Y197179D01*
X216233Y197136D01*
X216183Y197100D01*
X216170Y197077D01*
X216152Y197060D01*
X216130Y197002D01*
X216101Y196947D01*
X216100Y196921D01*
X216092Y196897D01*
X216098Y196836D01*
X216096Y196774D01*
X216107Y196751D01*
X216110Y196725D01*
X216143Y196673D01*
X216169Y196617D01*
X216189Y196600D01*
X216202Y196579D01*
X216274Y196531D01*
X216303Y196508D01*
X216313Y196506D01*
X216323Y196499D01*
X217481Y196019D01*
X221419Y192081D01*
X223551Y186935D01*
X223551Y181365D01*
X221419Y176219D01*
X217481Y172281D01*
X216323Y171801D01*
X216302Y171786D01*
X216278Y171779D01*
X216233Y171736D01*
X216183Y171700D01*
X216170Y171677D01*
X216152Y171660D01*
X216130Y171602D01*
X216101Y171547D01*
X216100Y171521D01*
X216092Y171497D01*
X216098Y171436D01*
X216096Y171374D01*
X216107Y171351D01*
X216110Y171325D01*
X216143Y171273D01*
X216169Y171217D01*
X216189Y171200D01*
X216202Y171179D01*
X216274Y171131D01*
X216303Y171108D01*
X216313Y171106D01*
X216323Y171099D01*
X217481Y170619D01*
X221419Y166681D01*
X223551Y161535D01*
X223551Y155965D01*
X221419Y150819D01*
X217481Y146881D01*
X216323Y146401D01*
X216302Y146386D01*
X216278Y146379D01*
X216233Y146336D01*
X216183Y146300D01*
X216170Y146277D01*
X216152Y146260D01*
X216130Y146202D01*
X216101Y146147D01*
X216100Y146121D01*
X216092Y146097D01*
X216098Y146036D01*
X216096Y145974D01*
X216107Y145951D01*
X216110Y145925D01*
X216143Y145873D01*
X216169Y145817D01*
X216189Y145800D01*
X216202Y145779D01*
X216274Y145731D01*
X216303Y145708D01*
X216313Y145706D01*
X216323Y145699D01*
X217481Y145219D01*
X221419Y141281D01*
X223551Y136135D01*
X223551Y130565D01*
X221419Y125419D01*
X217481Y121481D01*
X214457Y120228D01*
X214448Y120222D01*
X214438Y120220D01*
X214379Y120172D01*
X214316Y120127D01*
X214311Y120118D01*
X214303Y120111D01*
X214271Y120042D01*
X214235Y119974D01*
X214235Y119964D01*
X214230Y119954D01*
X214232Y119878D01*
X214230Y119801D01*
X214235Y119791D01*
X214235Y119781D01*
X214271Y119713D01*
X214303Y119644D01*
X214311Y119637D01*
X214316Y119627D01*
X214430Y119538D01*
X216123Y118676D01*
X217720Y117516D01*
X219116Y116120D01*
X220276Y114523D01*
X221172Y112764D01*
X221782Y110887D01*
X222091Y108937D01*
X222091Y108711D01*
X209931Y108711D01*
X209881Y108700D01*
X209830Y108698D01*
X209798Y108680D01*
X209762Y108672D01*
X209723Y108639D01*
X209678Y108615D01*
X209657Y108585D01*
X209629Y108562D01*
X209608Y108515D01*
X209579Y108473D01*
X209570Y108431D01*
X209558Y108403D01*
X209559Y108373D01*
X209551Y108331D01*
X209551Y107569D01*
X209563Y107519D01*
X209564Y107468D01*
X209582Y107436D01*
X209590Y107400D01*
X209623Y107361D01*
X209647Y107316D01*
X209677Y107295D01*
X209701Y107267D01*
X209747Y107246D01*
X209789Y107216D01*
X209831Y107208D01*
X209859Y107196D01*
X209889Y107197D01*
X209931Y107189D01*
X222091Y107189D01*
X222091Y106963D01*
X221782Y105013D01*
X221172Y103136D01*
X220276Y101377D01*
X219116Y99780D01*
X217720Y98384D01*
X216123Y97224D01*
X214430Y96362D01*
X214422Y96355D01*
X214412Y96352D01*
X214356Y96299D01*
X214298Y96250D01*
X214293Y96240D01*
X214286Y96233D01*
X214259Y96161D01*
X214229Y96091D01*
X214229Y96080D01*
X214225Y96070D01*
X214233Y95994D01*
X214237Y95918D01*
X214243Y95909D01*
X214244Y95898D01*
X214284Y95833D01*
X214322Y95767D01*
X214331Y95761D01*
X214336Y95752D01*
X214457Y95672D01*
X217481Y94419D01*
X221419Y90481D01*
X223551Y85335D01*
X223551Y79765D01*
X221419Y74619D01*
X217481Y70681D01*
X212335Y68549D01*
X206765Y68549D01*
X201619Y70681D01*
X197681Y74619D01*
X195549Y79765D01*
X195549Y85335D01*
X197681Y90481D01*
X201619Y94419D01*
X204643Y95672D01*
X204652Y95678D01*
X204662Y95680D01*
X204721Y95728D01*
X204784Y95773D01*
X204789Y95782D01*
X204797Y95789D01*
X204829Y95858D01*
X204865Y95926D01*
X204865Y95936D01*
X204870Y95946D01*
X204868Y96022D01*
X204870Y96099D01*
X204865Y96109D01*
X204865Y96119D01*
X204829Y96187D01*
X204797Y96256D01*
X204789Y96263D01*
X204784Y96273D01*
X204670Y96362D01*
X202977Y97224D01*
X201380Y98384D01*
X199984Y99780D01*
X198824Y101377D01*
X197928Y103136D01*
X197318Y105013D01*
X197009Y106963D01*
X197009Y107189D01*
X209169Y107189D01*
X209219Y107200D01*
X209270Y107202D01*
X209302Y107220D01*
X209338Y107228D01*
X209377Y107261D01*
X209422Y107285D01*
X209443Y107315D01*
X209471Y107338D01*
X209492Y107385D01*
X209521Y107427D01*
X209530Y107469D01*
X209542Y107497D01*
X209541Y107527D01*
X209549Y107569D01*
X209549Y108331D01*
X209537Y108381D01*
X209536Y108432D01*
X209518Y108464D01*
X209510Y108500D01*
X209477Y108539D01*
X209453Y108584D01*
X209423Y108605D01*
X209399Y108633D01*
X209353Y108654D01*
X209311Y108684D01*
X209269Y108692D01*
X209241Y108704D01*
X209211Y108703D01*
X209169Y108711D01*
X197009Y108711D01*
X197009Y108937D01*
X197318Y110887D01*
X197928Y112764D01*
X198824Y114523D01*
X199984Y116120D01*
X201380Y117516D01*
X202977Y118676D01*
X204670Y119538D01*
X204678Y119545D01*
X204688Y119548D01*
X204744Y119601D01*
X204802Y119650D01*
X204807Y119660D01*
X204814Y119667D01*
X204841Y119739D01*
X204871Y119809D01*
X204871Y119820D01*
X204875Y119830D01*
X204867Y119906D01*
X204863Y119982D01*
X204857Y119991D01*
X204856Y120002D01*
X204816Y120067D01*
X204778Y120133D01*
X204769Y120139D01*
X204764Y120148D01*
X204643Y120228D01*
X201619Y121481D01*
X197681Y125419D01*
X195549Y130565D01*
X195549Y136135D01*
X197681Y141281D01*
X201619Y145219D01*
X202777Y145699D01*
X202798Y145714D01*
X202822Y145721D01*
X202867Y145764D01*
X202917Y145800D01*
X202930Y145823D01*
X202948Y145840D01*
X202970Y145898D01*
X202999Y145953D01*
X203000Y145979D01*
X203008Y146003D01*
X203002Y146064D01*
X203004Y146126D01*
X202993Y146149D01*
X202990Y146175D01*
X202957Y146227D01*
X202931Y146283D01*
X202911Y146300D01*
X202898Y146321D01*
X202826Y146369D01*
X202797Y146392D01*
X202787Y146395D01*
X202777Y146401D01*
X201619Y146881D01*
X197862Y150638D01*
X197797Y150678D01*
X197735Y150722D01*
X197723Y150724D01*
X197715Y150729D01*
X197678Y150733D01*
X197593Y150749D01*
X102236Y150749D01*
X102162Y150732D01*
X102087Y150719D01*
X102077Y150712D01*
X102067Y150710D01*
X102038Y150686D01*
X101967Y150638D01*
X98523Y147194D01*
X98496Y147151D01*
X98461Y147113D01*
X98451Y147078D01*
X98431Y147047D01*
X98427Y146996D01*
X98412Y146947D01*
X98418Y146911D01*
X98415Y146874D01*
X98433Y146827D01*
X98442Y146776D01*
X98466Y146741D01*
X98476Y146712D01*
X98499Y146691D01*
X98523Y146656D01*
X102301Y142878D01*
X104573Y137393D01*
X104573Y131457D01*
X102301Y125972D01*
X98103Y121774D01*
X92618Y119502D01*
X86682Y119502D01*
X81197Y121774D01*
X76999Y125972D01*
X74727Y131457D01*
X74727Y137393D01*
X76999Y142878D01*
X80777Y146656D01*
X80804Y146699D01*
X80839Y146737D01*
X80849Y146772D01*
X80869Y146803D01*
X80873Y146854D01*
X80888Y146903D01*
X80882Y146939D01*
X80885Y146976D01*
X80867Y147024D01*
X80858Y147074D01*
X80834Y147109D01*
X80824Y147138D01*
X80801Y147159D01*
X80777Y147194D01*
X76999Y150972D01*
X74727Y156457D01*
X74727Y162393D01*
X76999Y167878D01*
X81197Y172076D01*
X86415Y174237D01*
X86436Y174252D01*
X86461Y174260D01*
X86506Y174302D01*
X86556Y174338D01*
X86568Y174361D01*
X86587Y174379D01*
X86609Y174437D01*
X86638Y174491D01*
X86638Y174517D01*
X86647Y174541D01*
X86641Y174603D01*
X86643Y174665D01*
X86632Y174688D01*
X86629Y174714D01*
X86596Y174766D01*
X86570Y174822D01*
X86550Y174838D01*
X86536Y174860D01*
X86464Y174908D01*
X86436Y174931D01*
X86426Y174933D01*
X86415Y174940D01*
X83985Y175947D01*
X81172Y178760D01*
X79649Y182436D01*
X79649Y186414D01*
X81172Y190090D01*
X83985Y192903D01*
X86415Y193910D01*
X86436Y193925D01*
X86461Y193933D01*
X86506Y193975D01*
X86556Y194011D01*
X86568Y194034D01*
X86587Y194051D01*
X86609Y194109D01*
X86638Y194164D01*
X86638Y194190D01*
X86647Y194214D01*
X86641Y194275D01*
X86643Y194337D01*
X86632Y194361D01*
X86629Y194386D01*
X86596Y194438D01*
X86570Y194495D01*
X86550Y194511D01*
X86536Y194533D01*
X86464Y194580D01*
X86436Y194604D01*
X86426Y194606D01*
X86415Y194613D01*
X81197Y196774D01*
X76999Y200972D01*
X74727Y206457D01*
X74727Y212393D01*
X76999Y217878D01*
X80777Y221656D01*
X80804Y221699D01*
X80839Y221737D01*
X80849Y221772D01*
X80869Y221803D01*
X80873Y221854D01*
X80888Y221903D01*
X80882Y221939D01*
X80885Y221976D01*
X80867Y222023D01*
X80858Y222074D01*
X80834Y222109D01*
X80824Y222138D01*
X80801Y222159D01*
X80777Y222194D01*
X76999Y225972D01*
X74727Y231457D01*
X74727Y237393D01*
X76999Y242878D01*
X81197Y247076D01*
X86682Y249348D01*
X92618Y249348D01*
X98103Y247076D01*
X102301Y242878D01*
X104573Y237393D01*
X104573Y231457D01*
X102301Y225972D01*
X98523Y222194D01*
X98496Y222151D01*
X98461Y222113D01*
X98451Y222078D01*
X98431Y222047D01*
X98427Y221996D01*
X98412Y221947D01*
X98418Y221911D01*
X98415Y221874D01*
X98433Y221826D01*
X98442Y221776D01*
X98466Y221741D01*
X98476Y221712D01*
X98499Y221691D01*
X98523Y221656D01*
X102301Y217878D01*
X104573Y212393D01*
X104573Y206457D01*
X102301Y200972D01*
X98103Y196774D01*
X92885Y194613D01*
X92864Y194598D01*
X92839Y194590D01*
X92794Y194548D01*
X92744Y194512D01*
X92732Y194489D01*
X92713Y194471D01*
X92691Y194413D01*
X92662Y194359D01*
X92662Y194333D01*
X92653Y194309D01*
X92659Y194247D01*
X92657Y194185D01*
X92668Y194162D01*
X92671Y194136D01*
X92704Y194084D01*
X92730Y194028D01*
X92750Y194012D01*
X92764Y193990D01*
X92836Y193942D01*
X92864Y193919D01*
X92874Y193917D01*
X92885Y193910D01*
X95315Y192903D01*
X98128Y190090D01*
X99651Y186414D01*
X99651Y182436D01*
X98128Y178760D01*
X95315Y175947D01*
X92885Y174940D01*
X92864Y174925D01*
X92839Y174917D01*
X92794Y174875D01*
X92744Y174839D01*
X92732Y174816D01*
X92713Y174799D01*
X92691Y174741D01*
X92662Y174686D01*
X92662Y174660D01*
X92653Y174636D01*
X92659Y174575D01*
X92657Y174513D01*
X92668Y174489D01*
X92671Y174464D01*
X92704Y174412D01*
X92730Y174355D01*
X92750Y174339D01*
X92764Y174317D01*
X92836Y174270D01*
X92864Y174246D01*
X92874Y174244D01*
X92885Y174237D01*
X98103Y172076D01*
X102301Y167878D01*
X102671Y166985D01*
X102708Y166934D01*
X102738Y166878D01*
X102758Y166864D01*
X102772Y166845D01*
X102828Y166815D01*
X102880Y166778D01*
X102906Y166773D01*
X102925Y166763D01*
X102962Y166762D01*
X103022Y166751D01*
X197593Y166751D01*
X197667Y166768D01*
X197742Y166781D01*
X197752Y166788D01*
X197762Y166790D01*
X197791Y166814D01*
X197862Y166862D01*
X201619Y170619D01*
X202777Y171099D01*
X202798Y171114D01*
X202822Y171121D01*
X202867Y171164D01*
X202917Y171200D01*
X202930Y171223D01*
X202948Y171240D01*
X202970Y171298D01*
X202999Y171353D01*
X203000Y171379D01*
X203008Y171403D01*
X203002Y171464D01*
X203004Y171526D01*
X202993Y171549D01*
X202990Y171575D01*
X202957Y171627D01*
X202931Y171683D01*
X202911Y171700D01*
X202898Y171721D01*
X202826Y171769D01*
X202797Y171792D01*
X202787Y171795D01*
X202777Y171801D01*
X201619Y172281D01*
X197681Y176219D01*
X195549Y181365D01*
X195549Y186935D01*
X197681Y192081D01*
X201619Y196019D01*
X202777Y196499D01*
X202798Y196514D01*
X202822Y196521D01*
X202867Y196564D01*
X202917Y196600D01*
X202930Y196623D01*
X202948Y196640D01*
X202970Y196698D01*
X202999Y196753D01*
X203000Y196779D01*
X203008Y196803D01*
X203002Y196864D01*
X203004Y196926D01*
X202993Y196949D01*
X202990Y196975D01*
X202957Y197027D01*
X202931Y197083D01*
X202911Y197100D01*
X202898Y197121D01*
X202826Y197169D01*
X202797Y197192D01*
X202787Y197195D01*
X202777Y197201D01*
X201619Y197681D01*
X197681Y201619D01*
X195549Y206765D01*
X195549Y212335D01*
X197681Y217481D01*
X201619Y221419D01*
X202777Y221899D01*
X202798Y221914D01*
X202822Y221921D01*
X202867Y221964D01*
X202918Y222000D01*
X202930Y222023D01*
X202948Y222040D01*
X202970Y222098D01*
X202999Y222153D01*
X203000Y222178D01*
X203009Y222203D01*
X203002Y222264D01*
X203004Y222326D01*
X202993Y222349D01*
X202990Y222375D01*
X202957Y222427D01*
X202931Y222483D01*
X202911Y222500D01*
X202898Y222521D01*
X202826Y222569D01*
X202797Y222592D01*
X202787Y222595D01*
X202777Y222601D01*
X201619Y223081D01*
X197681Y227019D01*
X195549Y232165D01*
X195549Y237735D01*
X197681Y242881D01*
X201619Y246819D01*
X202777Y247299D01*
X202798Y247314D01*
X202822Y247321D01*
X202867Y247364D01*
X202918Y247400D01*
X202930Y247423D01*
X202948Y247440D01*
X202970Y247498D01*
X202999Y247553D01*
X203000Y247578D01*
X203009Y247603D01*
X203002Y247664D01*
X203004Y247726D01*
X202993Y247749D01*
X202990Y247775D01*
X202957Y247827D01*
X202931Y247883D01*
X202911Y247900D01*
X202898Y247921D01*
X202826Y247969D01*
X202797Y247992D01*
X202787Y247995D01*
X202777Y248001D01*
X201619Y248481D01*
X197681Y252419D01*
X195549Y257565D01*
X195549Y263135D01*
X197681Y268281D01*
X201619Y272219D01*
X202777Y272699D01*
X202798Y272714D01*
X202822Y272721D01*
X202867Y272764D01*
X202918Y272800D01*
X202930Y272823D01*
X202948Y272840D01*
X202970Y272898D01*
X202999Y272953D01*
X203000Y272978D01*
X203009Y273003D01*
X203002Y273064D01*
X203004Y273126D01*
X202993Y273149D01*
X202990Y273175D01*
X202957Y273227D01*
X202931Y273283D01*
X202911Y273300D01*
X202898Y273321D01*
X202826Y273369D01*
X202797Y273392D01*
X202787Y273395D01*
X202777Y273401D01*
X201619Y273881D01*
X197681Y277819D01*
X195549Y282965D01*
X195549Y288535D01*
X197681Y293681D01*
X201619Y297619D01*
X202777Y298099D01*
X202798Y298114D01*
X202822Y298121D01*
X202867Y298164D01*
X202918Y298200D01*
X202930Y298223D01*
X202948Y298240D01*
X202970Y298298D01*
X202999Y298353D01*
X203000Y298378D01*
X203009Y298403D01*
X203002Y298464D01*
X203004Y298526D01*
X202993Y298549D01*
X202990Y298575D01*
X202957Y298627D01*
X202931Y298683D01*
X202911Y298700D01*
X202898Y298721D01*
X202826Y298769D01*
X202797Y298792D01*
X202787Y298795D01*
X202777Y298801D01*
X201619Y299281D01*
X197681Y303219D01*
X195549Y308365D01*
X195549Y313935D01*
X197681Y319081D01*
X201619Y323019D01*
X202777Y323499D01*
X202798Y323514D01*
X202822Y323521D01*
X202867Y323564D01*
X202918Y323600D01*
X202930Y323623D01*
X202948Y323640D01*
X202970Y323698D01*
X202999Y323753D01*
X203000Y323778D01*
X203009Y323803D01*
X203002Y323864D01*
X203004Y323926D01*
X202993Y323949D01*
X202990Y323975D01*
X202957Y324027D01*
X202931Y324083D01*
X202911Y324100D01*
X202898Y324121D01*
X202826Y324169D01*
X202797Y324192D01*
X202787Y324195D01*
X202777Y324201D01*
X201619Y324681D01*
X197681Y328619D01*
X195549Y333765D01*
X195549Y339335D01*
X197681Y344481D01*
X201619Y348419D01*
X202777Y348899D01*
X202798Y348914D01*
X202822Y348921D01*
X202867Y348964D01*
X202918Y349000D01*
X202930Y349023D01*
X202948Y349040D01*
X202970Y349098D01*
X202999Y349153D01*
X203000Y349178D01*
X203009Y349203D01*
X203002Y349264D01*
X203004Y349326D01*
X202993Y349349D01*
X202990Y349375D01*
X202957Y349427D01*
X202931Y349483D01*
X202911Y349500D01*
X202898Y349521D01*
X202826Y349569D01*
X202797Y349592D01*
X202787Y349595D01*
X202777Y349601D01*
X201619Y350081D01*
X197681Y354019D01*
X195549Y359165D01*
X195549Y364735D01*
X197681Y369881D01*
X201150Y373350D01*
X201164Y373372D01*
X201184Y373388D01*
X201209Y373445D01*
X201242Y373497D01*
X201244Y373523D01*
X201255Y373547D01*
X201252Y373608D01*
X201258Y373670D01*
X201249Y373694D01*
X201248Y373720D01*
X201218Y373774D01*
X201196Y373832D01*
X201178Y373849D01*
X201165Y373872D01*
X201115Y373907D01*
X201069Y373949D01*
X201045Y373957D01*
X201024Y373972D01*
X200939Y373988D01*
X200903Y373999D01*
X200893Y373997D01*
X200881Y373999D01*
X114637Y373999D01*
X114635Y373999D01*
X114633Y373999D01*
X114491Y373970D01*
X112673Y373217D01*
X109577Y373217D01*
X106716Y374402D01*
X104527Y376591D01*
X103342Y379452D01*
X103342Y382548D01*
X104527Y385409D01*
X106716Y387598D01*
X109577Y388783D01*
X112673Y388783D01*
X114491Y388030D01*
X114493Y388029D01*
X114494Y388028D01*
X114637Y388001D01*
X346193Y388001D01*
X346267Y388018D01*
X346341Y388031D01*
X346352Y388038D01*
X346361Y388040D01*
X346390Y388064D01*
X346462Y388112D01*
X347838Y389488D01*
X347851Y389510D01*
X347870Y389526D01*
X347891Y389571D01*
X347922Y389615D01*
X347924Y389627D01*
X347929Y389636D01*
X347932Y389663D01*
X347941Y389684D01*
X347940Y389711D01*
X347949Y389757D01*
X347949Y390135D01*
X350081Y395281D01*
X354019Y399219D01*
X355177Y399699D01*
X355198Y399714D01*
X355222Y399721D01*
X355267Y399764D01*
X355318Y399800D01*
X355330Y399822D01*
X355348Y399840D01*
X355370Y399898D01*
X355399Y399953D01*
X355400Y399979D01*
X355409Y400003D01*
X355402Y400064D01*
X355404Y400126D01*
X355393Y400149D01*
X355390Y400175D01*
X355357Y400227D01*
X355331Y400283D01*
X355311Y400300D01*
X355298Y400321D01*
X355226Y400369D01*
X355197Y400392D01*
X355187Y400394D01*
X355177Y400401D01*
X354019Y400881D01*
X350081Y404819D01*
X349793Y405515D01*
X349756Y405566D01*
X349725Y405622D01*
X349706Y405636D01*
X349692Y405655D01*
X349636Y405685D01*
X349584Y405722D01*
X349557Y405727D01*
X349539Y405737D01*
X349501Y405738D01*
X349441Y405749D01*
X347857Y405749D01*
X345284Y406815D01*
X336965Y415134D01*
X336964Y415136D01*
X336957Y415147D01*
X336954Y415160D01*
X336907Y415217D01*
X336863Y415277D01*
X336852Y415283D01*
X336844Y415293D01*
X336776Y415324D01*
X336710Y415358D01*
X336697Y415359D01*
X336685Y415364D01*
X336611Y415361D01*
X336537Y415363D01*
X336525Y415358D01*
X336512Y415358D01*
X336447Y415322D01*
X336380Y415291D01*
X336372Y415281D01*
X336360Y415275D01*
X336318Y415214D01*
X336271Y415156D01*
X336268Y415144D01*
X336260Y415133D01*
X336233Y414991D01*
X336233Y410287D01*
X334348Y405736D01*
X330864Y402252D01*
X326313Y400367D01*
X321387Y400367D01*
X316836Y402252D01*
X313352Y405736D01*
X311467Y410287D01*
X311467Y415213D01*
X313352Y419764D01*
X316836Y423248D01*
X321387Y425133D01*
X326313Y425133D01*
X330864Y423248D01*
X334348Y419764D01*
X335168Y417784D01*
X335175Y417774D01*
X335178Y417761D01*
X335225Y417704D01*
X335269Y417643D01*
X335280Y417637D01*
X335288Y417627D01*
X335356Y417597D01*
X335422Y417562D01*
X335435Y417562D01*
X335447Y417556D01*
X335521Y417559D01*
X335595Y417557D01*
X335607Y417563D01*
X335620Y417563D01*
X335685Y417598D01*
X335752Y417630D01*
X335761Y417640D01*
X335772Y417646D01*
X335814Y417706D01*
X335861Y417764D01*
X335864Y417777D01*
X335872Y417788D01*
X335899Y417930D01*
X335899Y454143D01*
X335882Y454217D01*
X335869Y454291D01*
X335862Y454302D01*
X335860Y454311D01*
X335836Y454340D01*
X335788Y454412D01*
X333762Y456438D01*
X333697Y456478D01*
X333635Y456522D01*
X333623Y456524D01*
X333614Y456529D01*
X333577Y456533D01*
X333493Y456549D01*
X196732Y456549D01*
X196658Y456532D01*
X196584Y456519D01*
X196573Y456512D01*
X196564Y456510D01*
X196535Y456486D01*
X196463Y456438D01*
X194437Y454412D01*
X194397Y454347D01*
X194353Y454285D01*
X194351Y454273D01*
X194346Y454264D01*
X194342Y454227D01*
X194326Y454143D01*
X194326Y408182D01*
X193260Y405609D01*
X191237Y403587D01*
X184941Y397290D01*
X182368Y396224D01*
X87056Y396224D01*
X87006Y396213D01*
X86955Y396211D01*
X86923Y396193D01*
X86887Y396185D01*
X86848Y396152D01*
X86803Y396128D01*
X86782Y396098D01*
X86754Y396075D01*
X86733Y396028D01*
X86703Y395986D01*
X86695Y395944D01*
X86683Y395916D01*
X86683Y395913D01*
X86684Y395885D01*
X86676Y395844D01*
X86676Y390893D01*
X84332Y388549D01*
X68018Y388549D01*
X66944Y389623D01*
X66901Y389650D01*
X66863Y389685D01*
X66828Y389695D01*
X66797Y389715D01*
X66746Y389719D01*
X66697Y389734D01*
X66661Y389728D01*
X66624Y389731D01*
X66577Y389713D01*
X66526Y389704D01*
X66491Y389680D01*
X66462Y389670D01*
X66441Y389647D01*
X66406Y389623D01*
X65332Y388549D01*
X49018Y388549D01*
X46674Y390893D01*
X46674Y409207D01*
X49018Y411551D01*
X49794Y411551D01*
X49844Y411562D01*
X49895Y411564D01*
X49927Y411582D01*
X49963Y411590D01*
X50002Y411623D01*
X50047Y411647D01*
X50068Y411677D01*
X50096Y411700D01*
X50117Y411747D01*
X50147Y411789D01*
X50155Y411831D01*
X50167Y411859D01*
X50166Y411889D01*
X50174Y411931D01*
X50174Y413569D01*
X50163Y413619D01*
X50161Y413670D01*
X50143Y413702D01*
X50135Y413738D01*
X50102Y413777D01*
X50078Y413822D01*
X50048Y413843D01*
X50025Y413871D01*
X49978Y413892D01*
X49936Y413922D01*
X49894Y413930D01*
X49866Y413942D01*
X49836Y413941D01*
X49794Y413949D01*
X49018Y413949D01*
X46674Y416293D01*
X46674Y434607D01*
X49018Y436951D01*
X49794Y436951D01*
X49844Y436962D01*
X49895Y436964D01*
X49927Y436982D01*
X49963Y436990D01*
X50002Y437023D01*
X50047Y437047D01*
X50068Y437077D01*
X50096Y437100D01*
X50117Y437147D01*
X50147Y437189D01*
X50155Y437231D01*
X50167Y437259D01*
X50166Y437289D01*
X50174Y437331D01*
X50174Y439964D01*
X50162Y440017D01*
X50161Y440050D01*
X50152Y440066D01*
X50144Y440113D01*
X50137Y440123D01*
X50135Y440133D01*
X50111Y440162D01*
X50063Y440233D01*
X47298Y442997D01*
X45529Y447268D01*
X45529Y467132D01*
X47298Y471403D01*
X50567Y474672D01*
X54838Y476441D01*
X59462Y476441D01*
X63733Y474672D01*
X67002Y471403D01*
X68771Y467132D01*
X68771Y447268D01*
X67002Y442997D01*
X64287Y440283D01*
X64247Y440218D01*
X64203Y440156D01*
X64201Y440144D01*
X64196Y440136D01*
X64192Y440099D01*
X64176Y440014D01*
X64176Y437331D01*
X64187Y437281D01*
X64189Y437230D01*
X64207Y437198D01*
X64215Y437162D01*
X64248Y437123D01*
X64272Y437078D01*
X64302Y437057D01*
X64325Y437029D01*
X64372Y437008D01*
X64414Y436978D01*
X64456Y436970D01*
X64484Y436958D01*
X64514Y436959D01*
X64556Y436951D01*
X65332Y436951D01*
X67439Y434844D01*
X67482Y434818D01*
X67519Y434783D01*
X67555Y434772D01*
X67586Y434753D01*
X67636Y434748D01*
X67685Y434734D01*
X67722Y434740D01*
X67758Y434736D01*
X67806Y434755D01*
X67856Y434763D01*
X67892Y434787D01*
X67920Y434798D01*
X67941Y434821D01*
X67976Y434844D01*
X68115Y434983D01*
X68694Y435318D01*
X69340Y435491D01*
X75414Y435491D01*
X75414Y425831D01*
X75425Y425781D01*
X75427Y425730D01*
X75445Y425698D01*
X75453Y425662D01*
X75486Y425623D01*
X75510Y425578D01*
X75540Y425557D01*
X75563Y425529D01*
X75610Y425508D01*
X75652Y425478D01*
X75694Y425470D01*
X75722Y425458D01*
X75752Y425459D01*
X75794Y425451D01*
X76176Y425451D01*
X76176Y425449D01*
X75794Y425449D01*
X75744Y425438D01*
X75693Y425436D01*
X75661Y425418D01*
X75625Y425410D01*
X75586Y425377D01*
X75541Y425353D01*
X75520Y425323D01*
X75492Y425299D01*
X75471Y425253D01*
X75441Y425211D01*
X75433Y425169D01*
X75421Y425141D01*
X75422Y425111D01*
X75414Y425069D01*
X75414Y415409D01*
X69340Y415409D01*
X68694Y415582D01*
X68115Y415917D01*
X67976Y416056D01*
X67933Y416083D01*
X67895Y416117D01*
X67860Y416128D01*
X67829Y416147D01*
X67778Y416152D01*
X67729Y416166D01*
X67693Y416160D01*
X67657Y416164D01*
X67609Y416145D01*
X67559Y416137D01*
X67523Y416113D01*
X67495Y416102D01*
X67474Y416079D01*
X67439Y416056D01*
X65332Y413949D01*
X64556Y413949D01*
X64506Y413938D01*
X64455Y413936D01*
X64423Y413918D01*
X64387Y413910D01*
X64348Y413877D01*
X64303Y413853D01*
X64282Y413823D01*
X64254Y413800D01*
X64233Y413753D01*
X64203Y413711D01*
X64195Y413669D01*
X64183Y413641D01*
X64184Y413611D01*
X64176Y413569D01*
X64176Y411931D01*
X64187Y411881D01*
X64189Y411830D01*
X64207Y411798D01*
X64215Y411762D01*
X64248Y411723D01*
X64272Y411678D01*
X64302Y411657D01*
X64325Y411629D01*
X64372Y411608D01*
X64414Y411578D01*
X64456Y411570D01*
X64484Y411558D01*
X64514Y411559D01*
X64556Y411551D01*
X65332Y411551D01*
X66406Y410477D01*
X66449Y410450D01*
X66487Y410415D01*
X66522Y410405D01*
X66553Y410385D01*
X66604Y410381D01*
X66653Y410366D01*
X66689Y410372D01*
X66726Y410369D01*
X66773Y410387D01*
X66824Y410396D01*
X66859Y410420D01*
X66888Y410430D01*
X66909Y410453D01*
X66944Y410477D01*
X68018Y411551D01*
X84332Y411551D01*
X85546Y410337D01*
X85610Y410297D01*
X85672Y410253D01*
X85684Y410251D01*
X85693Y410246D01*
X85730Y410242D01*
X85815Y410226D01*
X177918Y410226D01*
X177992Y410243D01*
X178066Y410256D01*
X178077Y410263D01*
X178086Y410265D01*
X178115Y410289D01*
X178187Y410337D01*
X180213Y412363D01*
X180253Y412428D01*
X180297Y412490D01*
X180299Y412502D01*
X180304Y412511D01*
X180308Y412548D01*
X180324Y412632D01*
X180324Y458593D01*
X181390Y461166D01*
X183413Y463188D01*
X187687Y467462D01*
X189709Y469485D01*
X192282Y470551D01*
X337943Y470551D01*
X340516Y469485D01*
X348835Y461166D01*
X349901Y458593D01*
X349901Y446819D01*
X349907Y446794D01*
X349904Y446768D01*
X349926Y446710D01*
X349940Y446650D01*
X349957Y446630D01*
X349966Y446606D01*
X350011Y446564D01*
X350050Y446516D01*
X350074Y446506D01*
X350093Y446488D01*
X350152Y446471D01*
X350209Y446445D01*
X350234Y446446D01*
X350259Y446439D01*
X350320Y446450D01*
X350382Y446452D01*
X350404Y446464D01*
X350430Y446469D01*
X350501Y446517D01*
X350534Y446535D01*
X350540Y446543D01*
X350550Y446550D01*
X354019Y450019D01*
X359165Y452151D01*
X364735Y452151D01*
X369881Y450019D01*
X373819Y446081D01*
X375951Y440935D01*
X375951Y435365D01*
X373819Y430219D01*
X369881Y426281D01*
X368723Y425801D01*
X368702Y425786D01*
X368678Y425779D01*
X368633Y425736D01*
X368582Y425700D01*
X368570Y425677D01*
X368552Y425660D01*
X368530Y425602D01*
X368501Y425547D01*
X368500Y425522D01*
X368491Y425497D01*
X368498Y425436D01*
X368496Y425374D01*
X368507Y425351D01*
X368510Y425325D01*
X368543Y425273D01*
X368569Y425217D01*
X368589Y425200D01*
X368602Y425179D01*
X368674Y425131D01*
X368703Y425108D01*
X368713Y425105D01*
X368723Y425099D01*
X369881Y424619D01*
X373819Y420681D01*
X375951Y415535D01*
X375951Y409965D01*
X373819Y404819D01*
X369881Y400881D01*
X368723Y400401D01*
X368702Y400386D01*
X368678Y400379D01*
X368633Y400336D01*
X368582Y400300D01*
X368570Y400277D01*
X368552Y400260D01*
X368530Y400202D01*
X368501Y400147D01*
X368500Y400122D01*
X368491Y400097D01*
X368498Y400036D01*
X368496Y399974D01*
X368507Y399951D01*
X368510Y399925D01*
X368543Y399873D01*
X368569Y399817D01*
X368589Y399800D01*
X368602Y399779D01*
X368674Y399731D01*
X368703Y399708D01*
X368713Y399705D01*
X368723Y399699D01*
X369881Y399219D01*
X373819Y395281D01*
X375951Y390135D01*
X375951Y384565D01*
X373819Y379419D01*
X369881Y375481D01*
X368723Y375001D01*
X368702Y374986D01*
X368678Y374979D01*
X368633Y374936D01*
X368582Y374900D01*
X368570Y374877D01*
X368552Y374860D01*
X368530Y374802D01*
X368501Y374747D01*
X368500Y374722D01*
X368491Y374697D01*
X368498Y374636D01*
X368496Y374574D01*
X368507Y374551D01*
X368510Y374525D01*
X368543Y374473D01*
X368569Y374417D01*
X368589Y374400D01*
X368602Y374379D01*
X368674Y374331D01*
X368703Y374308D01*
X368713Y374305D01*
X368723Y374299D01*
X369881Y373819D01*
X373819Y369881D01*
X375951Y364735D01*
X375951Y359165D01*
X373819Y354019D01*
X369881Y350081D01*
X368723Y349601D01*
X368702Y349586D01*
X368678Y349579D01*
X368633Y349536D01*
X368582Y349500D01*
X368570Y349477D01*
X368552Y349460D01*
X368530Y349402D01*
X368501Y349347D01*
X368500Y349322D01*
X368491Y349297D01*
X368498Y349236D01*
X368496Y349174D01*
X368507Y349151D01*
X368510Y349125D01*
X368543Y349073D01*
X368569Y349017D01*
X368589Y349000D01*
X368602Y348979D01*
X368674Y348931D01*
X368703Y348908D01*
X368713Y348905D01*
X368723Y348899D01*
X369881Y348419D01*
X373819Y344481D01*
X375951Y339335D01*
X375951Y333765D01*
X373819Y328619D01*
X369881Y324681D01*
X368723Y324201D01*
X368702Y324186D01*
X368678Y324179D01*
X368633Y324136D01*
X368582Y324100D01*
X368570Y324077D01*
X368552Y324060D01*
X368530Y324002D01*
X368501Y323947D01*
X368500Y323922D01*
X368491Y323897D01*
X368498Y323836D01*
X368496Y323774D01*
X368507Y323751D01*
X368510Y323725D01*
X368543Y323673D01*
X368569Y323617D01*
X368589Y323600D01*
X368602Y323579D01*
X368674Y323531D01*
X368703Y323508D01*
X368713Y323505D01*
X368723Y323499D01*
X369881Y323019D01*
X373819Y319081D01*
X375951Y313935D01*
X375951Y308365D01*
X373819Y303219D01*
X369881Y299281D01*
X368723Y298801D01*
X368702Y298786D01*
X368678Y298779D01*
X368633Y298736D01*
X368582Y298700D01*
X368570Y298677D01*
X368552Y298660D01*
X368530Y298602D01*
X368501Y298547D01*
X368500Y298522D01*
X368491Y298497D01*
X368498Y298436D01*
X368496Y298374D01*
X368507Y298351D01*
X368510Y298325D01*
X368543Y298273D01*
X368569Y298217D01*
X368589Y298200D01*
X368602Y298179D01*
X368674Y298131D01*
X368703Y298108D01*
X368713Y298105D01*
X368723Y298099D01*
X369881Y297619D01*
X373819Y293681D01*
X375951Y288535D01*
X375951Y282965D01*
X373819Y277819D01*
X370350Y274350D01*
X370336Y274328D01*
X370316Y274312D01*
X370291Y274255D01*
X370258Y274203D01*
X370256Y274177D01*
X370245Y274153D01*
X370248Y274092D01*
X370242Y274030D01*
X370251Y274006D01*
X370252Y273980D01*
X370282Y273926D01*
X370304Y273868D01*
X370322Y273851D01*
X370335Y273828D01*
X370385Y273793D01*
X370431Y273751D01*
X370455Y273743D01*
X370476Y273728D01*
X370561Y273712D01*
X370597Y273701D01*
X370607Y273703D01*
X370619Y273701D01*
X750693Y273701D01*
X753266Y272635D01*
X775437Y250463D01*
X777460Y248441D01*
X778526Y245868D01*
X778526Y190957D01*
X778538Y190903D01*
X778542Y190848D01*
X778558Y190820D01*
X778565Y190788D01*
X778600Y190745D01*
X778628Y190697D01*
X778655Y190679D01*
X778675Y190654D01*
X778726Y190632D01*
X778772Y190601D01*
X778804Y190597D01*
X778834Y190584D01*
X778889Y190586D01*
X778944Y190578D01*
X778974Y190589D01*
X779007Y190590D01*
X779055Y190617D01*
X779108Y190634D01*
X779135Y190660D01*
X779159Y190673D01*
X779178Y190700D01*
X779214Y190733D01*
X779311Y190867D01*
X780433Y191989D01*
X781716Y192922D01*
X783130Y193642D01*
X784639Y194132D01*
X786207Y194381D01*
X786239Y194381D01*
X786239Y184681D01*
X786250Y184631D01*
X786252Y184580D01*
X786270Y184548D01*
X786278Y184512D01*
X786311Y184473D01*
X786335Y184428D01*
X786365Y184407D01*
X786388Y184379D01*
X786435Y184358D01*
X786477Y184329D01*
X786519Y184320D01*
X786547Y184308D01*
X786577Y184309D01*
X786619Y184301D01*
X787001Y184301D01*
X787001Y184299D01*
X786619Y184299D01*
X786569Y184287D01*
X786518Y184286D01*
X786486Y184268D01*
X786450Y184260D01*
X786411Y184227D01*
X786366Y184203D01*
X786345Y184173D01*
X786317Y184149D01*
X786296Y184103D01*
X786266Y184061D01*
X786258Y184019D01*
X786246Y183991D01*
X786247Y183961D01*
X786239Y183919D01*
X786239Y174219D01*
X786207Y174219D01*
X784639Y174468D01*
X783130Y174958D01*
X781716Y175678D01*
X780433Y176611D01*
X779311Y177733D01*
X779214Y177867D01*
X779172Y177903D01*
X779137Y177946D01*
X779107Y177959D01*
X779083Y177980D01*
X779029Y177994D01*
X778978Y178016D01*
X778946Y178015D01*
X778915Y178023D01*
X778861Y178012D01*
X778805Y178010D01*
X778777Y177994D01*
X778745Y177988D01*
X778702Y177954D01*
X778653Y177927D01*
X778635Y177901D01*
X778609Y177881D01*
X778585Y177831D01*
X778553Y177785D01*
X778546Y177749D01*
X778534Y177724D01*
X778535Y177691D01*
X778526Y177643D01*
X778526Y88782D01*
X778543Y88708D01*
X778556Y88634D01*
X778563Y88623D01*
X778565Y88614D01*
X778589Y88585D01*
X778637Y88513D01*
X792935Y74216D01*
X794001Y71643D01*
X794001Y48778D01*
X794018Y48704D01*
X794031Y48629D01*
X794038Y48619D01*
X794040Y48609D01*
X794064Y48580D01*
X794112Y48509D01*
X796784Y45837D01*
X798541Y41596D01*
X798541Y37004D01*
X796784Y32763D01*
X793537Y29516D01*
X789296Y27759D01*
X784704Y27759D01*
X780463Y29516D01*
X777216Y32763D01*
X775459Y37004D01*
X775459Y41596D01*
X777216Y45837D01*
X779888Y48509D01*
X779928Y48574D01*
X779972Y48636D01*
X779974Y48648D01*
X779979Y48656D01*
X779983Y48693D01*
X779999Y48778D01*
X779999Y67193D01*
X779982Y67267D01*
X779969Y67341D01*
X779962Y67352D01*
X779960Y67361D01*
X779936Y67390D01*
X779888Y67462D01*
X765590Y81759D01*
X764524Y84332D01*
X764524Y241418D01*
X764507Y241492D01*
X764494Y241566D01*
X764487Y241577D01*
X764485Y241586D01*
X764461Y241615D01*
X764413Y241687D01*
X746512Y259588D01*
X746447Y259628D01*
X746385Y259672D01*
X746373Y259674D01*
X746364Y259679D01*
X746327Y259683D01*
X746243Y259699D01*
X735369Y259699D01*
X735344Y259693D01*
X735318Y259696D01*
X735261Y259674D01*
X735201Y259660D01*
X735181Y259643D01*
X735157Y259634D01*
X735115Y259589D01*
X735067Y259550D01*
X735056Y259526D01*
X735039Y259507D01*
X735021Y259448D01*
X734996Y259391D01*
X734997Y259366D01*
X734990Y259341D01*
X735000Y259280D01*
X735003Y259218D01*
X735015Y259196D01*
X735019Y259170D01*
X735068Y259099D01*
X735085Y259066D01*
X735093Y259060D01*
X735100Y259050D01*
X736238Y257912D01*
X758410Y235741D01*
X759476Y233168D01*
X759476Y84332D01*
X758410Y81759D01*
X744112Y67462D01*
X744072Y67397D01*
X744028Y67335D01*
X744026Y67323D01*
X744021Y67314D01*
X744017Y67277D01*
X744001Y67193D01*
X744001Y48778D01*
X744018Y48704D01*
X744031Y48629D01*
X744038Y48619D01*
X744040Y48609D01*
X744064Y48580D01*
X744112Y48509D01*
X746784Y45837D01*
X748541Y41596D01*
X748541Y37004D01*
X746784Y32763D01*
X743537Y29516D01*
X739296Y27759D01*
X734704Y27759D01*
G37*
%LPD*%
%LPC*%
G36*
X68457Y5699D02*
X68457Y5699D01*
X65884Y6765D01*
X57565Y15084D01*
X56499Y17657D01*
X56499Y25063D01*
X56499Y25065D01*
X56499Y25067D01*
X56470Y25209D01*
X55717Y27027D01*
X55717Y30123D01*
X56902Y32984D01*
X59091Y35173D01*
X61952Y36358D01*
X65048Y36358D01*
X67909Y35173D01*
X70098Y32984D01*
X71283Y30123D01*
X71283Y27027D01*
X70530Y25209D01*
X70529Y25207D01*
X70528Y25206D01*
X70501Y25063D01*
X70501Y22107D01*
X70518Y22033D01*
X70531Y21959D01*
X70538Y21948D01*
X70540Y21939D01*
X70564Y21910D01*
X70612Y21838D01*
X72638Y19812D01*
X72703Y19772D01*
X72765Y19728D01*
X72777Y19726D01*
X72786Y19721D01*
X72823Y19717D01*
X72907Y19701D01*
X625593Y19701D01*
X625667Y19718D01*
X625741Y19731D01*
X625752Y19738D01*
X625761Y19740D01*
X625790Y19764D01*
X625862Y19812D01*
X632650Y26601D01*
X632690Y26666D01*
X632734Y26728D01*
X632736Y26740D01*
X632742Y26748D01*
X632745Y26785D01*
X632762Y26870D01*
X632762Y76657D01*
X632761Y76659D01*
X632762Y76661D01*
X632733Y76803D01*
X631980Y78621D01*
X631980Y81717D01*
X633165Y84577D01*
X635354Y86767D01*
X638214Y87951D01*
X641311Y87951D01*
X644171Y86767D01*
X646360Y84577D01*
X647545Y81717D01*
X647545Y78621D01*
X646792Y76803D01*
X646792Y76801D01*
X646791Y76799D01*
X646763Y76657D01*
X646763Y22420D01*
X645697Y19847D01*
X632616Y6765D01*
X630043Y5699D01*
X68457Y5699D01*
G37*
%LPD*%
G36*
X353306Y273707D02*
X353306Y273707D01*
X353332Y273704D01*
X353390Y273726D01*
X353450Y273740D01*
X353470Y273757D01*
X353494Y273766D01*
X353536Y273811D01*
X353584Y273850D01*
X353594Y273874D01*
X353612Y273893D01*
X353629Y273952D01*
X353655Y274009D01*
X353654Y274034D01*
X353661Y274059D01*
X353650Y274120D01*
X353648Y274182D01*
X353636Y274204D01*
X353631Y274230D01*
X353583Y274301D01*
X353565Y274334D01*
X353557Y274340D01*
X353550Y274350D01*
X350081Y277819D01*
X347949Y282965D01*
X347949Y288535D01*
X350081Y293681D01*
X354019Y297619D01*
X355177Y298099D01*
X355198Y298114D01*
X355222Y298121D01*
X355267Y298164D01*
X355318Y298200D01*
X355330Y298222D01*
X355348Y298240D01*
X355370Y298298D01*
X355399Y298353D01*
X355400Y298379D01*
X355409Y298403D01*
X355402Y298464D01*
X355404Y298526D01*
X355393Y298549D01*
X355390Y298575D01*
X355357Y298627D01*
X355331Y298683D01*
X355311Y298700D01*
X355298Y298721D01*
X355226Y298769D01*
X355197Y298792D01*
X355187Y298794D01*
X355177Y298801D01*
X354019Y299281D01*
X350081Y303219D01*
X347949Y308365D01*
X347949Y313935D01*
X350081Y319081D01*
X354019Y323019D01*
X355177Y323499D01*
X355198Y323514D01*
X355222Y323521D01*
X355267Y323564D01*
X355318Y323600D01*
X355330Y323622D01*
X355348Y323640D01*
X355370Y323698D01*
X355399Y323753D01*
X355400Y323779D01*
X355409Y323803D01*
X355402Y323864D01*
X355404Y323926D01*
X355393Y323949D01*
X355390Y323975D01*
X355357Y324027D01*
X355331Y324083D01*
X355311Y324100D01*
X355298Y324121D01*
X355226Y324169D01*
X355197Y324192D01*
X355187Y324194D01*
X355177Y324201D01*
X354019Y324681D01*
X350081Y328619D01*
X347949Y333765D01*
X347949Y339335D01*
X350081Y344481D01*
X354019Y348419D01*
X355177Y348899D01*
X355198Y348914D01*
X355222Y348921D01*
X355267Y348964D01*
X355318Y349000D01*
X355330Y349022D01*
X355348Y349040D01*
X355370Y349098D01*
X355399Y349153D01*
X355400Y349179D01*
X355409Y349203D01*
X355402Y349264D01*
X355404Y349326D01*
X355393Y349349D01*
X355390Y349375D01*
X355357Y349427D01*
X355331Y349483D01*
X355311Y349500D01*
X355298Y349521D01*
X355226Y349569D01*
X355197Y349592D01*
X355187Y349594D01*
X355177Y349601D01*
X354019Y350081D01*
X350081Y354019D01*
X347949Y359165D01*
X347949Y364735D01*
X350081Y369881D01*
X354019Y373819D01*
X355177Y374299D01*
X355198Y374314D01*
X355222Y374321D01*
X355267Y374364D01*
X355318Y374400D01*
X355330Y374423D01*
X355348Y374440D01*
X355370Y374498D01*
X355399Y374553D01*
X355400Y374579D01*
X355409Y374603D01*
X355402Y374664D01*
X355404Y374726D01*
X355393Y374749D01*
X355390Y374775D01*
X355357Y374827D01*
X355331Y374883D01*
X355311Y374900D01*
X355298Y374921D01*
X355226Y374969D01*
X355197Y374992D01*
X355187Y374994D01*
X355177Y375001D01*
X353980Y375497D01*
X353917Y375507D01*
X353856Y375525D01*
X353832Y375521D01*
X353809Y375525D01*
X353748Y375507D01*
X353685Y375496D01*
X353663Y375481D01*
X353643Y375475D01*
X353616Y375449D01*
X353565Y375415D01*
X353216Y375065D01*
X350643Y373999D01*
X218219Y373999D01*
X218194Y373993D01*
X218168Y373996D01*
X218110Y373974D01*
X218050Y373960D01*
X218030Y373943D01*
X218006Y373934D01*
X217964Y373889D01*
X217916Y373850D01*
X217906Y373826D01*
X217888Y373807D01*
X217871Y373748D01*
X217845Y373691D01*
X217846Y373666D01*
X217839Y373641D01*
X217850Y373580D01*
X217852Y373518D01*
X217864Y373496D01*
X217869Y373470D01*
X217917Y373399D01*
X217935Y373366D01*
X217943Y373360D01*
X217950Y373350D01*
X221419Y369881D01*
X221707Y369185D01*
X221744Y369134D01*
X221775Y369078D01*
X221794Y369064D01*
X221808Y369045D01*
X221864Y369015D01*
X221916Y368978D01*
X221943Y368973D01*
X221961Y368963D01*
X221999Y368962D01*
X222059Y368951D01*
X239518Y368951D01*
X242091Y367885D01*
X336163Y273812D01*
X336228Y273772D01*
X336290Y273728D01*
X336302Y273726D01*
X336311Y273721D01*
X336348Y273717D01*
X336432Y273701D01*
X353281Y273701D01*
X353306Y273707D01*
G37*
G36*
X318756Y248307D02*
X318756Y248307D01*
X318782Y248304D01*
X318839Y248326D01*
X318899Y248340D01*
X318919Y248357D01*
X318943Y248366D01*
X318985Y248411D01*
X319033Y248450D01*
X319044Y248474D01*
X319061Y248493D01*
X319079Y248552D01*
X319104Y248609D01*
X319103Y248634D01*
X319110Y248659D01*
X319100Y248720D01*
X319097Y248782D01*
X319085Y248804D01*
X319081Y248830D01*
X319032Y248901D01*
X319015Y248934D01*
X319013Y248935D01*
X319012Y248936D01*
X319006Y248941D01*
X319000Y248950D01*
X238512Y329438D01*
X238447Y329478D01*
X238385Y329522D01*
X238373Y329524D01*
X238364Y329529D01*
X238327Y329533D01*
X238243Y329549D01*
X222059Y329549D01*
X221997Y329535D01*
X221934Y329528D01*
X221913Y329515D01*
X221890Y329510D01*
X221841Y329469D01*
X221787Y329435D01*
X221772Y329413D01*
X221756Y329400D01*
X221741Y329365D01*
X221707Y329315D01*
X221419Y328619D01*
X217481Y324681D01*
X216323Y324201D01*
X216302Y324186D01*
X216278Y324179D01*
X216233Y324136D01*
X216182Y324100D01*
X216170Y324078D01*
X216152Y324060D01*
X216130Y324002D01*
X216101Y323947D01*
X216100Y323921D01*
X216091Y323897D01*
X216098Y323836D01*
X216096Y323774D01*
X216107Y323751D01*
X216110Y323725D01*
X216143Y323673D01*
X216169Y323617D01*
X216189Y323600D01*
X216202Y323579D01*
X216274Y323531D01*
X216303Y323508D01*
X216313Y323506D01*
X216323Y323499D01*
X217481Y323019D01*
X221419Y319081D01*
X223551Y313935D01*
X223551Y308365D01*
X221419Y303219D01*
X217481Y299281D01*
X216323Y298801D01*
X216302Y298786D01*
X216278Y298779D01*
X216233Y298736D01*
X216182Y298700D01*
X216170Y298678D01*
X216152Y298660D01*
X216130Y298602D01*
X216101Y298547D01*
X216100Y298521D01*
X216091Y298497D01*
X216098Y298436D01*
X216096Y298374D01*
X216107Y298351D01*
X216110Y298325D01*
X216143Y298273D01*
X216169Y298217D01*
X216189Y298200D01*
X216202Y298179D01*
X216274Y298131D01*
X216303Y298108D01*
X216313Y298106D01*
X216323Y298099D01*
X217481Y297619D01*
X221419Y293681D01*
X223551Y288535D01*
X223551Y282965D01*
X221419Y277819D01*
X217481Y273881D01*
X216323Y273401D01*
X216302Y273386D01*
X216278Y273379D01*
X216233Y273336D01*
X216182Y273300D01*
X216170Y273278D01*
X216152Y273260D01*
X216130Y273202D01*
X216101Y273147D01*
X216100Y273121D01*
X216091Y273097D01*
X216098Y273036D01*
X216096Y272974D01*
X216107Y272951D01*
X216110Y272925D01*
X216143Y272873D01*
X216169Y272817D01*
X216189Y272800D01*
X216202Y272779D01*
X216274Y272731D01*
X216303Y272708D01*
X216313Y272706D01*
X216323Y272699D01*
X217481Y272219D01*
X221419Y268281D01*
X221707Y267585D01*
X221744Y267534D01*
X221775Y267478D01*
X221794Y267464D01*
X221808Y267445D01*
X221864Y267415D01*
X221916Y267378D01*
X221943Y267373D01*
X221961Y267363D01*
X221999Y267362D01*
X222059Y267351D01*
X233168Y267351D01*
X235741Y266285D01*
X253613Y248412D01*
X253678Y248372D01*
X253740Y248328D01*
X253752Y248326D01*
X253761Y248321D01*
X253798Y248317D01*
X253882Y248301D01*
X318731Y248301D01*
X318756Y248307D01*
G37*
G36*
X492233Y45104D02*
X492233Y45104D01*
X492246Y45102D01*
X492317Y45123D01*
X492389Y45140D01*
X492399Y45148D01*
X492412Y45152D01*
X492466Y45203D01*
X492523Y45250D01*
X492528Y45262D01*
X492538Y45271D01*
X492563Y45341D01*
X492594Y45409D01*
X492593Y45421D01*
X492598Y45434D01*
X492590Y45508D01*
X492587Y45582D01*
X492581Y45593D01*
X492580Y45606D01*
X492540Y45669D01*
X492504Y45734D01*
X492494Y45741D01*
X492487Y45752D01*
X492366Y45832D01*
X491892Y46028D01*
X488623Y49297D01*
X486854Y53568D01*
X486854Y73432D01*
X488623Y77703D01*
X491363Y80442D01*
X491403Y80507D01*
X491447Y80569D01*
X491449Y80581D01*
X491454Y80589D01*
X491458Y80626D01*
X491474Y80711D01*
X491474Y228718D01*
X491457Y228792D01*
X491444Y228866D01*
X491437Y228877D01*
X491435Y228886D01*
X491411Y228915D01*
X491363Y228987D01*
X486162Y234188D01*
X486097Y234228D01*
X486035Y234272D01*
X486023Y234274D01*
X486014Y234279D01*
X485977Y234283D01*
X485893Y234299D01*
X465494Y234299D01*
X465469Y234293D01*
X465443Y234296D01*
X465386Y234274D01*
X465326Y234260D01*
X465306Y234243D01*
X465282Y234234D01*
X465240Y234189D01*
X465192Y234150D01*
X465181Y234126D01*
X465164Y234107D01*
X465146Y234048D01*
X465121Y233991D01*
X465122Y233966D01*
X465115Y233941D01*
X465125Y233880D01*
X465128Y233818D01*
X465140Y233796D01*
X465144Y233770D01*
X465193Y233699D01*
X465210Y233666D01*
X465218Y233660D01*
X465225Y233650D01*
X466363Y232512D01*
X475835Y223041D01*
X476901Y220468D01*
X476901Y47507D01*
X476913Y47453D01*
X476914Y47431D01*
X476921Y47419D01*
X476931Y47359D01*
X476938Y47348D01*
X476940Y47339D01*
X476964Y47310D01*
X477012Y47238D01*
X479038Y45212D01*
X479103Y45172D01*
X479165Y45128D01*
X479177Y45126D01*
X479186Y45121D01*
X479223Y45117D01*
X479307Y45101D01*
X492220Y45101D01*
X492233Y45104D01*
G37*
%LPC*%
G36*
X206765Y398749D02*
X206765Y398749D01*
X201619Y400881D01*
X197681Y404819D01*
X195549Y409965D01*
X195549Y415535D01*
X197681Y420681D01*
X200500Y423500D01*
X200514Y423522D01*
X200534Y423538D01*
X200559Y423595D01*
X200592Y423647D01*
X200594Y423673D01*
X200605Y423697D01*
X200602Y423758D01*
X200608Y423820D01*
X200599Y423844D01*
X200598Y423870D01*
X200568Y423924D01*
X200546Y423982D01*
X200528Y423999D01*
X200515Y424022D01*
X200465Y424057D01*
X200419Y424099D01*
X200395Y424107D01*
X200374Y424122D01*
X200289Y424138D01*
X200253Y424149D01*
X200243Y424147D01*
X200231Y424149D01*
X197893Y424149D01*
X195549Y426493D01*
X195549Y449807D01*
X197893Y452151D01*
X221207Y452151D01*
X223551Y449807D01*
X223551Y426493D01*
X221207Y424149D01*
X218869Y424149D01*
X218844Y424143D01*
X218818Y424146D01*
X218760Y424124D01*
X218700Y424110D01*
X218680Y424093D01*
X218656Y424084D01*
X218614Y424039D01*
X218566Y424000D01*
X218556Y423976D01*
X218538Y423957D01*
X218521Y423898D01*
X218495Y423841D01*
X218496Y423816D01*
X218489Y423791D01*
X218500Y423730D01*
X218502Y423668D01*
X218514Y423646D01*
X218519Y423620D01*
X218567Y423549D01*
X218585Y423516D01*
X218593Y423510D01*
X218600Y423500D01*
X221419Y420681D01*
X223551Y415535D01*
X223551Y409965D01*
X221419Y404819D01*
X217481Y400881D01*
X212335Y398749D01*
X206765Y398749D01*
G37*
%LPD*%
%LPC*%
G36*
X680093Y96049D02*
X680093Y96049D01*
X677749Y98393D01*
X677749Y130207D01*
X680093Y132551D01*
X711907Y132551D01*
X714251Y130207D01*
X714251Y98393D01*
X711907Y96049D01*
X680093Y96049D01*
G37*
%LPD*%
%LPC*%
G36*
X812093Y96049D02*
X812093Y96049D01*
X809749Y98393D01*
X809749Y130207D01*
X812093Y132551D01*
X843907Y132551D01*
X846251Y130207D01*
X846251Y98393D01*
X843907Y96049D01*
X812093Y96049D01*
G37*
%LPD*%
%LPC*%
G36*
X256570Y257224D02*
X256570Y257224D01*
X249587Y260117D01*
X244242Y265462D01*
X241349Y272445D01*
X241349Y280005D01*
X244242Y286988D01*
X249587Y292333D01*
X256570Y295226D01*
X264130Y295226D01*
X271113Y292333D01*
X276458Y286988D01*
X279351Y280005D01*
X279351Y272445D01*
X276458Y265462D01*
X271113Y260117D01*
X264130Y257224D01*
X256570Y257224D01*
G37*
%LPD*%
%LPC*%
G36*
X24795Y31799D02*
X24795Y31799D01*
X17812Y34692D01*
X12467Y40037D01*
X9574Y47020D01*
X9574Y54580D01*
X12467Y61563D01*
X17812Y66908D01*
X24795Y69801D01*
X32355Y69801D01*
X39338Y66908D01*
X44683Y61563D01*
X47576Y54580D01*
X47576Y47020D01*
X44683Y40037D01*
X39338Y34692D01*
X32355Y31799D01*
X24795Y31799D01*
G37*
%LPD*%
%LPC*%
G36*
X805845Y193724D02*
X805845Y193724D01*
X798862Y196617D01*
X793517Y201962D01*
X790624Y208945D01*
X790624Y216505D01*
X793517Y223488D01*
X798862Y228833D01*
X805845Y231726D01*
X813405Y231726D01*
X820388Y228833D01*
X825733Y223488D01*
X828626Y216505D01*
X828626Y208945D01*
X825733Y201962D01*
X820388Y196617D01*
X813405Y193724D01*
X805845Y193724D01*
G37*
%LPD*%
%LPC*%
G36*
X80238Y437959D02*
X80238Y437959D01*
X75967Y439728D01*
X72698Y442997D01*
X70929Y447268D01*
X70929Y467132D01*
X72698Y471403D01*
X75967Y474672D01*
X80238Y476441D01*
X84862Y476441D01*
X89133Y474672D01*
X92402Y471403D01*
X94171Y467132D01*
X94171Y447268D01*
X92402Y442997D01*
X89133Y439728D01*
X84862Y437959D01*
X80238Y437959D01*
G37*
%LPD*%
%LPC*%
G36*
X29438Y437959D02*
X29438Y437959D01*
X25167Y439728D01*
X21898Y442997D01*
X20129Y447268D01*
X20129Y467132D01*
X21898Y471403D01*
X25167Y474672D01*
X29438Y476441D01*
X34062Y476441D01*
X38333Y474672D01*
X41602Y471403D01*
X43371Y467132D01*
X43371Y447268D01*
X41602Y442997D01*
X38333Y439728D01*
X34062Y437959D01*
X29438Y437959D01*
G37*
%LPD*%
%LPC*%
G36*
X156438Y437959D02*
X156438Y437959D01*
X152167Y439728D01*
X148898Y442997D01*
X147129Y447268D01*
X147129Y467132D01*
X148898Y471403D01*
X152167Y474672D01*
X156438Y476441D01*
X161062Y476441D01*
X165333Y474672D01*
X168602Y471403D01*
X170371Y467132D01*
X170371Y447268D01*
X168602Y442997D01*
X165333Y439728D01*
X161062Y437959D01*
X156438Y437959D01*
G37*
%LPD*%
%LPC*%
G36*
X131038Y437959D02*
X131038Y437959D01*
X126767Y439728D01*
X123498Y442997D01*
X121729Y447268D01*
X121729Y467132D01*
X123498Y471403D01*
X126767Y474672D01*
X131038Y476441D01*
X135662Y476441D01*
X139933Y474672D01*
X143202Y471403D01*
X144971Y467132D01*
X144971Y447268D01*
X143202Y442997D01*
X139933Y439728D01*
X135662Y437959D01*
X131038Y437959D01*
G37*
%LPD*%
%LPC*%
G36*
X793343Y283654D02*
X793343Y283654D01*
X789072Y285423D01*
X785803Y288692D01*
X784034Y292963D01*
X784034Y297587D01*
X785803Y301858D01*
X789072Y305127D01*
X793343Y306896D01*
X813207Y306896D01*
X817478Y305127D01*
X820747Y301858D01*
X822516Y297587D01*
X822516Y292963D01*
X820747Y288692D01*
X817478Y285423D01*
X813207Y283654D01*
X793343Y283654D01*
G37*
%LPD*%
%LPC*%
G36*
X546963Y44259D02*
X546963Y44259D01*
X542692Y46028D01*
X539423Y49297D01*
X537654Y53568D01*
X537654Y73432D01*
X539423Y77703D01*
X542692Y80972D01*
X546963Y82741D01*
X551587Y82741D01*
X555858Y80972D01*
X559127Y77703D01*
X560896Y73432D01*
X560896Y53568D01*
X559127Y49297D01*
X555858Y46028D01*
X551587Y44259D01*
X546963Y44259D01*
G37*
%LPD*%
%LPC*%
G36*
X59591Y306772D02*
X59591Y306772D01*
X54573Y308851D01*
X50732Y312691D01*
X48654Y317709D01*
X48654Y323141D01*
X50732Y328159D01*
X54573Y331999D01*
X59591Y334078D01*
X65022Y334078D01*
X70040Y331999D01*
X73880Y328159D01*
X75959Y323141D01*
X75959Y317709D01*
X73880Y312691D01*
X70040Y308851D01*
X65022Y306772D01*
X59591Y306772D01*
G37*
%LPD*%
%LPC*%
G36*
X321387Y298767D02*
X321387Y298767D01*
X316836Y300652D01*
X313352Y304136D01*
X311467Y308687D01*
X311467Y313613D01*
X313352Y318164D01*
X316836Y321648D01*
X321387Y323533D01*
X326313Y323533D01*
X330864Y321648D01*
X334348Y318164D01*
X336233Y313613D01*
X336233Y308687D01*
X334348Y304136D01*
X330864Y300652D01*
X326313Y298767D01*
X321387Y298767D01*
G37*
%LPD*%
%LPC*%
G36*
X805350Y451632D02*
X805350Y451632D01*
X805350Y464541D01*
X805523Y465187D01*
X805858Y465766D01*
X806331Y466239D01*
X806910Y466574D01*
X807556Y466747D01*
X828085Y466747D01*
X828085Y451632D01*
X805350Y451632D01*
G37*
%LPD*%
%LPC*%
G36*
X805350Y381740D02*
X805350Y381740D01*
X805350Y394649D01*
X805523Y395295D01*
X805858Y395874D01*
X806331Y396347D01*
X806910Y396682D01*
X807556Y396855D01*
X828085Y396855D01*
X828085Y381740D01*
X805350Y381740D01*
G37*
%LPD*%
%LPC*%
G36*
X807556Y434995D02*
X807556Y434995D01*
X806910Y435168D01*
X806331Y435503D01*
X805858Y435976D01*
X805523Y436555D01*
X805350Y437201D01*
X805350Y450110D01*
X828085Y450110D01*
X828085Y434995D01*
X807556Y434995D01*
G37*
%LPD*%
%LPC*%
G36*
X807556Y365103D02*
X807556Y365103D01*
X806910Y365276D01*
X806331Y365611D01*
X805858Y366084D01*
X805523Y366663D01*
X805350Y367309D01*
X805350Y380218D01*
X828085Y380218D01*
X828085Y365103D01*
X807556Y365103D01*
G37*
%LPD*%
%LPC*%
G36*
X37661Y124424D02*
X37661Y124424D01*
X33985Y125947D01*
X31172Y128760D01*
X29649Y132436D01*
X29649Y136414D01*
X31172Y140090D01*
X33985Y142903D01*
X37661Y144426D01*
X41639Y144426D01*
X45315Y142903D01*
X48128Y140090D01*
X49651Y136414D01*
X49651Y132436D01*
X48128Y128760D01*
X45315Y125947D01*
X41639Y124424D01*
X37661Y124424D01*
G37*
%LPD*%
%LPC*%
G36*
X12661Y224424D02*
X12661Y224424D01*
X8985Y225947D01*
X6172Y228760D01*
X4649Y232436D01*
X4649Y236414D01*
X6172Y240090D01*
X8985Y242903D01*
X12661Y244426D01*
X16639Y244426D01*
X20315Y242903D01*
X23128Y240090D01*
X24651Y236414D01*
X24651Y232436D01*
X23128Y228760D01*
X20315Y225947D01*
X16639Y224424D01*
X12661Y224424D01*
G37*
%LPD*%
%LPC*%
G36*
X37661Y224424D02*
X37661Y224424D01*
X33985Y225947D01*
X31172Y228760D01*
X29649Y232436D01*
X29649Y236414D01*
X31172Y240090D01*
X33985Y242903D01*
X37661Y244426D01*
X41639Y244426D01*
X45315Y242903D01*
X48128Y240090D01*
X49651Y236414D01*
X49651Y232436D01*
X48128Y228760D01*
X45315Y225947D01*
X41639Y224424D01*
X37661Y224424D01*
G37*
%LPD*%
%LPC*%
G36*
X12661Y124424D02*
X12661Y124424D01*
X8985Y125947D01*
X6172Y128760D01*
X4649Y132436D01*
X4649Y136414D01*
X6172Y140090D01*
X8985Y142903D01*
X12661Y144426D01*
X16639Y144426D01*
X20315Y142903D01*
X23128Y140090D01*
X24651Y136414D01*
X24651Y132436D01*
X23128Y128760D01*
X20315Y125947D01*
X16639Y124424D01*
X12661Y124424D01*
G37*
%LPD*%
%LPC*%
G36*
X303109Y436474D02*
X303109Y436474D01*
X300076Y437730D01*
X297755Y440051D01*
X296499Y443084D01*
X296499Y446366D01*
X297755Y449399D01*
X300076Y451720D01*
X303109Y452976D01*
X306391Y452976D01*
X309424Y451720D01*
X311745Y449399D01*
X313001Y446366D01*
X313001Y443084D01*
X311745Y440051D01*
X309424Y437730D01*
X306391Y436474D01*
X303109Y436474D01*
G37*
%LPD*%
%LPC*%
G36*
X265109Y436474D02*
X265109Y436474D01*
X262076Y437730D01*
X259755Y440051D01*
X258499Y443084D01*
X258499Y446366D01*
X259755Y449399D01*
X262076Y451720D01*
X265109Y452976D01*
X268391Y452976D01*
X271424Y451720D01*
X273745Y449399D01*
X275001Y446366D01*
X275001Y443084D01*
X273745Y440051D01*
X271424Y437730D01*
X268391Y436474D01*
X265109Y436474D01*
G37*
%LPD*%
%LPC*%
G36*
X804036Y270636D02*
X804036Y270636D01*
X804036Y280036D01*
X811695Y280036D01*
X813274Y279786D01*
X814795Y279291D01*
X816220Y278565D01*
X817514Y277625D01*
X818645Y276494D01*
X819585Y275200D01*
X820311Y273775D01*
X820806Y272254D01*
X821056Y270675D01*
X821056Y270636D01*
X804036Y270636D01*
G37*
%LPD*%
%LPC*%
G36*
X108711Y457961D02*
X108711Y457961D01*
X108711Y474981D01*
X108750Y474981D01*
X110329Y474731D01*
X111850Y474236D01*
X113275Y473510D01*
X114569Y472570D01*
X115700Y471439D01*
X116640Y470145D01*
X117366Y468720D01*
X117861Y467199D01*
X118111Y465620D01*
X118111Y457961D01*
X108711Y457961D01*
G37*
%LPD*%
%LPC*%
G36*
X575436Y64261D02*
X575436Y64261D01*
X575436Y81281D01*
X575475Y81281D01*
X577054Y81031D01*
X578575Y80536D01*
X580000Y79810D01*
X581294Y78870D01*
X582425Y77739D01*
X583365Y76445D01*
X584091Y75020D01*
X584586Y73499D01*
X584836Y71920D01*
X584836Y64261D01*
X575436Y64261D01*
G37*
%LPD*%
%LPC*%
G36*
X785494Y270636D02*
X785494Y270636D01*
X785494Y270675D01*
X785744Y272254D01*
X786239Y273775D01*
X786965Y275200D01*
X787905Y276494D01*
X789036Y277625D01*
X790330Y278565D01*
X791755Y279291D01*
X793276Y279786D01*
X794855Y280036D01*
X802514Y280036D01*
X802514Y270636D01*
X785494Y270636D01*
G37*
%LPD*%
%LPC*%
G36*
X108711Y439419D02*
X108711Y439419D01*
X108711Y456439D01*
X118111Y456439D01*
X118111Y448780D01*
X117861Y447201D01*
X117366Y445680D01*
X116640Y444255D01*
X115700Y442961D01*
X114569Y441830D01*
X113275Y440890D01*
X111850Y440164D01*
X110329Y439669D01*
X108750Y439419D01*
X108711Y439419D01*
G37*
%LPD*%
%LPC*%
G36*
X575436Y45719D02*
X575436Y45719D01*
X575436Y62739D01*
X584836Y62739D01*
X584836Y55080D01*
X584586Y53501D01*
X584091Y51980D01*
X583365Y50555D01*
X582425Y49261D01*
X581294Y48130D01*
X580000Y47190D01*
X578575Y46464D01*
X577054Y45969D01*
X575475Y45719D01*
X575436Y45719D01*
G37*
%LPD*%
%LPC*%
G36*
X97789Y457961D02*
X97789Y457961D01*
X97789Y465620D01*
X98039Y467199D01*
X98534Y468720D01*
X99260Y470145D01*
X100200Y471439D01*
X101331Y472570D01*
X102625Y473510D01*
X104050Y474236D01*
X105571Y474731D01*
X107150Y474981D01*
X107189Y474981D01*
X107189Y457961D01*
X97789Y457961D01*
G37*
%LPD*%
%LPC*%
G36*
X564514Y64261D02*
X564514Y64261D01*
X564514Y71920D01*
X564764Y73499D01*
X565259Y75020D01*
X565985Y76445D01*
X566925Y77739D01*
X568056Y78870D01*
X569350Y79810D01*
X570775Y80536D01*
X572296Y81031D01*
X573875Y81281D01*
X573914Y81281D01*
X573914Y64261D01*
X564514Y64261D01*
G37*
%LPD*%
%LPC*%
G36*
X804036Y259714D02*
X804036Y259714D01*
X804036Y269114D01*
X821056Y269114D01*
X821056Y269075D01*
X820806Y267496D01*
X820311Y265975D01*
X819585Y264550D01*
X818645Y263256D01*
X817514Y262125D01*
X816220Y261185D01*
X814795Y260459D01*
X813274Y259964D01*
X811695Y259714D01*
X804036Y259714D01*
G37*
%LPD*%
%LPC*%
G36*
X794855Y259714D02*
X794855Y259714D01*
X793276Y259964D01*
X791755Y260459D01*
X790330Y261185D01*
X789036Y262125D01*
X787905Y263256D01*
X786965Y264550D01*
X786239Y265975D01*
X785744Y267496D01*
X785494Y269075D01*
X785494Y269114D01*
X802514Y269114D01*
X802514Y259714D01*
X794855Y259714D01*
G37*
%LPD*%
%LPC*%
G36*
X107150Y439419D02*
X107150Y439419D01*
X105571Y439669D01*
X104050Y440164D01*
X102625Y440890D01*
X101331Y441830D01*
X100200Y442961D01*
X99260Y444255D01*
X98534Y445680D01*
X98039Y447201D01*
X97789Y448780D01*
X97789Y456439D01*
X107189Y456439D01*
X107189Y439419D01*
X107150Y439419D01*
G37*
%LPD*%
%LPC*%
G36*
X573875Y45719D02*
X573875Y45719D01*
X572296Y45969D01*
X570775Y46464D01*
X569350Y47190D01*
X568056Y48130D01*
X566925Y49261D01*
X565985Y50555D01*
X565259Y51980D01*
X564764Y53501D01*
X564514Y55080D01*
X564514Y62739D01*
X573914Y62739D01*
X573914Y45719D01*
X573875Y45719D01*
G37*
%LPD*%
%LPC*%
G36*
X83067Y302686D02*
X83067Y302686D01*
X83067Y314118D01*
X83266Y314118D01*
X85161Y313817D01*
X86987Y313224D01*
X88697Y312353D01*
X90249Y311225D01*
X91606Y309868D01*
X92734Y308315D01*
X93606Y306605D01*
X94199Y304780D01*
X94499Y302885D01*
X94499Y302686D01*
X83067Y302686D01*
G37*
%LPD*%
%LPC*%
G36*
X63067Y284186D02*
X63067Y284186D01*
X63067Y295618D01*
X63266Y295618D01*
X65161Y295317D01*
X66987Y294724D01*
X68697Y293853D01*
X70249Y292725D01*
X71606Y291368D01*
X72734Y289815D01*
X73606Y288105D01*
X74199Y286280D01*
X74499Y284385D01*
X74499Y284186D01*
X63067Y284186D01*
G37*
%LPD*%
%LPC*%
G36*
X83067Y289732D02*
X83067Y289732D01*
X83067Y301164D01*
X94499Y301164D01*
X94499Y300965D01*
X94199Y299070D01*
X93606Y297245D01*
X92734Y295535D01*
X91606Y293982D01*
X90249Y292625D01*
X88697Y291497D01*
X86987Y290626D01*
X85161Y290033D01*
X83266Y289732D01*
X83067Y289732D01*
G37*
%LPD*%
%LPC*%
G36*
X63067Y271232D02*
X63067Y271232D01*
X63067Y282664D01*
X74499Y282664D01*
X74499Y282465D01*
X74199Y280570D01*
X73606Y278745D01*
X72734Y277035D01*
X71606Y275482D01*
X70249Y274125D01*
X68697Y272997D01*
X66987Y272126D01*
X65161Y271533D01*
X63266Y271232D01*
X63067Y271232D01*
G37*
%LPD*%
%LPC*%
G36*
X50114Y284186D02*
X50114Y284186D01*
X50114Y284385D01*
X50414Y286280D01*
X51007Y288105D01*
X51878Y289815D01*
X53006Y291368D01*
X54363Y292725D01*
X55916Y293853D01*
X57626Y294724D01*
X59451Y295317D01*
X61347Y295618D01*
X61545Y295618D01*
X61545Y284186D01*
X50114Y284186D01*
G37*
%LPD*%
%LPC*%
G36*
X70114Y302686D02*
X70114Y302686D01*
X70114Y302885D01*
X70414Y304780D01*
X71007Y306605D01*
X71878Y308315D01*
X73006Y309868D01*
X74363Y311225D01*
X75916Y312353D01*
X77626Y313224D01*
X79451Y313817D01*
X81347Y314118D01*
X81545Y314118D01*
X81545Y302686D01*
X70114Y302686D01*
G37*
%LPD*%
%LPC*%
G36*
X81347Y289732D02*
X81347Y289732D01*
X79451Y290033D01*
X77626Y290626D01*
X75916Y291497D01*
X74363Y292625D01*
X73006Y293982D01*
X71878Y295535D01*
X71007Y297245D01*
X70414Y299070D01*
X70114Y300965D01*
X70114Y301164D01*
X81545Y301164D01*
X81545Y289732D01*
X81347Y289732D01*
G37*
%LPD*%
%LPC*%
G36*
X61347Y271232D02*
X61347Y271232D01*
X59451Y271533D01*
X57626Y272126D01*
X55916Y272997D01*
X54363Y274125D01*
X53006Y275482D01*
X51878Y277035D01*
X51007Y278745D01*
X50414Y280570D01*
X50114Y282465D01*
X50114Y282664D01*
X61545Y282664D01*
X61545Y271232D01*
X61347Y271232D01*
G37*
%LPD*%
%LPC*%
G36*
X76936Y426211D02*
X76936Y426211D01*
X76936Y435491D01*
X83010Y435491D01*
X83656Y435318D01*
X84235Y434983D01*
X84708Y434510D01*
X85043Y433931D01*
X85216Y433285D01*
X85216Y426211D01*
X76936Y426211D01*
G37*
%LPD*%
%LPC*%
G36*
X76936Y415409D02*
X76936Y415409D01*
X76936Y424689D01*
X85216Y424689D01*
X85216Y417615D01*
X85043Y416969D01*
X84708Y416390D01*
X84235Y415917D01*
X83656Y415582D01*
X83010Y415409D01*
X76936Y415409D01*
G37*
%LPD*%
%LPC*%
G36*
X787761Y185061D02*
X787761Y185061D01*
X787761Y194381D01*
X787793Y194381D01*
X789361Y194132D01*
X790870Y193642D01*
X792284Y192922D01*
X793567Y191989D01*
X794689Y190867D01*
X795622Y189584D01*
X796342Y188170D01*
X796832Y186661D01*
X797081Y185093D01*
X797081Y185061D01*
X787761Y185061D01*
G37*
%LPD*%
%LPC*%
G36*
X762761Y40061D02*
X762761Y40061D01*
X762761Y49381D01*
X762793Y49381D01*
X764361Y49132D01*
X765870Y48642D01*
X767284Y47922D01*
X768567Y46989D01*
X769689Y45867D01*
X770622Y44584D01*
X771342Y43170D01*
X771832Y41661D01*
X772081Y40093D01*
X772081Y40061D01*
X762761Y40061D01*
G37*
%LPD*%
%LPC*%
G36*
X787761Y174219D02*
X787761Y174219D01*
X787761Y183539D01*
X797081Y183539D01*
X797081Y183507D01*
X796832Y181939D01*
X796342Y180430D01*
X795622Y179016D01*
X794689Y177733D01*
X793567Y176611D01*
X792284Y175678D01*
X790870Y174958D01*
X789361Y174468D01*
X787793Y174219D01*
X787761Y174219D01*
G37*
%LPD*%
%LPC*%
G36*
X751919Y40061D02*
X751919Y40061D01*
X751919Y40093D01*
X752168Y41661D01*
X752658Y43170D01*
X753378Y44584D01*
X754311Y45867D01*
X755433Y46989D01*
X756716Y47922D01*
X758130Y48642D01*
X759639Y49132D01*
X761207Y49381D01*
X761239Y49381D01*
X761239Y40061D01*
X751919Y40061D01*
G37*
%LPD*%
%LPC*%
G36*
X762761Y29219D02*
X762761Y29219D01*
X762761Y38539D01*
X772081Y38539D01*
X772081Y38507D01*
X771832Y36939D01*
X771342Y35430D01*
X770622Y34016D01*
X769689Y32733D01*
X768567Y31611D01*
X767284Y30678D01*
X765870Y29958D01*
X764361Y29468D01*
X762793Y29219D01*
X762761Y29219D01*
G37*
%LPD*%
%LPC*%
G36*
X761207Y29219D02*
X761207Y29219D01*
X759639Y29468D01*
X758130Y29958D01*
X756716Y30678D01*
X755433Y31611D01*
X754311Y32733D01*
X753378Y34016D01*
X752658Y35430D01*
X752168Y36939D01*
X751919Y38507D01*
X751919Y38539D01*
X761239Y38539D01*
X761239Y29219D01*
X761207Y29219D01*
G37*
%LPD*%
%LPC*%
G36*
X803274Y269874D02*
X803274Y269874D01*
X803274Y269876D01*
X803276Y269876D01*
X803276Y269874D01*
X803274Y269874D01*
G37*
%LPD*%
%LPC*%
G36*
X107949Y457199D02*
X107949Y457199D01*
X107949Y457201D01*
X107951Y457201D01*
X107951Y457199D01*
X107949Y457199D01*
G37*
%LPD*%
%LPC*%
G36*
X82305Y301924D02*
X82305Y301924D01*
X82305Y301926D01*
X82307Y301926D01*
X82307Y301924D01*
X82305Y301924D01*
G37*
%LPD*%
%LPC*%
G36*
X62305Y283424D02*
X62305Y283424D01*
X62305Y283426D01*
X62307Y283426D01*
X62307Y283424D01*
X62305Y283424D01*
G37*
%LPD*%
%LPC*%
G36*
X761999Y39299D02*
X761999Y39299D01*
X761999Y39301D01*
X762001Y39301D01*
X762001Y39299D01*
X761999Y39299D01*
G37*
%LPD*%
%LPC*%
G36*
X574674Y63499D02*
X574674Y63499D01*
X574674Y63501D01*
X574676Y63501D01*
X574676Y63499D01*
X574674Y63499D01*
G37*
%LPD*%
D10*
X323850Y311150D03*
X323850Y412750D03*
D11*
X57175Y400050D03*
X76175Y400050D03*
X76175Y425450D03*
X57175Y425450D03*
D12*
X828846Y450871D03*
X828846Y380979D03*
D13*
X498475Y71120D02*
X498475Y55880D01*
X523875Y55880D02*
X523875Y71120D01*
X549275Y71120D02*
X549275Y55880D01*
X574675Y55880D02*
X574675Y71120D01*
X158750Y449580D02*
X158750Y464820D01*
X133350Y464820D02*
X133350Y449580D01*
X107950Y449580D02*
X107950Y464820D01*
X82550Y464820D02*
X82550Y449580D01*
X57150Y449580D02*
X57150Y464820D01*
X31750Y464820D02*
X31750Y449580D01*
D14*
X737000Y184300D03*
X787000Y184300D03*
X737000Y39300D03*
X762000Y39300D03*
X787000Y39300D03*
D15*
X696000Y114300D03*
X828000Y114300D03*
D13*
X810895Y295275D02*
X795655Y295275D01*
X795655Y269875D02*
X810895Y269875D01*
D16*
X39650Y184425D03*
X89650Y209425D03*
X89650Y234425D03*
X89650Y159425D03*
X89650Y134425D03*
D17*
X62306Y283425D03*
X62306Y320425D03*
X13306Y301925D03*
X82306Y301925D03*
D18*
X209550Y438150D03*
D19*
X209550Y412750D03*
X209550Y361950D03*
X209550Y336550D03*
X209550Y311150D03*
X209550Y285750D03*
X209550Y260350D03*
X209550Y234950D03*
X209550Y209550D03*
X209550Y184150D03*
X209550Y158750D03*
X209550Y133350D03*
X209550Y107950D03*
X209550Y82550D03*
X361950Y82550D03*
X361950Y107950D03*
X361950Y133350D03*
X361950Y158750D03*
X361950Y184150D03*
X361950Y209550D03*
X361950Y285750D03*
X361950Y311150D03*
X361950Y336550D03*
X361950Y361950D03*
X361950Y387350D03*
X361950Y412750D03*
X361950Y438150D03*
D20*
X390525Y173038D03*
D21*
X390525Y47625D01*
X381000Y38100D01*
X190500Y38100D01*
D20*
X190500Y38100D03*
X95250Y425450D03*
X844550Y444500D03*
X828675Y444500D03*
X812800Y444500D03*
X812800Y387350D03*
X828675Y387350D03*
X844550Y387350D03*
X787400Y378619D03*
X641350Y378619D03*
X790575Y438150D03*
X752475Y438150D03*
X682625Y438150D03*
X714375Y415925D03*
X714375Y438150D03*
X641350Y438150D03*
X603250Y438150D03*
X577850Y415925D03*
X577850Y393700D03*
X609600Y393700D03*
X682625Y393700D03*
X714375Y393700D03*
X752475Y393700D03*
X393700Y423863D03*
X273050Y420688D03*
X257175Y430213D03*
X244475Y124619D03*
X582613Y34925D03*
X114300Y92869D03*
X474663Y454025D03*
X508000Y454025D03*
X520700Y454025D03*
X554038Y454025D03*
X520700Y438944D03*
X474663Y438944D03*
X537369Y473075D03*
X491331Y473075D03*
X474663Y473075D03*
X508000Y473075D03*
X508000Y438944D03*
X520700Y473075D03*
X554038Y473075D03*
X554038Y438944D03*
X34925Y377825D03*
X165100Y317500D03*
X165100Y241300D03*
X165100Y180975D03*
X165100Y111125D03*
X320675Y177800D03*
X320675Y104775D03*
X365125Y57150D03*
X660400Y222250D03*
X720725Y222250D03*
X666750Y57150D03*
X546100Y142875D03*
X546100Y212725D03*
X542925Y231775D03*
X546100Y285750D03*
X546100Y336550D03*
X565150Y368300D03*
X457200Y415925D03*
X457200Y371475D03*
X460375Y285750D03*
X454025Y142875D03*
X454025Y73025D03*
X660400Y168275D03*
X85725Y38100D03*
X215900Y49213D03*
X347663Y24606D03*
X454025Y209550D03*
X244475Y200819D03*
X165100Y365125D03*
X390525Y285750D03*
X320675Y219075D03*
X265113Y361950D03*
X482600Y216694D03*
X482600Y140494D03*
X233363Y292100D03*
X280988Y257175D03*
X639763Y80169D03*
D21*
X639763Y23813D01*
X628650Y12700D01*
X69850Y12700D02*
X63500Y19050D01*
X63500Y28575D01*
D20*
X63500Y28575D03*
D21*
X69850Y12700D02*
X628650Y12700D01*
X523875Y44450D02*
X523875Y63500D01*
X523875Y44450D02*
X517525Y38100D01*
X476250Y38100D01*
X469900Y44450D01*
X469900Y219075D02*
X460375Y228600D01*
X469900Y219075D02*
X469900Y44450D01*
X241300Y228600D02*
X234950Y234950D01*
X209550Y234950D01*
X241300Y228600D02*
X460375Y228600D01*
X250825Y241300D02*
X231775Y260350D01*
X498475Y231775D02*
X498475Y63500D01*
X498475Y231775D02*
X488950Y241300D01*
X250825Y241300D01*
X231775Y260350D02*
X209550Y260350D01*
D22*
X209550Y158750D02*
X90325Y158750D01*
X89650Y159425D01*
D20*
X111125Y381000D03*
D21*
X355600Y387350D02*
X361950Y387350D01*
X355600Y387350D02*
X349250Y381000D01*
X111125Y381000D01*
X57175Y457175D02*
X57150Y457200D01*
X57175Y457175D02*
X57175Y425450D01*
X57175Y400050D01*
X79350Y403225D02*
X180975Y403225D01*
X79350Y403225D02*
X76175Y400050D01*
X180975Y403225D02*
X187325Y409575D01*
X187325Y457200D02*
X193675Y463550D01*
X336550Y463550D01*
X342900Y457200D01*
X342900Y419100D01*
X349250Y412750D01*
X187325Y409575D02*
X187325Y457200D01*
X349250Y412750D02*
X361950Y412750D01*
D20*
X454025Y184150D03*
X523875Y184150D03*
D21*
X736850Y184150D01*
X737000Y184300D01*
X454025Y184150D02*
X361950Y184150D01*
X63500Y176450D02*
X55525Y184425D01*
X39650Y184425D01*
X63500Y176450D02*
X63500Y69850D01*
X73025Y60325D01*
X288925Y60325D01*
X298450Y69850D01*
X298450Y200025D01*
X307975Y209550D01*
X361950Y209550D01*
X333375Y266700D02*
X749300Y266700D01*
X787000Y70250D02*
X787000Y39300D01*
X771525Y244475D02*
X749300Y266700D01*
X771525Y244475D02*
X771525Y85725D01*
X787000Y70250D01*
X238125Y361950D02*
X209550Y361950D01*
X238125Y361950D02*
X333375Y266700D01*
X737000Y70250D02*
X737000Y39300D01*
X752475Y85725D02*
X752475Y231775D01*
X752475Y85725D02*
X737000Y70250D01*
X752475Y231775D02*
X730250Y254000D01*
X241300Y336550D02*
X209550Y336550D01*
X323850Y254000D02*
X730250Y254000D01*
X323850Y254000D02*
X241300Y336550D01*
M02*
