G04 EAGLE Gerber RS-274X export*
G75*
%MOMM*%
%FSLAX34Y34*%
%LPD*%
%IN*%
%IPPOS*%
%AMOC8*
5,1,8,0,0,1.08239X$1,22.5*%
G01*
%ADD10C,0.254000*%


D10*
X0Y0D02*
X850000Y0D01*
X850000Y480000D01*
X0Y480000D01*
X0Y0D01*
X43575Y50264D02*
X43499Y49196D01*
X43346Y48135D01*
X43118Y47088D01*
X42816Y46060D01*
X42442Y45056D01*
X41997Y44081D01*
X41483Y43141D01*
X40904Y42240D01*
X40262Y41382D01*
X39560Y40572D01*
X38803Y39815D01*
X37993Y39113D01*
X37135Y38471D01*
X36234Y37892D01*
X35294Y37378D01*
X34319Y36933D01*
X33315Y36559D01*
X32287Y36257D01*
X31240Y36029D01*
X30179Y35876D01*
X29111Y35800D01*
X28039Y35800D01*
X26971Y35876D01*
X25910Y36029D01*
X24863Y36257D01*
X23835Y36559D01*
X22831Y36933D01*
X21856Y37378D01*
X20916Y37892D01*
X20015Y38471D01*
X19157Y39113D01*
X18347Y39815D01*
X17590Y40572D01*
X16888Y41382D01*
X16246Y42240D01*
X15667Y43141D01*
X15153Y44081D01*
X14708Y45056D01*
X14334Y46060D01*
X14032Y47088D01*
X13804Y48135D01*
X13651Y49196D01*
X13575Y50264D01*
X13575Y51336D01*
X13651Y52404D01*
X13804Y53465D01*
X14032Y54512D01*
X14334Y55540D01*
X14708Y56544D01*
X15153Y57519D01*
X15667Y58459D01*
X16246Y59360D01*
X16888Y60218D01*
X17590Y61028D01*
X18347Y61785D01*
X19157Y62487D01*
X20015Y63129D01*
X20916Y63708D01*
X21856Y64222D01*
X22831Y64667D01*
X23835Y65041D01*
X24863Y65343D01*
X25910Y65571D01*
X26971Y65724D01*
X28039Y65800D01*
X29111Y65800D01*
X30179Y65724D01*
X31240Y65571D01*
X32287Y65343D01*
X33315Y65041D01*
X34319Y64667D01*
X35294Y64222D01*
X36234Y63708D01*
X37135Y63129D01*
X37993Y62487D01*
X38803Y61785D01*
X39560Y61028D01*
X40262Y60218D01*
X40904Y59360D01*
X41483Y58459D01*
X41997Y57519D01*
X42442Y56544D01*
X42816Y55540D01*
X43118Y54512D01*
X43346Y53465D01*
X43499Y52404D01*
X43575Y51336D01*
X43575Y50264D01*
X824625Y212189D02*
X824549Y211121D01*
X824396Y210060D01*
X824168Y209013D01*
X823866Y207985D01*
X823492Y206981D01*
X823047Y206006D01*
X822533Y205066D01*
X821954Y204165D01*
X821312Y203307D01*
X820610Y202497D01*
X819853Y201740D01*
X819043Y201038D01*
X818185Y200396D01*
X817284Y199817D01*
X816344Y199303D01*
X815369Y198858D01*
X814365Y198484D01*
X813337Y198182D01*
X812290Y197954D01*
X811229Y197801D01*
X810161Y197725D01*
X809089Y197725D01*
X808021Y197801D01*
X806960Y197954D01*
X805913Y198182D01*
X804885Y198484D01*
X803881Y198858D01*
X802906Y199303D01*
X801966Y199817D01*
X801065Y200396D01*
X800207Y201038D01*
X799397Y201740D01*
X798640Y202497D01*
X797938Y203307D01*
X797296Y204165D01*
X796717Y205066D01*
X796203Y206006D01*
X795758Y206981D01*
X795384Y207985D01*
X795082Y209013D01*
X794854Y210060D01*
X794701Y211121D01*
X794625Y212189D01*
X794625Y213261D01*
X794701Y214329D01*
X794854Y215390D01*
X795082Y216437D01*
X795384Y217465D01*
X795758Y218469D01*
X796203Y219444D01*
X796717Y220384D01*
X797296Y221285D01*
X797938Y222143D01*
X798640Y222953D01*
X799397Y223710D01*
X800207Y224412D01*
X801065Y225054D01*
X801966Y225633D01*
X802906Y226147D01*
X803881Y226592D01*
X804885Y226966D01*
X805913Y227268D01*
X806960Y227496D01*
X808021Y227649D01*
X809089Y227725D01*
X810161Y227725D01*
X811229Y227649D01*
X812290Y227496D01*
X813337Y227268D01*
X814365Y226966D01*
X815369Y226592D01*
X816344Y226147D01*
X817284Y225633D01*
X818185Y225054D01*
X819043Y224412D01*
X819853Y223710D01*
X820610Y222953D01*
X821312Y222143D01*
X821954Y221285D01*
X822533Y220384D01*
X823047Y219444D01*
X823492Y218469D01*
X823866Y217465D01*
X824168Y216437D01*
X824396Y215390D01*
X824549Y214329D01*
X824625Y213261D01*
X824625Y212189D01*
X275350Y275689D02*
X275274Y274621D01*
X275121Y273560D01*
X274893Y272513D01*
X274591Y271485D01*
X274217Y270481D01*
X273772Y269506D01*
X273258Y268566D01*
X272679Y267665D01*
X272037Y266807D01*
X271335Y265997D01*
X270578Y265240D01*
X269768Y264538D01*
X268910Y263896D01*
X268009Y263317D01*
X267069Y262803D01*
X266094Y262358D01*
X265090Y261984D01*
X264062Y261682D01*
X263015Y261454D01*
X261954Y261301D01*
X260886Y261225D01*
X259814Y261225D01*
X258746Y261301D01*
X257685Y261454D01*
X256638Y261682D01*
X255610Y261984D01*
X254606Y262358D01*
X253631Y262803D01*
X252691Y263317D01*
X251790Y263896D01*
X250932Y264538D01*
X250122Y265240D01*
X249365Y265997D01*
X248663Y266807D01*
X248021Y267665D01*
X247442Y268566D01*
X246928Y269506D01*
X246483Y270481D01*
X246109Y271485D01*
X245807Y272513D01*
X245579Y273560D01*
X245426Y274621D01*
X245350Y275689D01*
X245350Y276761D01*
X245426Y277829D01*
X245579Y278890D01*
X245807Y279937D01*
X246109Y280965D01*
X246483Y281969D01*
X246928Y282944D01*
X247442Y283884D01*
X248021Y284785D01*
X248663Y285643D01*
X249365Y286453D01*
X250122Y287210D01*
X250932Y287912D01*
X251790Y288554D01*
X252691Y289133D01*
X253631Y289647D01*
X254606Y290092D01*
X255610Y290466D01*
X256638Y290768D01*
X257685Y290996D01*
X258746Y291149D01*
X259814Y291225D01*
X260886Y291225D01*
X261954Y291149D01*
X263015Y290996D01*
X264062Y290768D01*
X265090Y290466D01*
X266094Y290092D01*
X267069Y289647D01*
X268009Y289133D01*
X268910Y288554D01*
X269768Y287912D01*
X270578Y287210D01*
X271335Y286453D01*
X272037Y285643D01*
X272679Y284785D01*
X273258Y283884D01*
X273772Y282944D01*
X274217Y281969D01*
X274591Y280965D01*
X274893Y279937D01*
X275121Y278890D01*
X275274Y277829D01*
X275350Y276761D01*
X275350Y275689D01*
X304471Y440475D02*
X303919Y440548D01*
X303381Y440692D01*
X302866Y440905D01*
X302384Y441184D01*
X301942Y441523D01*
X301548Y441917D01*
X301209Y442359D01*
X300930Y442841D01*
X300717Y443356D01*
X300573Y443894D01*
X300500Y444446D01*
X300500Y445004D01*
X300573Y445556D01*
X300717Y446094D01*
X300930Y446609D01*
X301209Y447091D01*
X301548Y447533D01*
X301942Y447927D01*
X302384Y448266D01*
X302866Y448545D01*
X303381Y448758D01*
X303919Y448902D01*
X304471Y448975D01*
X305029Y448975D01*
X305581Y448902D01*
X306119Y448758D01*
X306634Y448545D01*
X307116Y448266D01*
X307558Y447927D01*
X307952Y447533D01*
X308291Y447091D01*
X308570Y446609D01*
X308783Y446094D01*
X308927Y445556D01*
X309000Y445004D01*
X309000Y444446D01*
X308927Y443894D01*
X308783Y443356D01*
X308570Y442841D01*
X308291Y442359D01*
X307952Y441917D01*
X307558Y441523D01*
X307116Y441184D01*
X306634Y440905D01*
X306119Y440692D01*
X305581Y440548D01*
X305029Y440475D01*
X304471Y440475D01*
X266471Y440475D02*
X265919Y440548D01*
X265381Y440692D01*
X264866Y440905D01*
X264384Y441184D01*
X263942Y441523D01*
X263548Y441917D01*
X263209Y442359D01*
X262930Y442841D01*
X262717Y443356D01*
X262573Y443894D01*
X262500Y444446D01*
X262500Y445004D01*
X262573Y445556D01*
X262717Y446094D01*
X262930Y446609D01*
X263209Y447091D01*
X263548Y447533D01*
X263942Y447927D01*
X264384Y448266D01*
X264866Y448545D01*
X265381Y448758D01*
X265919Y448902D01*
X266471Y448975D01*
X267029Y448975D01*
X267581Y448902D01*
X268119Y448758D01*
X268634Y448545D01*
X269116Y448266D01*
X269558Y447927D01*
X269952Y447533D01*
X270291Y447091D01*
X270570Y446609D01*
X270783Y446094D01*
X270927Y445556D01*
X271000Y445004D01*
X271000Y444446D01*
X270927Y443894D01*
X270783Y443356D01*
X270570Y442841D01*
X270291Y442359D01*
X269952Y441917D01*
X269558Y441523D01*
X269116Y441184D01*
X268634Y440905D01*
X268119Y440692D01*
X267581Y440548D01*
X267029Y440475D01*
X266471Y440475D01*
X45650Y234088D02*
X45575Y233418D01*
X45425Y232761D01*
X45202Y232125D01*
X44910Y231518D01*
X44551Y230948D01*
X44131Y230421D01*
X43654Y229944D01*
X43128Y229524D01*
X42557Y229165D01*
X41950Y228873D01*
X41314Y228650D01*
X40657Y228500D01*
X39987Y228425D01*
X39313Y228425D01*
X38643Y228500D01*
X37986Y228650D01*
X37350Y228873D01*
X36743Y229165D01*
X36173Y229524D01*
X35646Y229944D01*
X35169Y230421D01*
X34749Y230948D01*
X34390Y231518D01*
X34098Y232125D01*
X33875Y232761D01*
X33725Y233418D01*
X33650Y234088D01*
X33650Y234762D01*
X33725Y235432D01*
X33875Y236089D01*
X34098Y236725D01*
X34390Y237332D01*
X34749Y237903D01*
X35169Y238429D01*
X35646Y238906D01*
X36173Y239326D01*
X36743Y239685D01*
X37350Y239977D01*
X37986Y240200D01*
X38643Y240350D01*
X39313Y240425D01*
X39987Y240425D01*
X40657Y240350D01*
X41314Y240200D01*
X41950Y239977D01*
X42557Y239685D01*
X43128Y239326D01*
X43654Y238906D01*
X44131Y238429D01*
X44551Y237903D01*
X44910Y237332D01*
X45202Y236725D01*
X45425Y236089D01*
X45575Y235432D01*
X45650Y234762D01*
X45650Y234088D01*
X20650Y234088D02*
X20575Y233418D01*
X20425Y232761D01*
X20202Y232125D01*
X19910Y231518D01*
X19551Y230948D01*
X19131Y230421D01*
X18654Y229944D01*
X18128Y229524D01*
X17557Y229165D01*
X16950Y228873D01*
X16314Y228650D01*
X15657Y228500D01*
X14987Y228425D01*
X14313Y228425D01*
X13643Y228500D01*
X12986Y228650D01*
X12350Y228873D01*
X11743Y229165D01*
X11173Y229524D01*
X10646Y229944D01*
X10169Y230421D01*
X9749Y230948D01*
X9390Y231518D01*
X9098Y232125D01*
X8875Y232761D01*
X8725Y233418D01*
X8650Y234088D01*
X8650Y234762D01*
X8725Y235432D01*
X8875Y236089D01*
X9098Y236725D01*
X9390Y237332D01*
X9749Y237903D01*
X10169Y238429D01*
X10646Y238906D01*
X11173Y239326D01*
X11743Y239685D01*
X12350Y239977D01*
X12986Y240200D01*
X13643Y240350D01*
X14313Y240425D01*
X14987Y240425D01*
X15657Y240350D01*
X16314Y240200D01*
X16950Y239977D01*
X17557Y239685D01*
X18128Y239326D01*
X18654Y238906D01*
X19131Y238429D01*
X19551Y237903D01*
X19910Y237332D01*
X20202Y236725D01*
X20425Y236089D01*
X20575Y235432D01*
X20650Y234762D01*
X20650Y234088D01*
X20650Y134088D02*
X20575Y133418D01*
X20425Y132761D01*
X20202Y132125D01*
X19910Y131518D01*
X19551Y130948D01*
X19131Y130421D01*
X18654Y129944D01*
X18128Y129524D01*
X17557Y129165D01*
X16950Y128873D01*
X16314Y128650D01*
X15657Y128500D01*
X14987Y128425D01*
X14313Y128425D01*
X13643Y128500D01*
X12986Y128650D01*
X12350Y128873D01*
X11743Y129165D01*
X11173Y129524D01*
X10646Y129944D01*
X10169Y130421D01*
X9749Y130948D01*
X9390Y131518D01*
X9098Y132125D01*
X8875Y132761D01*
X8725Y133418D01*
X8650Y134088D01*
X8650Y134762D01*
X8725Y135432D01*
X8875Y136089D01*
X9098Y136725D01*
X9390Y137332D01*
X9749Y137903D01*
X10169Y138429D01*
X10646Y138906D01*
X11173Y139326D01*
X11743Y139685D01*
X12350Y139977D01*
X12986Y140200D01*
X13643Y140350D01*
X14313Y140425D01*
X14987Y140425D01*
X15657Y140350D01*
X16314Y140200D01*
X16950Y139977D01*
X17557Y139685D01*
X18128Y139326D01*
X18654Y138906D01*
X19131Y138429D01*
X19551Y137903D01*
X19910Y137332D01*
X20202Y136725D01*
X20425Y136089D01*
X20575Y135432D01*
X20650Y134762D01*
X20650Y134088D01*
X45650Y134088D02*
X45575Y133418D01*
X45425Y132761D01*
X45202Y132125D01*
X44910Y131518D01*
X44551Y130948D01*
X44131Y130421D01*
X43654Y129944D01*
X43128Y129524D01*
X42557Y129165D01*
X41950Y128873D01*
X41314Y128650D01*
X40657Y128500D01*
X39987Y128425D01*
X39313Y128425D01*
X38643Y128500D01*
X37986Y128650D01*
X37350Y128873D01*
X36743Y129165D01*
X36173Y129524D01*
X35646Y129944D01*
X35169Y130421D01*
X34749Y130948D01*
X34390Y131518D01*
X34098Y132125D01*
X33875Y132761D01*
X33725Y133418D01*
X33650Y134088D01*
X33650Y134762D01*
X33725Y135432D01*
X33875Y136089D01*
X34098Y136725D01*
X34390Y137332D01*
X34749Y137903D01*
X35169Y138429D01*
X35646Y138906D01*
X36173Y139326D01*
X36743Y139685D01*
X37350Y139977D01*
X37986Y140200D01*
X38643Y140350D01*
X39313Y140425D01*
X39987Y140425D01*
X40657Y140350D01*
X41314Y140200D01*
X41950Y139977D01*
X42557Y139685D01*
X43128Y139326D01*
X43654Y138906D01*
X44131Y138429D01*
X44551Y137903D01*
X44910Y137332D01*
X45202Y136725D01*
X45425Y136089D01*
X45575Y135432D01*
X45650Y134762D01*
X45650Y134088D01*
X95650Y184088D02*
X95575Y183418D01*
X95425Y182761D01*
X95202Y182125D01*
X94910Y181518D01*
X94551Y180948D01*
X94131Y180421D01*
X93654Y179944D01*
X93128Y179524D01*
X92557Y179165D01*
X91950Y178873D01*
X91314Y178650D01*
X90657Y178500D01*
X89987Y178425D01*
X89313Y178425D01*
X88643Y178500D01*
X87986Y178650D01*
X87350Y178873D01*
X86743Y179165D01*
X86173Y179524D01*
X85646Y179944D01*
X85169Y180421D01*
X84749Y180948D01*
X84390Y181518D01*
X84098Y182125D01*
X83875Y182761D01*
X83725Y183418D01*
X83650Y184088D01*
X83650Y184762D01*
X83725Y185432D01*
X83875Y186089D01*
X84098Y186725D01*
X84390Y187332D01*
X84749Y187903D01*
X85169Y188429D01*
X85646Y188906D01*
X86173Y189326D01*
X86743Y189685D01*
X87350Y189977D01*
X87986Y190200D01*
X88643Y190350D01*
X89313Y190425D01*
X89987Y190425D01*
X90657Y190350D01*
X91314Y190200D01*
X91950Y189977D01*
X92557Y189685D01*
X93128Y189326D01*
X93654Y188906D01*
X94131Y188429D01*
X94551Y187903D01*
X94910Y187332D01*
X95202Y186725D01*
X95425Y186089D01*
X95575Y185432D01*
X95650Y184762D01*
X95650Y184088D01*
X43306Y301588D02*
X43231Y300918D01*
X43081Y300261D01*
X42858Y299625D01*
X42566Y299018D01*
X42207Y298448D01*
X41787Y297921D01*
X41311Y297444D01*
X40784Y297024D01*
X40213Y296665D01*
X39606Y296373D01*
X38970Y296150D01*
X38313Y296000D01*
X37643Y295925D01*
X36969Y295925D01*
X36300Y296000D01*
X35643Y296150D01*
X35007Y296373D01*
X34399Y296665D01*
X33829Y297024D01*
X33302Y297444D01*
X32825Y297921D01*
X32405Y298448D01*
X32047Y299018D01*
X31754Y299625D01*
X31532Y300261D01*
X31382Y300918D01*
X31306Y301588D01*
X31306Y302262D01*
X31382Y302932D01*
X31532Y303589D01*
X31754Y304225D01*
X32047Y304832D01*
X32405Y305403D01*
X32825Y305929D01*
X33302Y306406D01*
X33829Y306826D01*
X34399Y307185D01*
X35007Y307477D01*
X35643Y307700D01*
X36300Y307850D01*
X36969Y307925D01*
X37643Y307925D01*
X38313Y307850D01*
X38970Y307700D01*
X39606Y307477D01*
X40213Y307185D01*
X40784Y306826D01*
X41311Y306406D01*
X41787Y305929D01*
X42207Y305403D01*
X42566Y304832D01*
X42858Y304225D01*
X43081Y303589D01*
X43231Y302932D01*
X43306Y302262D01*
X43306Y301588D01*
M02*
