G04 EAGLE Gerber RS-274X export*
G75*
%MOMM*%
%FSLAX34Y34*%
%LPD*%
%INSilkscreen Bottom*%
%IPPOS*%
%AMOC8*
5,1,8,0,0,1.08239X$1,22.5*%
G01*
%ADD10C,0.101600*%


D10*
X40767Y397383D02*
X40767Y409067D01*
X37521Y409067D01*
X37408Y409065D01*
X37295Y409059D01*
X37182Y409049D01*
X37069Y409035D01*
X36957Y409018D01*
X36846Y408996D01*
X36736Y408971D01*
X36626Y408941D01*
X36518Y408908D01*
X36411Y408871D01*
X36305Y408831D01*
X36201Y408786D01*
X36098Y408738D01*
X35997Y408687D01*
X35898Y408632D01*
X35801Y408574D01*
X35706Y408512D01*
X35613Y408447D01*
X35523Y408379D01*
X35435Y408308D01*
X35349Y408233D01*
X35266Y408156D01*
X35186Y408076D01*
X35109Y407993D01*
X35034Y407907D01*
X34963Y407819D01*
X34895Y407729D01*
X34830Y407636D01*
X34768Y407541D01*
X34710Y407444D01*
X34655Y407345D01*
X34604Y407244D01*
X34556Y407141D01*
X34511Y407037D01*
X34471Y406931D01*
X34434Y406824D01*
X34401Y406716D01*
X34371Y406606D01*
X34346Y406496D01*
X34324Y406385D01*
X34307Y406273D01*
X34293Y406160D01*
X34283Y406047D01*
X34277Y405934D01*
X34275Y405821D01*
X34277Y405708D01*
X34283Y405595D01*
X34293Y405482D01*
X34307Y405369D01*
X34324Y405257D01*
X34346Y405146D01*
X34371Y405036D01*
X34401Y404926D01*
X34434Y404818D01*
X34471Y404711D01*
X34511Y404605D01*
X34556Y404501D01*
X34604Y404398D01*
X34655Y404297D01*
X34710Y404198D01*
X34768Y404101D01*
X34830Y404006D01*
X34895Y403913D01*
X34963Y403823D01*
X35034Y403735D01*
X35109Y403649D01*
X35186Y403566D01*
X35266Y403486D01*
X35349Y403409D01*
X35435Y403334D01*
X35523Y403263D01*
X35613Y403195D01*
X35706Y403130D01*
X35801Y403068D01*
X35898Y403010D01*
X35997Y402955D01*
X36098Y402904D01*
X36201Y402856D01*
X36305Y402811D01*
X36411Y402771D01*
X36518Y402734D01*
X36626Y402701D01*
X36736Y402671D01*
X36846Y402646D01*
X36957Y402624D01*
X37069Y402607D01*
X37182Y402593D01*
X37295Y402583D01*
X37408Y402577D01*
X37521Y402575D01*
X37521Y402576D02*
X40767Y402576D01*
X36872Y402576D02*
X34276Y397383D01*
X29411Y397383D02*
X26165Y397383D01*
X26052Y397385D01*
X25939Y397391D01*
X25826Y397401D01*
X25713Y397415D01*
X25601Y397432D01*
X25490Y397454D01*
X25380Y397479D01*
X25270Y397509D01*
X25162Y397542D01*
X25055Y397579D01*
X24949Y397619D01*
X24845Y397664D01*
X24742Y397712D01*
X24641Y397763D01*
X24542Y397818D01*
X24445Y397876D01*
X24350Y397938D01*
X24257Y398003D01*
X24167Y398071D01*
X24079Y398142D01*
X23993Y398217D01*
X23910Y398294D01*
X23830Y398374D01*
X23753Y398457D01*
X23678Y398543D01*
X23607Y398631D01*
X23539Y398721D01*
X23474Y398814D01*
X23412Y398909D01*
X23354Y399006D01*
X23299Y399105D01*
X23248Y399206D01*
X23200Y399309D01*
X23155Y399413D01*
X23115Y399519D01*
X23078Y399626D01*
X23045Y399734D01*
X23015Y399844D01*
X22990Y399954D01*
X22968Y400065D01*
X22951Y400177D01*
X22937Y400290D01*
X22927Y400403D01*
X22921Y400516D01*
X22919Y400629D01*
X22921Y400742D01*
X22927Y400855D01*
X22937Y400968D01*
X22951Y401081D01*
X22968Y401193D01*
X22990Y401304D01*
X23015Y401414D01*
X23045Y401524D01*
X23078Y401632D01*
X23115Y401739D01*
X23155Y401845D01*
X23200Y401949D01*
X23248Y402052D01*
X23299Y402153D01*
X23354Y402252D01*
X23412Y402349D01*
X23474Y402444D01*
X23539Y402537D01*
X23607Y402627D01*
X23678Y402715D01*
X23753Y402801D01*
X23830Y402884D01*
X23910Y402964D01*
X23993Y403041D01*
X24079Y403116D01*
X24167Y403187D01*
X24257Y403255D01*
X24350Y403320D01*
X24445Y403382D01*
X24542Y403440D01*
X24641Y403495D01*
X24742Y403546D01*
X24845Y403594D01*
X24949Y403639D01*
X25055Y403679D01*
X25162Y403716D01*
X25270Y403749D01*
X25380Y403779D01*
X25490Y403804D01*
X25601Y403826D01*
X25713Y403843D01*
X25826Y403857D01*
X25939Y403867D01*
X26052Y403873D01*
X26165Y403875D01*
X25516Y409067D02*
X29411Y409067D01*
X25516Y409067D02*
X25415Y409065D01*
X25315Y409059D01*
X25215Y409049D01*
X25115Y409036D01*
X25016Y409018D01*
X24917Y408997D01*
X24820Y408972D01*
X24723Y408943D01*
X24628Y408910D01*
X24534Y408874D01*
X24442Y408834D01*
X24351Y408791D01*
X24262Y408744D01*
X24175Y408694D01*
X24089Y408640D01*
X24006Y408583D01*
X23926Y408523D01*
X23847Y408460D01*
X23771Y408393D01*
X23698Y408324D01*
X23628Y408252D01*
X23560Y408178D01*
X23495Y408101D01*
X23434Y408021D01*
X23375Y407939D01*
X23320Y407855D01*
X23268Y407769D01*
X23219Y407681D01*
X23174Y407591D01*
X23132Y407499D01*
X23094Y407406D01*
X23060Y407311D01*
X23029Y407216D01*
X23002Y407119D01*
X22979Y407021D01*
X22959Y406922D01*
X22944Y406822D01*
X22932Y406722D01*
X22924Y406622D01*
X22920Y406521D01*
X22920Y406421D01*
X22924Y406320D01*
X22932Y406220D01*
X22944Y406120D01*
X22959Y406020D01*
X22979Y405921D01*
X23002Y405823D01*
X23029Y405726D01*
X23060Y405631D01*
X23094Y405536D01*
X23132Y405443D01*
X23174Y405351D01*
X23219Y405261D01*
X23268Y405173D01*
X23320Y405087D01*
X23375Y405003D01*
X23434Y404921D01*
X23495Y404841D01*
X23560Y404764D01*
X23628Y404690D01*
X23698Y404618D01*
X23771Y404549D01*
X23847Y404482D01*
X23926Y404419D01*
X24006Y404359D01*
X24089Y404302D01*
X24175Y404248D01*
X24262Y404198D01*
X24351Y404151D01*
X24442Y404108D01*
X24534Y404068D01*
X24628Y404032D01*
X24723Y403999D01*
X24820Y403970D01*
X24917Y403945D01*
X25016Y403924D01*
X25115Y403906D01*
X25215Y403893D01*
X25315Y403883D01*
X25415Y403877D01*
X25516Y403875D01*
X25516Y403874D02*
X28112Y403874D01*
X40767Y422783D02*
X40767Y434467D01*
X37521Y434467D01*
X37408Y434465D01*
X37295Y434459D01*
X37182Y434449D01*
X37069Y434435D01*
X36957Y434418D01*
X36846Y434396D01*
X36736Y434371D01*
X36626Y434341D01*
X36518Y434308D01*
X36411Y434271D01*
X36305Y434231D01*
X36201Y434186D01*
X36098Y434138D01*
X35997Y434087D01*
X35898Y434032D01*
X35801Y433974D01*
X35706Y433912D01*
X35613Y433847D01*
X35523Y433779D01*
X35435Y433708D01*
X35349Y433633D01*
X35266Y433556D01*
X35186Y433476D01*
X35109Y433393D01*
X35034Y433307D01*
X34963Y433219D01*
X34895Y433129D01*
X34830Y433036D01*
X34768Y432941D01*
X34710Y432844D01*
X34655Y432745D01*
X34604Y432644D01*
X34556Y432541D01*
X34511Y432437D01*
X34471Y432331D01*
X34434Y432224D01*
X34401Y432116D01*
X34371Y432006D01*
X34346Y431896D01*
X34324Y431785D01*
X34307Y431673D01*
X34293Y431560D01*
X34283Y431447D01*
X34277Y431334D01*
X34275Y431221D01*
X34277Y431108D01*
X34283Y430995D01*
X34293Y430882D01*
X34307Y430769D01*
X34324Y430657D01*
X34346Y430546D01*
X34371Y430436D01*
X34401Y430326D01*
X34434Y430218D01*
X34471Y430111D01*
X34511Y430005D01*
X34556Y429901D01*
X34604Y429798D01*
X34655Y429697D01*
X34710Y429598D01*
X34768Y429501D01*
X34830Y429406D01*
X34895Y429313D01*
X34963Y429223D01*
X35034Y429135D01*
X35109Y429049D01*
X35186Y428966D01*
X35266Y428886D01*
X35349Y428809D01*
X35435Y428734D01*
X35523Y428663D01*
X35613Y428595D01*
X35706Y428530D01*
X35801Y428468D01*
X35898Y428410D01*
X35997Y428355D01*
X36098Y428304D01*
X36201Y428256D01*
X36305Y428211D01*
X36411Y428171D01*
X36518Y428134D01*
X36626Y428101D01*
X36736Y428071D01*
X36846Y428046D01*
X36957Y428024D01*
X37069Y428007D01*
X37182Y427993D01*
X37295Y427983D01*
X37408Y427977D01*
X37521Y427975D01*
X37521Y427976D02*
X40767Y427976D01*
X36872Y427976D02*
X34276Y422783D01*
X29411Y425379D02*
X26814Y434467D01*
X29411Y425379D02*
X22920Y425379D01*
X24867Y427976D02*
X24867Y422783D01*
M02*
