G04 EAGLE Gerber RS-274X export*
G75*
%MOMM*%
%FSLAX34Y34*%
%LPD*%
%INSolderpaste Top*%
%IPPOS*%
%AMOC8*
5,1,8,0,0,1.08239X$1,22.5*%
G01*
%ADD10R,1.300000X1.600000*%
%ADD11R,1.600000X1.300000*%
%ADD12R,1.200000X1.200000*%
%ADD13R,1.500000X1.300000*%
%ADD14R,2.470000X1.880000*%
%ADD15R,1.880000X2.470000*%
%ADD16R,6.600000X1.800000*%
%ADD17R,8.000000X1.800000*%
%ADD18R,4.191000X1.778000*%
%ADD19R,4.191000X2.667000*%
%ADD20R,1.300000X2.000000*%
%ADD21R,2.000000X2.000000*%
%ADD22R,2.400000X1.400000*%
%ADD23R,1.800000X1.500000*%
%ADD24R,0.400000X1.400000*%
%ADD25R,1.300000X1.500000*%


D10*
X298925Y403225D03*
X278925Y403225D03*
X298925Y361950D03*
X278925Y361950D03*
D11*
X639763Y128906D03*
X639763Y148906D03*
D10*
X175100Y38100D03*
X155100Y38100D03*
D11*
X244475Y158431D03*
X244475Y138431D03*
D12*
X403406Y34925D03*
X382406Y34925D03*
D13*
X403225Y79350D03*
X403225Y60350D03*
D14*
X426100Y149075D03*
X426100Y193575D03*
X426100Y238075D03*
X426100Y282575D03*
X426100Y327075D03*
X426100Y371575D03*
X426100Y416075D03*
D15*
X445350Y453825D03*
X491350Y453825D03*
X537350Y453825D03*
X583350Y453825D03*
D14*
X602600Y416075D03*
X602600Y371575D03*
X602600Y327075D03*
X602600Y282575D03*
X602600Y238075D03*
X602600Y193575D03*
X602600Y149075D03*
D16*
X452350Y111325D03*
D17*
X569350Y111325D03*
D18*
X828846Y415925D03*
D19*
X828846Y380979D03*
X828846Y450871D03*
D20*
X135475Y83500D03*
X99475Y83500D03*
D21*
X117475Y43500D03*
D22*
X751375Y415925D03*
X677375Y415925D03*
D11*
X641350Y392431D03*
X641350Y412431D03*
X787400Y392431D03*
X787400Y412431D03*
X393700Y437675D03*
X393700Y457675D03*
D23*
X322590Y466725D03*
X248910Y466725D03*
D24*
X285750Y439725D03*
X292250Y439725D03*
X272750Y439725D03*
X279250Y439725D03*
X298750Y439725D03*
D10*
X133825Y425450D03*
X113825Y425450D03*
X548800Y34925D03*
X568800Y34925D03*
D25*
X523850Y34925D03*
X504850Y34925D03*
D13*
X638175Y239738D03*
X638175Y258738D03*
X638175Y193700D03*
X638175Y212700D03*
M02*
