G04 EAGLE Gerber RS-274X export*
G75*
%MOMM*%
%FSLAX34Y34*%
%LPD*%
%INSoldermask Bottom*%
%IPPOS*%
%AMOC8*
5,1,8,0,0,1.08239X$1,22.5*%
G01*
%ADD10C,3.203200*%
%ADD11C,1.879600*%
%ADD12R,1.503200X1.703200*%
%ADD13R,4.394200X2.870200*%
%ADD14C,1.727200*%
%ADD15C,1.711200*%
%ADD16R,3.053200X3.053200*%
%ADD17C,1.053200*%
%ADD18C,2.387600*%
%ADD19C,1.403200*%
%ADD20C,2.133600*%
%ADD21R,2.203200X2.203200*%
%ADD22C,2.203200*%
%ADD23C,0.959600*%


D10*
X28575Y50800D03*
X809625Y212725D03*
X260350Y276225D03*
D11*
X323850Y311150D03*
X323850Y412750D03*
D12*
X57175Y400050D03*
X76175Y400050D03*
X76175Y425450D03*
X57175Y425450D03*
D13*
X828846Y450871D03*
X828846Y380979D03*
D14*
X498475Y71120D02*
X498475Y55880D01*
X523875Y55880D02*
X523875Y71120D01*
X549275Y71120D02*
X549275Y55880D01*
X574675Y55880D02*
X574675Y71120D01*
X158750Y449580D02*
X158750Y464820D01*
X133350Y464820D02*
X133350Y449580D01*
X107950Y449580D02*
X107950Y464820D01*
X82550Y464820D02*
X82550Y449580D01*
X57150Y449580D02*
X57150Y464820D01*
X31750Y464820D02*
X31750Y449580D01*
D15*
X737000Y184300D03*
X787000Y184300D03*
X737000Y39300D03*
X762000Y39300D03*
X787000Y39300D03*
D16*
X696000Y114300D03*
X828000Y114300D03*
D14*
X810895Y295275D02*
X795655Y295275D01*
X795655Y269875D02*
X810895Y269875D01*
D17*
X304750Y444725D03*
X266750Y444725D03*
D18*
X39650Y184425D03*
X89650Y209425D03*
X89650Y234425D03*
X89650Y159425D03*
X89650Y134425D03*
D19*
X39650Y234425D03*
X14650Y234425D03*
X14650Y134425D03*
X39650Y134425D03*
X89650Y184425D03*
D20*
X62306Y283425D03*
X62306Y320425D03*
X13306Y301925D03*
X82306Y301925D03*
D19*
X37306Y301925D03*
D21*
X209550Y438150D03*
D22*
X209550Y412750D03*
X209550Y361950D03*
X209550Y336550D03*
X209550Y311150D03*
X209550Y285750D03*
X209550Y260350D03*
X209550Y234950D03*
X209550Y209550D03*
X209550Y184150D03*
X209550Y158750D03*
X209550Y133350D03*
X209550Y107950D03*
X209550Y82550D03*
X361950Y82550D03*
X361950Y107950D03*
X361950Y133350D03*
X361950Y158750D03*
X361950Y184150D03*
X361950Y209550D03*
X361950Y285750D03*
X361950Y311150D03*
X361950Y336550D03*
X361950Y361950D03*
X361950Y387350D03*
X361950Y412750D03*
X361950Y438150D03*
D23*
X390525Y173038D03*
X190500Y38100D03*
X95250Y425450D03*
X844550Y444500D03*
X828675Y444500D03*
X812800Y444500D03*
X812800Y387350D03*
X828675Y387350D03*
X844550Y387350D03*
X787400Y378619D03*
X641350Y378619D03*
X790575Y438150D03*
X752475Y438150D03*
X682625Y438150D03*
X714375Y415925D03*
X714375Y438150D03*
X641350Y438150D03*
X603250Y438150D03*
X577850Y415925D03*
X577850Y393700D03*
X609600Y393700D03*
X682625Y393700D03*
X714375Y393700D03*
X752475Y393700D03*
X393700Y423863D03*
X273050Y420688D03*
X257175Y430213D03*
X244475Y124619D03*
X582613Y34925D03*
X114300Y92869D03*
X474663Y454025D03*
X508000Y454025D03*
X520700Y454025D03*
X554038Y454025D03*
X520700Y438944D03*
X474663Y438944D03*
X537369Y473075D03*
X491331Y473075D03*
X474663Y473075D03*
X508000Y473075D03*
X508000Y438944D03*
X520700Y473075D03*
X554038Y473075D03*
X554038Y438944D03*
X34925Y377825D03*
X165100Y317500D03*
X165100Y241300D03*
X165100Y180975D03*
X165100Y111125D03*
X320675Y177800D03*
X320675Y104775D03*
X365125Y57150D03*
X660400Y222250D03*
X720725Y222250D03*
X666750Y57150D03*
X546100Y142875D03*
X546100Y212725D03*
X542925Y231775D03*
X546100Y285750D03*
X546100Y336550D03*
X565150Y368300D03*
X457200Y415925D03*
X457200Y371475D03*
X460375Y285750D03*
X454025Y142875D03*
X454025Y73025D03*
X660400Y168275D03*
X85725Y38100D03*
X215900Y49213D03*
X347663Y24606D03*
X454025Y209550D03*
X244475Y200819D03*
X165100Y365125D03*
X390525Y285750D03*
X320675Y219075D03*
X265113Y361950D03*
X482600Y216694D03*
X482600Y140494D03*
X233363Y292100D03*
X280988Y257175D03*
X639763Y80169D03*
X63500Y28575D03*
X111125Y381000D03*
X454025Y184150D03*
X523875Y184150D03*
M02*
