M48
;GenerationSoftware,Autodesk,EAGLE,9.6.2*%
;CreationDate,2021-04-15T11:50:28Z*%
FMAT,2
ICI,OFF
METRIC,TZ,000.000
T5C0.350
T4C1.016
T3C1.321
T2C3.000
T1C4.000
%
G90
M71
T1
X26332Y76105
X86333Y76105
T2
X115000Y5000
X5000Y5000
X5000Y80000
X115000Y80000
T3
X63792Y9525
X58788Y9525
X6350Y20028
X6350Y25032
T4
X116205Y22542
X14287Y64770
X14287Y67310
X81598Y21273
X81598Y23812
X49212Y38735
X49212Y41275
X51435Y56515
X51435Y53975
X116205Y49212
X116205Y51752
X2223Y40005
X2223Y37465
X2223Y34925
X97790Y72390
X95250Y72390
X53975Y63817
X51435Y63817
X48895Y63817
X116205Y20003
T5
X100965Y51435
X95250Y52070
X95250Y50165
X99377Y65723
X102552Y65723
X102235Y47942
X100012Y47942
X83185Y50482
X83185Y46672
X81598Y48577
X83185Y35243
X83185Y38735
X81598Y37148
X95250Y47942
X95567Y25082
X92075Y25527
X93599Y18669
X87630Y28384
X90805Y28384
X89217Y28384
X89408Y21971
X83185Y19495
X89281Y19812
X91757Y15240
X87249Y11557
X75819Y15684
X75502Y12192
X72009Y21400
X72009Y15684
X72009Y12192
X80264Y3619
X78359Y5207
X76772Y10922
X76454Y17590
X83185Y17272
X84773Y17272
X85408Y6477
X89535Y6477
X89535Y5207
X85408Y5207
X87630Y6477
X87630Y5207
X86360Y889
X93027Y889
X103187Y7239
X97155Y18669
X96837Y10160
X98425Y11747
X94297Y8573
X94932Y11747
X88011Y17399
X100012Y5651
X93662Y5651
X81915Y83439
X84455Y83439
X89217Y83439
X86995Y83439
X825Y59372
X2413Y59372
X4000Y59372
X825Y53657
X2413Y53657
X4000Y53657
X81915Y81534
X84455Y81534
X89217Y81534
X86995Y81534
X81915Y79629
X84455Y79629
X89217Y79629
X86995Y79629
X81915Y77724
X89217Y77724
X81915Y75819
X89217Y75819
X89217Y73914
X81915Y73914
X81915Y72009
X84455Y72009
X89217Y72009
X86995Y72009
X81915Y70104
X84455Y70104
X89217Y70104
X86995Y70104
X81915Y68199
X84455Y68199
X89217Y68199
X86995Y68199
X81915Y66612
X84455Y66612
X86995Y66612
X89217Y66612
X23495Y83439
X26035Y83439
X30797Y83439
X28575Y83439
X23495Y81534
X26035Y81534
X30797Y81534
X28575Y81534
X23495Y79629
X26035Y79629
X30797Y79629
X28575Y79629
X23495Y77724
X30797Y77724
X23495Y75819
X30797Y75819
X30797Y73914
X23495Y73914
X23495Y72009
X26035Y72009
X30797Y72009
X28575Y72009
X23495Y70104
X26035Y70104
X30797Y70104
X28575Y70104
X23495Y68199
X26035Y68199
X30797Y68199
X28575Y68199
X23495Y66612
X26035Y66612
X28575Y66612
X30797Y66612
X80645Y53657
X80645Y50800
X80645Y47625
X80645Y44767
X80645Y41275
X80645Y38418
X80645Y34608
X80645Y31750
X83185Y33338
X88582Y33338
X91757Y33338
X94932Y33338
X109855Y36830
X100012Y31750
X43815Y50165
X48260Y50165
X46037Y52387
X46037Y47942
X58737Y50165
X56515Y52705
X75248Y48577
X78105Y46672
X72073Y46672
X75184Y44958
X59626Y39243
X52324Y33211
X49149Y33211
X53911Y19241
X57721Y19241
X50736Y24638
X47561Y21146
X50736Y21146
X49149Y18606
X35497Y18606
X35497Y22415
X40259Y20511
X36005Y6540
X38227Y6540
X40386Y6540
X44704Y6540
X42482Y6540
X36005Y8446
X38227Y8446
X40386Y8446
X44704Y8446
X42482Y8446
X36005Y10351
X38227Y10351
X40386Y10351
X44704Y10351
X42482Y10351
X36005Y12255
X38227Y12255
X40386Y12255
X44704Y12255
X42482Y12255
X33147Y17971
X29019Y17971
X29019Y21463
X32830Y21463
X24892Y11303
X24892Y13843
X29337Y11303
X29019Y15748
X33147Y15748
X48704Y15748
X53657Y50165
X59055Y53975
X42863Y53975
X59055Y64135
X59055Y60642
X59055Y57467
X46037Y63817
X42545Y63817
X16256Y44132
X16319Y40958
X16319Y38291
X14414Y37656
X14414Y35751
X4255Y49085
X7747Y49085
X14732Y49085
X23939Y49085
X28067Y63373
X26479Y63373
X27432Y60198
X21082Y59880
X29210Y53657
X30797Y55118
X27432Y55118
X952Y46672
X3810Y46672
X9525Y46672
X14732Y46863
X20638Y46672
X25717Y46672
X29210Y46672
X34290Y46672
X37465Y46672
X36830Y53975
X36830Y51117
X7747Y50673
X14922Y54165
X9525Y54483
X23812Y54800
X23876Y51562
X14922Y51181
X21907Y56388
X89852Y9525
X87376Y10160
X78804Y10160
X78486Y6985
X84519Y8573
X83757Y11557
X26924Y52260
X59118Y42291
X72073Y32702
X73978Y32702
X61912Y36195
X66040Y36195
X70168Y36195
X59055Y30480
X58420Y28448
X73152Y28448
X24257Y35116
X24257Y39561
X14414Y32258
X97472Y889
X101917Y889
X80582Y1714
X83185Y889
X103187Y5017
X77788Y3429
X76200Y1524
X73343Y889
X16192Y6921
X16192Y4382
X17145Y2477
X19050Y1207
X22225Y889
X69215Y889
X73660Y7239
X73343Y5017
X69215Y5017
X65405Y5017
X62230Y5017
X58420Y5017
X54292Y5017
X50800Y5017
X47307Y5017
X43815Y5017
X40323Y5017
X36513Y5017
X32385Y5017
X28575Y5017
X25400Y5017
X16192Y9462
X20638Y9462
X21590Y5651
X20511Y44132
X20511Y40005
X20511Y25400
X20511Y22225
X24638Y25400
X24638Y22225
X16319Y32385
X16319Y29527
X16319Y26352
X16319Y17145
X16319Y20320
X16319Y23495
X36957Y60325
X36957Y58420
X36957Y56197
X36957Y63817
X33782Y63817
X33782Y60325
X33782Y58420
X33782Y56197
X65405Y889
X62230Y889
X58420Y889
X54292Y889
X50800Y889
X47307Y889
X43815Y889
X40323Y889
X36513Y889
X32385Y889
X28575Y889
X25400Y889
X74295Y64135
X74295Y60642
X74295Y57150
X74295Y53657
X72073Y48577
X78105Y48577
X78042Y44958
X72009Y44958
X73978Y35560
X73978Y41910
X73978Y38735
X77788Y41910
X77788Y38735
X77788Y35560
X77788Y32702
X47625Y61912
X44767Y61912
X44767Y57785
X47625Y57785
X41910Y59055
X48514Y31623
X52959Y31623
X50736Y31623
X53911Y22098
X57721Y22098
X53911Y16065
X57721Y16065
X53276Y24638
X56451Y24638
X59944Y24638
X59055Y36195
X59055Y33338
X118745Y57785
X72009Y18542
X72009Y25527
X78042Y25527
X78042Y21400
X75184Y25527
X75184Y21400
X93027Y45720
X100330Y43180
X94615Y67945
X113665Y9462
X106045Y15494
X103505Y17399
X103505Y14541
X99695Y28257
X99695Y25082
X99695Y22542
X99695Y20003
X102552Y27940
X108585Y27940
X97155Y22542
X105727Y5334
X107632Y1207
X109537Y3111
X110172Y5969
X110172Y8509
X113665Y12636
X115570Y13271
X113347Y16764
X115252Y16447
X115887Y14859
X108458Y26035
X108458Y23812
X108458Y21273
X104140Y23812
X104140Y21273
X106362Y27940
X86995Y54292
X90170Y54292
X83820Y54292
X86995Y42863
X83185Y41593
X83503Y57467
X90805Y57467
X90805Y50800
X90805Y47942
X90805Y44767
X95250Y42545
X96202Y40323
X102235Y40323
X102870Y33338
X98107Y33338
X102235Y43180
X110490Y61277
X113982Y61277
X104140Y67628
X106680Y69215
X109537Y69533
X112077Y69533
X114617Y69215
X110490Y40958
X109855Y32385
X111125Y38735
X60007Y28448
X10160Y13271
X10160Y10097
X10160Y16447
X6350Y58610
X105727Y9779
X110680Y20638
X110172Y17463
X118110Y44767
X117157Y41593
X53657Y52705
X82868Y64770
X86995Y64770
X75883Y43498
X75883Y32702
X108585Y29972
X118237Y29972
X82550Y2857
X113665Y14795
X75565Y6032
X18415Y48895
X86678Y25400
X77470Y16002
X8128Y35878
X11747Y42228
X22225Y61912
X46355Y59690
X11747Y26035
X32385Y56832
X22225Y35243
X26352Y33655
X101282Y17145
X101473Y44450
X115570Y37148
X118745Y55245
X113982Y56197
X111760Y56197
X111760Y54292
X111760Y52387
X111760Y50482
X111760Y48577
X111760Y46355
X110490Y59372
X112712Y59372
X114935Y59372
X118745Y59372
X116840Y59372
X119253Y62547
X116078Y62547
X117665Y62547
X116078Y68263
X117665Y68263
X119253Y68263
X95885Y64770
X91757Y63182
X93345Y61277
X91757Y59372
X100965Y62547
X100965Y60642
X100965Y58737
X100965Y56832
X100965Y54927
X100965Y53340
X111125Y34608
M30