M48
;GenerationSoftware,Autodesk,EAGLE,9.4.2*%
;CreationDate,2021-02-24T18:53:09Z*%
FMAT,2
ICI,OFF
METRIC,TZ,000.000
T10C0.350
T9C0.850
T8C1.000
T7C1.016
T6C1.100
T5C1.118
T4C1.200
T3C1.300
T2C1.900
T1C3.000
%
G90
M71
T1
X26035Y27622
X2857Y5080
X80963Y21273
T2
X69600Y11430
X82800Y11430
T3
X8965Y15942
X8965Y23442
X8965Y20943
X3965Y18443
X8965Y13442
T4
X3965Y23442
X1465Y23442
X1465Y13442
X3965Y13442
X8965Y18443
X3731Y30192
T5
X32385Y31115
X32385Y41275
T6
X8231Y30192
X6231Y28342
X6231Y32042
T7
X8255Y45720
X5715Y45720
X3175Y45720
X52387Y6350
X80328Y29527
X49847Y6350
X80328Y26987
X57467Y6350
X15875Y45720
X13335Y45720
X10795Y45720
X54927Y6350
T8
X78700Y3930
X73700Y3930
X20955Y23495
X73700Y18430
X78700Y18430
X1331Y30192
X76200Y3930
X20955Y43815
X20955Y41275
X20955Y36195
X20955Y33655
X20955Y31115
X20955Y28575
X20955Y26035
X20955Y20955
X20955Y18415
X20955Y15875
X20955Y13335
X20955Y10795
X20955Y8255
X36195Y8255
X36195Y10795
X36195Y13335
X36195Y15875
X36195Y18415
X36195Y20955
X36195Y28575
X36195Y31115
X36195Y33655
X36195Y36195
X36195Y38735
X36195Y41275
X36195Y43815
T9
X30475Y44472
X26675Y44472
T10
X21590Y4921
X34766Y2461
X45402Y20955
X24447Y20082
X16510Y36513
X39053Y28575
X32067Y21907
X26511Y36195
X57785Y39370
X48260Y14049
X23336Y29210
X28099Y25717
X63976Y8017
X6350Y2857
X11112Y38100
X45402Y18415
X52387Y18415
X39053Y17304
X19050Y3810
X9525Y42545
X84455Y44450
X82868Y44450
X81280Y44450
X81280Y38735
X82868Y38735
X84455Y38735
X78740Y37862
X48260Y21669
X64135Y37862
X79058Y43815
X75248Y43815
X68263Y43815
X71438Y41593
X71438Y43815
X64135Y43815
X60325Y43815
X57785Y41593
X60960Y39370
X68263Y39370
X71438Y39370
X75248Y39370
X39370Y42386
X27305Y42069
X25717Y43021
X24447Y12462
X58261Y3492
X11430Y9287
X47466Y45402
X50800Y45402
X52070Y45402
X55404Y45402
X52070Y43894
X47466Y43894
X53737Y47307
X49133Y47307
X47466Y47307
X50800Y47307
X50800Y43894
X52070Y47307
X55404Y47307
X55404Y43894
X3492Y37783
X16510Y31750
X16510Y24130
X16510Y18098
X54292Y23177
X16510Y11112
X32067Y17780
X32067Y10478
X36513Y5715
X66040Y22225
X72073Y22225
X66675Y5715
X54610Y14287
X54610Y21273
X54610Y28575
X54610Y33655
X56515Y36830
X45720Y41593
X45720Y37148
X46037Y28575
X45402Y14287
X45402Y7302
X66040Y16828
X8573Y3810
M30